<svg width="41" height="40" viewBox="0 0 41 40" fill="none" xmlns="http://www.w3.org/2000/svg">
<g clip-path="url(#clip0_2647_18666)">
<path d="M32.1667 3.33398H8.83333C6.98333 3.33398 5.5 4.83398 5.5 6.66732V30.0007C5.5 31.834 7 33.334 8.83333 33.334H15.5L19.3167 37.1507C19.9667 37.8007 21.0167 37.8007 21.6667 37.1507L25.5 33.334H32.1667C34 33.334 35.5 31.834 35.5 30.0007V6.66732C35.5 4.83398 34 3.33398 32.1667 3.33398ZM22.1667 30.0007H18.8333V26.6673H22.1667V30.0007ZM25.6167 17.084L24.1167 18.6173C23.15 19.6007 22.4667 20.4507 22.25 22.0507C22.15 22.7673 21.5667 23.3173 20.8333 23.3173H20.3167C19.45 23.3173 18.7833 22.5507 18.9 21.684C19.0833 20.1673 19.7833 18.8173 20.8 17.784L22.8667 15.684C23.4667 15.084 23.8333 14.2507 23.8333 13.334C23.8333 11.5007 22.3333 10.0007 20.5 10.0007C19.05 10.0007 17.8 10.9507 17.35 12.2507C17.1333 12.8673 16.6167 13.3173 15.9667 13.3173H15.4667C14.5 13.3173 13.8333 12.384 14.1 11.4507C14.9167 8.68398 17.4667 6.66732 20.5 6.66732C24.1833 6.66732 27.1667 9.65065 27.1667 13.334C27.1667 14.8007 26.5667 16.134 25.6167 17.084Z" fill="#0065B3"/>
</g>
<defs>
<clipPath id="clip0_2647_18666">
<rect width="40" height="40" fill="white" transform="translate(0.5)"/>
</clipPath>
</defs>
</svg>
