
<svg version="1.0" xmlns="http://www.w3.org/2000/svg"
 width="45.000000pt" height="51.000000pt" viewBox="0 0 45.000000 51.000000"
 preserveAspectRatio="xMidYMid meet">

<g transform="translate(0.000000,51.000000) scale(0.100000,-0.100000)"
fill="#000000" stroke="none">
<path d="M30 318 c0 -126 4 -160 19 -193 69 -152 272 -155 349 -5 20 40 22 58
22 197 l0 153 -195 0 -195 0 0 -152z m124 114 c7 -12 -59 -146 -84 -167 -20
-17 -22 -17 -17 -3 3 9 11 36 17 60 6 24 17 48 23 53 7 6 18 22 24 38 12 26
27 35 37 19z m142 -78 c-1 -55 -15 -79 -32 -53 -4 7 -3 9 4 5 6 -3 13 -2 17 4
3 5 -1 10 -9 10 -8 0 -14 8 -13 19 0 10 7 17 13 14 8 -3 11 3 9 14 -2 10 -4
22 -4 26 -1 5 -5 6 -10 3 -5 -4 -7 3 -4 14 11 40 30 2 29 -56z m-106 35 c0 -6
-4 -7 -10 -4 -5 3 -10 11 -10 16 0 6 5 7 10 4 6 -3 10 -11 10 -16z m179 -6
c-13 -15 -12 -16 6 -9 16 6 18 5 8 -5 -20 -20 -41 5 -23 26 7 8 15 13 18 10 3
-2 -1 -12 -9 -22z m-150 -23 c11 -24 11 -24 -3 -6 -9 11 -16 24 -16 30 0 12 5
7 19 -24z m141 -25 c-5 -6 -7 -15 -3 -18 3 -4 1 -7 -6 -7 -7 0 -10 -4 -6 -9 8
-14 -15 -25 -27 -13 -15 15 18 73 37 65 11 -4 13 -9 5 -18z m-128 -45 c5 0 6
10 3 23 -5 17 -4 19 4 7 15 -21 13 -40 -4 -40 -14 0 -36 30 -34 47 0 4 5 -2
11 -14 6 -13 15 -23 20 -23z m-45 -24 c-4 -9 -13 -13 -21 -10 -12 5 -13 10 -5
26 13 24 35 9 26 -16z m196 -12 c-3 -8 -9 -14 -13 -14 -13 0 -22 19 -15 30 9
14 34 0 28 -16z m-32 -32 c4 -4 10 -22 14 -39 7 -36 -3 -41 -49 -23 l-26 10 0
-65 c0 -52 -3 -65 -15 -65 -26 0 -78 25 -112 54 -33 28 -93 112 -93 131 0 12
269 9 281 -3z"/>
<path d="M332 325 c-17 -37 -14 -45 4 -12 9 16 14 31 11 33 -2 2 -9 -7 -15
-21z"/>
</g>
</svg>
