<svg width="963" height="383" viewBox="0 0 963 383" fill="none" xmlns="http://www.w3.org/2000/svg">
<g clip-path="url(#clip0_1356_20476)">
<rect width="962.047" height="383" fill="white"/>
<g clip-path="url(#clip1_1356_20476)">
<rect width="964" height="445" transform="translate(-3 -2)" fill="#EEEEEE"/>
<path d="M961 -2H-4.1875V443H961V-2Z" fill="url(#paint0_linear_1356_20476)"/>
<path d="M1107.2 -50.6533H289.41V443H1107.2V-50.6533Z" fill="url(#paint1_radial_1356_20476)" fill-opacity="0.7"/>
<path d="M1012.11 -100.493H89.7168V456.054H1012.11V-100.493Z" fill="url(#paint2_radial_1356_20476)"/>
<path opacity="0.5" d="M-53.5527 -27.1216V207.933C-25.5837 185.553 8.60199 169.628 43.275 159.861C105.085 142.453 170.176 141.373 234.102 134.882C262.724 131.987 291.525 127.893 318.377 117.581C345.229 107.268 370.238 90.1448 385.489 65.7944C402.712 38.2875 405.779 5.27441 410.902 -27.1216H-53.5527Z" fill="url(#paint3_linear_1356_20476)"/>
<path style="mix-blend-mode:overlay" opacity="0.6" d="M737.152 189.053C748.361 202.747 750.739 183.179 765.68 173.627C794.731 154.889 839.721 141.492 872.897 131.725C902.982 122.873 935.527 129.091 965.077 139.581C994.627 150.071 1022.66 164.715 1052.79 173.401C1108.39 189.421 1169.85 183.179 1221.65 157.595L1239.93 -144.625C1224.57 -149.016 1209.14 -153.075 1193.57 -155.246C1139.25 -162.865 1081.96 -146.133 1040.31 -110.497C1011.95 -86.2533 991.251 -54.4862 965.647 -27.3709C937.773 2.08453 904.336 25.7422 867.262 42.2389C827.276 60.0389 781.204 70.7901 753.342 104.503C738.583 122.511 730.733 145.178 731.197 168.441C731.364 175.727 732.54 183.417 737.152 189.053Z" fill="url(#paint4_linear_1356_20476)"/>
<path style="mix-blend-mode:overlay" opacity="0.6" d="M713.19 187.499C699.401 167.076 571.217 164.822 549.75 180.996C513.674 208.194 408.478 228.071 352.124 217.106C301.012 207.162 250.589 180.854 206.312 152.219C162.034 123.585 121.454 91.7467 75.6787 64.5364C-8.81082 14.2811 -109.561 -17.6877 -200.755 -24.6416L-323.424 261.345C-300.079 275.194 -276.52 288.745 -252.212 300.505C-167.199 341.694 -69.9077 360.764 8.10373 351.532C61.189 345.278 104.23 326.825 153.785 316.027C207.5 304.338 268.966 301.787 333.474 308.551C403.272 315.872 510.583 305.359 565.808 289.457C594.895 281.091 710.194 234.467 716.423 211.469C718.396 204.195 718.883 195.912 713.19 187.499Z" fill="url(#paint5_linear_1356_20476)"/>
<path d="M-166.949 692.568L1055.56 569.974L1002.42 169.64C983.823 174.778 954.724 185.173 926.434 207.85C881.99 243.45 885.224 272.785 841.077 305.252C801.115 334.634 758.573 339.95 741.943 341.837C699.306 346.667 678.422 335.619 635.725 327.81C520.426 306.735 441.879 333.305 401.846 347.284C355.631 363.494 328.755 377.591 281.09 399.9C246.156 416.265 181.517 433.792 124.616 439.725C85.1881 443.831 18.1837 452.778 -44.1731 439.488C-41.154 495.688 -33.8318 506.25 -30.8127 562.45L-166.949 692.568Z" fill="url(#paint6_linear_1356_20476)"/>
<path d="M1237.01 -207.139H486.18V246.345H1237.01V-207.139Z" fill="url(#paint7_radial_1356_20476)" fill-opacity="0.7"/>
<path d="M873.694 -223.218H73.8008V259.909H873.694V-223.218Z" fill="url(#paint8_radial_1356_20476)" fill-opacity="0.7"/>
<path d="M998.134 582.35L1038.68 196.328C1013.29 194.583 987.186 201.502 965.137 214.531C935.742 231.916 913.169 259.316 897.491 289.623C886.579 310.71 878.555 333.649 863.543 352.042C828.359 395.166 765.17 402.048 709.671 397.23C654.173 392.412 604 384.438 543.747 395.154C452.863 411.316 384.681 462.734 343.031 495.534C328.767 506.724 301.785 516.538 292.965 532.32L998.134 582.35Z" fill="url(#paint9_linear_1356_20476)"/>
<g clip-path="url(#clip2_1356_20476)">
<path opacity="0.6" d="M452.537 373.817C452.537 373.378 452.667 372.949 452.911 372.584C453.155 372.219 453.502 371.935 453.908 371.767C454.313 371.599 454.76 371.555 455.19 371.641C455.621 371.726 456.016 371.938 456.327 372.248C456.637 372.558 456.849 372.954 456.935 373.384C457.02 373.815 456.976 374.261 456.808 374.666C456.64 375.072 456.356 375.418 455.991 375.662C455.625 375.906 455.196 376.036 454.757 376.036C454.168 376.036 453.604 375.802 453.187 375.386C452.771 374.97 452.537 374.406 452.537 373.817Z" fill="#139DD7"/>
<path opacity="0.6" d="M802.142 373.592C803.368 373.592 804.362 372.598 804.362 371.373C804.362 370.147 803.368 369.154 802.142 369.154C800.916 369.154 799.922 370.147 799.922 371.373C799.922 372.598 800.916 373.592 802.142 373.592Z" fill="#139DD7"/>
<path opacity="0.6" d="M409.383 258.663C409.38 258.221 409.509 257.789 409.753 257.421C409.997 257.052 410.345 256.764 410.752 256.594C411.16 256.423 411.609 256.377 412.043 256.462C412.477 256.547 412.875 256.758 413.189 257.07C413.502 257.381 413.716 257.779 413.803 258.212C413.89 258.645 413.847 259.094 413.678 259.502C413.509 259.911 413.223 260.26 412.856 260.505C412.489 260.751 412.057 260.882 411.615 260.882C411.025 260.882 410.459 260.649 410.041 260.233C409.623 259.817 409.386 259.253 409.383 258.663Z" fill="#139DD7"/>
<path opacity="0.6" d="M507.018 289.778C507.018 289.337 507.148 288.905 507.394 288.538C507.639 288.171 507.988 287.886 508.395 287.717C508.803 287.548 509.252 287.504 509.685 287.59C510.118 287.676 510.516 287.888 510.828 288.2C511.14 288.512 511.352 288.91 511.439 289.343C511.525 289.775 511.48 290.224 511.312 290.632C511.143 291.039 510.857 291.388 510.489 291.633C510.122 291.878 509.691 292.009 509.25 292.009C508.658 292.009 508.09 291.774 507.671 291.355C507.253 290.937 507.018 290.369 507.018 289.778Z" fill="#139DD7"/>
<path opacity="0.6" d="M414.951 160.846C414.951 160.408 415.081 159.979 415.325 159.614C415.569 159.249 415.916 158.964 416.322 158.796C416.727 158.628 417.174 158.584 417.604 158.67C418.035 158.756 418.431 158.967 418.741 159.277C419.052 159.588 419.263 159.983 419.349 160.414C419.434 160.844 419.39 161.29 419.222 161.696C419.054 162.101 418.77 162.448 418.405 162.692C418.04 162.935 417.61 163.066 417.171 163.066C416.88 163.066 416.591 163.008 416.322 162.897C416.052 162.785 415.808 162.622 415.601 162.416C415.395 162.21 415.232 161.965 415.12 161.696C415.009 161.426 414.951 161.138 414.951 160.846Z" fill="#139DD7"/>
<path opacity="0.6" d="M198.775 381.816C198.773 381.373 198.902 380.94 199.147 380.572C199.391 380.203 199.739 379.915 200.148 379.745C200.556 379.575 201.006 379.529 201.44 379.615C201.874 379.701 202.273 379.913 202.586 380.226C202.898 380.539 203.111 380.938 203.197 381.371C203.283 381.805 203.237 382.255 203.067 382.663C202.897 383.071 202.609 383.419 202.24 383.664C201.871 383.908 201.438 384.037 200.995 384.035C200.407 384.035 199.842 383.801 199.426 383.385C199.009 382.969 198.775 382.404 198.775 381.816Z" fill="#139DD7"/>
<path opacity="0.6" d="M517.81 340.911C519.036 340.911 520.03 339.918 520.03 338.692C520.03 337.467 519.036 336.473 517.81 336.473C516.584 336.473 515.59 337.467 515.59 338.692C515.59 339.918 516.584 340.911 517.81 340.911Z" fill="#139DD7"/>
<path opacity="0.6" d="M493.449 202.19C494.675 202.19 495.669 201.196 495.669 199.971C495.669 198.745 494.675 197.751 493.449 197.751C492.222 197.751 491.229 198.745 491.229 199.971C491.229 201.196 492.222 202.19 493.449 202.19Z" fill="#139DD7"/>
<path opacity="0.6" d="M130.274 30.1351C130.284 29.6955 130.423 29.2685 130.674 28.9076C130.925 28.5468 131.278 28.2683 131.687 28.1071C132.096 27.9458 132.544 27.9091 132.974 28.0014C133.404 28.0937 133.798 28.311 134.105 28.626C134.411 28.941 134.618 29.3396 134.699 29.7718C134.78 30.204 134.732 30.6505 134.56 31.0551C134.388 31.4598 134.1 31.8046 133.732 32.0463C133.365 32.288 132.934 32.4157 132.494 32.4135C132.198 32.4136 131.904 32.3543 131.631 32.2391C131.357 32.1239 131.11 31.9551 130.903 31.7427C130.696 31.5303 130.534 31.2786 130.426 31.0025C130.318 30.7264 130.266 30.4315 130.274 30.1351Z" fill="#139DD7"/>
<path opacity="0.6" d="M237.465 147.52C237.463 147.078 237.591 146.646 237.835 146.277C238.079 145.909 238.427 145.621 238.834 145.451C239.242 145.28 239.691 145.234 240.125 145.319C240.559 145.404 240.957 145.615 241.271 145.927C241.584 146.238 241.798 146.636 241.885 147.069C241.972 147.502 241.929 147.951 241.76 148.359C241.591 148.768 241.305 149.117 240.938 149.362C240.571 149.608 240.139 149.739 239.697 149.739C239.107 149.739 238.541 149.506 238.123 149.09C237.705 148.674 237.468 148.11 237.465 147.52Z" fill="#139DD7"/>
<path opacity="0.6" d="M199.666 296.898C199.666 296.459 199.796 296.03 200.04 295.665C200.284 295.3 200.631 295.016 201.036 294.848C201.442 294.68 201.889 294.636 202.319 294.721C202.75 294.807 203.145 295.018 203.456 295.329C203.766 295.639 203.978 296.034 204.063 296.465C204.149 296.895 204.105 297.341 203.937 297.747C203.769 298.152 203.485 298.499 203.119 298.743C202.754 298.987 202.325 299.117 201.886 299.117C201.595 299.117 201.306 299.059 201.036 298.948C200.767 298.836 200.522 298.673 200.316 298.467C200.11 298.261 199.947 298.016 199.835 297.747C199.723 297.478 199.666 297.189 199.666 296.898Z" fill="#139DD7"/>
<path opacity="0.6" d="M703.284 364.253C705.251 364.253 706.846 362.659 706.846 360.693C706.846 358.727 705.251 357.133 703.284 357.133C701.317 357.133 699.723 358.727 699.723 360.693C699.723 362.659 701.317 364.253 703.284 364.253Z" fill="#F9FAFD"/>
<path opacity="0.6" d="M563.064 241.765C563.064 241.061 563.273 240.373 563.665 239.787C564.056 239.202 564.612 238.746 565.263 238.476C565.914 238.207 566.63 238.136 567.321 238.273C568.012 238.411 568.646 238.75 569.144 239.248C569.643 239.746 569.982 240.38 570.119 241.071C570.257 241.761 570.186 242.477 569.916 243.127C569.647 243.778 569.19 244.334 568.605 244.725C568.019 245.116 567.33 245.325 566.626 245.325C565.681 245.325 564.776 244.95 564.108 244.282C563.44 243.615 563.064 242.709 563.064 241.765Z" fill="#F9FAFD"/>
<path opacity="0.6" d="M147.18 129.281C147.18 128.577 147.389 127.888 147.78 127.303C148.171 126.717 148.728 126.261 149.378 125.992C150.029 125.722 150.745 125.652 151.436 125.789C152.127 125.926 152.762 126.266 153.26 126.763C153.758 127.261 154.097 127.896 154.234 128.586C154.372 129.277 154.301 129.993 154.032 130.643C153.762 131.294 153.306 131.85 152.72 132.241C152.134 132.632 151.446 132.841 150.741 132.841C149.797 132.841 148.891 132.466 148.223 131.798C147.555 131.13 147.18 130.225 147.18 129.281Z" fill="#F9FAFD"/>
<path opacity="0.6" d="M698.286 238.217C700.253 238.217 701.848 236.623 701.848 234.657C701.848 232.691 700.253 231.097 698.286 231.097C696.319 231.097 694.725 232.691 694.725 234.657C694.725 236.623 696.319 238.217 698.286 238.217Z" fill="#F9FAFD"/>
<path opacity="0.6" d="M299.746 301.561C299.746 300.857 299.955 300.169 300.346 299.583C300.738 298.998 301.294 298.541 301.945 298.272C302.595 298.003 303.312 297.932 304.003 298.069C304.693 298.207 305.328 298.546 305.826 299.044C306.324 299.542 306.663 300.176 306.801 300.866C306.938 301.557 306.868 302.273 306.598 302.923C306.329 303.574 305.872 304.13 305.286 304.521C304.701 304.912 304.012 305.121 303.308 305.121C302.363 305.121 301.457 304.746 300.789 304.078C300.121 303.411 299.746 302.505 299.746 301.561Z" fill="#F9FAFD"/>
<path opacity="0.6" d="M-0.947266 313.796C-0.947266 313.092 -0.738383 312.403 -0.347032 311.818C0.0443193 311.233 0.600562 310.776 1.25135 310.507C1.90215 310.237 2.61826 310.167 3.30914 310.304C4.00002 310.442 4.63463 310.781 5.13273 311.279C5.63082 311.776 5.97003 312.411 6.10745 313.101C6.24488 313.792 6.17435 314.508 5.90478 315.158C5.63521 315.809 5.17872 316.365 4.59302 316.756C4.00732 317.147 3.31872 317.356 2.61431 317.356C1.66972 317.356 0.763821 316.981 0.0958961 316.313C-0.572029 315.646 -0.947266 314.74 -0.947266 313.796Z" fill="#F9FAFD"/>
<path opacity="0.6" d="M941.744 322.256C941.742 321.815 941.871 321.382 942.115 321.014C942.358 320.645 942.706 320.358 943.114 320.187C943.521 320.016 943.97 319.97 944.404 320.055C944.838 320.14 945.237 320.351 945.55 320.663C945.863 320.974 946.077 321.372 946.164 321.805C946.251 322.238 946.208 322.687 946.039 323.096C945.871 323.504 945.585 323.853 945.217 324.099C944.85 324.344 944.418 324.476 943.976 324.476C943.386 324.476 942.82 324.242 942.402 323.826C941.984 323.411 941.747 322.846 941.744 322.256Z" fill="#139DD7"/>
<path opacity="0.6" d="M898.602 207.103C898.602 206.661 898.732 206.23 898.978 205.863C899.223 205.496 899.571 205.21 899.979 205.041C900.387 204.873 900.836 204.828 901.269 204.914C901.702 205.001 902.1 205.213 902.412 205.525C902.724 205.837 902.936 206.235 903.023 206.667C903.109 207.1 903.064 207.549 902.895 207.956C902.727 208.364 902.441 208.712 902.074 208.957C901.706 209.203 901.275 209.333 900.833 209.333C900.242 209.333 899.674 209.098 899.255 208.68C898.837 208.262 898.602 207.694 898.602 207.103Z" fill="#139DD7"/>
<path opacity="0.6" d="M904.17 109.298C904.17 108.859 904.3 108.43 904.544 108.065C904.788 107.7 905.135 107.415 905.54 107.248C905.946 107.08 906.392 107.036 906.823 107.121C907.254 107.207 907.649 107.418 907.96 107.729C908.27 108.039 908.482 108.434 908.567 108.865C908.653 109.295 908.609 109.741 908.441 110.147C908.273 110.552 907.988 110.899 907.623 111.143C907.258 111.387 906.829 111.517 906.39 111.517C906.098 111.517 905.81 111.459 905.54 111.348C905.271 111.236 905.026 111.073 904.82 110.867C904.614 110.661 904.45 110.416 904.339 110.147C904.227 109.878 904.17 109.589 904.17 109.298Z" fill="#139DD7"/>
<path opacity="0.6" d="M687.992 330.267C687.995 329.828 688.127 329.401 688.372 329.037C688.617 328.674 688.965 328.391 689.371 328.225C689.777 328.059 690.223 328.017 690.653 328.104C691.082 328.191 691.477 328.403 691.786 328.714C692.096 329.025 692.306 329.42 692.39 329.85C692.475 330.28 692.431 330.726 692.262 331.131C692.094 331.535 691.809 331.881 691.444 332.125C691.08 332.368 690.651 332.498 690.212 332.498C689.92 332.498 689.63 332.44 689.36 332.328C689.09 332.215 688.845 332.051 688.638 331.844C688.432 331.636 688.269 331.39 688.158 331.12C688.047 330.849 687.991 330.559 687.992 330.267Z" fill="#139DD7"/>
<path opacity="0.6" d="M35.3692 283.571C35.3715 283.133 35.5037 282.705 35.7491 282.342C35.9944 281.978 36.342 281.696 36.7478 281.53C37.1537 281.364 37.5997 281.321 38.0296 281.408C38.4594 281.495 38.8539 281.708 39.1632 282.018C39.4725 282.329 39.6827 282.725 39.7674 283.155C39.8521 283.585 39.8075 284.03 39.6391 284.435C39.4707 284.84 39.1862 285.186 38.8214 285.429C38.4566 285.673 38.0278 285.802 37.5892 285.802C37.2967 285.802 37.007 285.745 36.7369 285.632C36.4668 285.52 36.2215 285.356 36.0152 285.148C35.8089 284.941 35.6456 284.695 35.5347 284.424C35.4239 284.154 35.3676 283.864 35.3692 283.571Z" fill="#139DD7"/>
<path opacity="0.6" d="M726.684 95.9596C726.681 95.5173 726.81 95.0844 727.055 94.7157C727.299 94.347 727.648 94.0592 728.056 93.8889C728.464 93.7186 728.914 93.6734 729.348 93.7591C729.782 93.8448 730.181 94.0575 730.494 94.3702C730.807 94.6829 731.019 95.0815 731.105 95.5154C731.191 95.9493 731.146 96.3988 730.975 96.8069C730.805 97.2151 730.517 97.5634 730.148 97.8076C729.779 98.0518 729.346 98.181 728.904 98.1786C728.316 98.1755 727.753 97.9407 727.337 97.5252C726.922 97.1098 726.687 96.5471 726.684 95.9596Z" fill="#139DD7"/>
<path opacity="0.6" d="M688.883 245.337C688.885 244.899 689.017 244.471 689.263 244.107C689.508 243.744 689.856 243.462 690.262 243.295C690.667 243.129 691.113 243.087 691.543 243.174C691.973 243.261 692.368 243.473 692.677 243.784C692.986 244.095 693.196 244.49 693.281 244.92C693.366 245.351 693.321 245.796 693.153 246.201C692.984 246.606 692.7 246.952 692.335 247.195C691.97 247.438 691.541 247.568 691.103 247.568C690.81 247.568 690.521 247.51 690.251 247.398C689.98 247.286 689.735 247.121 689.529 246.914C689.323 246.707 689.159 246.461 689.048 246.19C688.938 245.919 688.881 245.629 688.883 245.337Z" fill="#139DD7"/>
<path opacity="0.6" d="M636.398 77.7202C636.398 77.0161 636.607 76.3278 636.999 75.7423C637.39 75.1569 637.946 74.7006 638.597 74.4312C639.248 74.1617 639.964 74.0912 640.655 74.2286C641.346 74.3659 641.98 74.705 642.478 75.2029C642.976 75.7007 643.316 76.3351 643.453 77.0256C643.591 77.7162 643.52 78.432 643.25 79.0825C642.981 79.733 642.524 80.289 641.939 80.6802C641.353 81.0714 640.664 81.2802 639.96 81.2802C639.015 81.2802 638.11 80.9051 637.442 80.2375C636.774 79.5698 636.398 78.6643 636.398 77.7202Z" fill="#F9FAFD"/>
<path opacity="0.6" d="M788.965 250.012C788.965 249.308 789.174 248.62 789.565 248.034C789.956 247.449 790.513 246.993 791.163 246.723C791.814 246.454 792.53 246.383 793.221 246.521C793.912 246.658 794.547 246.997 795.045 247.495C795.543 247.993 795.882 248.627 796.02 249.318C796.157 250.008 796.086 250.724 795.817 251.375C795.547 252.025 795.091 252.581 794.505 252.972C793.919 253.363 793.231 253.572 792.526 253.572C791.582 253.572 790.676 253.197 790.008 252.529C789.34 251.862 788.965 250.956 788.965 250.012Z" fill="#F9FAFD"/>
<path opacity="0.6" d="M488.271 262.235C488.271 261.531 488.48 260.843 488.872 260.257C489.263 259.672 489.819 259.216 490.47 258.946C491.121 258.677 491.837 258.606 492.528 258.744C493.219 258.881 493.853 259.22 494.351 259.718C494.85 260.216 495.189 260.85 495.326 261.541C495.464 262.231 495.393 262.947 495.124 263.598C494.854 264.248 494.397 264.804 493.812 265.195C493.226 265.587 492.537 265.795 491.833 265.795C490.888 265.795 489.983 265.42 489.315 264.753C488.647 264.085 488.271 263.179 488.271 262.235Z" fill="#F9FAFD"/>
<g style="mix-blend-mode:overlay">
<path d="M908.989 81.1851H909.321C909.37 81.1885 909.418 81.1732 909.455 81.1423C909.493 81.1114 909.517 81.0672 909.523 81.019C910.461 76.2723 913.263 73.1514 917.525 72.2732C917.574 72.2573 917.616 72.225 917.644 72.1818C917.672 72.1386 917.684 72.0871 917.679 72.0359C917.674 72.0045 917.674 71.9724 917.679 71.941C917.677 71.8983 917.661 71.8575 917.633 71.8252C917.605 71.7929 917.567 71.771 917.525 71.763C913.002 70.8255 910.129 67.4198 909.381 62.1035H909.238H909.143C909.096 62.1035 909.051 62.1223 909.017 62.1557C908.984 62.189 908.965 62.2343 908.965 62.2815C908.158 67.5859 905.202 70.9442 900.655 71.7748C900.613 71.7828 900.575 71.8047 900.547 71.837C900.519 71.8693 900.502 71.9101 900.5 71.9528C900.49 72.0062 900.499 72.0618 900.528 72.1081C900.557 72.1544 900.602 72.188 900.655 72.202C905.095 73.009 908.003 76.1655 908.965 81.1495L908.989 81.1851Z" fill="white"/>
</g>
<g style="mix-blend-mode:overlay">
<path d="M883.238 375.716C883.365 375.704 883.492 375.704 883.618 375.716C883.673 375.719 883.727 375.701 883.769 375.666C883.811 375.631 883.838 375.581 883.844 375.526C884.912 370.067 888.094 366.567 892.95 365.57C893.006 365.553 893.055 365.516 893.086 365.466C893.116 365.415 893.127 365.355 893.116 365.297C893.116 365.297 893.116 365.226 893.116 365.19C893.112 365.142 893.092 365.096 893.06 365.06C893.028 365.023 892.985 364.998 892.938 364.988C887.809 363.932 884.532 360.052 883.678 354.012H883.405C883.352 354.015 883.302 354.037 883.265 354.074C883.228 354.111 883.206 354.161 883.203 354.213C882.289 360.254 878.929 364.075 873.705 365.036C873.657 365.044 873.613 365.068 873.58 365.105C873.548 365.142 873.529 365.189 873.527 365.238C873.516 365.297 873.529 365.359 873.562 365.409C873.595 365.46 873.646 365.496 873.705 365.511C878.763 366.436 882.016 370.02 883.12 375.692L883.238 375.716Z" fill="white"/>
</g>
<g style="mix-blend-mode:overlay">
<path d="M30.3361 139.012H30.621C30.6923 139.012 30.7635 139.012 30.7872 138.869C31.5589 134.894 33.8858 132.343 37.4236 131.619C37.4645 131.605 37.499 131.577 37.5208 131.54C37.5427 131.503 37.5503 131.459 37.5424 131.417C37.5424 131.417 37.5424 131.417 37.5424 131.334C37.5407 131.301 37.5282 131.269 37.5068 131.243C37.4854 131.217 37.4562 131.199 37.4236 131.192C33.6721 130.42 31.2859 127.632 30.6685 123.182H30.4667C30.4275 123.187 30.391 123.204 30.3631 123.232C30.3352 123.26 30.3173 123.297 30.3124 123.336C29.6475 127.738 27.2019 130.456 23.3791 131.215C23.3434 131.223 23.3113 131.242 23.2877 131.27C23.2641 131.298 23.2503 131.333 23.2486 131.37C23.2412 131.413 23.2505 131.459 23.2747 131.496C23.2988 131.533 23.3361 131.56 23.3791 131.571C27.0594 132.248 29.4694 134.858 30.2411 138.988L30.3361 139.012Z" fill="white"/>
</g>
<path d="M144.428 172V148.528H152.492C154.22 148.528 155.78 148.768 157.172 149.248C158.588 149.704 159.716 150.484 160.556 151.588C161.396 152.692 161.816 154.192 161.816 156.088C161.816 157.912 161.396 159.412 160.556 160.588C159.716 161.764 158.6 162.64 157.208 163.216C155.816 163.768 154.292 164.044 152.636 164.044H149.72V172H144.428ZM149.72 159.832H152.312C155.192 159.832 156.632 158.584 156.632 156.088C156.632 154.864 156.248 154 155.48 153.496C154.712 152.992 153.608 152.74 152.168 152.74H149.72V159.832ZM165.442 172V154.144H169.762L170.122 157.276H170.266C170.914 156.076 171.694 155.188 172.606 154.612C173.518 154.012 174.43 153.712 175.342 153.712C175.846 153.712 176.266 153.748 176.602 153.82C176.938 153.868 177.226 153.952 177.466 154.072L176.602 158.644C176.29 158.548 175.978 158.476 175.666 158.428C175.378 158.38 175.042 158.356 174.658 158.356C173.986 158.356 173.278 158.608 172.534 159.112C171.814 159.592 171.214 160.432 170.734 161.632V172H165.442ZM179.785 172V154.144H185.077V172H179.785ZM182.413 151.516C181.525 151.516 180.805 151.264 180.253 150.76C179.701 150.256 179.425 149.584 179.425 148.744C179.425 147.904 179.701 147.232 180.253 146.728C180.805 146.224 181.525 145.972 182.413 145.972C183.301 145.972 184.021 146.224 184.573 146.728C185.125 147.232 185.401 147.904 185.401 148.744C185.401 149.584 185.125 150.256 184.573 150.76C184.021 151.264 183.301 151.516 182.413 151.516ZM189.735 178.624V154.144H194.055L194.415 155.908H194.559C195.255 155.284 196.035 154.768 196.899 154.36C197.787 153.928 198.699 153.712 199.635 153.712C201.795 153.712 203.499 154.54 204.747 156.196C205.995 157.828 206.619 160.024 206.619 162.784C206.619 164.824 206.259 166.564 205.539 168.004C204.819 169.444 203.883 170.548 202.731 171.316C201.603 172.06 200.391 172.432 199.095 172.432C198.327 172.432 197.583 172.276 196.863 171.964C196.143 171.628 195.471 171.16 194.847 170.56L195.027 173.404V178.624H189.735ZM197.871 168.112C198.783 168.112 199.563 167.692 200.211 166.852C200.859 166.012 201.183 164.68 201.183 162.856C201.183 159.64 200.151 158.032 198.087 158.032C197.055 158.032 196.035 158.572 195.027 159.652V166.96C195.507 167.392 195.987 167.692 196.467 167.86C196.947 168.028 197.415 168.112 197.871 168.112ZM210.371 172V154.144H214.691L215.051 157.276H215.195C215.843 156.076 216.623 155.188 217.535 154.612C218.447 154.012 219.359 153.712 220.271 153.712C220.775 153.712 221.195 153.748 221.531 153.82C221.867 153.868 222.155 153.952 222.395 154.072L221.531 158.644C221.219 158.548 220.907 158.476 220.595 158.428C220.307 158.38 219.971 158.356 219.587 158.356C218.915 158.356 218.207 158.608 217.463 159.112C216.743 159.592 216.143 160.432 215.663 161.632V172H210.371ZM228.195 172.432C226.563 172.432 225.267 171.916 224.307 170.884C223.347 169.828 222.867 168.544 222.867 167.032C222.867 165.16 223.659 163.696 225.243 162.64C226.827 161.584 229.383 160.876 232.911 160.516C232.863 159.724 232.623 159.1 232.191 158.644C231.783 158.164 231.087 157.924 230.103 157.924C229.359 157.924 228.603 158.068 227.835 158.356C227.067 158.644 226.251 159.04 225.387 159.544L223.479 156.052C224.607 155.356 225.807 154.792 227.079 154.36C228.375 153.928 229.719 153.712 231.111 153.712C233.391 153.712 235.143 154.372 236.367 155.692C237.591 157.012 238.203 159.04 238.203 161.776V172H233.883L233.523 170.164H233.379C232.635 170.836 231.831 171.388 230.967 171.82C230.127 172.228 229.203 172.432 228.195 172.432ZM229.995 168.328C230.595 168.328 231.111 168.196 231.543 167.932C231.999 167.644 232.455 167.272 232.911 166.816V163.684C231.039 163.924 229.743 164.308 229.023 164.836C228.303 165.34 227.943 165.94 227.943 166.636C227.943 167.212 228.123 167.644 228.483 167.932C228.867 168.196 229.371 168.328 229.995 168.328ZM246.784 172L240.772 154.144H246.1L248.404 162.568C248.644 163.456 248.872 164.368 249.088 165.304C249.328 166.216 249.568 167.14 249.808 168.076H249.952C250.168 167.14 250.384 166.216 250.6 165.304C250.84 164.368 251.08 163.456 251.32 162.568L253.66 154.144H258.736L252.904 172H246.784ZM261.524 172V154.144H266.816V172H261.524ZM264.152 151.516C263.264 151.516 262.544 151.264 261.992 150.76C261.44 150.256 261.164 149.584 261.164 148.744C261.164 147.904 261.44 147.232 261.992 146.728C262.544 146.224 263.264 145.972 264.152 145.972C265.04 145.972 265.76 146.224 266.312 146.728C266.864 147.232 267.14 147.904 267.14 148.744C267.14 149.584 266.864 150.256 266.312 150.76C265.76 151.264 265.04 151.516 264.152 151.516ZM276.333 172.432C274.509 172.432 273.237 171.892 272.517 170.812C271.821 169.708 271.473 168.256 271.473 166.456V146.764H276.765V166.672C276.765 167.224 276.861 167.608 277.053 167.824C277.269 168.04 277.485 168.148 277.701 168.148C277.821 168.148 277.917 168.148 277.989 168.148C278.085 168.124 278.205 168.1 278.349 168.076L278.997 172C278.709 172.12 278.337 172.216 277.881 172.288C277.449 172.384 276.933 172.432 276.333 172.432ZM281.774 172V154.144H287.066V172H281.774ZM284.402 151.516C283.514 151.516 282.794 151.264 282.242 150.76C281.69 150.256 281.414 149.584 281.414 148.744C281.414 147.904 281.69 147.232 282.242 146.728C282.794 146.224 283.514 145.972 284.402 145.972C285.29 145.972 286.01 146.224 286.562 146.728C287.114 147.232 287.39 147.904 287.39 148.744C287.39 149.584 287.114 150.256 286.562 150.76C286.01 151.264 285.29 151.516 284.402 151.516ZM304.186 172.432C303.01 172.432 301.798 172.204 300.55 171.748C299.326 171.292 298.258 170.692 297.346 169.948L299.722 166.636C300.538 167.236 301.318 167.704 302.062 168.04C302.83 168.352 303.586 168.508 304.33 168.508C305.122 168.508 305.698 168.376 306.058 168.112C306.418 167.824 306.598 167.452 306.598 166.996C306.598 166.588 306.418 166.252 306.058 165.988C305.722 165.724 305.278 165.484 304.726 165.268C304.174 165.028 303.586 164.788 302.962 164.548C302.242 164.26 301.522 163.9 300.802 163.468C300.106 163.036 299.518 162.484 299.038 161.812C298.558 161.116 298.318 160.276 298.318 159.292C298.318 157.636 298.942 156.292 300.19 155.26C301.462 154.228 303.118 153.712 305.158 153.712C306.526 153.712 307.726 153.952 308.758 154.432C309.814 154.888 310.714 155.404 311.458 155.98L309.082 159.148C308.458 158.668 307.834 158.296 307.21 158.032C306.586 157.768 305.962 157.636 305.338 157.636C303.97 157.636 303.286 158.104 303.286 159.04C303.286 159.616 303.622 160.06 304.294 160.372C304.99 160.66 305.794 160.972 306.706 161.308C307.474 161.572 308.218 161.92 308.938 162.352C309.682 162.76 310.294 163.312 310.774 164.008C311.278 164.68 311.53 165.568 311.53 166.672C311.53 168.28 310.906 169.648 309.658 170.776C308.41 171.88 306.586 172.432 304.186 172.432ZM314.891 172V154.144H319.211L319.571 156.448H319.715C320.459 155.704 321.251 155.068 322.091 154.54C322.931 153.988 323.939 153.712 325.115 153.712C326.387 153.712 327.407 153.976 328.175 154.504C328.967 155.008 329.591 155.74 330.047 156.7C330.839 155.884 331.679 155.188 332.567 154.612C333.455 154.012 334.487 153.712 335.663 153.712C337.583 153.712 338.987 154.36 339.875 155.656C340.787 156.928 341.243 158.68 341.243 160.912V172H335.951V161.596C335.951 160.3 335.771 159.412 335.411 158.932C335.075 158.452 334.523 158.212 333.755 158.212C332.867 158.212 331.847 158.788 330.695 159.94V172H325.403V161.596C325.403 160.3 325.223 159.412 324.863 158.932C324.527 158.452 323.975 158.212 323.207 158.212C322.319 158.212 321.311 158.788 320.183 159.94V172H314.891ZM353.75 172.432C352.046 172.432 350.51 172.06 349.142 171.316C347.774 170.572 346.694 169.504 345.902 168.112C345.11 166.72 344.714 165.04 344.714 163.072C344.714 161.128 345.11 159.46 345.902 158.068C346.718 156.676 347.774 155.608 349.07 154.864C350.366 154.096 351.722 153.712 353.138 153.712C354.842 153.712 356.246 154.096 357.35 154.864C358.478 155.608 359.318 156.628 359.87 157.924C360.446 159.196 360.734 160.648 360.734 162.28C360.734 162.736 360.71 163.192 360.662 163.648C360.614 164.08 360.566 164.404 360.518 164.62H349.826C350.066 165.916 350.606 166.876 351.446 167.5C352.286 168.1 353.294 168.4 354.47 168.4C355.742 168.4 357.026 168.004 358.322 167.212L360.086 170.416C359.174 171.04 358.154 171.532 357.026 171.892C355.898 172.252 354.806 172.432 353.75 172.432ZM349.79 161.128H356.234C356.234 160.144 355.994 159.34 355.514 158.716C355.058 158.068 354.302 157.744 353.246 157.744C352.43 157.744 351.698 158.032 351.05 158.608C350.402 159.16 349.982 160 349.79 161.128ZM371.598 178.624V154.144H375.918L376.278 155.908H376.422C377.118 155.284 377.898 154.768 378.762 154.36C379.65 153.928 380.562 153.712 381.498 153.712C383.658 153.712 385.362 154.54 386.61 156.196C387.858 157.828 388.482 160.024 388.482 162.784C388.482 164.824 388.122 166.564 387.402 168.004C386.682 169.444 385.746 170.548 384.594 171.316C383.466 172.06 382.254 172.432 380.958 172.432C380.19 172.432 379.446 172.276 378.726 171.964C378.006 171.628 377.334 171.16 376.71 170.56L376.89 173.404V178.624H371.598ZM379.734 168.112C380.646 168.112 381.426 167.692 382.074 166.852C382.722 166.012 383.046 164.68 383.046 162.856C383.046 159.64 382.014 158.032 379.95 158.032C378.918 158.032 377.898 158.572 376.89 159.652V166.96C377.37 167.392 377.85 167.692 378.33 167.86C378.81 168.028 379.278 168.112 379.734 168.112ZM392.235 172V154.144H396.555L396.915 157.276H397.059C397.707 156.076 398.487 155.188 399.399 154.612C400.311 154.012 401.223 153.712 402.135 153.712C402.639 153.712 403.059 153.748 403.395 153.82C403.731 153.868 404.019 153.952 404.259 154.072L403.395 158.644C403.083 158.548 402.771 158.476 402.459 158.428C402.171 158.38 401.835 158.356 401.451 158.356C400.779 158.356 400.071 158.608 399.327 159.112C398.607 159.592 398.007 160.432 397.527 161.632V172H392.235ZM414.219 172.432C412.515 172.432 410.979 172.06 409.611 171.316C408.243 170.572 407.163 169.504 406.371 168.112C405.579 166.72 405.183 165.04 405.183 163.072C405.183 161.128 405.579 159.46 406.371 158.068C407.187 156.676 408.243 155.608 409.539 154.864C410.835 154.096 412.191 153.712 413.607 153.712C415.311 153.712 416.715 154.096 417.819 154.864C418.947 155.608 419.787 156.628 420.339 157.924C420.915 159.196 421.203 160.648 421.203 162.28C421.203 162.736 421.179 163.192 421.131 163.648C421.083 164.08 421.035 164.404 420.987 164.62H410.295C410.535 165.916 411.075 166.876 411.915 167.5C412.755 168.1 413.763 168.4 414.939 168.4C416.211 168.4 417.495 168.004 418.791 167.212L420.555 170.416C419.643 171.04 418.623 171.532 417.495 171.892C416.367 172.252 415.275 172.432 414.219 172.432ZM410.259 161.128H416.703C416.703 160.144 416.463 159.34 415.983 158.716C415.527 158.068 414.771 157.744 413.715 157.744C412.899 157.744 412.167 158.032 411.519 158.608C410.871 159.16 410.451 160 410.259 161.128ZM436.171 172L430.159 154.144H435.487L437.791 162.568C438.031 163.456 438.259 164.368 438.475 165.304C438.715 166.216 438.955 167.14 439.195 168.076H439.339C439.555 167.14 439.771 166.216 439.987 165.304C440.227 164.368 440.467 163.456 440.707 162.568L443.047 154.144H448.123L442.291 172H436.171ZM454.707 172.432C453.075 172.432 451.779 171.916 450.819 170.884C449.859 169.828 449.379 168.544 449.379 167.032C449.379 165.16 450.171 163.696 451.755 162.64C453.339 161.584 455.895 160.876 459.423 160.516C459.375 159.724 459.135 159.1 458.703 158.644C458.295 158.164 457.599 157.924 456.615 157.924C455.871 157.924 455.115 158.068 454.347 158.356C453.579 158.644 452.763 159.04 451.899 159.544L449.991 156.052C451.119 155.356 452.319 154.792 453.591 154.36C454.887 153.928 456.231 153.712 457.623 153.712C459.903 153.712 461.655 154.372 462.879 155.692C464.103 157.012 464.715 159.04 464.715 161.776V172H460.395L460.035 170.164H459.891C459.147 170.836 458.343 171.388 457.479 171.82C456.639 172.228 455.715 172.432 454.707 172.432ZM456.507 168.328C457.107 168.328 457.623 168.196 458.055 167.932C458.511 167.644 458.967 167.272 459.423 166.816V163.684C457.551 163.924 456.255 164.308 455.535 164.836C454.815 165.34 454.455 165.94 454.455 166.636C454.455 167.212 454.635 167.644 454.995 167.932C455.379 168.196 455.883 168.328 456.507 168.328ZM458.163 151.408L455.571 148.816L461.115 142.264L464.679 145.756L458.163 151.408ZM474.448 172.432C473.272 172.432 472.06 172.204 470.812 171.748C469.588 171.292 468.52 170.692 467.608 169.948L469.984 166.636C470.8 167.236 471.58 167.704 472.324 168.04C473.092 168.352 473.848 168.508 474.592 168.508C475.384 168.508 475.96 168.376 476.32 168.112C476.68 167.824 476.86 167.452 476.86 166.996C476.86 166.588 476.68 166.252 476.32 165.988C475.984 165.724 475.54 165.484 474.988 165.268C474.436 165.028 473.848 164.788 473.224 164.548C472.504 164.26 471.784 163.9 471.064 163.468C470.368 163.036 469.78 162.484 469.3 161.812C468.82 161.116 468.58 160.276 468.58 159.292C468.58 157.636 469.204 156.292 470.452 155.26C471.724 154.228 473.38 153.712 475.42 153.712C476.788 153.712 477.988 153.952 479.02 154.432C480.076 154.888 480.976 155.404 481.72 155.98L479.344 159.148C478.72 158.668 478.096 158.296 477.472 158.032C476.848 157.768 476.224 157.636 475.6 157.636C474.232 157.636 473.548 158.104 473.548 159.04C473.548 159.616 473.884 160.06 474.556 160.372C475.252 160.66 476.056 160.972 476.968 161.308C477.736 161.572 478.48 161.92 479.2 162.352C479.944 162.76 480.556 163.312 481.036 164.008C481.54 164.68 481.792 165.568 481.792 166.672C481.792 168.28 481.168 169.648 479.92 170.776C478.672 171.88 476.848 172.432 474.448 172.432ZM491.388 172V169.156L498.876 158.284H492.216V154.144H505.464V156.952L497.976 167.86H505.716V172H491.388ZM512.926 172.432C511.294 172.432 509.998 171.916 509.038 170.884C508.078 169.828 507.598 168.544 507.598 167.032C507.598 165.16 508.39 163.696 509.974 162.64C511.558 161.584 514.114 160.876 517.642 160.516C517.594 159.724 517.354 159.1 516.922 158.644C516.514 158.164 515.818 157.924 514.834 157.924C514.09 157.924 513.334 158.068 512.566 158.356C511.798 158.644 510.982 159.04 510.118 159.544L508.21 156.052C509.338 155.356 510.538 154.792 511.81 154.36C513.106 153.928 514.45 153.712 515.842 153.712C518.122 153.712 519.874 154.372 521.098 155.692C522.322 157.012 522.934 159.04 522.934 161.776V172H518.614L518.254 170.164H518.11C517.366 170.836 516.562 171.388 515.698 171.82C514.858 172.228 513.934 172.432 512.926 172.432ZM514.726 168.328C515.326 168.328 515.842 168.196 516.274 167.932C516.73 167.644 517.186 167.272 517.642 166.816V163.684C515.77 163.924 514.474 164.308 513.754 164.836C513.034 165.34 512.674 165.94 512.674 166.636C512.674 167.212 512.854 167.644 513.214 167.932C513.598 168.196 514.102 168.328 514.726 168.328ZM516.382 151.408L513.79 148.816L519.334 142.264L522.898 145.756L516.382 151.408ZM536.77 172.432C535.978 172.432 535.174 172.24 534.358 171.856C533.566 171.448 532.822 170.86 532.126 170.092H531.982L531.55 172H527.41V146.764H532.702V152.956L532.558 155.692C533.254 155.068 534.01 154.588 534.826 154.252C535.642 153.892 536.458 153.712 537.274 153.712C538.714 153.712 539.962 154.084 541.018 154.828C542.074 155.572 542.878 156.628 543.43 157.996C544.006 159.34 544.294 160.924 544.294 162.748C544.294 164.788 543.934 166.54 543.214 168.004C542.494 169.444 541.558 170.548 540.406 171.316C539.278 172.06 538.066 172.432 536.77 172.432ZM535.546 168.112C536.458 168.112 537.238 167.692 537.886 166.852C538.534 166.012 538.858 164.68 538.858 162.856C538.858 159.64 537.826 158.032 535.762 158.032C534.706 158.032 533.686 158.572 532.702 159.652V166.96C533.182 167.392 533.662 167.692 534.142 167.86C534.622 168.028 535.09 168.112 535.546 168.112ZM552.16 172.432C550.528 172.432 549.232 171.916 548.272 170.884C547.312 169.828 546.832 168.544 546.832 167.032C546.832 165.16 547.624 163.696 549.208 162.64C550.792 161.584 553.348 160.876 556.876 160.516C556.828 159.724 556.588 159.1 556.156 158.644C555.748 158.164 555.052 157.924 554.068 157.924C553.324 157.924 552.568 158.068 551.8 158.356C551.032 158.644 550.216 159.04 549.352 159.544L547.444 156.052C548.572 155.356 549.772 154.792 551.044 154.36C552.34 153.928 553.684 153.712 555.076 153.712C557.356 153.712 559.108 154.372 560.332 155.692C561.556 157.012 562.168 159.04 562.168 161.776V172H557.848L557.488 170.164H557.344C556.6 170.836 555.796 171.388 554.932 171.82C554.092 172.228 553.168 172.432 552.16 172.432ZM553.96 168.328C554.56 168.328 555.076 168.196 555.508 167.932C555.964 167.644 556.42 167.272 556.876 166.816V163.684C555.004 163.924 553.708 164.308 552.988 164.836C552.268 165.34 551.908 165.94 551.908 166.636C551.908 167.212 552.088 167.644 552.448 167.932C552.832 168.196 553.336 168.328 553.96 168.328ZM570.749 172L564.737 154.144H570.065L572.369 162.568C572.609 163.456 572.837 164.368 573.053 165.304C573.293 166.216 573.533 167.14 573.773 168.076H573.917C574.133 167.14 574.349 166.216 574.565 165.304C574.805 164.368 575.045 163.456 575.285 162.568L577.625 154.144H582.701L576.869 172H570.749ZM585.488 172V154.144H589.808L590.168 156.412H590.312C591.08 155.692 591.92 155.068 592.832 154.54C593.768 153.988 594.836 153.712 596.036 153.712C597.98 153.712 599.384 154.36 600.248 155.656C601.136 156.928 601.58 158.68 601.58 160.912V172H596.288V161.596C596.288 160.3 596.108 159.412 595.748 158.932C595.412 158.452 594.86 158.212 594.092 158.212C593.42 158.212 592.844 158.368 592.364 158.68C591.884 158.968 591.356 159.388 590.78 159.94V172H585.488ZM611.454 172.432C609.51 172.432 608.094 171.796 607.206 170.524C606.342 169.228 605.91 167.464 605.91 165.232V154.144H611.202V164.548C611.202 165.82 611.382 166.708 611.742 167.212C612.102 167.692 612.666 167.932 613.434 167.932C614.106 167.932 614.67 167.776 615.126 167.464C615.582 167.152 616.074 166.648 616.602 165.952V154.144H621.894V172H617.574L617.178 169.516H617.07C616.326 170.404 615.51 171.112 614.622 171.64C613.734 172.168 612.678 172.432 611.454 172.432ZM614.37 151.408L611.778 148.816L617.322 142.264L620.886 145.756L614.37 151.408ZM637.862 172L631.85 154.144H637.178L639.482 162.568C639.722 163.456 639.95 164.368 640.166 165.304C640.406 166.216 640.646 167.14 640.886 168.076H641.03C641.246 167.14 641.462 166.216 641.678 165.304C641.918 164.368 642.158 163.456 642.398 162.568L644.738 154.144H649.814L643.982 172H637.862ZM650.61 172V169.156L658.098 158.284H651.438V154.144H664.686V156.952L657.198 167.86H664.938V172H650.61ZM674.161 172.432C671.953 172.432 670.177 171.604 668.833 169.948C667.513 168.268 666.853 165.976 666.853 163.072C666.853 161.128 667.201 159.46 667.897 158.068C668.617 156.652 669.541 155.572 670.669 154.828C671.821 154.084 673.021 153.712 674.269 153.712C675.253 153.712 676.081 153.88 676.753 154.216C677.425 154.552 678.061 155.008 678.661 155.584L678.445 152.848V146.764H683.737V172H679.417L679.057 170.236H678.913C678.289 170.86 677.557 171.388 676.717 171.82C675.877 172.228 675.025 172.432 674.161 172.432ZM675.529 168.112C676.105 168.112 676.621 167.992 677.077 167.752C677.557 167.512 678.013 167.092 678.445 166.492V159.184C677.989 158.752 677.497 158.452 676.969 158.284C676.465 158.116 675.973 158.032 675.493 158.032C674.653 158.032 673.909 158.44 673.261 159.256C672.613 160.048 672.289 161.296 672.289 163C672.289 164.752 672.565 166.048 673.117 166.888C673.693 167.704 674.497 168.112 675.529 168.112ZM696.418 172.432C694.714 172.432 693.178 172.06 691.81 171.316C690.442 170.572 689.362 169.504 688.57 168.112C687.778 166.72 687.382 165.04 687.382 163.072C687.382 161.128 687.778 159.46 688.57 158.068C689.386 156.676 690.442 155.608 691.738 154.864C693.034 154.096 694.39 153.712 695.806 153.712C697.51 153.712 698.914 154.096 700.018 154.864C701.146 155.608 701.986 156.628 702.538 157.924C703.114 159.196 703.402 160.648 703.402 162.28C703.402 162.736 703.378 163.192 703.33 163.648C703.282 164.08 703.234 164.404 703.186 164.62H692.494C692.734 165.916 693.274 166.876 694.114 167.5C694.954 168.1 695.962 168.4 697.138 168.4C698.41 168.4 699.694 168.004 700.99 167.212L702.754 170.416C701.842 171.04 700.822 171.532 699.694 171.892C698.566 172.252 697.474 172.432 696.418 172.432ZM692.458 161.128H698.902C698.902 160.144 698.662 159.34 698.182 158.716C697.726 158.068 696.97 157.744 695.914 157.744C695.098 157.744 694.366 158.032 693.718 158.608C693.07 159.16 692.65 160 692.458 161.128ZM711.919 172.432C710.095 172.432 708.823 171.892 708.103 170.812C707.407 169.708 707.059 168.256 707.059 166.456V146.764H712.351V166.672C712.351 167.224 712.447 167.608 712.639 167.824C712.855 168.04 713.071 168.148 713.287 168.148C713.407 168.148 713.503 168.148 713.575 168.148C713.671 168.124 713.791 168.1 713.935 168.076L714.583 172C714.295 172.12 713.923 172.216 713.467 172.288C713.035 172.384 712.519 172.432 711.919 172.432ZM721.86 172.432C720.228 172.432 718.932 171.916 717.972 170.884C717.012 169.828 716.532 168.544 716.532 167.032C716.532 165.16 717.324 163.696 718.908 162.64C720.492 161.584 723.048 160.876 726.576 160.516C726.528 159.724 726.288 159.1 725.856 158.644C725.448 158.164 724.752 157.924 723.768 157.924C723.024 157.924 722.268 158.068 721.5 158.356C720.732 158.644 719.916 159.04 719.052 159.544L717.144 156.052C718.272 155.356 719.472 154.792 720.744 154.36C722.04 153.928 723.384 153.712 724.776 153.712C727.056 153.712 728.808 154.372 730.032 155.692C731.256 157.012 731.868 159.04 731.868 161.776V172H727.548L727.188 170.164H727.044C726.3 170.836 725.496 171.388 724.632 171.82C723.792 172.228 722.868 172.432 721.86 172.432ZM723.66 168.328C724.26 168.328 724.776 168.196 725.208 167.932C725.664 167.644 726.12 167.272 726.576 166.816V163.684C724.704 163.924 723.408 164.308 722.688 164.836C721.968 165.34 721.608 165.94 721.608 166.636C721.608 167.212 721.788 167.644 722.148 167.932C722.532 168.196 723.036 168.328 723.66 168.328ZM725.316 151.408L722.724 148.816L728.268 142.264L731.832 145.756L725.316 151.408ZM740.448 172L734.436 154.144H739.764L742.068 162.568C742.308 163.456 742.536 164.368 742.752 165.304C742.992 166.216 743.232 167.14 743.472 168.076H743.616C743.832 167.14 744.048 166.216 744.264 165.304C744.504 164.368 744.744 163.456 744.984 162.568L747.324 154.144H752.4L746.568 172H740.448ZM758.985 172.432C757.353 172.432 756.057 171.916 755.097 170.884C754.137 169.828 753.657 168.544 753.657 167.032C753.657 165.16 754.449 163.696 756.033 162.64C757.617 161.584 760.173 160.876 763.701 160.516C763.653 159.724 763.413 159.1 762.981 158.644C762.573 158.164 761.877 157.924 760.893 157.924C760.149 157.924 759.393 158.068 758.625 158.356C757.857 158.644 757.041 159.04 756.177 159.544L754.269 156.052C755.397 155.356 756.597 154.792 757.869 154.36C759.165 153.928 760.509 153.712 761.901 153.712C764.181 153.712 765.933 154.372 767.157 155.692C768.381 157.012 768.993 159.04 768.993 161.776V172H764.673L764.313 170.164H764.169C763.425 170.836 762.621 171.388 761.757 171.82C760.917 172.228 759.993 172.432 758.985 172.432ZM760.785 168.328C761.385 168.328 761.901 168.196 762.333 167.932C762.789 167.644 763.245 167.272 763.701 166.816V163.684C761.829 163.924 760.533 164.308 759.813 164.836C759.093 165.34 758.733 165.94 758.733 166.636C758.733 167.212 758.913 167.644 759.273 167.932C759.657 168.196 760.161 168.328 760.785 168.328ZM781.245 172.432C779.589 172.432 778.089 172.072 776.745 171.352C775.425 170.608 774.369 169.54 773.577 168.148C772.809 166.732 772.425 165.04 772.425 163.072C772.425 161.08 772.857 159.388 773.721 157.996C774.585 156.604 775.725 155.548 777.141 154.828C778.557 154.084 780.081 153.712 781.713 153.712C782.817 153.712 783.789 153.892 784.629 154.252C785.493 154.612 786.261 155.068 786.933 155.62L784.449 159.04C783.609 158.344 782.805 157.996 782.037 157.996C780.765 157.996 779.745 158.452 778.977 159.364C778.233 160.276 777.861 161.512 777.861 163.072C777.861 164.608 778.233 165.844 778.977 166.78C779.745 167.692 780.705 168.148 781.857 168.148C782.433 168.148 782.997 168.028 783.549 167.788C784.101 167.524 784.605 167.212 785.061 166.852L787.149 170.308C786.261 171.076 785.301 171.628 784.269 171.964C783.237 172.276 782.229 172.432 781.245 172.432ZM790.274 172V154.144H795.566V172H790.274ZM792.902 151.516C792.014 151.516 791.294 151.264 790.742 150.76C790.19 150.256 789.914 149.584 789.914 148.744C789.914 147.904 790.19 147.232 790.742 146.728C791.294 146.224 792.014 145.972 792.902 145.972C793.79 145.972 794.51 146.224 795.062 146.728C795.614 147.232 795.89 147.904 795.89 148.744C795.89 149.584 795.614 150.256 795.062 150.76C794.51 151.264 793.79 151.516 792.902 151.516ZM805.587 172.432C803.643 172.432 802.227 171.796 801.339 170.524C800.475 169.228 800.043 167.464 800.043 165.232V154.144H805.335V164.548C805.335 165.82 805.515 166.708 805.875 167.212C806.235 167.692 806.799 167.932 807.567 167.932C808.239 167.932 808.803 167.776 809.259 167.464C809.715 167.152 810.207 166.648 810.735 165.952V154.144H816.027V172H811.707L811.311 169.516H811.203C810.459 170.404 809.643 171.112 808.755 171.64C807.867 172.168 806.811 172.432 805.587 172.432ZM176.305 212.432C174.673 212.432 173.377 211.916 172.417 210.884C171.457 209.828 170.977 208.544 170.977 207.032C170.977 205.16 171.769 203.696 173.353 202.64C174.937 201.584 177.493 200.876 181.021 200.516C180.973 199.724 180.733 199.1 180.301 198.644C179.893 198.164 179.197 197.924 178.213 197.924C177.469 197.924 176.713 198.068 175.945 198.356C175.177 198.644 174.361 199.04 173.497 199.544L171.589 196.052C172.717 195.356 173.917 194.792 175.189 194.36C176.485 193.928 177.829 193.712 179.221 193.712C181.501 193.712 183.253 194.372 184.477 195.692C185.701 197.012 186.313 199.04 186.313 201.776V212H181.993L181.633 210.164H181.489C180.745 210.836 179.941 211.388 179.077 211.82C178.237 212.228 177.313 212.432 176.305 212.432ZM178.105 208.328C178.705 208.328 179.221 208.196 179.653 207.932C180.109 207.644 180.565 207.272 181.021 206.816V203.684C179.149 203.924 177.853 204.308 177.133 204.836C176.413 205.34 176.053 205.94 176.053 206.636C176.053 207.212 176.233 207.644 176.593 207.932C176.977 208.196 177.481 208.328 178.105 208.328ZM190.789 218.624V194.144H195.109L195.469 195.908H195.613C196.309 195.284 197.089 194.768 197.953 194.36C198.841 193.928 199.753 193.712 200.689 193.712C202.849 193.712 204.553 194.54 205.801 196.196C207.049 197.828 207.673 200.024 207.673 202.784C207.673 204.824 207.313 206.564 206.593 208.004C205.873 209.444 204.937 210.548 203.785 211.316C202.657 212.06 201.445 212.432 200.149 212.432C199.381 212.432 198.637 212.276 197.917 211.964C197.197 211.628 196.525 211.16 195.901 210.56L196.081 213.404V218.624H190.789ZM198.925 208.112C199.837 208.112 200.617 207.692 201.265 206.852C201.913 206.012 202.237 204.68 202.237 202.856C202.237 199.64 201.205 198.032 199.141 198.032C198.109 198.032 197.089 198.572 196.081 199.652V206.96C196.561 207.392 197.041 207.692 197.521 207.86C198.001 208.028 198.469 208.112 198.925 208.112ZM216.286 212.432C214.462 212.432 213.19 211.892 212.47 210.812C211.774 209.708 211.426 208.256 211.426 206.456V186.764H216.718V206.672C216.718 207.224 216.814 207.608 217.006 207.824C217.222 208.04 217.438 208.148 217.654 208.148C217.774 208.148 217.87 208.148 217.942 208.148C218.038 208.124 218.158 208.1 218.302 208.076L218.95 212C218.662 212.12 218.29 212.216 217.834 212.288C217.402 212.384 216.886 212.432 216.286 212.432ZM221.727 212V194.144H227.019V212H221.727ZM224.355 191.516C223.467 191.516 222.747 191.264 222.195 190.76C221.643 190.256 221.367 189.584 221.367 188.744C221.367 187.904 221.643 187.232 222.195 186.728C222.747 186.224 223.467 185.972 224.355 185.972C225.243 185.972 225.963 186.224 226.515 186.728C227.067 187.232 227.343 187.904 227.343 188.744C227.343 189.584 227.067 190.256 226.515 190.76C225.963 191.264 225.243 191.516 224.355 191.516ZM231.676 212V186.764H236.824V201.236H236.968L242.62 194.144H248.38L242.116 201.488L248.848 212H243.124L239.092 205.052L236.824 207.608V212H231.676ZM255.547 212.432C253.915 212.432 252.619 211.916 251.659 210.884C250.699 209.828 250.219 208.544 250.219 207.032C250.219 205.16 251.011 203.696 252.595 202.64C254.179 201.584 256.735 200.876 260.263 200.516C260.215 199.724 259.975 199.1 259.543 198.644C259.135 198.164 258.439 197.924 257.455 197.924C256.711 197.924 255.955 198.068 255.187 198.356C254.419 198.644 253.603 199.04 252.739 199.544L250.831 196.052C251.959 195.356 253.159 194.792 254.431 194.36C255.727 193.928 257.071 193.712 258.463 193.712C260.743 193.712 262.495 194.372 263.719 195.692C264.943 197.012 265.555 199.04 265.555 201.776V212H261.235L260.875 210.164H260.731C259.987 210.836 259.183 211.388 258.319 211.82C257.479 212.228 256.555 212.432 255.547 212.432ZM257.347 208.328C257.947 208.328 258.463 208.196 258.895 207.932C259.351 207.644 259.807 207.272 260.263 206.816V203.684C258.391 203.924 257.095 204.308 256.375 204.836C255.655 205.34 255.295 205.94 255.295 206.636C255.295 207.212 255.475 207.644 255.835 207.932C256.219 208.196 256.723 208.328 257.347 208.328ZM259.003 191.408L256.411 188.816L261.955 182.264L265.519 185.756L259.003 191.408ZM277.807 212.432C276.151 212.432 274.651 212.072 273.307 211.352C271.987 210.608 270.931 209.54 270.139 208.148C269.371 206.732 268.987 205.04 268.987 203.072C268.987 201.08 269.419 199.388 270.283 197.996C271.147 196.604 272.287 195.548 273.703 194.828C275.119 194.084 276.643 193.712 278.275 193.712C279.379 193.712 280.351 193.892 281.191 194.252C282.055 194.612 282.823 195.068 283.495 195.62L281.011 199.04C280.171 198.344 279.367 197.996 278.599 197.996C277.327 197.996 276.307 198.452 275.539 199.364C274.795 200.276 274.423 201.512 274.423 203.072C274.423 204.608 274.795 205.844 275.539 206.78C276.307 207.692 277.267 208.148 278.419 208.148C278.995 208.148 279.559 208.028 280.111 207.788C280.663 207.524 281.167 207.212 281.623 206.852L283.711 210.308C282.823 211.076 281.863 211.628 280.831 211.964C279.799 212.276 278.791 212.432 277.807 212.432ZM286.836 212V194.144H292.128V212H286.836ZM289.464 191.516C288.576 191.516 287.856 191.264 287.304 190.76C286.752 190.256 286.476 189.584 286.476 188.744C286.476 187.904 286.752 187.232 287.304 186.728C287.856 186.224 288.576 185.972 289.464 185.972C290.352 185.972 291.072 186.224 291.624 186.728C292.176 187.232 292.452 187.904 292.452 188.744C292.452 189.584 292.176 190.256 291.624 190.76C291.072 191.264 290.352 191.516 289.464 191.516ZM302.149 212.432C300.205 212.432 298.789 211.796 297.901 210.524C297.037 209.228 296.605 207.464 296.605 205.232V194.144H301.897V204.548C301.897 205.82 302.077 206.708 302.437 207.212C302.797 207.692 303.361 207.932 304.129 207.932C304.801 207.932 305.365 207.776 305.821 207.464C306.277 207.152 306.769 206.648 307.297 205.952V194.144H312.589V212H308.269L307.873 209.516H307.765C307.021 210.404 306.205 211.112 305.317 211.64C304.429 212.168 303.373 212.432 302.149 212.432ZM324.453 218.624V194.144H328.773L329.133 195.908H329.277C329.973 195.284 330.753 194.768 331.617 194.36C332.505 193.928 333.417 193.712 334.353 193.712C336.513 193.712 338.217 194.54 339.465 196.196C340.713 197.828 341.337 200.024 341.337 202.784C341.337 204.824 340.977 206.564 340.257 208.004C339.537 209.444 338.601 210.548 337.449 211.316C336.321 212.06 335.109 212.432 333.813 212.432C333.045 212.432 332.301 212.276 331.581 211.964C330.861 211.628 330.189 211.16 329.565 210.56L329.745 213.404V218.624H324.453ZM332.589 208.112C333.501 208.112 334.281 207.692 334.929 206.852C335.577 206.012 335.901 204.68 335.901 202.856C335.901 199.64 334.869 198.032 332.805 198.032C331.773 198.032 330.753 198.572 329.745 199.652V206.96C330.225 207.392 330.705 207.692 331.185 207.86C331.665 208.028 332.133 208.112 332.589 208.112ZM345.09 212V194.144H349.41L349.77 197.276H349.914C350.562 196.076 351.342 195.188 352.254 194.612C353.166 194.012 354.078 193.712 354.99 193.712C355.494 193.712 355.914 193.748 356.25 193.82C356.586 193.868 356.874 193.952 357.114 194.072L356.25 198.644C355.938 198.548 355.626 198.476 355.314 198.428C355.026 198.38 354.69 198.356 354.306 198.356C353.634 198.356 352.926 198.608 352.182 199.112C351.462 199.592 350.862 200.432 350.382 201.632V212H345.09ZM367.074 212.432C365.37 212.432 363.834 212.06 362.466 211.316C361.098 210.572 360.018 209.504 359.226 208.112C358.434 206.72 358.038 205.04 358.038 203.072C358.038 201.128 358.434 199.46 359.226 198.068C360.042 196.676 361.098 195.608 362.394 194.864C363.69 194.096 365.046 193.712 366.462 193.712C368.166 193.712 369.57 194.096 370.674 194.864C371.802 195.608 372.642 196.628 373.194 197.924C373.77 199.196 374.058 200.648 374.058 202.28C374.058 202.736 374.034 203.192 373.986 203.648C373.938 204.08 373.89 204.404 373.842 204.62H363.15C363.39 205.916 363.93 206.876 364.77 207.5C365.61 208.1 366.618 208.4 367.794 208.4C369.066 208.4 370.35 208.004 371.646 207.212L373.41 210.416C372.498 211.04 371.478 211.532 370.35 211.892C369.222 212.252 368.13 212.432 367.074 212.432ZM363.114 201.128H369.558C369.558 200.144 369.318 199.34 368.838 198.716C368.382 198.068 367.626 197.744 366.57 197.744C365.754 197.744 365.022 198.032 364.374 198.608C363.726 199.16 363.306 200 363.114 201.128ZM391.294 212.432C389.086 212.432 387.31 211.604 385.966 209.948C384.646 208.268 383.986 205.976 383.986 203.072C383.986 201.128 384.334 199.46 385.03 198.068C385.75 196.652 386.674 195.572 387.802 194.828C388.954 194.084 390.154 193.712 391.402 193.712C392.386 193.712 393.214 193.88 393.886 194.216C394.558 194.552 395.194 195.008 395.794 195.584L395.578 192.848V186.764H400.87V212H396.55L396.19 210.236H396.046C395.422 210.86 394.69 211.388 393.85 211.82C393.01 212.228 392.158 212.432 391.294 212.432ZM392.662 208.112C393.238 208.112 393.754 207.992 394.21 207.752C394.69 207.512 395.146 207.092 395.578 206.492V199.184C395.122 198.752 394.63 198.452 394.102 198.284C393.598 198.116 393.106 198.032 392.626 198.032C391.786 198.032 391.042 198.44 390.394 199.256C389.746 200.048 389.422 201.296 389.422 203C389.422 204.752 389.698 206.048 390.25 206.888C390.826 207.704 391.63 208.112 392.662 208.112ZM413.551 212.432C411.847 212.432 410.311 212.06 408.943 211.316C407.575 210.572 406.495 209.504 405.703 208.112C404.911 206.72 404.515 205.04 404.515 203.072C404.515 201.128 404.911 199.46 405.703 198.068C406.519 196.676 407.575 195.608 408.871 194.864C410.167 194.096 411.523 193.712 412.939 193.712C414.643 193.712 416.047 194.096 417.151 194.864C418.279 195.608 419.119 196.628 419.671 197.924C420.247 199.196 420.535 200.648 420.535 202.28C420.535 202.736 420.511 203.192 420.463 203.648C420.415 204.08 420.367 204.404 420.319 204.62H409.627C409.867 205.916 410.407 206.876 411.247 207.5C412.087 208.1 413.095 208.4 414.271 208.4C415.543 208.4 416.827 208.004 418.123 207.212L419.887 210.416C418.975 211.04 417.955 211.532 416.827 211.892C415.699 212.252 414.607 212.432 413.551 212.432ZM409.591 201.128H416.035C416.035 200.144 415.795 199.34 415.315 198.716C414.859 198.068 414.103 197.744 413.047 197.744C412.231 197.744 411.499 198.032 410.851 198.608C410.203 199.16 409.783 200 409.591 201.128ZM430.716 212.432C428.508 212.432 426.924 211.796 425.964 210.524C425.028 209.252 424.56 207.584 424.56 205.52V198.284H422.112V194.36L424.848 194.144L425.46 189.392H429.852V194.144H434.136V198.284H429.852V205.448C429.852 206.456 430.056 207.188 430.464 207.644C430.896 208.076 431.46 208.292 432.156 208.292C432.444 208.292 432.732 208.256 433.02 208.184C433.332 208.112 433.608 208.028 433.848 207.932L434.676 211.784C434.22 211.928 433.656 212.072 432.984 212.216C432.336 212.36 431.58 212.432 430.716 212.432ZM437.621 212V194.144H442.913V212H437.621ZM440.249 191.516C439.361 191.516 438.641 191.264 438.089 190.76C437.537 190.256 437.261 189.584 437.261 188.744C437.261 187.904 437.537 187.232 438.089 186.728C438.641 186.224 439.361 185.972 440.249 185.972C441.137 185.972 441.857 186.224 442.409 186.728C442.961 187.232 443.237 187.904 443.237 188.744C443.237 189.584 442.961 190.256 442.409 190.76C441.857 191.264 441.137 191.516 440.249 191.516ZM453.806 212V209.156L461.294 198.284H454.634V194.144H467.882V196.952L460.394 207.86H468.134V212H453.806ZM486.211 212.432C484.699 212.432 483.271 212.072 481.927 211.352C480.607 210.608 479.539 209.54 478.723 208.148C477.907 206.732 477.499 205.04 477.499 203.072C477.499 201.08 477.907 199.388 478.723 197.996C479.539 196.604 480.607 195.548 481.927 194.828C483.271 194.084 484.699 193.712 486.211 193.712C487.723 193.712 489.139 194.084 490.459 194.828C491.779 195.548 492.847 196.604 493.663 197.996C494.479 199.388 494.887 201.08 494.887 203.072C494.887 205.04 494.479 206.732 493.663 208.148C492.847 209.54 491.779 210.608 490.459 211.352C489.139 212.072 487.723 212.432 486.211 212.432ZM486.211 208.148C487.291 208.148 488.107 207.692 488.659 206.78C489.211 205.844 489.487 204.608 489.487 203.072C489.487 201.512 489.211 200.276 488.659 199.364C488.107 198.452 487.291 197.996 486.211 197.996C485.107 197.996 484.279 198.452 483.727 199.364C483.199 200.276 482.935 201.512 482.935 203.072C482.935 204.608 483.199 205.844 483.727 206.78C484.279 207.692 485.107 208.148 486.211 208.148ZM507.872 212.432C507.08 212.432 506.276 212.24 505.46 211.856C504.668 211.448 503.924 210.86 503.228 210.092H503.084L502.652 212H498.512V186.764H503.804V192.956L503.66 195.692C504.356 195.068 505.112 194.588 505.928 194.252C506.744 193.892 507.56 193.712 508.376 193.712C509.816 193.712 511.064 194.084 512.12 194.828C513.176 195.572 513.98 196.628 514.532 197.996C515.108 199.34 515.396 200.924 515.396 202.748C515.396 204.788 515.036 206.54 514.316 208.004C513.596 209.444 512.66 210.548 511.508 211.316C510.38 212.06 509.168 212.432 507.872 212.432ZM506.648 208.112C507.56 208.112 508.34 207.692 508.988 206.852C509.636 206.012 509.96 204.68 509.96 202.856C509.96 199.64 508.928 198.032 506.864 198.032C505.808 198.032 504.788 198.572 503.804 199.652V206.96C504.284 207.392 504.764 207.692 505.244 207.86C505.724 208.028 506.192 208.112 506.648 208.112ZM524.009 212.432C522.185 212.432 520.913 211.892 520.193 210.812C519.497 209.708 519.149 208.256 519.149 206.456V186.764H524.441V206.672C524.441 207.224 524.537 207.608 524.729 207.824C524.945 208.04 525.161 208.148 525.377 208.148C525.497 208.148 525.593 208.148 525.665 208.148C525.761 208.124 525.881 208.1 526.025 208.076L526.673 212C526.385 212.12 526.013 212.216 525.557 212.288C525.125 212.384 524.609 212.432 524.009 212.432ZM533.949 212.432C532.317 212.432 531.021 211.916 530.061 210.884C529.101 209.828 528.621 208.544 528.621 207.032C528.621 205.16 529.413 203.696 530.997 202.64C532.581 201.584 535.137 200.876 538.665 200.516C538.617 199.724 538.377 199.1 537.945 198.644C537.537 198.164 536.841 197.924 535.857 197.924C535.113 197.924 534.357 198.068 533.589 198.356C532.821 198.644 532.005 199.04 531.141 199.544L529.233 196.052C530.361 195.356 531.561 194.792 532.833 194.36C534.129 193.928 535.473 193.712 536.865 193.712C539.145 193.712 540.897 194.372 542.121 195.692C543.345 197.012 543.957 199.04 543.957 201.776V212H539.637L539.277 210.164H539.133C538.389 210.836 537.585 211.388 536.721 211.82C535.881 212.228 534.957 212.432 533.949 212.432ZM535.749 208.328C536.349 208.328 536.865 208.196 537.297 207.932C537.753 207.644 538.209 207.272 538.665 206.816V203.684C536.793 203.924 535.497 204.308 534.777 204.836C534.057 205.34 533.697 205.94 533.697 206.636C533.697 207.212 533.877 207.644 534.237 207.932C534.621 208.196 535.125 208.328 535.749 208.328ZM553.69 212.432C552.514 212.432 551.302 212.204 550.054 211.748C548.83 211.292 547.762 210.692 546.85 209.948L549.226 206.636C550.042 207.236 550.822 207.704 551.566 208.04C552.334 208.352 553.09 208.508 553.834 208.508C554.626 208.508 555.202 208.376 555.562 208.112C555.922 207.824 556.102 207.452 556.102 206.996C556.102 206.588 555.922 206.252 555.562 205.988C555.226 205.724 554.782 205.484 554.23 205.268C553.678 205.028 553.09 204.788 552.466 204.548C551.746 204.26 551.026 203.9 550.306 203.468C549.61 203.036 549.022 202.484 548.542 201.812C548.062 201.116 547.822 200.276 547.822 199.292C547.822 197.636 548.446 196.292 549.694 195.26C550.966 194.228 552.622 193.712 554.662 193.712C556.03 193.712 557.23 193.952 558.262 194.432C559.318 194.888 560.218 195.404 560.962 195.98L558.586 199.148C557.962 198.668 557.338 198.296 556.714 198.032C556.09 197.768 555.466 197.636 554.842 197.636C553.474 197.636 552.79 198.104 552.79 199.04C552.79 199.616 553.126 200.06 553.798 200.372C554.494 200.66 555.298 200.972 556.21 201.308C556.978 201.572 557.722 201.92 558.442 202.352C559.186 202.76 559.798 203.312 560.278 204.008C560.782 204.68 561.034 205.568 561.034 206.672C561.034 208.28 560.41 209.648 559.162 210.776C557.914 211.88 556.09 212.432 553.69 212.432ZM570.568 212.432C568.36 212.432 566.776 211.796 565.816 210.524C564.88 209.252 564.412 207.584 564.412 205.52V198.284H561.964V194.36L564.7 194.144L565.312 189.392H569.704V194.144H573.988V198.284H569.704V205.448C569.704 206.456 569.908 207.188 570.316 207.644C570.748 208.076 571.312 208.292 572.008 208.292C572.296 208.292 572.584 208.256 572.872 208.184C573.184 208.112 573.46 208.028 573.7 207.932L574.528 211.784C574.072 211.928 573.508 212.072 572.836 212.216C572.188 212.36 571.432 212.432 570.568 212.432ZM577.473 212V194.144H582.765V212H577.473ZM580.101 191.516C579.213 191.516 578.493 191.264 577.941 190.76C577.389 190.256 577.113 189.584 577.113 188.744C577.113 187.904 577.389 187.232 577.941 186.728C578.493 186.224 579.213 185.972 580.101 185.972C580.989 185.972 581.709 186.224 582.261 186.728C582.813 187.232 583.089 187.904 583.089 188.744C583.089 189.584 582.813 190.256 582.261 190.76C581.709 191.264 580.989 191.516 580.101 191.516ZM603.989 212.432C603.197 212.432 602.393 212.24 601.577 211.856C600.785 211.448 600.041 210.86 599.345 210.092H599.201L598.769 212H594.629V186.764H599.921V192.956L599.777 195.692C600.473 195.068 601.229 194.588 602.045 194.252C602.861 193.892 603.677 193.712 604.493 193.712C605.933 193.712 607.181 194.084 608.237 194.828C609.293 195.572 610.097 196.628 610.649 197.996C611.225 199.34 611.513 200.924 611.513 202.748C611.513 204.788 611.153 206.54 610.433 208.004C609.713 209.444 608.777 210.548 607.625 211.316C606.497 212.06 605.285 212.432 603.989 212.432ZM602.765 208.112C603.677 208.112 604.457 207.692 605.105 206.852C605.753 206.012 606.077 204.68 606.077 202.856C606.077 199.64 605.045 198.032 602.981 198.032C601.925 198.032 600.905 198.572 599.921 199.652V206.96C600.401 207.392 600.881 207.692 601.361 207.86C601.841 208.028 602.309 208.112 602.765 208.112ZM623.258 212.432C621.554 212.432 620.018 212.06 618.65 211.316C617.282 210.572 616.202 209.504 615.41 208.112C614.618 206.72 614.222 205.04 614.222 203.072C614.222 201.128 614.618 199.46 615.41 198.068C616.226 196.676 617.282 195.608 618.578 194.864C619.874 194.096 621.23 193.712 622.646 193.712C624.35 193.712 625.754 194.096 626.858 194.864C627.986 195.608 628.826 196.628 629.378 197.924C629.954 199.196 630.242 200.648 630.242 202.28C630.242 202.736 630.218 203.192 630.17 203.648C630.122 204.08 630.074 204.404 630.026 204.62H619.334C619.574 205.916 620.114 206.876 620.954 207.5C621.794 208.1 622.802 208.4 623.978 208.4C625.25 208.4 626.534 208.004 627.83 207.212L629.594 210.416C628.682 211.04 627.662 211.532 626.534 211.892C625.406 212.252 624.314 212.432 623.258 212.432ZM619.298 201.128H625.742C625.742 200.144 625.502 199.34 625.022 198.716C624.566 198.068 623.81 197.744 622.754 197.744C621.938 197.744 621.206 198.032 620.558 198.608C619.91 199.16 619.49 200 619.298 201.128ZM632.681 212V209.156L640.169 198.284H633.509V194.144H646.757V196.952L639.269 207.86H647.009V212H632.681ZM650.211 218.624V194.144H654.531L654.891 195.908H655.035C655.731 195.284 656.511 194.768 657.375 194.36C658.263 193.928 659.175 193.712 660.111 193.712C662.271 193.712 663.975 194.54 665.223 196.196C666.471 197.828 667.095 200.024 667.095 202.784C667.095 204.824 666.735 206.564 666.015 208.004C665.295 209.444 664.359 210.548 663.207 211.316C662.079 212.06 660.867 212.432 659.571 212.432C658.803 212.432 658.059 212.276 657.339 211.964C656.619 211.628 655.947 211.16 655.323 210.56L655.503 213.404V218.624H650.211ZM658.347 208.112C659.259 208.112 660.039 207.692 660.687 206.852C661.335 206.012 661.659 204.68 661.659 202.856C661.659 199.64 660.627 198.032 658.563 198.032C657.531 198.032 656.511 198.572 655.503 199.652V206.96C655.983 207.392 656.463 207.692 656.943 207.86C657.423 208.028 657.891 208.112 658.347 208.112ZM678.84 212.432C677.136 212.432 675.6 212.06 674.232 211.316C672.864 210.572 671.784 209.504 670.992 208.112C670.2 206.72 669.804 205.04 669.804 203.072C669.804 201.128 670.2 199.46 670.992 198.068C671.808 196.676 672.864 195.608 674.16 194.864C675.456 194.096 676.812 193.712 678.228 193.712C679.932 193.712 681.336 194.096 682.44 194.864C683.568 195.608 684.408 196.628 684.96 197.924C685.536 199.196 685.824 200.648 685.824 202.28C685.824 202.736 685.8 203.192 685.752 203.648C685.704 204.08 685.656 204.404 685.608 204.62H674.916C675.156 205.916 675.696 206.876 676.536 207.5C677.376 208.1 678.384 208.4 679.56 208.4C680.832 208.4 682.116 208.004 683.412 207.212L685.176 210.416C684.264 211.04 683.244 211.532 682.116 211.892C680.988 212.252 679.896 212.432 678.84 212.432ZM674.88 201.128H681.324C681.324 200.144 681.084 199.34 680.604 198.716C680.148 198.068 679.392 197.744 678.336 197.744C677.52 197.744 676.788 198.032 676.14 198.608C675.492 199.16 675.072 200 674.88 201.128ZM697.257 212.432C695.601 212.432 694.101 212.072 692.757 211.352C691.437 210.608 690.381 209.54 689.589 208.148C688.821 206.732 688.437 205.04 688.437 203.072C688.437 201.08 688.869 199.388 689.733 197.996C690.597 196.604 691.737 195.548 693.153 194.828C694.569 194.084 696.093 193.712 697.725 193.712C698.829 193.712 699.801 193.892 700.641 194.252C701.505 194.612 702.273 195.068 702.945 195.62L700.461 199.04C699.621 198.344 698.817 197.996 698.049 197.996C696.777 197.996 695.757 198.452 694.989 199.364C694.245 200.276 693.873 201.512 693.873 203.072C693.873 204.608 694.245 205.844 694.989 206.78C695.757 207.692 696.717 208.148 697.869 208.148C698.445 208.148 699.009 208.028 699.561 207.788C700.113 207.524 700.617 207.212 701.073 206.852L703.161 210.308C702.273 211.076 701.313 211.628 700.281 211.964C699.249 212.276 698.241 212.432 697.257 212.432ZM694.449 191.228L690.561 186.512L692.577 184.64L697.077 187.952H697.221L701.721 184.64L703.737 186.512L699.849 191.228H694.449ZM706.285 212V194.144H710.605L710.965 196.412H711.109C711.877 195.692 712.717 195.068 713.629 194.54C714.565 193.988 715.633 193.712 716.833 193.712C718.777 193.712 720.181 194.36 721.045 195.656C721.933 196.928 722.377 198.68 722.377 200.912V212H717.085V201.596C717.085 200.3 716.905 199.412 716.545 198.932C716.209 198.452 715.657 198.212 714.889 198.212C714.217 198.212 713.641 198.368 713.161 198.68C712.681 198.968 712.153 199.388 711.577 199.94V212H706.285ZM734.555 212.432C733.043 212.432 731.615 212.072 730.271 211.352C728.951 210.608 727.883 209.54 727.067 208.148C726.251 206.732 725.843 205.04 725.843 203.072C725.843 201.08 726.251 199.388 727.067 197.996C727.883 196.604 728.951 195.548 730.271 194.828C731.615 194.084 733.043 193.712 734.555 193.712C736.067 193.712 737.483 194.084 738.803 194.828C740.123 195.548 741.191 196.604 742.007 197.996C742.823 199.388 743.231 201.08 743.231 203.072C743.231 205.04 742.823 206.732 742.007 208.148C741.191 209.54 740.123 210.608 738.803 211.352C737.483 212.072 736.067 212.432 734.555 212.432ZM734.555 208.148C735.635 208.148 736.451 207.692 737.003 206.78C737.555 205.844 737.831 204.608 737.831 203.072C737.831 201.512 737.555 200.276 737.003 199.364C736.451 198.452 735.635 197.996 734.555 197.996C733.451 197.996 732.623 198.452 732.071 199.364C731.543 200.276 731.279 201.512 731.279 203.072C731.279 204.608 731.543 205.844 732.071 206.78C732.623 207.692 733.451 208.148 734.555 208.148ZM751.936 212.432C750.76 212.432 749.548 212.204 748.3 211.748C747.076 211.292 746.008 210.692 745.096 209.948L747.472 206.636C748.288 207.236 749.068 207.704 749.812 208.04C750.58 208.352 751.336 208.508 752.08 208.508C752.872 208.508 753.448 208.376 753.808 208.112C754.168 207.824 754.348 207.452 754.348 206.996C754.348 206.588 754.168 206.252 753.808 205.988C753.472 205.724 753.028 205.484 752.476 205.268C751.924 205.028 751.336 204.788 750.712 204.548C749.992 204.26 749.272 203.9 748.552 203.468C747.856 203.036 747.268 202.484 746.788 201.812C746.308 201.116 746.068 200.276 746.068 199.292C746.068 197.636 746.692 196.292 747.94 195.26C749.212 194.228 750.868 193.712 752.908 193.712C754.276 193.712 755.476 193.952 756.508 194.432C757.564 194.888 758.464 195.404 759.208 195.98L756.832 199.148C756.208 198.668 755.584 198.296 754.96 198.032C754.336 197.768 753.712 197.636 753.088 197.636C751.72 197.636 751.036 198.104 751.036 199.04C751.036 199.616 751.372 200.06 752.044 200.372C752.74 200.66 753.544 200.972 754.456 201.308C755.224 201.572 755.968 201.92 756.688 202.352C757.432 202.76 758.044 203.312 758.524 204.008C759.028 204.68 759.28 205.568 759.28 206.672C759.28 208.28 758.656 209.648 757.408 210.776C756.16 211.88 754.336 212.432 751.936 212.432ZM768.814 212.432C766.606 212.432 765.022 211.796 764.062 210.524C763.126 209.252 762.658 207.584 762.658 205.52V198.284H760.21V194.36L762.946 194.144L763.558 189.392H767.95V194.144H772.234V198.284H767.95V205.448C767.95 206.456 768.154 207.188 768.562 207.644C768.994 208.076 769.558 208.292 770.254 208.292C770.542 208.292 770.83 208.256 771.118 208.184C771.43 208.112 771.706 208.028 771.946 207.932L772.774 211.784C772.318 211.928 771.754 212.072 771.082 212.216C770.434 212.36 769.678 212.432 768.814 212.432ZM775.719 212V194.144H781.011V212H775.719ZM778.347 191.516C777.459 191.516 776.739 191.264 776.187 190.76C775.635 190.256 775.359 189.584 775.359 188.744C775.359 187.904 775.635 187.232 776.187 186.728C776.739 186.224 777.459 185.972 778.347 185.972C779.235 185.972 779.955 186.224 780.507 186.728C781.059 187.232 781.335 187.904 781.335 188.744C781.335 189.584 781.059 190.256 780.507 190.76C779.955 191.264 779.235 191.516 778.347 191.516ZM349.93 252.432C348.274 252.432 346.774 252.072 345.43 251.352C344.11 250.608 343.054 249.54 342.262 248.148C341.494 246.732 341.11 245.04 341.11 243.072C341.11 241.08 341.542 239.388 342.406 237.996C343.27 236.604 344.41 235.548 345.826 234.828C347.242 234.084 348.766 233.712 350.398 233.712C351.502 233.712 352.474 233.892 353.314 234.252C354.178 234.612 354.946 235.068 355.618 235.62L353.134 239.04C352.294 238.344 351.49 237.996 350.722 237.996C349.45 237.996 348.43 238.452 347.662 239.364C346.918 240.276 346.546 241.512 346.546 243.072C346.546 244.608 346.918 245.844 347.662 246.78C348.43 247.692 349.39 248.148 350.542 248.148C351.118 248.148 351.682 248.028 352.234 247.788C352.786 247.524 353.29 247.212 353.746 246.852L355.834 250.308C354.946 251.076 353.986 251.628 352.954 251.964C351.922 252.276 350.914 252.432 349.93 252.432ZM365.932 252.432C364.228 252.432 362.692 252.06 361.324 251.316C359.956 250.572 358.876 249.504 358.084 248.112C357.292 246.72 356.896 245.04 356.896 243.072C356.896 241.128 357.292 239.46 358.084 238.068C358.9 236.676 359.956 235.608 361.252 234.864C362.548 234.096 363.904 233.712 365.32 233.712C367.024 233.712 368.428 234.096 369.532 234.864C370.66 235.608 371.5 236.628 372.052 237.924C372.628 239.196 372.916 240.648 372.916 242.28C372.916 242.736 372.892 243.192 372.844 243.648C372.796 244.08 372.748 244.404 372.7 244.62H362.008C362.248 245.916 362.788 246.876 363.628 247.5C364.468 248.1 365.476 248.4 366.652 248.4C367.924 248.4 369.208 248.004 370.504 247.212L372.268 250.416C371.356 251.04 370.336 251.532 369.208 251.892C368.08 252.252 366.988 252.432 365.932 252.432ZM361.972 241.128H368.416C368.416 240.144 368.176 239.34 367.696 238.716C367.24 238.068 366.484 237.744 365.428 237.744C364.612 237.744 363.88 238.032 363.232 238.608C362.584 239.16 362.164 240 361.972 241.128ZM381.828 252.432C380.652 252.432 379.44 252.204 378.192 251.748C376.968 251.292 375.9 250.692 374.988 249.948L377.364 246.636C378.18 247.236 378.96 247.704 379.704 248.04C380.472 248.352 381.228 248.508 381.972 248.508C382.764 248.508 383.34 248.376 383.7 248.112C384.06 247.824 384.24 247.452 384.24 246.996C384.24 246.588 384.06 246.252 383.7 245.988C383.364 245.724 382.92 245.484 382.368 245.268C381.816 245.028 381.228 244.788 380.604 244.548C379.884 244.26 379.164 243.9 378.444 243.468C377.748 243.036 377.16 242.484 376.68 241.812C376.2 241.116 375.96 240.276 375.96 239.292C375.96 237.636 376.584 236.292 377.832 235.26C379.104 234.228 380.76 233.712 382.8 233.712C384.168 233.712 385.368 233.952 386.4 234.432C387.456 234.888 388.356 235.404 389.1 235.98L386.724 239.148C386.1 238.668 385.476 238.296 384.852 238.032C384.228 237.768 383.604 237.636 382.98 237.636C381.612 237.636 380.928 238.104 380.928 239.04C380.928 239.616 381.264 240.06 381.936 240.372C382.632 240.66 383.436 240.972 384.348 241.308C385.116 241.572 385.86 241.92 386.58 242.352C387.324 242.76 387.936 243.312 388.416 244.008C388.92 244.68 389.172 245.568 389.172 246.672C389.172 248.28 388.548 249.648 387.3 250.776C386.052 251.88 384.228 252.432 381.828 252.432ZM398.706 252.432C396.498 252.432 394.914 251.796 393.954 250.524C393.018 249.252 392.55 247.584 392.55 245.52V238.284H390.102V234.36L392.838 234.144L393.45 229.392H397.842V234.144H402.126V238.284H397.842V245.448C397.842 246.456 398.046 247.188 398.454 247.644C398.886 248.076 399.45 248.292 400.146 248.292C400.434 248.292 400.722 248.256 401.01 248.184C401.322 248.112 401.598 248.028 401.838 247.932L402.666 251.784C402.21 251.928 401.646 252.072 400.974 252.216C400.326 252.36 399.57 252.432 398.706 252.432ZM405.611 252V234.144H409.931L410.291 236.412H410.435C411.203 235.692 412.043 235.068 412.955 234.54C413.891 233.988 414.959 233.712 416.159 233.712C418.103 233.712 419.507 234.36 420.371 235.656C421.259 236.928 421.703 238.68 421.703 240.912V252H416.411V241.596C416.411 240.3 416.231 239.412 415.871 238.932C415.535 238.452 414.983 238.212 414.215 238.212C413.543 238.212 412.967 238.368 412.487 238.68C412.007 238.968 411.479 239.388 410.903 239.94V252H405.611ZM434.205 252.432C432.501 252.432 430.965 252.06 429.597 251.316C428.229 250.572 427.149 249.504 426.357 248.112C425.565 246.72 425.169 245.04 425.169 243.072C425.169 241.128 425.565 239.46 426.357 238.068C427.173 236.676 428.229 235.608 429.525 234.864C430.821 234.096 432.177 233.712 433.593 233.712C435.297 233.712 436.701 234.096 437.805 234.864C438.933 235.608 439.773 236.628 440.325 237.924C440.901 239.196 441.189 240.648 441.189 242.28C441.189 242.736 441.165 243.192 441.117 243.648C441.069 244.08 441.021 244.404 440.973 244.62H430.281C430.521 245.916 431.061 246.876 431.901 247.5C432.741 248.1 433.749 248.4 434.925 248.4C436.197 248.4 437.481 248.004 438.777 247.212L440.541 250.416C439.629 251.04 438.609 251.532 437.481 251.892C436.353 252.252 435.261 252.432 434.205 252.432ZM430.245 241.128H436.689C436.689 240.144 436.449 239.34 435.969 238.716C435.513 238.068 434.757 237.744 433.701 237.744C432.885 237.744 432.153 238.032 431.505 238.608C430.857 239.16 430.437 240 430.245 241.128ZM443.802 259.056C443.058 259.056 442.446 259.008 441.966 258.912C441.462 258.816 441.03 258.696 440.67 258.552L441.606 254.664C441.846 254.736 442.086 254.796 442.326 254.844C442.542 254.892 442.77 254.916 443.01 254.916C443.706 254.916 444.186 254.676 444.45 254.196C444.738 253.74 444.882 253.02 444.882 252.036V234.144H450.174V251.892C450.174 253.188 449.982 254.376 449.598 255.456C449.214 256.536 448.554 257.4 447.618 258.048C446.706 258.72 445.434 259.056 443.802 259.056ZM447.546 231.516C446.658 231.516 445.938 231.264 445.386 230.76C444.834 230.256 444.558 229.584 444.558 228.744C444.558 227.904 444.834 227.232 445.386 226.728C445.938 226.224 446.658 225.972 447.546 225.972C448.434 225.972 449.154 226.224 449.706 226.728C450.258 227.232 450.534 227.904 450.534 228.744C450.534 229.584 450.258 230.256 449.706 230.76C449.154 231.264 448.434 231.516 447.546 231.516ZM462.072 258.624V234.144H466.392L466.752 235.908H466.896C467.592 235.284 468.372 234.768 469.236 234.36C470.124 233.928 471.036 233.712 471.972 233.712C474.132 233.712 475.836 234.54 477.084 236.196C478.332 237.828 478.956 240.024 478.956 242.784C478.956 244.824 478.596 246.564 477.876 248.004C477.156 249.444 476.22 250.548 475.068 251.316C473.94 252.06 472.728 252.432 471.432 252.432C470.664 252.432 469.92 252.276 469.2 251.964C468.48 251.628 467.808 251.16 467.184 250.56L467.364 253.404V258.624H462.072ZM470.208 248.112C471.12 248.112 471.9 247.692 472.548 246.852C473.196 246.012 473.52 244.68 473.52 242.856C473.52 239.64 472.488 238.032 470.424 238.032C469.392 238.032 468.372 238.572 467.364 239.652V246.96C467.844 247.392 468.324 247.692 468.804 247.86C469.284 248.028 469.752 248.112 470.208 248.112ZM482.709 252V234.144H487.029L487.389 237.276H487.533C488.181 236.076 488.961 235.188 489.873 234.612C490.785 234.012 491.697 233.712 492.609 233.712C493.113 233.712 493.533 233.748 493.869 233.82C494.205 233.868 494.493 233.952 494.733 234.072L493.869 238.644C493.557 238.548 493.245 238.476 492.933 238.428C492.645 238.38 492.309 238.356 491.925 238.356C491.253 238.356 490.545 238.608 489.801 239.112C489.081 239.592 488.481 240.432 488.001 241.632V252H482.709ZM504.693 252.432C502.989 252.432 501.453 252.06 500.085 251.316C498.717 250.572 497.637 249.504 496.845 248.112C496.053 246.72 495.657 245.04 495.657 243.072C495.657 241.128 496.053 239.46 496.845 238.068C497.661 236.676 498.717 235.608 500.013 234.864C501.309 234.096 502.665 233.712 504.081 233.712C505.785 233.712 507.189 234.096 508.293 234.864C509.421 235.608 510.261 236.628 510.813 237.924C511.389 239.196 511.677 240.648 511.677 242.28C511.677 242.736 511.653 243.192 511.605 243.648C511.557 244.08 511.509 244.404 511.461 244.62H500.769C501.009 245.916 501.549 246.876 502.389 247.5C503.229 248.1 504.237 248.4 505.413 248.4C506.685 248.4 507.969 248.004 509.265 247.212L511.029 250.416C510.117 251.04 509.097 251.532 507.969 251.892C506.841 252.252 505.749 252.432 504.693 252.432ZM500.733 241.128H507.177C507.177 240.144 506.937 239.34 506.457 238.716C506.001 238.068 505.245 237.744 504.189 237.744C503.373 237.744 502.641 238.032 501.993 238.608C501.345 239.16 500.925 240 500.733 241.128ZM515.334 252V234.144H519.654L520.014 236.448H520.158C520.902 235.704 521.694 235.068 522.534 234.54C523.374 233.988 524.382 233.712 525.558 233.712C526.83 233.712 527.85 233.976 528.618 234.504C529.41 235.008 530.034 235.74 530.49 236.7C531.282 235.884 532.122 235.188 533.01 234.612C533.898 234.012 534.93 233.712 536.106 233.712C538.026 233.712 539.43 234.36 540.318 235.656C541.23 236.928 541.686 238.68 541.686 240.912V252H536.394V241.596C536.394 240.3 536.214 239.412 535.854 238.932C535.518 238.452 534.966 238.212 534.198 238.212C533.31 238.212 532.29 238.788 531.138 239.94V252H525.846V241.596C525.846 240.3 525.666 239.412 525.306 238.932C524.97 238.452 524.418 238.212 523.65 238.212C522.762 238.212 521.754 238.788 520.626 239.94V252H515.334ZM550.701 252.432C549.069 252.432 547.773 251.916 546.813 250.884C545.853 249.828 545.373 248.544 545.373 247.032C545.373 245.16 546.165 243.696 547.749 242.64C549.333 241.584 551.889 240.876 555.417 240.516C555.369 239.724 555.129 239.1 554.697 238.644C554.289 238.164 553.593 237.924 552.609 237.924C551.865 237.924 551.109 238.068 550.341 238.356C549.573 238.644 548.757 239.04 547.893 239.544L545.985 236.052C547.113 235.356 548.313 234.792 549.585 234.36C550.881 233.928 552.225 233.712 553.617 233.712C555.897 233.712 557.649 234.372 558.873 235.692C560.097 237.012 560.709 239.04 560.709 241.776V252H556.389L556.029 250.164H555.885C555.141 250.836 554.337 251.388 553.473 251.82C552.633 252.228 551.709 252.432 550.701 252.432ZM552.501 248.328C553.101 248.328 553.617 248.196 554.049 247.932C554.505 247.644 554.961 247.272 555.417 246.816V243.684C553.545 243.924 552.249 244.308 551.529 244.836C550.809 245.34 550.449 245.94 550.449 246.636C550.449 247.212 550.629 247.644 550.989 247.932C551.373 248.196 551.877 248.328 552.501 248.328ZM554.157 231.408L551.565 228.816L557.109 222.264L560.673 225.756L554.157 231.408ZM569.29 252L563.278 234.144H568.606L570.91 242.568C571.15 243.456 571.378 244.368 571.594 245.304C571.834 246.216 572.074 247.14 572.314 248.076H572.458C572.674 247.14 572.89 246.216 573.106 245.304C573.346 244.368 573.586 243.456 573.826 242.568L576.166 234.144H581.242L575.41 252H569.29ZM584.029 252V226.764H589.177V241.236H589.321L594.973 234.144H600.733L594.469 241.488L601.201 252H595.477L591.445 245.052L589.177 247.608V252H584.029ZM605.732 258.984C605.204 258.984 604.736 258.948 604.328 258.876C603.944 258.804 603.572 258.72 603.212 258.624L604.148 254.592C604.316 254.616 604.508 254.652 604.724 254.7C604.94 254.772 605.144 254.808 605.336 254.808C606.224 254.808 606.908 254.592 607.388 254.16C607.868 253.728 608.228 253.164 608.468 252.468L608.72 251.532L601.844 234.144H607.172L609.728 241.812C609.992 242.628 610.232 243.456 610.448 244.296C610.664 245.136 610.892 246 611.132 246.888H611.276C611.468 246.048 611.66 245.208 611.852 244.368C612.068 243.504 612.284 242.652 612.5 241.812L614.66 234.144H619.736L613.544 252.18C612.992 253.668 612.38 254.916 611.708 255.924C611.036 256.956 610.22 257.724 609.26 258.228C608.324 258.732 607.148 258.984 605.732 258.984Z" fill="white"/>
</g>
<path style="mix-blend-mode:overlay" opacity="0.6" d="M702.256 222.249C688.485 201.827 560.458 199.572 539.017 215.746C502.986 242.945 397.92 262.821 341.635 251.857C290.586 241.912 240.225 215.604 196.002 186.97C151.779 158.335 111.248 126.497 65.5296 99.2869C-18.856 49.0316 -119.482 17.0628 -210.564 10.1089L-333.082 296.096C-309.766 309.944 -286.235 323.496 -261.957 335.256C-177.049 376.445 -79.8777 395.514 -1.96231 386.282C51.0577 380.028 94.0459 361.576 143.54 350.777C197.189 339.089 258.579 336.537 323.008 343.301C392.72 350.623 499.899 340.109 555.056 324.208C584.107 315.842 699.265 269.218 705.485 246.22C707.456 238.946 707.943 230.663 702.256 222.249Z" fill="url(#paint10_linear_1356_20476)"/>
<g opacity="0.8">
<path d="M614.792 89.5736C663.437 40.9497 663.437 -37.8852 614.792 -86.5091C566.146 -135.133 487.277 -135.133 438.631 -86.5092C389.986 -37.8853 389.986 40.9497 438.631 89.5736C487.277 138.198 566.146 138.198 614.792 89.5736Z" fill="url(#paint11_linear_1356_20476)"/>
<path style="mix-blend-mode:multiply" opacity="0.15" d="M651.02 12.6814C644.414 21.0438 637.699 29.3092 630.51 37.2293C612.298 57.1806 590.32 74.8875 564.228 81.8904C536.711 89.271 507.014 84.0484 480.76 73.0315C465.485 66.6653 450.772 58.238 439.534 46.0558C423.309 28.4568 415.58 4.21096 414.608 -19.6896C414.168 -32.7148 415.218 -45.7477 417.739 -58.5347C408.854 -42.3124 403.697 -24.3155 402.642 -5.85166C401.587 12.6121 404.661 31.079 411.639 48.2069C418.618 65.3348 429.327 80.6934 442.987 93.1667C456.648 105.64 472.916 114.915 490.612 120.317C508.307 125.719 526.984 127.112 545.285 124.396C563.587 121.68 581.053 114.923 596.415 104.615C611.776 94.3071 624.648 80.7079 634.093 64.8055C643.539 48.9031 649.321 31.0971 651.02 12.6814Z" fill="url(#paint12_linear_1356_20476)"/>
<path d="M534.899 76.2466C522.797 76.2466 522.776 95.0649 534.899 95.0649C547.021 95.0649 547.032 76.2466 534.899 76.2466Z" fill="url(#paint13_linear_1356_20476)"/>
<path d="M523.963 112.092C515.878 112.092 511.97 118.566 512.25 124.868C517.14 125.456 522.061 125.755 526.986 125.764C529.9 125.764 532.783 125.634 535.622 125.429C536.205 118.987 532.275 112.092 523.963 112.092Z" fill="url(#paint14_linear_1356_20476)"/>
<path d="M484.109 63.2555C494.25 63.2555 502.471 55.038 502.471 44.9012C502.471 34.7644 494.25 26.5469 484.109 26.5469C473.967 26.5469 465.746 34.7644 465.746 44.9012C465.746 55.038 473.967 63.2555 484.109 63.2555Z" fill="url(#paint15_linear_1356_20476)"/>
<path d="M471.132 57.8817C468.559 55.3188 466.805 52.0505 466.092 48.4904C465.378 44.9304 465.738 41.2389 467.125 37.8833C468.512 34.5278 470.864 31.6592 473.884 29.6408C476.903 27.6224 480.454 26.5449 484.086 26.5449C487.718 26.5449 491.269 27.6224 494.288 29.6408C497.308 31.6592 499.66 34.5278 501.047 37.8833C502.434 41.2389 502.794 44.9304 502.08 48.4904C501.367 52.0505 499.613 55.3188 497.04 57.8817C493.6 61.3081 488.942 63.232 484.086 63.232C479.23 63.232 474.572 61.3081 471.132 57.8817Z" fill="url(#paint16_linear_1356_20476)"/>
<path d="M592.037 37.2292C594.826 39.3088 596.936 42.1682 598.099 45.446C599.263 48.7238 599.428 52.2728 598.573 55.6444C597.719 59.0159 595.884 62.0586 593.3 64.3879C590.717 66.7172 587.5 68.2285 584.057 68.7307C580.614 69.2329 577.099 68.7035 573.957 67.2094C570.815 65.7153 568.186 63.3236 566.404 60.3366C564.622 57.3496 563.765 53.9015 563.943 50.4281C564.121 46.9546 565.325 43.6119 567.403 40.8224C568.782 38.9665 570.514 37.4009 572.5 36.2154C574.485 35.03 576.685 34.2479 578.974 33.9141C581.262 33.5803 583.594 33.7013 585.836 34.2701C588.078 34.839 590.185 35.8446 592.037 37.2292Z" fill="url(#paint17_linear_1356_20476)"/>
<path d="M584.093 68.726C580.647 69.234 577.127 68.7087 573.98 67.2166C570.833 65.7246 568.199 63.3329 566.412 60.3441C564.624 57.3553 563.765 53.9039 563.94 50.4264C564.116 46.9489 565.32 43.6018 567.4 40.8085C569.48 38.0152 572.341 35.9013 575.623 34.7343C578.905 33.5673 582.46 33.3995 585.837 34.2524C589.215 35.1052 592.263 36.9403 594.597 39.5254C596.93 42.1104 598.444 45.3293 598.947 48.7748C599.621 53.3888 598.435 58.0814 595.649 61.8221C592.864 65.5628 588.708 68.0459 584.093 68.726Z" fill="url(#paint18_linear_1356_20476)"/>
<path d="M628.729 -20.5532C628.729 -14.7911 627.02 -9.15834 623.817 -4.3673C620.614 0.423733 616.062 4.15789 610.736 6.36296C605.41 8.56803 599.55 9.14497 593.896 8.02084C588.242 6.8967 583.049 4.12197 578.972 0.0475349C574.896 -4.02691 572.12 -9.21806 570.996 -14.8695C569.871 -20.5209 570.448 -26.3787 572.654 -31.7022C574.86 -37.0257 578.596 -41.5758 583.389 -44.7771C588.182 -47.9783 593.818 -49.687 599.582 -49.687C607.312 -49.687 614.726 -46.6176 620.192 -41.1539C625.658 -35.6903 628.729 -28.28 628.729 -20.5532Z" fill="url(#paint19_linear_1356_20476)"/>
<path d="M599.572 8.59148C615.675 8.59148 628.729 -4.45701 628.729 -20.5531C628.729 -36.6493 615.675 -49.6978 599.572 -49.6978C583.468 -49.6978 570.414 -36.6493 570.414 -20.5531C570.414 -4.45701 583.468 8.59148 599.572 8.59148Z" fill="url(#paint20_linear_1356_20476)"/>
<path d="M635.412 44.9011C635.407 48.7106 636.758 52.3977 639.223 55.3029C643.255 46.9403 646.326 38.1476 648.377 29.0933C644.727 29.8355 641.444 31.813 639.082 34.6926C636.721 37.5721 635.424 41.1776 635.412 44.9011Z" fill="url(#paint21_linear_1356_20476)"/>
<path d="M442.108 22.1352C444.403 12.4144 438.38 2.67434 428.655 0.380035C418.93 -1.91427 409.186 4.10603 406.89 13.8268C404.595 23.5475 410.618 33.2876 420.343 35.5819C430.068 37.8762 439.813 31.8559 442.108 22.1352Z" fill="url(#paint22_linear_1356_20476)"/>
<path opacity="0.15" d="M735.752 -62.6998C726.037 -89.4058 659.884 -80.4823 624.746 -73.6736C629.152 -68.686 633.124 -63.3327 636.621 -57.6715C656.764 -61.1784 675.3 -62.9588 689.949 -62.7538C711.129 -62.4516 717.487 -58.0276 718.016 -56.5062C720.823 -48.8127 705.677 -27.1134 653.925 2.40888C651.022 4.07059 648.02 5.75388 644.868 7.45875C614.005 24.2808 576.773 40.4663 537.263 54.321C507.135 64.9719 476.388 73.7858 445.192 80.7141C440.42 81.7932 435.822 82.6996 431.374 83.5628C360.472 97.3312 328.907 89.6593 325.733 80.9731C323.391 74.4989 344.754 48.818 403.005 15.9291C402.474 9.04315 402.572 2.12322 403.296 -4.74509C376.33 9.86498 352.548 25.3599 335.805 39.3873C312.499 58.8098 303.42 74.4558 308.073 87.1991C320.347 120.768 404.246 107.614 444.522 99.1764L447.221 98.6045L449.024 98.2052C481.003 91.1107 512.522 82.0806 543.405 71.1647C583.11 57.2452 620.623 40.9519 652.069 24.0327L653.936 23.0292C689.171 3.85479 746.666 -32.7351 735.752 -62.6998Z" fill="url(#paint23_linear_1356_20476)"/>
<path opacity="0.15" d="M735.752 -62.7003C726.037 -89.4063 659.884 -80.4827 624.746 -73.6741C629.152 -68.6865 633.124 -63.3331 636.621 -57.672C656.764 -61.1789 675.3 -62.9593 689.949 -62.7543C711.129 -62.4521 717.487 -58.0281 718.016 -56.5067C720.823 -48.8132 705.677 -27.1139 653.925 2.40839C651.022 4.07011 648.02 5.7534 644.868 7.45826C614.005 24.2803 576.773 40.4658 537.263 54.3206C507.135 64.9714 476.388 73.7853 445.192 80.7137C440.42 81.7927 435.822 82.6991 431.374 83.5623C360.472 97.3307 328.907 89.6588 325.733 80.9726C323.391 74.4984 344.754 48.8175 403.005 15.9286C402.474 9.04266 402.572 2.12273 403.296 -4.74558C376.33 9.86449 352.548 25.3594 335.805 39.3868C312.499 58.8093 303.42 74.4553 308.073 87.1986C320.347 120.767 404.246 107.614 444.522 99.1759L447.221 98.604L449.024 98.2047C481.003 91.1102 512.522 82.0801 543.405 71.1642C583.11 57.2447 620.623 40.9514 652.069 24.0322L653.936 23.0287C689.171 3.8543 746.666 -32.7356 735.752 -62.7003Z" fill="url(#paint24_linear_1356_20476)"/>
</g>
</g>
</g>
<defs>
<linearGradient id="paint0_linear_1356_20476" x1="19.9541" y1="484.747" x2="931.53" y2="-42.4336" gradientUnits="userSpaceOnUse">
<stop offset="0.08" stop-color="#241E45"/>
<stop offset="0.348958" stop-color="#293961"/>
<stop offset="0.651042" stop-color="#31618A"/>
<stop offset="1" stop-color="#2E9992"/>
</linearGradient>
<radialGradient id="paint1_radial_1356_20476" cx="0" cy="0" r="1" gradientUnits="userSpaceOnUse" gradientTransform="translate(699.014 196.151) scale(340.876 330.396)">
<stop offset="0.01" stop-color="white" stop-opacity="0.4"/>
<stop offset="0.11" stop-color="white" stop-opacity="0.29"/>
<stop offset="0.23" stop-color="white" stop-opacity="0.18"/>
<stop offset="0.37" stop-color="white" stop-opacity="0.1"/>
<stop offset="0.52" stop-color="white" stop-opacity="0.04"/>
<stop offset="0.7" stop-color="white" stop-opacity="0.01"/>
<stop offset="0.99" stop-color="white" stop-opacity="0"/>
</radialGradient>
<radialGradient id="paint2_radial_1356_20476" cx="0" cy="0" r="1" gradientUnits="userSpaceOnUse" gradientTransform="translate(551.278 177.737) scale(384.476 372.484)">
<stop offset="0.01" stop-color="white" stop-opacity="0.3"/>
<stop offset="0.02" stop-color="white" stop-opacity="0.29"/>
<stop offset="0.16" stop-color="white" stop-opacity="0.18"/>
<stop offset="0.31" stop-color="white" stop-opacity="0.1"/>
<stop offset="0.47" stop-color="white" stop-opacity="0.04"/>
<stop offset="0.67" stop-color="white" stop-opacity="0.01"/>
<stop offset="0.99" stop-color="white" stop-opacity="0"/>
</radialGradient>
<linearGradient id="paint3_linear_1356_20476" x1="111.86" y1="11.006" x2="290.461" y2="223.975" gradientUnits="userSpaceOnUse">
<stop offset="0.06" stop-color="#241E45"/>
<stop offset="0.3" stop-color="#293961"/>
<stop offset="0.61" stop-color="#31618A"/>
</linearGradient>
<linearGradient id="paint4_linear_1356_20476" x1="668.635" y1="-404.401" x2="1060.71" y2="120.04" gradientUnits="userSpaceOnUse">
<stop offset="0.01" stop-color="white"/>
<stop offset="0.99" stop-color="white" stop-opacity="0"/>
</linearGradient>
<linearGradient id="paint5_linear_1356_20476" x1="419609" y1="408622" x2="480134" y2="142180" gradientUnits="userSpaceOnUse">
<stop offset="0.01" stop-color="white"/>
<stop offset="0.99" stop-color="white" stop-opacity="0"/>
</linearGradient>
<linearGradient id="paint6_linear_1356_20476" x1="-166.949" y1="431.11" x2="1055.56" y2="431.11" gradientUnits="userSpaceOnUse">
<stop offset="0.08" stop-color="#241E45"/>
<stop offset="0.25" stop-color="#293961" stop-opacity="0.47"/>
<stop offset="0.75" stop-color="#31618A" stop-opacity="0.69"/>
<stop offset="1" stop-color="#37B4AC"/>
</linearGradient>
<radialGradient id="paint7_radial_1356_20476" cx="0" cy="0" r="1" gradientUnits="userSpaceOnUse" gradientTransform="translate(862.241 19.583) scale(312.962 303.512)">
<stop offset="0.01" stop-color="white" stop-opacity="0.4"/>
<stop offset="0.11" stop-color="white" stop-opacity="0.29"/>
<stop offset="0.23" stop-color="white" stop-opacity="0.18"/>
<stop offset="0.37" stop-color="white" stop-opacity="0.1"/>
<stop offset="0.52" stop-color="white" stop-opacity="0.04"/>
<stop offset="0.7" stop-color="white" stop-opacity="0.01"/>
<stop offset="0.99" stop-color="white" stop-opacity="0"/>
</radialGradient>
<radialGradient id="paint8_radial_1356_20476" cx="0" cy="0" r="1" gradientUnits="userSpaceOnUse" gradientTransform="translate(474.062 18.3083) scale(333.414 323.346)">
<stop offset="0.01" stop-color="white" stop-opacity="0.3"/>
<stop offset="0.02" stop-color="white" stop-opacity="0.29"/>
<stop offset="0.16" stop-color="white" stop-opacity="0.18"/>
<stop offset="0.31" stop-color="white" stop-opacity="0.1"/>
<stop offset="0.47" stop-color="white" stop-opacity="0.04"/>
<stop offset="0.67" stop-color="white" stop-opacity="0.01"/>
<stop offset="0.99" stop-color="white" stop-opacity="0"/>
</radialGradient>
<linearGradient id="paint9_linear_1356_20476" x1="639.374" y1="533.768" x2="1153.85" y2="328.357" gradientUnits="userSpaceOnUse">
<stop offset="0.276042" stop-color="#31618A" stop-opacity="0.55"/>
<stop offset="0.588542" stop-color="#31618A" stop-opacity="0.54"/>
<stop offset="0.885417" stop-color="#37B4AC" stop-opacity="0.38"/>
</linearGradient>
<linearGradient id="paint10_linear_1356_20476" x1="582.117" y1="892.137" x2="535.052" y2="114.642" gradientUnits="userSpaceOnUse">
<stop offset="0.01" stop-color="white" stop-opacity="0.7"/>
<stop offset="0.984375" stop-color="white" stop-opacity="0"/>
</linearGradient>
<linearGradient id="paint11_linear_1356_20476" x1="402.145" y1="1.52632" x2="651.274" y2="1.52631" gradientUnits="userSpaceOnUse">
<stop stop-color="#37B4AC"/>
<stop offset="1" stop-color="#366528"/>
</linearGradient>
<linearGradient id="paint12_linear_1356_20476" x1="524.858" y1="-96.7431" x2="528.687" y2="119.473" gradientUnits="userSpaceOnUse">
<stop offset="0.01" stop-color="#222AFD"/>
<stop offset="0.99" stop-color="#9781FD"/>
</linearGradient>
<linearGradient id="paint13_linear_1356_20476" x1="517.151" y1="102.348" x2="556.807" y2="65.0071" gradientUnits="userSpaceOnUse">
<stop stop-color="#37B4AC"/>
<stop offset="0.45" stop-color="#378F6F"/>
<stop offset="1" stop-color="#366528"/>
</linearGradient>
<linearGradient id="paint14_linear_1356_20476" x1="545.931" y1="170.921" x2="518.111" y2="110.205" gradientUnits="userSpaceOnUse">
<stop stop-color="#37B4AC"/>
<stop offset="0.45" stop-color="#378F6F"/>
<stop offset="1" stop-color="#366528"/>
</linearGradient>
<linearGradient id="paint15_linear_1356_20476" x1="510.319" y1="49.0339" x2="460.641" y2="41.2041" gradientUnits="userSpaceOnUse">
<stop stop-color="#37B4AC"/>
<stop offset="0.45" stop-color="#378F6F"/>
<stop offset="1" stop-color="#366528"/>
</linearGradient>
<linearGradient id="paint16_linear_1356_20476" x1="465.745" y1="44.901" x2="502.47" y2="44.901" gradientUnits="userSpaceOnUse">
<stop stop-color="#37B4AC"/>
<stop offset="0.45" stop-color="#378F6F"/>
<stop offset="1" stop-color="#366528"/>
</linearGradient>
<linearGradient id="paint17_linear_1356_20476" x1="599.349" y1="61.3318" x2="561.466" y2="40.1793" gradientUnits="userSpaceOnUse">
<stop stop-color="#37B4AC"/>
<stop offset="0.45" stop-color="#378F6F"/>
<stop offset="1" stop-color="#366528"/>
</linearGradient>
<linearGradient id="paint18_linear_1356_20476" x1="563.917" y1="51.3105" x2="599.131" y2="51.3105" gradientUnits="userSpaceOnUse">
<stop stop-color="#37B4AC"/>
<stop offset="0.45" stop-color="#378F6F"/>
<stop offset="1" stop-color="#366528"/>
</linearGradient>
<linearGradient id="paint19_linear_1356_20476" x1="641.197" y1="-14.0035" x2="562.298" y2="-26.4446" gradientUnits="userSpaceOnUse">
<stop stop-color="#37B4AC"/>
<stop offset="0.45" stop-color="#378F6F"/>
<stop offset="1" stop-color="#366528"/>
</linearGradient>
<linearGradient id="paint20_linear_1356_20476" x1="570.414" y1="-20.5531" x2="628.729" y2="-20.5531" gradientUnits="userSpaceOnUse">
<stop stop-color="#37B4AC"/>
<stop offset="0.45" stop-color="#378F6F"/>
<stop offset="1" stop-color="#366528"/>
</linearGradient>
<linearGradient id="paint21_linear_1356_20476" x1="635.412" y1="42.2035" x2="648.377" y2="42.2035" gradientUnits="userSpaceOnUse">
<stop stop-color="#37B4AC"/>
<stop offset="0.45" stop-color="#378F6F"/>
<stop offset="1" stop-color="#366528"/>
</linearGradient>
<linearGradient id="paint22_linear_1356_20476" x1="450.33" y1="22.0794" x2="401.365" y2="14.3577" gradientUnits="userSpaceOnUse">
<stop stop-color="#366528"/>
<stop offset="1" stop-color="#37B4AC"/>
</linearGradient>
<linearGradient id="paint23_linear_1356_20476" x1="304.454" y1="58.938" x2="745.229" y2="-35.5556" gradientUnits="userSpaceOnUse">
<stop offset="0.01" stop-color="white"/>
<stop offset="0.17" stop-color="#FCFCFC"/>
<stop offset="0.31" stop-color="#F1F1F4"/>
<stop offset="0.45" stop-color="#E0DFE5"/>
<stop offset="0.58" stop-color="#C8C7D1"/>
<stop offset="0.7" stop-color="#A9A7B7"/>
<stop offset="0.82" stop-color="#827F97"/>
<stop offset="0.94" stop-color="#565171"/>
<stop offset="0.99" stop-color="#403B5F"/>
</linearGradient>
<linearGradient id="paint24_linear_1356_20476" x1="304.454" y1="58.9375" x2="745.229" y2="-35.5561" gradientUnits="userSpaceOnUse">
<stop offset="0.01" stop-color="white"/>
<stop offset="0.17" stop-color="#FCFCFC"/>
<stop offset="0.31" stop-color="#F1F1F4"/>
<stop offset="0.45" stop-color="#E0DFE5"/>
<stop offset="0.58" stop-color="#C8C7D1"/>
<stop offset="0.7" stop-color="#A9A7B7"/>
<stop offset="0.82" stop-color="#827F97"/>
<stop offset="0.94" stop-color="#565171"/>
<stop offset="0.99" stop-color="#403B5F"/>
</linearGradient>
<clipPath id="clip0_1356_20476">
<rect width="962.047" height="383" fill="white"/>
</clipPath>
<clipPath id="clip1_1356_20476">
<rect width="964" height="445" fill="white" transform="translate(-3 -2)"/>
</clipPath>
<clipPath id="clip2_1356_20476">
<rect width="964" height="445" fill="white" transform="translate(-3.59375 -2)"/>
</clipPath>
</defs>
</svg>
