<svg width="137" height="58" viewBox="0 0 137 58" fill="none" xmlns="http://www.w3.org/2000/svg">
<path d="M129.189 15.0639C127.961 15.6306 126.739 16.2563 125.531 16.9423L123.577 15.9982C124.845 15.3363 126.124 14.7387 127.401 14.2003L129.189 15.0639ZM114.502 22.2023C114.784 21.9547 115.067 21.71 115.352 21.4711L117.677 22.5944C117.396 22.8487 117.117 23.1074 116.841 23.3715C115.823 24.3449 114.875 25.3599 113.988 26.4057C113.972 26.425 113.955 26.444 113.938 26.4632L111.402 25.2377C111.786 24.818 112.178 24.403 112.585 23.9959C112.926 23.6552 113.272 23.3256 113.62 23.0015C113.912 22.73 114.206 22.4632 114.502 22.2023ZM109.351 27.6613L112 28.9415C111.874 29.1158 111.755 29.2929 111.632 29.4683C110.561 30.9912 109.599 32.5532 108.744 34.1308L105.866 32.8595C106.505 31.7504 107.195 30.6524 107.942 29.5753C108.39 28.9292 108.859 28.2903 109.351 27.6613ZM117.522 19.7674C118.816 18.8173 120.138 17.9474 121.479 17.1607L123.523 18.1481C122.973 18.4986 122.427 18.8667 121.886 19.2464C121.163 19.753 120.449 20.2827 119.746 20.842L117.522 19.7674ZM136.315 14.0225C136.318 14.0217 136.325 14.0199 136.325 14.0199C136.343 14.025 136.212 13.9877 135.956 13.9268V9.39428H125.621C125.881 8.65921 126.018 7.86564 126.003 7.0391C125.966 4.86389 124.898 2.95073 123.279 1.76367C124.558 2.9541 125.372 4.64814 125.405 6.54194C125.464 9.95695 122.965 12.8148 119.691 13.2569C119.645 13.263 119.598 13.2697 119.552 13.2749C119.479 13.2832 119.406 13.2898 119.332 13.2957C119.23 13.3035 119.126 13.3095 119.022 13.3125C118.992 13.3135 118.961 13.316 118.93 13.3166C118.889 13.3171 118.849 13.314 118.807 13.314C118.678 13.3139 118.549 13.3121 118.421 13.3046C118.293 13.2968 118.167 13.2829 118.041 13.2677C118.003 13.2634 117.965 13.2606 117.928 13.2555C117.778 13.2349 117.629 13.2088 117.483 13.1781C117.473 13.176 117.463 13.1743 117.452 13.1722C115.383 12.7281 113.667 11.3028 112.814 9.39428H107.402C105.123 7.67191 103.561 6.15645 103.559 6.17118C103.549 6.23795 104.444 8.60071 104.444 8.60071C104.401 8.62189 99.9175 5.27871 99.9175 5.27871L101.895 9.39428H0V46.0176H86.1296C85.5039 47.3864 85.1714 48.2365 85.1283 48.3479C85.1246 48.3499 85.1171 48.3537 85.1146 48.3549C84.8594 48.8898 84.7284 49.1863 84.7284 49.1863C84.7282 49.1861 89.2981 46.8997 94.9421 46.0107C95.15 45.978 95.6143 45.9124 95.6363 45.9094C95.844 45.8815 96.32 45.8257 96.3484 45.8227C96.5529 45.8003 97.0343 45.7559 97.0689 45.7533C97.2698 45.7364 98.1914 45.6816 98.3895 45.6752C98.4278 45.6737 98.4664 45.6739 98.5047 45.6728C99.1697 45.6544 99.8389 45.6622 100.508 45.7031C100.522 45.704 100.565 45.7059 100.565 45.7059C100.565 45.7059 100.565 45.7059 100.566 45.7059C100.567 45.7019 101.439 42.8583 101.457 42.8049C101.56 42.4951 102.057 41.0791 102.172 40.771C102.21 40.6668 102.253 40.5619 102.292 40.4574C102.393 40.1924 102.705 39.4013 102.758 39.2712C102.855 39.03 102.952 38.7889 103.053 38.5472C103.132 38.3606 103.456 37.6154 103.539 37.4294C103.706 37.0564 103.878 36.6834 104.056 36.3102L107.023 37.6214C105.779 40.3902 104.818 43.138 104.076 45.7196C104.076 45.7196 103.92 46.2256 103.891 46.327C113.809 48.8877 119.715 57.1232 119.715 57.1232C119.715 57.1232 119.464 52.1658 119.856 46.0176H135.956V14.5976C136.611 14.2827 136.998 14.1535 136.998 14.1535C137.023 14.1602 136.781 14.104 136.315 14.0225Z" fill="#50B848"/>
<path d="M118.944 13.3182C122.587 13.2541 125.489 10.2208 125.425 6.54348C125.361 2.86614 122.357 -0.0630761 118.714 0.00103254C115.07 0.0651412 112.169 3.09803 112.232 6.77551C112.296 10.4527 115.301 13.3821 118.944 13.3182Z" fill="#00652E"/>
<path d="M127.399 14.2021L129.186 15.0657C127.959 15.6325 126.737 16.2581 125.529 16.9441L123.575 16C124.843 15.3383 126.121 14.7407 127.399 14.2021ZM123.521 18.1499C122.236 18.9679 120.974 19.8652 119.743 20.8438L117.52 19.7692C118.813 18.8191 120.135 17.9492 121.477 17.1625L123.521 18.1499ZM109.348 27.6631L111.997 28.9433C110.774 30.6306 109.695 32.3735 108.742 34.1326L105.864 32.8613C106.886 31.0867 108.038 29.3406 109.348 27.6631ZM113.936 26.4651L111.399 25.2395C111.784 24.8198 112.176 24.4048 112.583 23.9977C113.479 23.1008 114.405 22.2641 115.35 21.4729L117.675 22.5962C117.394 22.8505 117.115 23.1092 116.839 23.3733C115.802 24.3647 114.837 25.3988 113.936 26.4651ZM119.765 14.0509C119.765 14.0509 119.766 14.0508 119.766 14.0508C119.77 14.0494 119.775 14.0481 119.779 14.0467C119.765 14.0508 119.75 14.0541 119.735 14.0576C119.613 14.085 119.491 14.1121 119.368 14.1408C113.028 15.3819 103.562 6.13694 103.556 6.17299C103.546 6.23976 104.442 8.60252 104.442 8.60252C104.399 8.62371 99.9151 5.28052 99.9151 5.28052L102.917 11.528L100.112 11.2056C100.112 11.2056 104.251 16.0238 103.098 20.825C105.552 19.3773 107.997 18.3071 110.36 17.5262C108.088 18.7344 105.798 20.2505 103.547 22.1499C91.1487 32.6139 85.1211 48.3632 85.1211 48.3632C85.1205 48.3631 92.622 44.4085 100.731 45.136C101.551 42.2998 102.631 39.3 104.054 36.3123L107.021 37.6235C105.777 40.3921 104.816 43.1401 104.074 45.7217C113.992 48.2823 119.035 55.2175 119.035 55.2175C119.035 55.2175 118.312 37.4019 123.105 27.6596C128.99 15.6952 136.323 14.0219 136.323 14.0219C136.451 14.0581 129.149 11.9545 119.765 14.0509Z" fill="#00652E"/>
<path d="M107.026 37.6235L104.058 36.3123C102.171 40.2772 101.254 43.348 100.741 45.1162C101.279 45.169 101.859 45.2477 102.478 45.3635C102.991 45.4594 103.529 45.5855 104.075 45.7316L104.078 45.7217C104.82 43.1401 105.781 40.3922 107.026 37.6235ZM112.002 28.9436L109.353 27.6634C108.043 29.3409 106.891 31.0868 105.869 32.8615L108.746 34.1329C109.7 32.3736 110.779 30.6308 112.002 28.9436ZM117.679 22.5964L115.354 21.473C114.409 22.2644 113.484 23.101 112.587 23.998C112.181 24.4051 111.788 24.82 111.404 25.2397L113.941 26.4652C114.841 25.3991 115.807 24.3649 116.843 23.3734C117.119 23.1093 117.398 22.8507 117.679 22.5964ZM119.748 20.844C120.978 19.8654 122.24 18.968 123.525 18.1502L121.481 17.1628C120.14 17.9493 118.818 18.8193 117.525 19.7695L119.748 20.844ZM129.191 15.066L127.403 14.2024C126.126 14.7408 124.848 15.3384 123.579 16.0002L125.533 16.9443C126.742 16.2584 127.964 15.6326 129.191 15.066Z" fill="white"/>
<path d="M96.3334 21.2127H84.6863V17.8904H96.3334C96.8672 17.8904 97.1345 18.4493 97.1345 19.5671C97.1345 20.6645 96.8672 21.2127 96.3334 21.2127ZM99.6611 15.8722C98.8186 14.7341 97.7092 14.1646 96.3334 14.1646H80.9888V30.1238H84.6863V24.9386H96.3334C97.7093 24.9386 98.8187 24.3696 99.6611 23.2309C100.442 22.217 100.832 20.9954 100.832 19.5672C100.832 18.139 100.442 16.9075 99.6611 15.8722ZM79.6024 14.1646H62.6864V30.1238H79.5716V26.3978H66.384V24.007H78.7397V20.2812H66.384V17.8904H79.6025V14.1646H79.6024ZM61.2999 26.3978H49.0366C48.0505 26.3978 47.5576 25.9544 47.5576 25.0675V19.2207C47.5576 18.3339 48.0505 17.8904 49.0366 17.8904H61.2999V14.1646H49.0366C47.5985 14.1646 46.3761 14.6449 45.37 15.6054C44.3632 16.566 43.8601 17.7696 43.8601 19.2158V25.0724C43.8601 26.5191 44.3632 27.7222 45.37 28.6828C46.3761 29.6434 47.5985 30.1237 49.0366 30.1237H61.2999V26.3978ZM42.4737 14.1646H25.5576V30.1238H42.4428V26.3978H29.2551V24.007H41.6108V20.2812H29.2551V17.8904H42.4737V14.1646ZM8.426 26.3978V24.007H20.075C20.6074 24.007 20.8741 24.4058 20.8741 25.2025C20.8741 25.9995 20.6074 26.3978 20.075 26.3978H8.426ZM8.426 20.2812V17.8904H19.8265C20.3604 17.8904 20.6277 18.2892 20.6277 19.0858C20.6277 19.8828 20.3604 20.2812 19.8265 20.2812H8.426ZM24.2635 18.5648C24.2635 17.3669 23.8938 16.3549 23.1543 15.5282C22.3325 14.6191 21.2233 14.1646 19.8265 14.1646H4.72852V30.1238H20.1039C21.5006 30.1238 22.6098 29.6693 23.4316 28.76C24.1913 27.9337 24.5716 26.9218 24.5716 25.7235C24.5716 24.0711 23.9245 22.8418 22.6304 22.0355C23.7191 21.2092 24.2635 20.0522 24.2635 18.5648Z" fill="white"/>
<path d="M76.428 41.203H77.6302V35.7708H79.5265V34.7909H74.5513V35.7708H76.428V41.203ZM71.0334 35.6186C72.2356 35.6186 72.8513 36.7602 72.8513 37.9684C72.8513 39.3098 72.1965 40.3658 71.0334 40.3658C69.88 40.3658 69.2055 39.3287 69.2055 38.016C69.2055 36.6937 69.8409 35.6186 71.0334 35.6186ZM71.0723 34.6767C69.2153 34.6767 67.9346 36.0656 67.9346 38.0446C67.9346 39.9185 69.1076 41.3077 70.9745 41.3077C72.7827 41.3077 74.1218 40.0804 74.1218 37.9304C74.1221 36.0943 72.9882 34.6767 71.0723 34.6767ZM65.0618 41.203L67.3394 34.7909H66.0589L65.101 37.7211C64.8468 38.5014 64.6024 39.2813 64.4265 40.0425H64.407C64.2408 39.2622 64.0159 38.5201 63.7619 37.7117L62.8626 34.791H61.5528L63.6836 41.2032H65.0618V41.203ZM60.5274 34.7909H59.3252V41.203H60.5274V34.7909ZM56.1199 34.4485L57.117 33.3164H56.2275L55.6899 33.9442H55.6703L55.1131 33.3164H54.214L55.2208 34.4485H56.1199ZM53.0801 41.203H58.0553V40.2326H54.6831V40.2041L58.0064 35.4759V34.7909H53.3734V35.7614H56.4425V35.7899L53.0801 40.5561V41.203ZM49.9999 37.4072H47.5171V35.7518H50.1465V34.7908H46.3149V41.2029H50.293V40.242H47.5171V38.3584H49.9999V37.4072ZM41.673 35.6852C41.7902 35.6567 42.0347 35.6281 42.4158 35.6281C43.1978 35.6281 43.6963 35.9611 43.6963 36.6555C43.6963 37.293 43.1978 37.7116 42.3865 37.7116H41.673V35.6852ZM40.4805 41.203H41.673V38.5677H42.279C42.9632 38.5869 43.2662 38.8532 43.4617 39.6904C43.6377 40.4894 43.8038 41.0128 43.9015 41.203H45.1331C45.006 40.9557 44.8301 40.2136 44.6151 39.4144C44.4586 38.7961 44.1752 38.349 43.6963 38.1779V38.1494C44.3218 37.9401 44.8986 37.3787 44.8986 36.5509C44.8986 35.9992 44.6932 35.5521 44.3317 35.2571C43.882 34.8956 43.2467 34.7433 42.2985 34.7433C41.6045 34.7433 40.9399 34.8004 40.4805 34.886V41.203ZM35.9363 35.7043C36.0633 35.6758 36.298 35.6473 36.6303 35.6473C37.4611 35.6473 37.9694 36.0184 37.9694 36.7317C37.9694 37.4738 37.422 37.9113 36.5227 37.9113C36.2784 37.9113 36.0927 37.9018 35.9363 37.8542V35.7043ZM34.7438 41.203H35.9363V38.777C36.1024 38.8152 36.298 38.8247 36.5227 38.8247C37.3731 38.8247 38.116 38.5963 38.6048 38.1302C38.9663 37.7879 39.1619 37.293 39.1619 36.6841C39.1619 36.0849 38.9077 35.5806 38.5168 35.2667C38.0965 34.9243 37.4611 34.7435 36.5814 34.7435C35.7799 34.7435 35.1836 34.8006 34.7438 34.8768V41.203ZM27.8712 38.5012L28.3794 36.9219C28.4869 36.5415 28.5945 36.0943 28.6923 35.7232H28.7117C28.8095 36.0943 28.9171 36.5319 29.044 36.9219L29.5622 38.5012H27.8712ZM29.7577 39.386L30.3539 41.203H31.6539L29.5133 34.7909H27.9787L25.8675 41.203H27.1087L27.6757 39.386H29.7577ZM22.9262 41.203H24.1284V35.7708H26.0247V34.7909H21.0495V35.7708H22.9262V41.203ZM16.0263 40.8986C16.3879 41.1173 17.1112 41.3077 17.815 41.3077C19.5059 41.3077 20.3075 40.4134 20.3075 39.3764C20.3075 38.4537 19.7601 37.8923 18.6165 37.4738C17.7368 37.1408 17.3556 36.9124 17.3556 36.4178C17.3556 36.0372 17.6782 35.6473 18.4405 35.6473C19.0564 35.6473 19.5156 35.828 19.7601 35.9517L20.0435 35.0099C19.7015 34.8385 19.1833 34.6863 18.4699 34.6863C17.0331 34.6863 16.1337 35.4759 16.1337 36.5319C16.1337 37.4547 16.8277 38.016 17.9225 38.3966C18.7533 38.6914 19.0856 38.9769 19.0856 39.462C19.0856 39.9853 18.6556 40.3372 17.8931 40.3372C17.2774 40.3372 16.6811 40.147 16.3 39.9282L16.0263 40.8986ZM14.6978 37.4072H12.215V35.7518H14.8444V34.7908H11.0128V41.2029H14.9909V40.242H12.215V38.3584H14.6978V37.4072ZM9.51808 40.0994C9.19553 40.2326 8.68726 40.3278 8.20837 40.3278C6.75192 40.3278 5.91136 39.4335 5.91136 38.0161C5.91136 36.475 6.87902 35.6569 8.21811 35.6569C8.75561 35.6569 9.19552 35.7709 9.50834 35.9043L9.7624 34.972C9.51808 34.8483 8.96095 34.6865 8.16925 34.6865C6.15568 34.6865 4.64062 35.9614 4.64062 38.0735C4.64062 40.0332 5.91136 41.3081 8.00303 41.3081C8.80461 41.3081 9.4301 41.1559 9.71353 41.0226L9.51808 40.0994Z" fill="white"/>
</svg>
