<svg width="219" height="66" viewBox="0 0 219 66" fill="none" xmlns="http://www.w3.org/2000/svg">
<path d="M210.163 66H8.08317C3.63743 66 0 62.3369 0 57.8597V9.01819C0 4.54105 3.63743 0.87793 8.08317 0.87793H210.163C214.608 0.87793 218.246 4.54105 218.246 9.01819V57.8597C218.246 62.3369 214.608 66 210.163 66Z" fill="black"/>
<path d="M210.163 2.18037C213.907 2.18037 216.952 5.24762 216.952 9.01819V57.8597C216.952 61.6303 213.907 64.6975 210.163 64.6975H8.08317C4.33905 64.6975 1.29331 61.6303 1.29331 57.8597V9.01819C1.29331 5.24762 4.33905 2.18037 8.08317 2.18037H210.163ZM210.163 0.87793H8.08317C3.63743 0.87793 0 4.54105 0 9.01819V57.8597C0 62.3369 3.63743 66 8.08317 66H210.163C214.608 66 218.246 62.3369 218.246 57.8597V9.01819C218.246 4.54105 214.608 0.87793 210.163 0.87793Z" fill="#A6A6A6"/>
<path d="M110.151 36.2895C106.348 36.2895 103.249 39.202 103.249 43.2136C103.249 47.2007 106.348 50.1377 110.151 50.1377C113.955 50.1377 117.054 47.2007 117.054 43.2136C117.052 39.202 113.953 36.2895 110.151 36.2895ZM110.151 47.4123C108.067 47.4123 106.271 45.6817 106.271 43.2152C106.271 40.7226 108.068 39.0181 110.151 39.0181C112.235 39.0181 114.031 40.7226 114.031 43.2152C114.031 45.6801 112.235 47.4123 110.151 47.4123ZM95.0934 36.2895C91.291 36.2895 88.192 39.202 88.192 43.2136C88.192 47.2007 91.291 50.1377 95.0934 50.1377C98.8973 50.1377 101.996 47.2007 101.996 43.2136C101.996 39.202 98.8973 36.2895 95.0934 36.2895ZM95.0934 47.4123C93.0095 47.4123 91.2134 45.6817 91.2134 43.2152C91.2134 40.7226 93.0111 39.0181 95.0934 39.0181C97.1772 39.0181 98.9733 40.7226 98.9733 43.2152C98.9749 45.6801 97.1772 47.4123 95.0934 47.4123ZM77.1843 38.4157V41.3527H84.1649C83.9564 43.0052 83.41 44.2116 82.5758 45.05C81.5605 46.0724 79.9714 47.2007 77.1843 47.2007C72.8873 47.2007 69.5279 43.7117 69.5279 39.3844C69.5279 35.057 72.8873 31.5681 77.1843 31.5681C79.5025 31.5681 81.1952 32.4863 82.4448 33.6667L84.5028 31.5942C82.7568 29.9156 80.4402 28.6311 77.1843 28.6311C71.2981 28.6311 66.3496 33.4566 66.3496 39.3844C66.3496 45.3121 71.2981 50.1377 77.1843 50.1377C80.361 50.1377 82.7585 49.0876 84.6321 47.1209C86.5592 45.1802 87.1589 42.4516 87.1589 40.2489C87.1589 39.5684 87.1072 38.9383 87.0021 38.4141H77.1843V38.4157ZM150.431 40.6966C149.858 39.1499 148.113 36.2895 144.545 36.2895C141.003 36.2895 138.059 39.0962 138.059 43.2136C138.059 47.0948 140.977 50.1377 144.882 50.1377C148.033 50.1377 149.857 48.197 150.613 47.0688L148.269 45.4945C147.488 46.6487 146.42 47.4091 144.882 47.4091C143.347 47.4091 142.252 46.7008 141.549 45.3105L150.743 41.4813L150.431 40.6966ZM141.054 43.0052C140.977 40.3287 143.112 38.966 144.65 38.966C145.848 38.966 146.863 39.57 147.202 40.4345L141.054 43.0052ZM133.581 49.7193H136.6V29.367H133.581V49.7193ZM128.63 37.8377H128.527C127.85 37.0237 126.547 36.2895 124.907 36.2895C121.469 36.2895 118.318 39.3323 118.318 43.2412C118.318 47.1225 121.469 50.1393 124.907 50.1393C126.548 50.1393 127.85 49.405 128.527 48.5666H128.63V49.563C128.63 52.2118 127.224 53.6282 124.959 53.6282C123.11 53.6282 121.963 52.2916 121.495 51.1633L118.864 52.2655C119.619 54.1003 121.624 56.3568 124.959 56.3568C128.501 56.3568 131.497 54.2583 131.497 49.1429V36.7111H128.632V37.8377H128.63ZM125.168 47.4123C123.084 47.4123 121.339 45.654 121.339 43.2412C121.339 40.8008 123.084 39.0181 125.168 39.0181C127.224 39.0181 128.839 40.8008 128.839 43.2412C128.839 45.654 127.224 47.4123 125.168 47.4123ZM164.583 29.367H157.355V49.7193H160.37V42.0088H164.581C167.924 42.0088 171.213 39.5716 171.213 35.6887C171.213 31.8058 167.926 29.367 164.583 29.367ZM164.66 39.176H160.37V32.1998H164.66C166.916 32.1998 168.196 34.0802 168.196 35.6887C168.196 37.2647 166.916 39.176 164.66 39.176ZM183.303 36.2536C181.119 36.2536 178.858 37.2223 177.922 39.3697L180.599 40.4947C181.171 39.3697 182.238 39.0018 183.355 39.0018C184.915 39.0018 186.501 39.9444 186.527 41.6197V41.8297C185.981 41.5155 184.81 41.045 183.381 41.045C180.495 41.045 177.556 42.6421 177.556 45.6263C177.556 48.3501 179.923 50.1035 182.574 50.1035C184.602 50.1035 185.72 49.1869 186.422 48.1124H186.525V49.6834H189.439V41.8802C189.44 38.2692 186.76 36.2536 183.303 36.2536ZM182.938 47.4074C181.952 47.4074 180.573 46.9092 180.573 45.6784C180.573 44.1074 182.29 43.505 183.772 43.505C185.096 43.505 185.722 43.7931 186.527 44.1855C186.293 46.0724 184.681 47.4074 182.938 47.4074ZM200.047 36.6981L196.589 45.5221H196.485L192.897 36.6981H189.647L195.029 49.0306L191.96 55.8912H195.106L203.401 36.6981H200.047ZM172.878 49.7193H175.893V29.367H172.878V49.7193Z" fill="white"/>
<path d="M16.8676 13.1513C16.3972 13.6528 16.1191 14.431 16.1191 15.4387V51.4447C16.1191 52.4541 16.3972 53.2307 16.8676 53.7321L16.9873 53.8493L37.0158 33.6794V33.4417V33.204L16.9873 13.0325L16.8676 13.1513Z" fill="url(#paint0_linear_1221_17249)"/>
<path d="M43.6907 40.4023L37.0156 33.6768V33.4391V33.2014L43.6923 26.4775L43.8427 26.5638L51.7529 31.0898C54.0113 32.3825 54.0113 34.4973 51.7529 35.7916L43.8427 40.3176L43.6907 40.4023Z" fill="url(#paint1_linear_1221_17249)"/>
<path d="M43.8443 40.3171L37.0156 33.4402L16.8691 53.7306C17.6128 54.5251 18.8431 54.6228 20.2285 53.8315L43.8443 40.3171Z" fill="url(#paint2_linear_1221_17249)"/>
<path d="M43.8443 26.5629L20.2285 13.0501C18.8431 12.2572 17.6128 12.3565 16.8691 13.151L37.0173 33.4414L43.8443 26.5629Z" fill="url(#paint3_linear_1221_17249)"/>
<path opacity="0.2" d="M43.694 40.1655L20.2285 53.5937C18.9158 54.3442 17.7421 54.2938 16.9888 53.6116L16.8691 53.7321L16.9888 53.8493C17.7421 54.5331 18.9158 54.5836 20.2285 53.8314L43.8443 40.3186L43.694 40.1655Z" fill="black"/>
<path opacity="0.12" d="M16.8676 53.493C16.3972 52.9915 16.1191 52.2133 16.1191 51.2056V51.4433C16.1191 52.451 16.3972 53.2292 16.8676 53.7307L16.9873 53.6102L16.8676 53.493Z" fill="black"/>
<path opacity="0.12" d="M51.7539 35.5532L43.6934 40.1655L43.8437 40.3169L51.7539 35.7909C52.8839 35.1446 53.4481 34.2931 53.4481 33.4417C53.3527 34.2117 52.7772 34.9655 51.7539 35.5532Z" fill="black"/>
<path opacity="0.25" d="M20.227 13.2885L51.753 31.3273C52.7779 31.9134 53.3519 32.6688 53.4472 33.4405C53.4472 32.589 52.883 31.7359 51.753 31.0896L20.227 13.0508C17.967 11.7581 16.1191 12.8326 16.1191 15.4375V15.6752C16.1191 13.0703 17.967 11.9958 20.227 13.2885Z" fill="white"/>
<path d="M70.6317 22.0408H69.3853V13.4723H66.6758V12.2725H73.3412V13.4723H70.6317V22.0408Z" fill="white" stroke="white" stroke-width="0.2" stroke-miterlimit="10"/>
<path d="M80.5771 13.4723H76.1605V16.5689H80.1439V17.7427H76.1605V20.8393H80.5771V22.0408H74.9141V12.2725H80.5771V13.4723Z" fill="white" stroke="white" stroke-width="0.2" stroke-miterlimit="10"/>
<path d="M82.5273 22.0408V12.2725H85.8334C86.6546 12.2725 87.3659 12.5476 87.9657 13.0979C88.5671 13.6482 88.8678 14.3417 88.8678 15.1785C88.8678 15.8607 88.6463 16.4631 88.2033 16.9857C87.762 17.5083 87.2107 17.8371 86.5511 17.9739L86.5237 18.0146L89.2477 21.9854V22.0408H87.7717L85.1576 18.0846H83.7754V22.0408H82.5273ZM83.7738 16.9108H85.7784C86.2763 16.9108 86.7015 16.7464 87.0588 16.4191C87.416 16.0919 87.5939 15.6783 87.5939 15.1785C87.5939 14.7504 87.4355 14.3596 87.1202 14.0047C86.805 13.6498 86.3846 13.4723 85.8608 13.4723H83.7738V16.9108Z" fill="white" stroke="white" stroke-width="0.2" stroke-miterlimit="10"/>
<path d="M89.8125 22.0408L93.4709 12.2725H94.879L98.5375 22.0408H97.1569L96.2225 19.3936H92.1453L91.1947 22.0408H89.8125ZM92.5624 18.2197H95.786L94.2017 13.8126H94.1483L92.5624 18.2197Z" fill="white" stroke="white" stroke-width="0.2" stroke-miterlimit="10"/>
<path d="M99.4043 22.0408V20.7302L104.565 13.4723H99.6193V12.2725H106.013V13.583L100.853 20.8409H106.07V22.0408H99.4043Z" fill="white" stroke="white" stroke-width="0.2" stroke-miterlimit="10"/>
<path d="M111.109 22.0408V12.2725H112.626L117.34 19.8706H117.393L117.34 17.9886V12.2725H118.586V22.0408H117.285L112.356 14.0731H112.302L112.356 15.9551V22.0408H111.109Z" fill="white" stroke="white" stroke-width="0.2" stroke-miterlimit="10"/>
<path d="M119.996 22.0408L123.655 12.2725H125.063L128.721 22.0408H127.34L126.406 19.3936H122.329L121.377 22.0408H119.996ZM122.746 18.2197H125.97L124.385 13.8126H124.332L122.746 18.2197Z" fill="white" stroke="white" stroke-width="0.2" stroke-miterlimit="10"/>
<defs>
<linearGradient id="paint0_linear_1221_17249" x1="35.2404" y1="15.0578" x2="7.91909" y2="42.1875" gradientUnits="userSpaceOnUse">
<stop stop-color="#00A0FF"/>
<stop offset="0.0066" stop-color="#00A1FF"/>
<stop offset="0.2601" stop-color="#00BEFF"/>
<stop offset="0.5122" stop-color="#00D2FF"/>
<stop offset="0.7604" stop-color="#00DFFF"/>
<stop offset="1" stop-color="#00E3FF"/>
</linearGradient>
<linearGradient id="paint1_linear_1221_17249" x1="54.6927" y1="33.4391" x2="15.5768" y2="33.4391" gradientUnits="userSpaceOnUse">
<stop stop-color="#FFE000"/>
<stop offset="0.4087" stop-color="#FFBD00"/>
<stop offset="0.7754" stop-color="#FFA500"/>
<stop offset="1" stop-color="#FF9C00"/>
</linearGradient>
<linearGradient id="paint2_linear_1221_17249" x1="40.1359" y1="37.1748" x2="3.08481" y2="73.966" gradientUnits="userSpaceOnUse">
<stop stop-color="#FF3A44"/>
<stop offset="1" stop-color="#C31162"/>
</linearGradient>
<linearGradient id="paint3_linear_1221_17249" x1="11.7952" y1="1.16498" x2="28.3395" y2="17.5933" gradientUnits="userSpaceOnUse">
<stop stop-color="#32A071"/>
<stop offset="0.0685" stop-color="#2DA771"/>
<stop offset="0.4762" stop-color="#15CF74"/>
<stop offset="0.8009" stop-color="#06E775"/>
<stop offset="1" stop-color="#00F076"/>
</linearGradient>
</defs>
</svg>
