<svg width="219" height="66" viewBox="0 0 219 66" fill="none" xmlns="http://www.w3.org/2000/svg">
<path d="M210.163 65.9997H8.08317C3.63743 65.9997 0 62.3366 0 57.8595V9.01794C0 4.5408 3.63743 0.877686 8.08317 0.877686H210.163C214.608 0.877686 218.246 4.5408 218.246 9.01794V57.8595C218.246 62.3366 214.608 65.9997 210.163 65.9997Z" fill="black"/>
<path d="M210.163 2.18013C213.907 2.18013 216.952 5.24738 216.952 9.01794V57.8595C216.952 61.6301 213.907 64.6973 210.163 64.6973H8.08317C4.33905 64.6973 1.29331 61.6301 1.29331 57.8595V9.01794C1.29331 5.24738 4.33905 2.18013 8.08317 2.18013H210.163ZM210.163 0.877686H8.08317C3.63743 0.877686 0 4.5408 0 9.01794V57.8595C0 62.3366 3.63743 65.9997 8.08317 65.9997H210.163C214.608 65.9997 218.246 62.3366 218.246 57.8595V9.01794C218.246 4.5408 214.608 0.877686 210.163 0.877686Z" fill="#A6A6A6"/>
<path d="M52.3835 32.6333C52.401 31.2358 52.7622 29.8657 53.4335 28.6502C54.1048 27.4348 55.0643 26.4136 56.2229 25.6816C55.4869 24.6015 54.516 23.7125 53.3872 23.0854C52.2584 22.4583 51.0029 22.1103 49.7204 22.0691C46.9845 21.774 44.3322 23.7514 42.9381 23.7514C41.517 23.7514 39.3705 22.0984 37.059 22.1473C35.5639 22.1969 34.1069 22.6437 32.8297 23.4441C31.5526 24.2445 30.4991 25.3712 29.7717 26.7144C26.6207 32.3206 28.971 40.5598 31.9894 45.0914C33.4995 47.3104 35.2644 49.789 37.5737 49.7011C39.8336 49.6048 40.6776 48.2203 43.4054 48.2203C46.1079 48.2203 46.8997 49.7011 49.2559 49.6453C51.6808 49.6048 53.2086 47.4164 54.6658 45.1764C55.7508 43.5953 56.5857 41.8478 57.1396 39.9987C55.7308 39.3864 54.5286 38.3614 53.6828 37.0516C52.837 35.7419 52.3852 34.2052 52.3835 32.6333Z" fill="white"/>
<path d="M47.9339 19.0889C49.2561 17.4578 49.9074 15.3613 49.7497 13.2446C47.7297 13.4627 45.8639 14.4548 44.5238 16.0233C43.8687 16.7895 43.3669 17.681 43.0471 18.6466C42.7274 19.6123 42.596 20.6333 42.6605 21.6511C43.6708 21.6618 44.6704 21.4368 45.5838 20.993C46.4972 20.5491 47.3008 19.8981 47.9339 19.0889Z" fill="white"/>
<path d="M80.9493 44.0836H73.2375L71.3855 49.7032H68.1191L75.4236 28.9121H78.8173L86.1217 49.7032H82.7996L80.9493 44.0836ZM74.0362 41.4904H80.1491L77.1356 32.3702H77.0513L74.0362 41.4904Z" fill="white"/>
<path d="M101.897 42.1249C101.897 46.8355 99.4432 49.8619 95.7408 49.8619C94.8029 49.9123 93.8702 49.6903 93.0494 49.2213C92.2286 48.7522 91.553 48.0552 91.0998 47.2099H91.0297V54.7179H88.002V34.5449H90.9327V37.0662H90.9884C91.4624 36.2249 92.1495 35.5314 92.9765 35.0595C93.8036 34.5877 94.7396 34.355 95.6851 34.3863C99.4288 34.3864 101.897 37.4275 101.897 42.1249ZM98.7845 42.1249C98.7845 39.056 97.2411 37.0384 94.8864 37.0384C92.573 37.0384 91.017 39.0985 91.017 42.1249C91.017 45.1792 92.573 47.2246 94.8864 47.2246C97.2412 47.2246 98.7845 45.2217 98.7845 42.1249Z" fill="white"/>
<path d="M118.133 42.1249C118.133 46.8355 115.679 49.8619 111.977 49.8619C111.039 49.9123 110.107 49.6903 109.286 49.2213C108.465 48.7522 107.789 48.0552 107.336 47.2098H107.266V54.7179H104.238V34.5449H107.169V37.0661H107.225C107.699 36.2249 108.386 35.5314 109.213 35.0595C110.04 34.5877 110.976 34.355 111.921 34.3863C115.665 34.3863 118.133 37.4275 118.133 42.1249ZM115.021 42.1249C115.021 39.056 113.477 37.0384 111.123 37.0384C108.809 37.0384 107.253 39.0985 107.253 42.1249C107.253 45.1792 108.809 47.2246 111.123 47.2246C113.477 47.2246 115.021 45.2217 115.021 42.1249H115.021Z" fill="white"/>
<path d="M128.861 43.9103C129.085 45.972 131.034 47.3258 133.698 47.3258C136.25 47.3258 138.086 45.972 138.086 44.1129C138.086 42.4992 136.979 41.5329 134.357 40.8707L131.735 40.2216C128.019 39.2994 126.295 37.5139 126.295 34.6167C126.295 31.0294 129.337 28.5654 133.656 28.5654C137.932 28.5654 140.862 31.0294 140.961 34.6167H137.905C137.722 32.5418 136.053 31.2894 133.614 31.2894C131.174 31.2894 129.505 32.5566 129.505 34.4009C129.505 35.8708 130.571 36.7357 133.179 37.3978L135.408 37.9603C139.559 38.9691 141.284 40.6826 141.284 43.7237C141.284 47.6135 138.269 50.0497 133.473 50.0497C128.987 50.0497 125.957 47.6707 125.762 43.9101L128.861 43.9103Z" fill="white"/>
<path d="M147.82 30.9575V34.5448H150.625V37.0088H147.82V45.3654C147.82 46.6636 148.381 47.2686 149.614 47.2686C149.947 47.2626 150.28 47.2386 150.61 47.1966V49.6458C150.056 49.7523 149.492 49.8005 148.929 49.7897C145.942 49.7897 144.778 48.637 144.778 45.6973V37.0088H142.633V34.5448H144.777V30.9575H147.82Z" fill="white"/>
<path d="M152.248 42.1248C152.248 37.3554 154.981 34.3584 159.244 34.3584C163.521 34.3584 166.241 37.3553 166.241 42.1248C166.241 46.9073 163.535 49.8912 159.244 49.8912C154.954 49.8912 152.248 46.9072 152.248 42.1248ZM163.156 42.1248C163.156 38.8531 161.697 36.9221 159.244 36.9221C156.79 36.9221 155.333 38.8678 155.333 42.1248C155.333 45.4096 156.79 47.3258 159.244 47.3258C161.697 47.3258 163.156 45.4096 163.156 42.1248H163.156Z" fill="white"/>
<path d="M168.738 34.5448H171.626V37.1249H171.696C171.891 36.319 172.351 35.6069 172.997 35.1082C173.643 34.6094 174.437 34.3545 175.244 34.3862C175.593 34.3849 175.941 34.4239 176.281 34.5023V37.4126C175.841 37.2743 175.381 37.2108 174.921 37.2246C174.481 37.2063 174.043 37.286 173.636 37.4582C173.229 37.6305 172.863 37.8912 172.563 38.2225C172.263 38.5539 172.037 38.9479 171.899 39.3777C171.762 39.8074 171.716 40.2626 171.766 40.7121V49.7031H168.738L168.738 34.5448Z" fill="white"/>
<path d="M190.241 45.251C189.834 48.0027 187.226 49.8912 183.89 49.8912C179.599 49.8912 176.936 46.9367 176.936 42.1967C176.936 37.4421 179.613 34.3584 183.763 34.3584C187.844 34.3584 190.41 37.2393 190.41 41.8354V42.9014H179.992V43.0894C179.944 43.6473 180.012 44.2093 180.191 44.7381C180.371 45.2669 180.658 45.7504 181.033 46.1565C181.408 46.5626 181.863 46.882 182.368 47.0935C182.873 47.3049 183.415 47.4036 183.96 47.383C184.675 47.4519 185.394 47.2816 186.007 46.8975C186.621 46.5133 187.098 45.9359 187.366 45.2509L190.241 45.251ZM180.006 40.7268H187.381C187.408 40.2252 187.334 39.7233 187.163 39.2524C186.993 38.7816 186.729 38.3521 186.39 37.9909C186.05 37.6296 185.641 37.3444 185.189 37.1532C184.737 36.962 184.251 36.8688 183.763 36.8796C183.27 36.8766 182.781 36.9739 182.325 37.1661C181.868 37.3582 181.454 37.6412 181.104 37.9989C180.755 38.3566 180.478 38.7818 180.29 39.25C180.101 39.7182 180.005 40.2202 180.006 40.7269V40.7268Z" fill="white"/>
<path d="M71.1885 20.5657C71.3158 21.5141 72.2179 22.1166 73.5194 22.1166C74.7318 22.1166 75.6211 21.4732 75.6211 20.587C75.6211 19.8251 75.0547 19.3681 73.7675 19.0566L72.5154 18.7452C70.7573 18.3226 69.9554 17.4503 69.9554 15.9828C69.9554 14.2031 71.3698 13.0194 73.4923 13.0194C74.3264 12.9238 75.1634 13.1717 75.8201 13.7089C76.4767 14.2461 76.8994 15.0288 76.9958 15.8856H75.5256C75.4289 15.4166 75.1638 15.0023 74.7832 14.7252C74.4025 14.4481 73.9343 14.3285 73.4717 14.3902C72.2784 14.3902 71.4845 14.9789 71.4845 15.8789C71.4845 16.5918 71.9968 17.0006 73.2633 17.3047L74.3341 17.5753C76.3276 18.0527 77.1502 18.8833 77.1502 20.3859C77.1502 22.2964 75.7087 23.4941 73.4049 23.4941C71.249 23.4941 69.7996 22.352 69.6914 20.5658L71.1885 20.5657Z" fill="white"/>
<path d="M81.1277 13.8362V15.7475H82.7172V17.0008H81.1277V20.8774C81.1277 21.6672 81.4444 22.013 82.1651 22.013C82.3496 22.0124 82.534 22.0009 82.7172 21.9786V23.218C82.4572 23.2658 82.1938 23.2912 81.9296 23.294C80.3195 23.294 79.6783 22.7119 79.6783 21.2584V17.0007H78.5137V15.7475H79.6783V13.8362H81.1277Z" fill="white"/>
<path d="M84.4392 13.4839C84.428 13.2911 84.4734 13.0994 84.5695 12.9335C84.6656 12.7677 84.8079 12.6352 84.9781 12.5534C85.1482 12.4716 85.3384 12.4442 85.5239 12.4748C85.7093 12.5053 85.8816 12.5924 86.0184 12.7247C86.1552 12.857 86.2502 13.0285 86.291 13.217C86.3319 13.4054 86.3167 13.6021 86.2475 13.7816C86.1783 13.961 86.0583 14.115 85.903 14.2236C85.7476 14.3322 85.5641 14.3903 85.3763 14.3905C85.2562 14.3968 85.1361 14.378 85.0233 14.3354C84.9105 14.2928 84.8072 14.2272 84.7196 14.1425C84.6321 14.0578 84.5621 13.9558 84.5139 13.8426C84.4657 13.7294 84.4403 13.6074 84.4392 13.4839ZM84.6555 15.7132H86.097V23.2523H84.6555L84.6555 15.7132Z" fill="white"/>
<path d="M88.0137 21.1202C88.0137 19.7631 88.9969 18.9807 90.7423 18.8696L92.7295 18.7518V18.1011C92.7295 17.3048 92.2172 16.8552 91.2276 16.8552C90.4193 16.8552 89.8593 17.1601 89.6986 17.6932H88.2969C88.4448 16.3982 89.6302 15.5676 91.2944 15.5676C93.1336 15.5676 94.171 16.5086 94.171 18.1011V23.2523H92.7772V22.1928H92.6627C92.4302 22.5728 92.1037 22.8826 91.7165 23.0906C91.3294 23.2986 90.8955 23.3972 90.4591 23.3765C90.1511 23.4094 89.8398 23.3756 89.5453 23.2774C89.2508 23.1791 88.9797 23.0185 88.7493 22.8059C88.5189 22.5933 88.3344 22.3335 88.2077 22.0431C88.081 21.7528 88.0149 21.4384 88.0137 21.1202ZM92.7295 20.476V19.8457L90.938 19.9634C89.9277 20.0329 89.4695 20.386 89.4695 21.0507C89.4695 21.7292 90.0422 22.1241 90.8299 22.1241C91.0606 22.1481 91.2937 22.1241 91.5153 22.0537C91.7369 21.9832 91.9424 21.8676 92.1197 21.7139C92.2969 21.5601 92.4422 21.3713 92.547 21.1586C92.6518 20.9459 92.7138 20.7138 92.7295 20.476Z" fill="white"/>
<path d="M96.5059 12.77H97.941V16.9246H98.0556C98.248 16.4905 98.5661 16.1278 98.9664 15.8862C99.3667 15.6445 99.8298 15.5355 100.292 15.5741C100.648 15.5542 101.003 15.6152 101.332 15.7525C101.662 15.8899 101.958 16.1003 102.199 16.3688C102.44 16.6372 102.621 16.9571 102.728 17.3055C102.835 17.654 102.866 18.0225 102.819 18.3847V23.2522H101.37V18.7518C101.37 17.5476 100.824 16.9377 99.8009 16.9377C99.5521 16.9167 99.3017 16.9519 99.0675 17.0407C98.8333 17.1295 98.6207 17.2699 98.4448 17.4519C98.2688 17.634 98.1337 17.8534 98.0489 18.0947C97.9641 18.336 97.9316 18.5935 97.9537 18.849V23.2522H96.5059L96.5059 12.77Z" fill="white"/>
<path d="M105.059 15.713H106.452V16.9107H106.561C106.744 16.4805 107.054 16.1199 107.446 15.8791C107.839 15.6384 108.294 15.5294 108.75 15.5675C109.107 15.5399 109.465 15.5952 109.799 15.7293C110.132 15.8634 110.432 16.0729 110.675 16.3422C110.919 16.6115 111.101 16.9337 111.207 17.285C111.314 17.6363 111.342 18.0076 111.289 18.3715V23.252H109.841V18.7452C109.841 17.5336 109.329 16.9311 108.258 16.9311C108.016 16.9195 107.774 16.9619 107.549 17.0554C107.324 17.1488 107.121 17.2912 106.955 17.4727C106.789 17.6541 106.662 17.8704 106.585 18.1067C106.508 18.343 106.481 18.5937 106.506 18.8416V23.2521H105.059V15.713Z" fill="white"/>
<path d="M119.711 23.252H118.316V22.0544H118.201C118.016 22.4889 117.702 22.8525 117.304 23.0935C116.906 23.3346 116.444 23.4409 115.984 23.3975C115.63 23.4234 115.274 23.3673 114.943 23.2333C114.612 23.0993 114.314 22.8909 114.072 22.6233C113.83 22.3557 113.649 22.0357 113.542 21.6869C113.436 21.3381 113.407 20.9692 113.458 20.6074V15.7129H114.907V20.2198C114.907 21.4379 115.385 22.02 116.449 22.02C116.696 22.0441 116.945 22.0113 117.178 21.9239C117.411 21.8366 117.622 21.6969 117.795 21.5151C117.969 21.3333 118.101 21.1139 118.182 20.873C118.262 20.6321 118.29 20.3757 118.262 20.1226V15.7129H119.711V23.252Z" fill="white"/>
<path d="M123.981 13.836V15.7474H125.571V17.0006H123.981V20.8773C123.981 21.667 124.298 22.0128 125.018 22.0128C125.203 22.0122 125.387 22.0007 125.571 21.9784V23.2178C125.311 23.2657 125.047 23.2911 124.783 23.2938C123.173 23.2938 122.532 22.7117 122.532 21.2582V17.0005H121.367V15.7473H122.532V13.836H123.981ZM126.143 11.2952L125.806 14.7222H124.802V11.2952H126.143Z" fill="white"/>
<path d="M131.459 15.713H132.853V16.9107H132.961C133.144 16.4805 133.454 16.1199 133.846 15.8791C134.239 15.6384 134.695 15.5294 135.15 15.5675C135.507 15.5399 135.866 15.5952 136.199 15.7293C136.532 15.8634 136.832 16.0729 137.076 16.3422C137.32 16.6115 137.501 16.9337 137.608 17.285C137.714 17.6363 137.742 18.0076 137.689 18.3715V23.252H136.242V18.7452C136.242 17.5336 135.729 16.9311 134.659 16.9311C134.416 16.9195 134.174 16.9619 133.949 17.0554C133.724 17.1488 133.522 17.2912 133.355 17.4727C133.189 17.6541 133.063 17.8704 132.985 18.1067C132.908 18.343 132.881 18.5937 132.907 18.8416V23.2521H131.459V15.713Z" fill="white"/>
<path d="M139.51 21.1202C139.51 19.7631 140.493 18.9807 142.238 18.8696L144.226 18.7518V18.1011C144.226 17.3048 143.713 16.8552 142.724 16.8552C141.915 16.8552 141.355 17.1601 141.195 17.6932H139.793C139.941 16.3982 141.126 15.5676 142.79 15.5676C144.63 15.5676 145.667 16.5086 145.667 18.1011V23.2523H144.273V22.1928H144.159C143.926 22.5728 143.6 22.8826 143.213 23.0906C142.825 23.2986 142.392 23.3972 141.955 23.3765C141.647 23.4094 141.336 23.3756 141.041 23.2774C140.747 23.1791 140.476 23.0185 140.245 22.8059C140.015 22.5933 139.83 22.3335 139.704 22.0431C139.577 21.7528 139.511 21.4384 139.51 21.1202ZM144.226 20.476V19.8457L142.434 19.9634C141.424 20.0329 140.966 20.386 140.966 21.0507C140.966 21.7292 141.538 22.1241 142.326 22.1241C142.557 22.1481 142.79 22.1241 143.011 22.0537C143.233 21.9832 143.439 21.8676 143.616 21.7139C143.793 21.5601 143.938 21.3713 144.043 21.1586C144.148 20.9459 144.21 20.7138 144.226 20.476Z" fill="white"/>
</svg>
