<svg width="60" height="60" viewBox="0 0 60 60" fill="none" xmlns="http://www.w3.org/2000/svg">
<path fill-rule="evenodd" clip-rule="evenodd" d="M7.5 25.9982C7.5 25.702 7.5 25.4057 7.5 25.1096C7.59013 24.7844 7.67389 24.4571 7.77185 24.1341C7.91777 23.6537 8.21281 23.4211 8.71869 23.4182C10.0584 23.4106 11.3981 23.4102 12.7376 23.4185C13.241 23.4217 13.5195 23.653 13.6753 24.1429C13.7333 24.3249 13.7944 24.5059 13.882 24.7718C14.813 22.2148 15.7036 19.7549 16.6048 17.2987C17.1549 15.7996 18.2548 15.0087 19.8573 15.0067C26.8682 14.9976 33.8791 14.9979 40.8899 15.0066C42.4932 15.0086 43.5909 15.7982 44.1449 17.296C44.5961 18.5163 45.0355 19.7409 45.4808 20.9635C45.9334 22.2057 46.3871 23.4475 46.8738 24.782C46.9637 24.4908 47.0234 24.2951 47.0844 24.0998C47.2194 23.6684 47.5145 23.4234 47.9678 23.4202C49.3371 23.4109 50.7065 23.4123 52.0761 23.4194C52.5311 23.4217 52.8318 23.6642 52.967 24.0916C53.0731 24.4274 53.1565 24.7702 53.25 25.1099C53.25 25.406 53.25 25.7023 53.25 25.9984C53.1875 26.2235 53.1262 26.4488 53.0628 26.6734C52.8215 27.528 52.6118 27.6838 51.704 27.6839C50.6021 27.6842 49.5005 27.6832 48.3987 27.6851C48.2611 27.6852 48.1234 27.7004 47.9778 27.7091C47.9956 27.7871 47.993 27.8236 48.0102 27.8401C48.0414 27.8703 48.0821 27.8935 48.1224 27.9115C49.0621 28.3298 49.4589 29.0769 49.4586 30.0725C49.457 34.618 49.4606 39.1635 49.4557 43.7089C49.4547 44.5973 49.0641 44.9851 48.1786 44.9894C46.6155 44.9969 45.052 44.9967 43.4889 44.9894C42.6019 44.9854 42.2144 44.5976 42.2066 43.7125C42.1977 42.7206 42.2044 41.7284 42.2043 40.7365C42.2043 40.1634 42.2043 39.5903 42.2043 38.995C34.3019 38.995 26.4485 38.995 18.5457 38.995C18.5457 39.1747 18.5457 39.3336 18.5457 39.4923C18.5456 40.8989 18.5512 42.3055 18.5433 43.712C18.5386 44.5507 18.18 44.9727 17.3956 44.9835C15.7433 45.0061 14.0902 45.0048 12.4379 44.9838C11.698 44.9743 11.3387 44.5813 11.2942 43.8426C11.2888 43.7541 11.292 43.6651 11.292 43.576C11.292 39.1195 11.2918 34.6629 11.2924 30.2062C11.2924 30.0731 11.2961 29.9398 11.3043 29.8069C11.3573 28.9492 11.7715 28.3301 12.5458 27.9469C12.6297 27.9054 12.7027 27.8423 12.8764 27.7244C12.6417 27.7047 12.5189 27.6856 12.3959 27.6854C11.2048 27.6831 10.0137 27.6872 8.82273 27.6825C8.21049 27.6802 7.92429 27.4611 7.75403 26.885C7.66722 26.59 7.58463 26.2939 7.5 25.9982ZM16.8464 27.709C25.9 27.709 34.8778 27.709 43.8785 27.709C43.8528 27.607 43.8433 27.5492 43.8238 27.4953C42.8087 24.7018 41.7861 21.9109 40.7863 19.112C40.6702 18.7872 40.4746 18.7861 40.212 18.7862C33.6617 18.7891 27.1113 18.7915 20.5609 18.7802C20.2086 18.7796 20.0412 18.8705 19.9214 19.2122C19.3051 20.9703 18.6608 22.7187 18.0252 24.4701C17.6385 25.5364 17.2494 26.6023 16.8464 27.709ZM18.5044 30.7083C17.8052 30.7083 17.1061 30.7002 16.4069 30.7103C15.404 30.7247 14.6694 31.4134 14.6494 32.3427C14.6288 33.2976 15.3395 34.0387 16.3675 34.0585C17.7802 34.0857 19.1942 34.0838 20.6069 34.0599C21.6393 34.0422 22.3496 33.3173 22.3395 32.3597C22.3293 31.4099 21.5912 30.7217 20.5575 30.7097C19.8733 30.7017 19.1888 30.708 18.5044 30.7083ZM42.2657 34.0667C42.9352 34.0667 43.6048 34.0751 44.274 34.0648C45.3668 34.0484 46.1123 33.3475 46.101 32.3619C46.0899 31.3987 45.34 30.7142 44.2737 30.7094C42.9349 30.7034 41.5959 30.7045 40.257 30.709C39.161 30.7126 38.4107 31.3981 38.4108 32.3844C38.411 33.3678 39.158 34.0524 40.2573 34.0655C40.9267 34.0732 41.5964 34.0668 42.2657 34.0667Z" fill="#4F8136"/>
</svg>
