<svg width="33" height="55" viewBox="0 0 33 55" fill="none" xmlns="http://www.w3.org/2000/svg">
<path d="M18.75 10.75C21.5 10.75 23.75 8.5 23.75 5.75C23.75 3 21.5 0.75 18.75 0.75C16 0.75 13.75 3 13.75 5.75C13.75 8.5 16 10.75 18.75 10.75ZM9.5 19.25L3.1 51.525C2.775 53.05 3.975 54.5 5.55 54.5H5.75C6.925 54.5 7.925 53.7 8.2 52.55L12.25 34.5L17.5 39.5V52C17.5 53.375 18.625 54.5 20 54.5C21.375 54.5 22.5 53.375 22.5 52V37.9C22.5 36.525 21.95 35.225 20.95 34.275L17.25 30.75L18.75 23.25C21.425 26.35 25.3 28.575 29.65 29.275C31.15 29.5 32.5 28.3 32.5 26.775C32.5 25.55 31.6 24.525 30.375 24.325C26.575 23.7 23.425 21.45 21.75 18.5L19.25 14.5C17.85 12.275 15.05 11.375 12.625 12.4L3.05 16.45C1.2 17.25 0 19.05 0 21.075V27C0 28.375 1.125 29.5 2.5 29.5C3.875 29.5 5 28.375 5 27V21L9.5 19.25Z" fill="#00703C"/>
</svg>
