<svg width="61" height="52" viewBox="0 0 61 52" fill="none" xmlns="http://www.w3.org/2000/svg">
<path d="M39.2051 10.75C41.9424 10.75 44.1821 8.5 44.1821 5.75C44.1821 3 41.9424 0.75 39.2051 0.75C36.4677 0.75 34.228 3 34.228 5.75C34.228 8.5 36.4677 10.75 39.2051 10.75ZM13.0755 27C6.10758 27 0.632812 32.5 0.632812 39.5C0.632812 46.5 6.10758 52 13.0755 52C20.0434 52 25.5181 46.5 25.5181 39.5C25.5181 32.5 20.0434 27 13.0755 27ZM13.0755 48.25C8.34726 48.25 4.36561 44.25 4.36561 39.5C4.36561 34.75 8.34726 30.75 13.0755 30.75C17.8037 30.75 21.7853 34.75 21.7853 39.5C21.7853 44.25 17.8037 48.25 13.0755 48.25ZM27.509 23.25L33.4814 17.25L35.4723 19.25C38.1101 21.9 41.395 23.7 45.3269 24.3C46.82 24.525 48.1638 23.325 48.1638 21.8C48.1638 20.575 47.243 19.525 46.0485 19.325C43.2863 18.875 41.0217 17.55 39.2051 15.75L34.4769 11C33.2326 10 31.9883 9.5 30.4952 9.5C29.0021 9.5 27.7578 10 27.0113 11L20.0434 18C19.048 19 18.5502 20.25 18.5502 21.5C18.5502 23 19.048 24.25 20.0434 25L28.0067 32V42C28.0067 43.375 29.1265 44.5 30.4952 44.5C31.8639 44.5 32.9837 43.375 32.9837 42V31C32.9837 29.7 32.486 28.475 31.615 27.55L27.509 23.25ZM47.9149 27C40.947 27 35.4723 32.5 35.4723 39.5C35.4723 46.5 40.947 52 47.9149 52C54.8828 52 60.3576 46.5 60.3576 39.5C60.3576 32.5 54.8828 27 47.9149 27ZM47.9149 48.25C43.1867 48.25 39.2051 44.25 39.2051 39.5C39.2051 34.75 43.1867 30.75 47.9149 30.75C52.6431 30.75 56.6248 34.75 56.6248 39.5C56.6248 44.25 52.6431 48.25 47.9149 48.25Z" fill="#00703C"/>
</svg>
