<svg width="58" height="57" viewBox="0 0 58 57" fill="none" xmlns="http://www.w3.org/2000/svg">
<path fill-rule="evenodd" clip-rule="evenodd" d="M57.3677 18.2413C57.0183 18.6801 56.7001 19.1515 56.3134 19.5505C55.5499 20.3381 54.7472 21.0842 53.963 21.8501C53.719 22.0885 53.3487 22.2857 53.6603 22.7443C53.6662 22.7528 53.3784 23.0663 53.2995 23.0356C52.8804 22.8725 52.6475 23.1185 52.3848 23.3761C51.2375 24.5006 50.0875 25.622 48.9248 26.729C48.6819 26.9604 48.5845 27.1759 48.6465 27.5298C49.4918 32.3547 50.3225 37.1823 51.1582 42.0092C51.3852 43.3205 51.2214 43.5684 49.9126 43.7954C50.0794 44.992 50.2434 46.1912 50.4144 47.3893C50.7555 49.7781 51.1078 52.1651 51.4412 54.5551C51.6091 55.7584 50.855 56.8001 49.7183 56.978C48.651 57.1451 47.6596 56.3437 47.4852 55.1406C46.9617 51.53 46.4417 47.9189 45.9435 44.3044C45.884 43.8729 45.7606 43.6934 45.3277 43.7276C44.8526 43.7653 44.3727 43.7362 43.8547 43.7362C43.5428 45.3866 43.2376 46.9918 42.9363 48.5979C42.5238 50.7966 42.121 52.9972 41.7009 55.1943C41.4644 56.4312 40.4492 57.184 39.3641 56.9566C38.2113 56.7149 37.5487 55.6564 37.783 54.3906C38.4012 51.0531 39.0303 47.7179 39.6538 44.3814C39.6884 44.1963 39.7089 44.0079 39.7491 43.7321C39.4845 43.7321 39.2682 43.7476 39.0548 43.7293C38.2875 43.663 37.9318 43.1857 38.0763 42.3903C38.4109 40.5496 38.7716 38.7141 39.0978 36.8721C39.5923 34.0807 40.0562 31.2831 40.5567 28.4931C40.6811 27.7985 40.5572 27.3648 39.9275 26.9388C36.4502 24.5871 33.0161 22.1658 29.5613 19.7777C28.9218 19.3357 28.5295 18.7675 28.6381 17.9447C28.8079 16.6594 30.1439 16.0397 31.2276 16.7609C32.5376 17.6325 33.8199 18.5498 35.1141 19.447C35.7127 19.862 36.3118 20.2767 36.9197 20.6978C37.7405 20.0522 38.4628 19.1963 39.6345 19.6227C39.7103 18.917 39.8405 18.8051 40.495 18.9174C40.5015 17.3955 40.9616 16.0824 42.1535 15.1293C42.9324 14.5064 43.8168 14.2263 44.7911 14.2516C46.6758 14.3006 48.7748 15.7574 48.8256 18.8688C49.5048 18.8392 49.6127 18.9334 49.6572 19.4969C50.1054 19.5519 50.5305 19.624 50.9581 19.6467C51.1282 19.6558 51.3489 19.6078 51.4688 19.4953C52.3773 18.6428 53.2687 17.7697 54.1615 16.899C55.4794 15.6139 56.4352 15.7358 57.3674 17.3131C57.3677 17.6221 57.3677 17.9316 57.3677 18.2413ZM41.6631 21.5873C41.4118 22.3253 41.164 22.397 40.5862 21.9151C40.3539 22.1843 40.1224 22.4527 39.8702 22.7449C40.5146 23.1941 41.1673 23.6638 41.8372 24.1049C41.9811 24.1998 42.1865 24.2256 42.364 24.2271C43.6591 24.2368 44.9545 24.2422 46.2493 24.222C46.4489 24.2188 46.688 24.1274 46.8379 23.9913C47.4522 23.4336 48.0415 22.8456 48.6329 22.2607C48.7176 22.1769 48.7624 22.0488 48.8256 21.9411C48.1466 22.3971 47.8986 22.3288 47.6521 21.59C45.7695 23.3745 43.399 23.2631 41.6631 21.5873Z" fill="#00703C"/>
<path fill-rule="evenodd" clip-rule="evenodd" d="M0.629185 14.489C0.670661 14.4316 0.720655 14.3789 0.752215 14.3163C1.40884 13.0161 2.79178 12.8477 3.71165 13.9762C4.93958 15.4826 6.14838 17.0055 7.3657 18.5208C8.64222 20.1097 9.93118 21.6885 11.1872 23.2943C11.4751 23.6623 11.7726 23.7935 12.2238 23.7808C13.3586 23.7488 14.4953 23.7551 15.6305 23.7789C15.9887 23.7865 16.1993 23.6622 16.4102 23.3707C19.1551 19.5745 21.9172 15.7912 24.6644 11.9967C25.0941 11.4033 25.6134 11.0144 26.3537 11.0937C27.6222 11.2298 28.2781 12.6432 27.5779 13.7519C27.1647 14.4062 26.6851 15.0171 26.2303 15.6435C23.7219 19.0978 21.207 22.5469 18.7128 26.0119C18.5314 26.2638 18.4093 26.6256 18.4074 26.9373C18.3863 30.4994 18.3412 34.0627 18.4162 37.623C18.4539 39.4068 18.7166 41.1863 18.8912 42.9664C19.2421 46.5464 19.6027 50.1253 19.9585 53.7048C19.9962 54.0834 20.0526 54.462 20.0595 54.8415C20.0804 55.9918 19.2688 56.9059 18.1707 56.994C17.125 57.0781 16.1655 56.2848 16.0439 55.1604C15.7656 52.5872 15.521 50.0102 15.2642 47.4347C15.0305 45.0908 14.7986 42.7466 14.56 40.3436C14.0987 40.3436 13.6676 40.2972 13.2554 40.3669C13.0949 40.3941 12.9078 40.6615 12.8494 40.8561C11.6334 44.9095 10.4343 48.9682 9.23112 53.0255C9.01537 53.7535 8.7971 54.4804 8.57883 55.2074C8.15681 56.6134 7.13318 57.2691 5.94617 56.8949C4.79393 56.5314 4.29133 55.3857 4.69534 54.0222C6.22128 48.8729 7.75294 43.7252 9.27148 38.5735C9.37678 38.2161 9.43892 37.8307 9.44018 37.4581C9.45275 33.9912 9.4547 30.5245 9.43445 27.0576C9.43277 26.767 9.31421 26.4208 9.13532 26.1958C6.52794 22.9158 3.89878 19.6538 1.28218 16.3816C1.03877 16.0771 0.845501 15.7305 0.628906 15.4036C0.629186 15.0987 0.629185 14.7939 0.629185 14.489Z" fill="#00703C"/>
<path fill-rule="evenodd" clip-rule="evenodd" d="M28.6201 5.16267C28.6128 2.34527 30.8295 0.00999954 33.5205 3.07291e-05C36.1923 -0.00978704 38.4404 2.33425 38.4547 5.14439C38.469 7.95001 36.2434 10.2806 33.5392 10.2916C30.8367 10.3028 28.6275 7.9994 28.6201 5.16267Z" fill="#00703C"/>
<path fill-rule="evenodd" clip-rule="evenodd" d="M13.855 22.1668C11.5625 22.1605 9.71767 20.2321 9.70708 17.8311C9.69648 15.4133 11.5745 13.4446 13.8774 13.4586C16.1702 13.4726 18.0092 15.3943 18.0285 17.7965C18.0482 20.1999 16.1638 22.1729 13.855 22.1668Z" fill="#00703C"/>
</svg>
