<svg width="963" height="383" viewBox="0 0 963 383" fill="none" xmlns="http://www.w3.org/2000/svg">
<g clip-path="url(#clip0_1356_20476)">
<rect width="962.047" height="383" fill="white"/>
<g clip-path="url(#clip1_1356_20476)">
<rect width="964" height="445" transform="translate(-3 -2)" fill="#EEEEEE"/>
<path d="M961 -2H-4.1875V443H961V-2Z" fill="url(#paint0_linear_1356_20476)"/>
<path d="M1107.2 -50.6533H289.41V443H1107.2V-50.6533Z" fill="url(#paint1_radial_1356_20476)" fill-opacity="0.7"/>
<path d="M1012.11 -100.493H89.7168V456.054H1012.11V-100.493Z" fill="url(#paint2_radial_1356_20476)"/>
<path opacity="0.5" d="M-53.5527 -27.1216V207.933C-25.5837 185.553 8.60199 169.628 43.275 159.861C105.085 142.453 170.176 141.373 234.102 134.882C262.724 131.987 291.525 127.893 318.377 117.581C345.229 107.268 370.238 90.1448 385.489 65.7944C402.712 38.2875 405.779 5.27442 410.902 -27.1216H-53.5527Z" fill="url(#paint3_linear_1356_20476)"/>
<path style="mix-blend-mode:overlay" opacity="0.6" d="M737.152 189.053C748.361 202.747 750.739 183.179 765.68 173.627C794.731 154.889 839.721 141.492 872.897 131.725C902.982 122.873 935.527 129.091 965.077 139.581C994.627 150.071 1022.66 164.715 1052.79 173.401C1108.39 189.421 1169.85 183.179 1221.65 157.595L1239.93 -144.625C1224.57 -149.016 1209.14 -153.075 1193.57 -155.246C1139.25 -162.865 1081.96 -146.133 1040.31 -110.497C1011.95 -86.2533 991.251 -54.4862 965.647 -27.3709C937.773 2.08454 904.336 25.7422 867.262 42.2389C827.276 60.0389 781.204 70.7901 753.342 104.503C738.583 122.511 730.733 145.178 731.197 168.441C731.364 175.727 732.54 183.417 737.152 189.053Z" fill="url(#paint4_linear_1356_20476)"/>
<path style="mix-blend-mode:overlay" opacity="0.6" d="M713.19 187.499C699.401 167.076 571.217 164.822 549.75 180.996C513.674 208.194 408.478 228.071 352.124 217.106C301.012 207.162 250.589 180.854 206.312 152.219C162.034 123.585 121.454 91.7467 75.6787 64.5364C-8.81083 14.2811 -109.561 -17.6877 -200.755 -24.6416L-323.424 261.345C-300.079 275.194 -276.52 288.745 -252.212 300.505C-167.199 341.694 -69.9077 360.764 8.10371 351.532C61.189 345.278 104.23 326.825 153.785 316.027C207.5 304.338 268.966 301.787 333.474 308.551C403.272 315.872 510.583 305.359 565.808 289.457C594.895 281.091 710.194 234.467 716.423 211.47C718.396 204.195 718.883 195.912 713.19 187.499Z" fill="url(#paint5_linear_1356_20476)"/>
<path d="M-166.949 692.568L1055.56 569.974L1002.42 169.64C983.823 174.778 954.724 185.173 926.434 207.85C881.991 243.45 885.224 272.785 841.077 305.252C801.114 334.634 758.573 339.95 741.943 341.837C699.306 346.667 678.422 335.619 635.725 327.81C520.426 306.735 441.879 333.305 401.846 347.284C355.631 363.494 328.755 377.591 281.09 399.9C246.156 416.265 181.517 433.792 124.616 439.725C85.1881 443.831 18.1837 452.778 -44.1731 439.488C-41.154 495.688 -33.8318 506.25 -30.8127 562.45L-166.949 692.568Z" fill="url(#paint6_linear_1356_20476)"/>
<path d="M1237.01 -207.139H486.18V246.345H1237.01V-207.139Z" fill="url(#paint7_radial_1356_20476)" fill-opacity="0.7"/>
<path d="M873.694 -223.218H73.8008V259.909H873.694V-223.218Z" fill="url(#paint8_radial_1356_20476)" fill-opacity="0.7"/>
<path d="M998.134 582.35L1038.68 196.328C1013.29 194.583 987.186 201.502 965.137 214.531C935.742 231.916 913.169 259.316 897.491 289.623C886.579 310.71 878.555 333.649 863.543 352.042C828.359 395.166 765.17 402.048 709.671 397.23C654.173 392.412 604 384.438 543.747 395.154C452.863 411.316 384.681 462.734 343.031 495.534C328.767 506.724 301.785 516.538 292.965 532.32L998.134 582.35Z" fill="url(#paint9_linear_1356_20476)"/>
<g clip-path="url(#clip2_1356_20476)">
<path opacity="0.6" d="M452.537 373.817C452.537 373.378 452.667 372.949 452.911 372.584C453.155 372.219 453.502 371.935 453.908 371.767C454.313 371.599 454.76 371.555 455.19 371.641C455.621 371.726 456.016 371.938 456.327 372.248C456.637 372.558 456.849 372.954 456.935 373.384C457.02 373.815 456.976 374.261 456.808 374.666C456.64 375.072 456.356 375.418 455.991 375.662C455.625 375.906 455.196 376.036 454.757 376.036C454.168 376.036 453.604 375.802 453.187 375.386C452.771 374.97 452.537 374.406 452.537 373.817Z" fill="#139DD7"/>
<path opacity="0.6" d="M802.142 373.592C803.368 373.592 804.362 372.598 804.362 371.373C804.362 370.147 803.368 369.154 802.142 369.154C800.916 369.154 799.922 370.147 799.922 371.373C799.922 372.598 800.916 373.592 802.142 373.592Z" fill="#139DD7"/>
<path opacity="0.6" d="M409.383 258.663C409.38 258.221 409.509 257.789 409.753 257.421C409.997 257.052 410.345 256.764 410.752 256.594C411.16 256.423 411.609 256.377 412.043 256.462C412.477 256.547 412.875 256.758 413.189 257.07C413.502 257.381 413.716 257.779 413.803 258.212C413.89 258.645 413.847 259.094 413.678 259.502C413.509 259.911 413.223 260.26 412.856 260.505C412.489 260.751 412.057 260.882 411.615 260.882C411.025 260.882 410.459 260.649 410.041 260.233C409.623 259.817 409.386 259.253 409.383 258.663V258.663Z" fill="#139DD7"/>
<path opacity="0.6" d="M507.018 289.778C507.018 289.337 507.148 288.905 507.394 288.538C507.639 288.171 507.988 287.886 508.395 287.717C508.803 287.548 509.252 287.504 509.685 287.59C510.118 287.676 510.516 287.888 510.828 288.2C511.14 288.512 511.352 288.91 511.439 289.343C511.525 289.775 511.48 290.224 511.312 290.632C511.143 291.039 510.857 291.388 510.489 291.633C510.122 291.878 509.691 292.009 509.25 292.009C508.658 292.009 508.09 291.774 507.671 291.355C507.253 290.937 507.018 290.369 507.018 289.778V289.778Z" fill="#139DD7"/>
<path opacity="0.6" d="M414.951 160.846C414.951 160.408 415.081 159.979 415.325 159.614C415.569 159.249 415.916 158.964 416.322 158.796C416.727 158.628 417.174 158.584 417.604 158.67C418.035 158.756 418.431 158.967 418.741 159.277C419.052 159.588 419.263 159.983 419.349 160.414C419.434 160.844 419.39 161.29 419.222 161.696C419.054 162.101 418.77 162.448 418.405 162.692C418.04 162.935 417.61 163.066 417.171 163.066C416.88 163.066 416.591 163.008 416.322 162.897C416.052 162.785 415.808 162.622 415.601 162.416C415.395 162.21 415.232 161.965 415.12 161.696C415.009 161.426 414.951 161.138 414.951 160.846Z" fill="#139DD7"/>
<path opacity="0.6" d="M198.775 381.816C198.773 381.373 198.902 380.94 199.147 380.572C199.391 380.203 199.739 379.915 200.148 379.745C200.556 379.575 201.006 379.529 201.44 379.615C201.874 379.701 202.273 379.913 202.586 380.226C202.898 380.539 203.111 380.938 203.197 381.371C203.283 381.805 203.237 382.255 203.067 382.663C202.897 383.071 202.609 383.419 202.24 383.664C201.871 383.908 201.438 384.037 200.995 384.035C200.407 384.035 199.842 383.801 199.426 383.385C199.009 382.969 198.775 382.404 198.775 381.816V381.816Z" fill="#139DD7"/>
<path opacity="0.6" d="M517.81 340.911C519.036 340.911 520.03 339.918 520.03 338.692C520.03 337.467 519.036 336.473 517.81 336.473C516.584 336.473 515.59 337.467 515.59 338.692C515.59 339.918 516.584 340.911 517.81 340.911Z" fill="#139DD7"/>
<path opacity="0.6" d="M493.449 202.19C494.675 202.19 495.669 201.196 495.669 199.971C495.669 198.745 494.675 197.751 493.449 197.751C492.222 197.751 491.229 198.745 491.229 199.971C491.229 201.196 492.222 202.19 493.449 202.19Z" fill="#139DD7"/>
<path opacity="0.6" d="M130.274 30.1351C130.284 29.6955 130.423 29.2685 130.674 28.9076C130.925 28.5468 131.278 28.2683 131.687 28.1071C132.096 27.9458 132.544 27.9091 132.974 28.0014C133.404 28.0937 133.798 28.311 134.105 28.626C134.411 28.941 134.618 29.3396 134.699 29.7718C134.78 30.204 134.732 30.6505 134.56 31.0551C134.388 31.4598 134.1 31.8046 133.732 32.0463C133.365 32.288 132.934 32.4157 132.494 32.4135C132.198 32.4136 131.904 32.3543 131.631 32.2391C131.357 32.1239 131.11 31.9551 130.903 31.7427C130.696 31.5303 130.534 31.2786 130.426 31.0025C130.318 30.7264 130.266 30.4315 130.274 30.1351Z" fill="#139DD7"/>
<path opacity="0.6" d="M237.465 147.52C237.463 147.078 237.591 146.646 237.835 146.277C238.079 145.909 238.427 145.621 238.834 145.451C239.242 145.28 239.691 145.234 240.125 145.319C240.559 145.404 240.957 145.615 241.271 145.927C241.584 146.238 241.798 146.636 241.885 147.069C241.972 147.502 241.929 147.951 241.76 148.359C241.591 148.768 241.305 149.117 240.938 149.362C240.571 149.608 240.139 149.739 239.697 149.739C239.107 149.739 238.541 149.506 238.123 149.09C237.705 148.674 237.468 148.11 237.465 147.52V147.52Z" fill="#139DD7"/>
<path opacity="0.6" d="M199.666 296.898C199.666 296.459 199.796 296.03 200.04 295.665C200.284 295.3 200.631 295.016 201.036 294.848C201.442 294.68 201.889 294.636 202.319 294.721C202.75 294.807 203.145 295.018 203.456 295.329C203.766 295.639 203.978 296.034 204.063 296.465C204.149 296.895 204.105 297.341 203.937 297.747C203.769 298.152 203.485 298.499 203.119 298.743C202.754 298.987 202.325 299.117 201.886 299.117C201.595 299.117 201.306 299.059 201.036 298.948C200.767 298.836 200.522 298.673 200.316 298.467C200.11 298.261 199.947 298.016 199.835 297.747C199.723 297.478 199.666 297.189 199.666 296.898V296.898Z" fill="#139DD7"/>
<path opacity="0.6" d="M703.284 364.253C705.251 364.253 706.846 362.659 706.846 360.693C706.846 358.727 705.251 357.133 703.284 357.133C701.317 357.133 699.723 358.727 699.723 360.693C699.723 362.659 701.317 364.253 703.284 364.253Z" fill="#F9FAFD"/>
<path opacity="0.6" d="M563.064 241.765C563.064 241.061 563.273 240.373 563.665 239.787C564.056 239.202 564.612 238.746 565.263 238.476C565.914 238.207 566.63 238.136 567.321 238.273C568.012 238.411 568.646 238.75 569.144 239.248C569.643 239.746 569.982 240.38 570.119 241.071C570.257 241.761 570.186 242.477 569.916 243.127C569.647 243.778 569.19 244.334 568.605 244.725C568.019 245.116 567.33 245.325 566.626 245.325C565.681 245.325 564.776 244.95 564.108 244.282C563.44 243.615 563.064 242.709 563.064 241.765V241.765Z" fill="#F9FAFD"/>
<path opacity="0.6" d="M147.18 129.281C147.18 128.577 147.389 127.888 147.78 127.303C148.171 126.717 148.728 126.261 149.378 125.992C150.029 125.722 150.745 125.652 151.436 125.789C152.127 125.926 152.762 126.266 153.26 126.763C153.758 127.261 154.097 127.896 154.234 128.586C154.372 129.277 154.301 129.993 154.032 130.643C153.762 131.294 153.306 131.85 152.72 132.241C152.134 132.632 151.446 132.841 150.741 132.841C149.797 132.841 148.891 132.466 148.223 131.798C147.555 131.13 147.18 130.225 147.18 129.281Z" fill="#F9FAFD"/>
<path opacity="0.6" d="M698.286 238.217C700.253 238.217 701.848 236.623 701.848 234.657C701.848 232.691 700.253 231.097 698.286 231.097C696.319 231.097 694.725 232.691 694.725 234.657C694.725 236.623 696.319 238.217 698.286 238.217Z" fill="#F9FAFD"/>
<path opacity="0.6" d="M299.746 301.561C299.746 300.857 299.955 300.169 300.346 299.583C300.738 298.998 301.294 298.541 301.945 298.272C302.595 298.003 303.312 297.932 304.003 298.069C304.693 298.207 305.328 298.546 305.826 299.044C306.324 299.542 306.663 300.176 306.801 300.866C306.938 301.557 306.868 302.273 306.598 302.923C306.329 303.574 305.872 304.13 305.286 304.521C304.701 304.912 304.012 305.121 303.308 305.121C302.363 305.121 301.457 304.746 300.789 304.078C300.121 303.411 299.746 302.505 299.746 301.561Z" fill="#F9FAFD"/>
<path opacity="0.6" d="M-0.947266 313.796C-0.947266 313.092 -0.738383 312.403 -0.347032 311.818C0.0443193 311.233 0.600562 310.776 1.25135 310.507C1.90215 310.237 2.61826 310.167 3.30914 310.304C4.00002 310.442 4.63463 310.781 5.13273 311.279C5.63082 311.776 5.97003 312.411 6.10745 313.101C6.24488 313.792 6.17435 314.508 5.90478 315.158C5.63521 315.809 5.17872 316.365 4.59302 316.756C4.00732 317.147 3.31872 317.356 2.61431 317.356C1.66972 317.356 0.763821 316.981 0.0958961 316.313C-0.572029 315.646 -0.947266 314.74 -0.947266 313.796V313.796Z" fill="#F9FAFD"/>
<path opacity="0.6" d="M941.744 322.256C941.742 321.815 941.871 321.382 942.115 321.014C942.358 320.645 942.706 320.358 943.114 320.187C943.521 320.016 943.97 319.97 944.404 320.055C944.838 320.14 945.237 320.351 945.55 320.663C945.863 320.974 946.077 321.372 946.164 321.805C946.251 322.238 946.208 322.687 946.039 323.096C945.871 323.504 945.585 323.853 945.217 324.099C944.85 324.344 944.418 324.476 943.976 324.476C943.386 324.476 942.82 324.242 942.402 323.826C941.984 323.411 941.747 322.846 941.744 322.256V322.256Z" fill="#139DD7"/>
<path opacity="0.6" d="M898.602 207.103C898.602 206.661 898.732 206.23 898.978 205.863C899.223 205.496 899.571 205.21 899.979 205.041C900.387 204.873 900.836 204.828 901.269 204.914C901.702 205.001 902.1 205.213 902.412 205.525C902.724 205.837 902.936 206.235 903.023 206.667C903.109 207.1 903.064 207.549 902.895 207.956C902.727 208.364 902.441 208.712 902.074 208.957C901.706 209.203 901.275 209.333 900.833 209.333C900.242 209.333 899.674 209.098 899.255 208.68C898.837 208.262 898.602 207.694 898.602 207.103V207.103Z" fill="#139DD7"/>
<path opacity="0.6" d="M904.17 109.298C904.17 108.859 904.3 108.43 904.544 108.065C904.788 107.7 905.135 107.415 905.54 107.248C905.946 107.08 906.392 107.036 906.823 107.121C907.254 107.207 907.649 107.418 907.96 107.729C908.27 108.039 908.482 108.434 908.567 108.865C908.653 109.295 908.609 109.741 908.441 110.147C908.273 110.552 907.988 110.899 907.623 111.143C907.258 111.387 906.829 111.517 906.39 111.517C906.098 111.517 905.81 111.459 905.54 111.348C905.271 111.236 905.026 111.073 904.82 110.867C904.614 110.661 904.45 110.416 904.339 110.147C904.227 109.878 904.17 109.589 904.17 109.298Z" fill="#139DD7"/>
<path opacity="0.6" d="M687.992 330.267C687.995 329.828 688.127 329.401 688.372 329.037C688.617 328.674 688.965 328.391 689.371 328.225C689.777 328.059 690.223 328.017 690.653 328.104C691.082 328.191 691.477 328.403 691.786 328.714C692.096 329.025 692.306 329.42 692.39 329.85C692.475 330.28 692.431 330.726 692.262 331.131C692.094 331.535 691.809 331.881 691.444 332.125C691.08 332.368 690.651 332.498 690.212 332.498C689.92 332.498 689.63 332.44 689.36 332.328C689.09 332.215 688.845 332.051 688.638 331.844C688.432 331.636 688.269 331.39 688.158 331.12C688.047 330.849 687.991 330.559 687.992 330.267V330.267Z" fill="#139DD7"/>
<path opacity="0.6" d="M35.3692 283.571C35.3715 283.133 35.5037 282.705 35.7491 282.342C35.9944 281.978 36.342 281.696 36.7478 281.53C37.1537 281.364 37.5997 281.321 38.0296 281.408C38.4594 281.495 38.8539 281.708 39.1632 282.018C39.4725 282.329 39.6827 282.725 39.7674 283.155C39.8521 283.585 39.8075 284.03 39.6391 284.435C39.4707 284.84 39.1862 285.186 38.8214 285.429C38.4566 285.673 38.0278 285.802 37.5892 285.802C37.2967 285.802 37.007 285.745 36.7369 285.632C36.4668 285.52 36.2215 285.356 36.0152 285.148C35.8089 284.941 35.6456 284.695 35.5347 284.424C35.4239 284.154 35.3676 283.864 35.3692 283.571Z" fill="#139DD7"/>
<path opacity="0.6" d="M726.684 95.9596C726.681 95.5173 726.81 95.0844 727.055 94.7157C727.299 94.347 727.648 94.0592 728.056 93.8889C728.464 93.7186 728.914 93.6734 729.348 93.7591C729.782 93.8448 730.181 94.0575 730.494 94.3702C730.807 94.6829 731.019 95.0815 731.105 95.5154C731.191 95.9493 731.146 96.3988 730.975 96.8069C730.805 97.2151 730.517 97.5634 730.148 97.8076C729.779 98.0518 729.346 98.181 728.904 98.1786C728.316 98.1755 727.753 97.9407 727.337 97.5252C726.922 97.1098 726.687 96.5471 726.684 95.9596V95.9596Z" fill="#139DD7"/>
<path opacity="0.6" d="M688.883 245.337C688.885 244.899 689.017 244.471 689.263 244.107C689.508 243.744 689.856 243.462 690.262 243.295C690.667 243.129 691.113 243.087 691.543 243.174C691.973 243.261 692.368 243.473 692.677 243.784C692.986 244.095 693.196 244.49 693.281 244.92C693.366 245.351 693.321 245.796 693.153 246.201C692.984 246.606 692.7 246.952 692.335 247.195C691.97 247.438 691.541 247.568 691.103 247.568C690.81 247.568 690.521 247.51 690.251 247.398C689.98 247.286 689.735 247.121 689.529 246.914C689.323 246.707 689.159 246.461 689.048 246.19C688.938 245.919 688.881 245.629 688.883 245.337V245.337Z" fill="#139DD7"/>
<path opacity="0.6" d="M636.398 77.7202C636.398 77.0161 636.607 76.3278 636.999 75.7423C637.39 75.1569 637.946 74.7006 638.597 74.4312C639.248 74.1617 639.964 74.0912 640.655 74.2286C641.346 74.3659 641.98 74.705 642.478 75.2029C642.976 75.7007 643.316 76.3351 643.453 77.0256C643.591 77.7162 643.52 78.432 643.25 79.0825C642.981 79.733 642.524 80.289 641.939 80.6802C641.353 81.0714 640.664 81.2802 639.96 81.2802C639.015 81.2802 638.11 80.9051 637.442 80.2375C636.774 79.5698 636.398 78.6643 636.398 77.7202V77.7202Z" fill="#F9FAFD"/>
<path opacity="0.6" d="M788.965 250.012C788.965 249.308 789.174 248.62 789.565 248.034C789.956 247.449 790.513 246.993 791.163 246.723C791.814 246.454 792.53 246.383 793.221 246.521C793.912 246.658 794.547 246.997 795.045 247.495C795.543 247.993 795.882 248.627 796.02 249.318C796.157 250.008 796.086 250.724 795.817 251.375C795.547 252.025 795.091 252.581 794.505 252.972C793.919 253.363 793.231 253.572 792.526 253.572C791.582 253.572 790.676 253.197 790.008 252.529C789.34 251.862 788.965 250.956 788.965 250.012V250.012Z" fill="#F9FAFD"/>
<path opacity="0.6" d="M488.271 262.235C488.271 261.531 488.48 260.843 488.872 260.257C489.263 259.672 489.819 259.216 490.47 258.946C491.121 258.677 491.837 258.606 492.528 258.744C493.219 258.881 493.853 259.22 494.351 259.718C494.85 260.216 495.189 260.85 495.326 261.541C495.464 262.231 495.393 262.947 495.124 263.598C494.854 264.248 494.397 264.804 493.812 265.195C493.226 265.587 492.537 265.795 491.833 265.795C490.888 265.795 489.983 265.42 489.315 264.753C488.647 264.085 488.271 263.179 488.271 262.235V262.235Z" fill="#F9FAFD"/>
<g style="mix-blend-mode:overlay">
<path d="M908.989 81.1851H909.321C909.37 81.1885 909.418 81.1732 909.455 81.1423C909.493 81.1114 909.517 81.0672 909.523 81.019C910.461 76.2723 913.263 73.1514 917.525 72.2732C917.574 72.2573 917.616 72.225 917.644 72.1818C917.672 72.1386 917.684 72.0871 917.679 72.0359C917.674 72.0045 917.674 71.9724 917.679 71.941C917.677 71.8983 917.661 71.8575 917.633 71.8252C917.605 71.7929 917.567 71.771 917.525 71.763C913.002 70.8255 910.129 67.4198 909.381 62.1035H909.238H909.143C909.096 62.1035 909.051 62.1223 909.017 62.1557C908.984 62.189 908.965 62.2343 908.965 62.2815C908.158 67.5859 905.202 70.9442 900.655 71.7748C900.613 71.7828 900.575 71.8047 900.547 71.837C900.519 71.8693 900.502 71.9101 900.5 71.9528C900.49 72.0062 900.499 72.0618 900.528 72.1081C900.557 72.1544 900.602 72.188 900.655 72.202C905.095 73.009 908.003 76.1655 908.965 81.1495L908.989 81.1851Z" fill="white"/>
</g>
<g style="mix-blend-mode:overlay">
<path d="M883.238 375.716C883.365 375.704 883.492 375.704 883.618 375.716C883.673 375.719 883.727 375.701 883.769 375.666C883.811 375.631 883.838 375.581 883.844 375.526C884.912 370.067 888.094 366.567 892.95 365.57C893.006 365.553 893.055 365.516 893.086 365.466C893.116 365.415 893.127 365.355 893.116 365.297C893.116 365.297 893.116 365.226 893.116 365.19C893.112 365.142 893.092 365.096 893.06 365.06C893.028 365.023 892.985 364.998 892.938 364.988C887.809 363.932 884.532 360.052 883.678 354.012H883.405C883.352 354.015 883.302 354.037 883.265 354.074C883.228 354.111 883.206 354.161 883.203 354.213C882.289 360.254 878.929 364.075 873.705 365.036C873.657 365.044 873.613 365.068 873.58 365.105C873.548 365.142 873.529 365.189 873.527 365.238V365.238C873.516 365.297 873.529 365.359 873.562 365.409C873.595 365.46 873.646 365.496 873.705 365.511C878.763 366.436 882.016 370.02 883.12 375.692L883.238 375.716Z" fill="white"/>
</g>
<g style="mix-blend-mode:overlay">
<path d="M30.3361 139.012H30.621C30.6923 139.012 30.7635 139.012 30.7872 138.869C31.5589 134.894 33.8858 132.343 37.4236 131.619C37.4645 131.605 37.499 131.577 37.5208 131.54C37.5427 131.503 37.5503 131.459 37.5424 131.417C37.5424 131.417 37.5424 131.417 37.5424 131.334C37.5407 131.301 37.5282 131.269 37.5068 131.243C37.4854 131.217 37.4562 131.199 37.4236 131.192C33.6721 130.42 31.2859 127.632 30.6685 123.182H30.4667C30.4275 123.187 30.391 123.204 30.3631 123.232C30.3352 123.26 30.3173 123.297 30.3124 123.336C29.6475 127.738 27.2019 130.456 23.3791 131.215C23.3434 131.223 23.3113 131.242 23.2877 131.27C23.2641 131.298 23.2503 131.333 23.2486 131.37V131.37C23.2412 131.413 23.2505 131.459 23.2747 131.496C23.2988 131.533 23.3361 131.56 23.3791 131.571C27.0594 132.248 29.4694 134.858 30.2411 138.988L30.3361 139.012Z" fill="white"/>
</g>
<path d="M155.432 172V148.528H162.056C164.456 148.528 166.532 148.936 168.284 149.752C170.036 150.568 171.392 151.84 172.352 153.568C173.336 155.272 173.828 157.468 173.828 160.156C173.828 162.844 173.348 165.064 172.388 166.816C171.428 168.568 170.084 169.876 168.356 170.74C166.652 171.58 164.648 172 162.344 172H155.432ZM160.724 167.716H161.732C163.076 167.716 164.24 167.476 165.224 166.996C166.232 166.516 167.012 165.724 167.564 164.62C168.116 163.516 168.392 162.028 168.392 160.156C168.392 158.284 168.116 156.82 167.564 155.764C167.012 154.684 166.232 153.928 165.224 153.496C164.24 153.04 163.076 152.812 161.732 152.812H160.724V167.716ZM185.52 172.432C184.008 172.432 182.58 172.072 181.236 171.352C179.916 170.608 178.848 169.54 178.032 168.148C177.216 166.732 176.808 165.04 176.808 163.072C176.808 161.08 177.216 159.388 178.032 157.996C178.848 156.604 179.916 155.548 181.236 154.828C182.58 154.084 184.008 153.712 185.52 153.712C187.032 153.712 188.448 154.084 189.768 154.828C191.088 155.548 192.156 156.604 192.972 157.996C193.788 159.388 194.196 161.08 194.196 163.072C194.196 165.04 193.788 166.732 192.972 168.148C192.156 169.54 191.088 170.608 189.768 171.352C188.448 172.072 187.032 172.432 185.52 172.432ZM185.52 168.148C186.6 168.148 187.416 167.692 187.968 166.78C188.52 165.844 188.796 164.608 188.796 163.072C188.796 161.512 188.52 160.276 187.968 159.364C187.416 158.452 186.6 157.996 185.52 157.996C184.416 157.996 183.588 158.452 183.036 159.364C182.508 160.276 182.244 161.512 182.244 163.072C182.244 164.608 182.508 165.844 183.036 166.78C183.588 167.692 184.416 168.148 185.52 168.148ZM197.82 178.624V154.144H202.14L202.5 155.908H202.644C203.34 155.284 204.12 154.768 204.984 154.36C205.872 153.928 206.784 153.712 207.72 153.712C209.88 153.712 211.584 154.54 212.832 156.196C214.08 157.828 214.704 160.024 214.704 162.784C214.704 164.824 214.344 166.564 213.624 168.004C212.904 169.444 211.968 170.548 210.816 171.316C209.688 172.06 208.476 172.432 207.18 172.432C206.412 172.432 205.668 172.276 204.948 171.964C204.228 171.628 203.556 171.16 202.932 170.56L203.112 173.404V178.624H197.82ZM205.956 168.112C206.868 168.112 207.648 167.692 208.296 166.852C208.944 166.012 209.268 164.68 209.268 162.856C209.268 159.64 208.236 158.032 206.172 158.032C205.14 158.032 204.12 158.572 203.112 159.652V166.96C203.592 167.392 204.072 167.692 204.552 167.86C205.032 168.028 205.5 168.112 205.956 168.112ZM218.457 172V154.144H222.777L223.137 157.276H223.281C223.929 156.076 224.709 155.188 225.621 154.612C226.533 154.012 227.445 153.712 228.357 153.712C228.861 153.712 229.281 153.748 229.617 153.82C229.953 153.868 230.241 153.952 230.481 154.072L229.617 158.644C229.305 158.548 228.993 158.476 228.681 158.428C228.393 158.38 228.057 158.356 227.673 158.356C227.001 158.356 226.293 158.608 225.549 159.112C224.829 159.592 224.229 160.432 223.749 161.632V172H218.457ZM236.281 172.432C234.649 172.432 233.353 171.916 232.393 170.884C231.433 169.828 230.953 168.544 230.953 167.032C230.953 165.16 231.745 163.696 233.329 162.64C234.913 161.584 237.469 160.876 240.997 160.516C240.949 159.724 240.709 159.1 240.277 158.644C239.869 158.164 239.173 157.924 238.189 157.924C237.445 157.924 236.689 158.068 235.921 158.356C235.153 158.644 234.337 159.04 233.473 159.544L231.565 156.052C232.693 155.356 233.893 154.792 235.165 154.36C236.461 153.928 237.805 153.712 239.197 153.712C241.477 153.712 243.229 154.372 244.453 155.692C245.677 157.012 246.289 159.04 246.289 161.776V172H241.969L241.609 170.164H241.465C240.721 170.836 239.917 171.388 239.053 171.82C238.213 172.228 237.289 172.432 236.281 172.432ZM238.081 168.328C238.681 168.328 239.197 168.196 239.629 167.932C240.085 167.644 240.541 167.272 240.997 166.816V163.684C239.125 163.924 237.829 164.308 237.109 164.836C236.389 165.34 236.029 165.94 236.029 166.636C236.029 167.212 236.209 167.644 236.569 167.932C236.953 168.196 237.457 168.328 238.081 168.328ZM254.87 172L248.858 154.144H254.186L256.49 162.568C256.73 163.456 256.958 164.368 257.174 165.304C257.414 166.216 257.654 167.14 257.894 168.076H258.038C258.254 167.14 258.47 166.216 258.686 165.304C258.926 164.368 259.166 163.456 259.406 162.568L261.746 154.144H266.822L260.99 172H254.87ZM269.61 172V146.764H274.758V161.236H274.902L280.554 154.144H286.314L280.05 161.488L286.782 172H281.058L277.026 165.052L274.758 167.608V172H269.61ZM295.981 172.432C294.469 172.432 293.041 172.072 291.697 171.352C290.377 170.608 289.309 169.54 288.493 168.148C287.677 166.732 287.269 165.04 287.269 163.072C287.269 161.08 287.677 159.388 288.493 157.996C289.309 156.604 290.377 155.548 291.697 154.828C293.041 154.084 294.469 153.712 295.981 153.712C297.493 153.712 298.909 154.084 300.229 154.828C301.549 155.548 302.617 156.604 303.433 157.996C304.249 159.388 304.657 161.08 304.657 163.072C304.657 165.04 304.249 166.732 303.433 168.148C302.617 169.54 301.549 170.608 300.229 171.352C298.909 172.072 297.493 172.432 295.981 172.432ZM295.981 168.148C297.061 168.148 297.877 167.692 298.429 166.78C298.981 165.844 299.257 164.608 299.257 163.072C299.257 161.512 298.981 160.276 298.429 159.364C297.877 158.452 297.061 157.996 295.981 157.996C294.877 157.996 294.049 158.452 293.497 159.364C292.969 160.276 292.705 161.512 292.705 163.072C292.705 164.608 292.969 165.844 293.497 166.78C294.049 167.692 294.877 168.148 295.981 168.148ZM308.326 178.984L307.246 176.176C308.59 175.696 309.61 175.06 310.306 174.268C311.002 173.5 311.338 172.672 311.314 171.784C311.266 171.784 311.218 171.784 311.17 171.784C311.122 171.784 311.074 171.784 311.026 171.784C310.186 171.784 309.442 171.532 308.794 171.028C308.146 170.5 307.822 169.756 307.822 168.796C307.822 167.884 308.146 167.152 308.794 166.6C309.442 166.048 310.222 165.772 311.134 165.772C312.334 165.772 313.246 166.216 313.87 167.104C314.494 167.992 314.806 169.216 314.806 170.776C314.806 172.744 314.254 174.448 313.15 175.888C312.046 177.328 310.438 178.36 308.326 178.984ZM324.958 172V169.156L332.446 158.284H325.786V154.144H339.034V156.952L331.546 167.86H339.286V172H324.958ZM346.496 172.432C344.864 172.432 343.568 171.916 342.608 170.884C341.648 169.828 341.168 168.544 341.168 167.032C341.168 165.16 341.96 163.696 343.544 162.64C345.128 161.584 347.684 160.876 351.212 160.516C351.164 159.724 350.924 159.1 350.492 158.644C350.084 158.164 349.388 157.924 348.404 157.924C347.66 157.924 346.904 158.068 346.136 158.356C345.368 158.644 344.552 159.04 343.688 159.544L341.78 156.052C342.908 155.356 344.108 154.792 345.38 154.36C346.676 153.928 348.02 153.712 349.412 153.712C351.692 153.712 353.444 154.372 354.668 155.692C355.892 157.012 356.504 159.04 356.504 161.776V172H352.184L351.824 170.164H351.68C350.936 170.836 350.132 171.388 349.268 171.82C348.428 172.228 347.504 172.432 346.496 172.432ZM348.296 168.328C348.896 168.328 349.412 168.196 349.844 167.932C350.3 167.644 350.756 167.272 351.212 166.816V163.684C349.34 163.924 348.044 164.308 347.324 164.836C346.604 165.34 346.244 165.94 346.244 166.636C346.244 167.212 346.424 167.644 346.784 167.932C347.168 168.196 347.672 168.328 348.296 168.328ZM349.952 151.408L347.36 148.816L352.904 142.264L356.468 145.756L349.952 151.408ZM370.341 172.432C369.549 172.432 368.745 172.24 367.929 171.856C367.137 171.448 366.393 170.86 365.697 170.092H365.553L365.121 172H360.981V146.764H366.273V152.956L366.129 155.692C366.825 155.068 367.581 154.588 368.397 154.252C369.213 153.892 370.029 153.712 370.845 153.712C372.285 153.712 373.533 154.084 374.589 154.828C375.645 155.572 376.449 156.628 377.001 157.996C377.577 159.34 377.865 160.924 377.865 162.748C377.865 164.788 377.505 166.54 376.785 168.004C376.065 169.444 375.129 170.548 373.977 171.316C372.849 172.06 371.637 172.432 370.341 172.432ZM369.117 168.112C370.029 168.112 370.809 167.692 371.457 166.852C372.105 166.012 372.429 164.68 372.429 162.856C372.429 159.64 371.397 158.032 369.333 158.032C368.277 158.032 367.257 158.572 366.273 159.652V166.96C366.753 167.392 367.233 167.692 367.713 167.86C368.193 168.028 368.661 168.112 369.117 168.112ZM385.731 172.432C384.099 172.432 382.803 171.916 381.843 170.884C380.883 169.828 380.403 168.544 380.403 167.032C380.403 165.16 381.195 163.696 382.779 162.64C384.363 161.584 386.919 160.876 390.447 160.516C390.399 159.724 390.159 159.1 389.727 158.644C389.319 158.164 388.623 157.924 387.639 157.924C386.895 157.924 386.139 158.068 385.371 158.356C384.603 158.644 383.787 159.04 382.923 159.544L381.015 156.052C382.143 155.356 383.343 154.792 384.615 154.36C385.911 153.928 387.255 153.712 388.647 153.712C390.927 153.712 392.679 154.372 393.903 155.692C395.127 157.012 395.739 159.04 395.739 161.776V172H391.419L391.059 170.164H390.915C390.171 170.836 389.367 171.388 388.503 171.82C387.663 172.228 386.739 172.432 385.731 172.432ZM387.531 168.328C388.131 168.328 388.647 168.196 389.079 167.932C389.535 167.644 389.991 167.272 390.447 166.816V163.684C388.575 163.924 387.279 164.308 386.559 164.836C385.839 165.34 385.479 165.94 385.479 166.636C385.479 167.212 385.659 167.644 386.019 167.932C386.403 168.196 386.907 168.328 387.531 168.328ZM404.319 172L398.307 154.144H403.635L405.939 162.568C406.179 163.456 406.407 164.368 406.623 165.304C406.863 166.216 407.103 167.14 407.343 168.076H407.487C407.703 167.14 407.919 166.216 408.135 165.304C408.375 164.368 408.615 163.456 408.855 162.568L411.195 154.144H416.271L410.439 172H404.319ZM419.059 172V154.144H423.379L423.739 156.412H423.883C424.651 155.692 425.491 155.068 426.403 154.54C427.339 153.988 428.407 153.712 429.607 153.712C431.551 153.712 432.955 154.36 433.819 155.656C434.707 156.928 435.151 158.68 435.151 160.912V172H429.859V161.596C429.859 160.3 429.679 159.412 429.319 158.932C428.983 158.452 428.431 158.212 427.663 158.212C426.991 158.212 426.415 158.368 425.935 158.68C425.455 158.968 424.927 159.388 424.351 159.94V172H419.059ZM444.16 172.432C442.528 172.432 441.232 171.916 440.272 170.884C439.312 169.828 438.832 168.544 438.832 167.032C438.832 165.16 439.624 163.696 441.208 162.64C442.792 161.584 445.348 160.876 448.876 160.516C448.828 159.724 448.588 159.1 448.156 158.644C447.748 158.164 447.052 157.924 446.068 157.924C445.324 157.924 444.568 158.068 443.8 158.356C443.032 158.644 442.216 159.04 441.352 159.544L439.444 156.052C440.572 155.356 441.772 154.792 443.044 154.36C444.34 153.928 445.684 153.712 447.076 153.712C449.356 153.712 451.108 154.372 452.332 155.692C453.556 157.012 454.168 159.04 454.168 161.776V172H449.848L449.488 170.164H449.344C448.6 170.836 447.796 171.388 446.932 171.82C446.092 172.228 445.168 172.432 444.16 172.432ZM445.96 168.328C446.56 168.328 447.076 168.196 447.508 167.932C447.964 167.644 448.42 167.272 448.876 166.816V163.684C447.004 163.924 445.708 164.308 444.988 164.836C444.268 165.34 443.908 165.94 443.908 166.636C443.908 167.212 444.088 167.644 444.448 167.932C444.832 168.196 445.336 168.328 445.96 168.328ZM447.616 151.408L445.024 148.816L450.568 142.264L454.132 145.756L447.616 151.408ZM469.956 172L463.944 154.144H469.272L471.576 162.568C471.816 163.456 472.044 164.368 472.26 165.304C472.5 166.216 472.74 167.14 472.98 168.076H473.124C473.34 167.14 473.556 166.216 473.772 165.304C474.012 164.368 474.252 163.456 474.492 162.568L476.832 154.144H481.908L476.076 172H469.956ZM482.704 172V169.156L490.192 158.284H483.532V154.144H496.78V156.952L489.292 167.86H497.032V172H482.704ZM506.255 172.432C504.047 172.432 502.271 171.604 500.927 169.948C499.607 168.268 498.947 165.976 498.947 163.072C498.947 161.128 499.295 159.46 499.991 158.068C500.711 156.652 501.635 155.572 502.763 154.828C503.915 154.084 505.115 153.712 506.363 153.712C507.347 153.712 508.175 153.88 508.847 154.216C509.519 154.552 510.155 155.008 510.755 155.584L510.539 152.848V146.764H515.831V172H511.511L511.151 170.236H511.007C510.383 170.86 509.651 171.388 508.811 171.82C507.971 172.228 507.119 172.432 506.255 172.432ZM507.623 168.112C508.199 168.112 508.715 167.992 509.171 167.752C509.651 167.512 510.107 167.092 510.539 166.492V159.184C510.083 158.752 509.591 158.452 509.063 158.284C508.559 158.116 508.067 158.032 507.587 158.032C506.747 158.032 506.003 158.44 505.355 159.256C504.707 160.048 504.383 161.296 504.383 163C504.383 164.752 504.659 166.048 505.211 166.888C505.787 167.704 506.591 168.112 507.623 168.112ZM528.512 172.432C526.808 172.432 525.272 172.06 523.904 171.316C522.536 170.572 521.456 169.504 520.664 168.112C519.872 166.72 519.476 165.04 519.476 163.072C519.476 161.128 519.872 159.46 520.664 158.068C521.48 156.676 522.536 155.608 523.832 154.864C525.128 154.096 526.484 153.712 527.9 153.712C529.604 153.712 531.008 154.096 532.112 154.864C533.24 155.608 534.08 156.628 534.632 157.924C535.208 159.196 535.496 160.648 535.496 162.28C535.496 162.736 535.472 163.192 535.424 163.648C535.376 164.08 535.328 164.404 535.28 164.62H524.588C524.828 165.916 525.368 166.876 526.208 167.5C527.048 168.1 528.056 168.4 529.232 168.4C530.504 168.4 531.788 168.004 533.084 167.212L534.848 170.416C533.936 171.04 532.916 171.532 531.788 171.892C530.66 172.252 529.568 172.432 528.512 172.432ZM524.552 161.128H530.996C530.996 160.144 530.756 159.34 530.276 158.716C529.82 158.068 529.064 157.744 528.008 157.744C527.192 157.744 526.46 158.032 525.812 158.608C525.164 159.16 524.744 160 524.552 161.128ZM544.013 172.432C542.189 172.432 540.917 171.892 540.197 170.812C539.501 169.708 539.153 168.256 539.153 166.456V146.764H544.445V166.672C544.445 167.224 544.541 167.608 544.733 167.824C544.949 168.04 545.165 168.148 545.381 168.148C545.501 168.148 545.597 168.148 545.669 168.148C545.765 168.124 545.885 168.1 546.029 168.076L546.677 172C546.389 172.12 546.017 172.216 545.561 172.288C545.129 172.384 544.613 172.432 544.013 172.432ZM553.953 172.432C552.321 172.432 551.025 171.916 550.065 170.884C549.105 169.828 548.625 168.544 548.625 167.032C548.625 165.16 549.417 163.696 551.001 162.64C552.585 161.584 555.141 160.876 558.669 160.516C558.621 159.724 558.381 159.1 557.949 158.644C557.541 158.164 556.845 157.924 555.861 157.924C555.117 157.924 554.361 158.068 553.593 158.356C552.825 158.644 552.009 159.04 551.145 159.544L549.237 156.052C550.365 155.356 551.565 154.792 552.837 154.36C554.133 153.928 555.477 153.712 556.869 153.712C559.149 153.712 560.901 154.372 562.125 155.692C563.349 157.012 563.961 159.04 563.961 161.776V172H559.641L559.281 170.164H559.137C558.393 170.836 557.589 171.388 556.725 171.82C555.885 172.228 554.961 172.432 553.953 172.432ZM555.753 168.328C556.353 168.328 556.869 168.196 557.301 167.932C557.757 167.644 558.213 167.272 558.669 166.816V163.684C556.797 163.924 555.501 164.308 554.781 164.836C554.061 165.34 553.701 165.94 553.701 166.636C553.701 167.212 553.881 167.644 554.241 167.932C554.625 168.196 555.129 168.328 555.753 168.328ZM557.409 151.408L554.817 148.816L560.361 142.264L563.925 145.756L557.409 151.408ZM572.542 172L566.53 154.144H571.858L574.162 162.568C574.402 163.456 574.63 164.368 574.846 165.304C575.086 166.216 575.326 167.14 575.566 168.076H575.71C575.926 167.14 576.142 166.216 576.358 165.304C576.598 164.368 576.838 163.456 577.078 162.568L579.418 154.144H584.494L578.662 172H572.542ZM591.078 172.432C589.446 172.432 588.15 171.916 587.19 170.884C586.23 169.828 585.75 168.544 585.75 167.032C585.75 165.16 586.542 163.696 588.126 162.64C589.71 161.584 592.266 160.876 595.794 160.516C595.746 159.724 595.506 159.1 595.074 158.644C594.666 158.164 593.97 157.924 592.986 157.924C592.242 157.924 591.486 158.068 590.718 158.356C589.95 158.644 589.134 159.04 588.27 159.544L586.362 156.052C587.49 155.356 588.69 154.792 589.962 154.36C591.258 153.928 592.602 153.712 593.994 153.712C596.274 153.712 598.026 154.372 599.25 155.692C600.474 157.012 601.086 159.04 601.086 161.776V172H596.766L596.406 170.164H596.262C595.518 170.836 594.714 171.388 593.85 171.82C593.01 172.228 592.086 172.432 591.078 172.432ZM592.878 168.328C593.478 168.328 593.994 168.196 594.426 167.932C594.882 167.644 595.338 167.272 595.794 166.816V163.684C593.922 163.924 592.626 164.308 591.906 164.836C591.186 165.34 590.826 165.94 590.826 166.636C590.826 167.212 591.006 167.644 591.366 167.932C591.75 168.196 592.254 168.328 592.878 168.328ZM613.339 172.432C611.683 172.432 610.183 172.072 608.839 171.352C607.519 170.608 606.463 169.54 605.671 168.148C604.903 166.732 604.519 165.04 604.519 163.072C604.519 161.08 604.951 159.388 605.815 157.996C606.679 156.604 607.819 155.548 609.235 154.828C610.651 154.084 612.175 153.712 613.807 153.712C614.911 153.712 615.883 153.892 616.723 154.252C617.587 154.612 618.355 155.068 619.027 155.62L616.543 159.04C615.703 158.344 614.899 157.996 614.131 157.996C612.859 157.996 611.839 158.452 611.071 159.364C610.327 160.276 609.955 161.512 609.955 163.072C609.955 164.608 610.327 165.844 611.071 166.78C611.839 167.692 612.799 168.148 613.951 168.148C614.527 168.148 615.091 168.028 615.643 167.788C616.195 167.524 616.699 167.212 617.155 166.852L619.243 170.308C618.355 171.076 617.395 171.628 616.363 171.964C615.331 172.276 614.323 172.432 613.339 172.432ZM622.367 172V154.144H627.659V172H622.367ZM624.995 151.516C624.107 151.516 623.387 151.264 622.835 150.76C622.283 150.256 622.007 149.584 622.007 148.744C622.007 147.904 622.283 147.232 622.835 146.728C623.387 146.224 624.107 145.972 624.995 145.972C625.883 145.972 626.603 146.224 627.155 146.728C627.707 147.232 627.983 147.904 627.983 148.744C627.983 149.584 627.707 150.256 627.155 150.76C626.603 151.264 625.883 151.516 624.995 151.516ZM636.817 172.432C635.185 172.432 633.889 171.916 632.929 170.884C631.969 169.828 631.489 168.544 631.489 167.032C631.489 165.16 632.281 163.696 633.865 162.64C635.449 161.584 638.005 160.876 641.533 160.516C641.485 159.724 641.245 159.1 640.813 158.644C640.405 158.164 639.709 157.924 638.725 157.924C637.981 157.924 637.225 158.068 636.457 158.356C635.689 158.644 634.873 159.04 634.009 159.544L632.101 156.052C633.229 155.356 634.429 154.792 635.701 154.36C636.997 153.928 638.341 153.712 639.733 153.712C642.013 153.712 643.765 154.372 644.989 155.692C646.213 157.012 646.825 159.04 646.825 161.776V172H642.505L642.145 170.164H642.001C641.257 170.836 640.453 171.388 639.589 171.82C638.749 172.228 637.825 172.432 636.817 172.432ZM638.617 168.328C639.217 168.328 639.733 168.196 640.165 167.932C640.621 167.644 641.077 167.272 641.533 166.816V163.684C639.661 163.924 638.365 164.308 637.645 164.836C636.925 165.34 636.565 165.94 636.565 166.636C636.565 167.212 636.745 167.644 637.105 167.932C637.489 168.196 637.993 168.328 638.617 168.328ZM663.008 172.432C661.376 172.432 660.08 171.916 659.12 170.884C658.16 169.828 657.68 168.544 657.68 167.032C657.68 165.16 658.472 163.696 660.056 162.64C661.64 161.584 664.196 160.876 667.724 160.516C667.676 159.724 667.436 159.1 667.004 158.644C666.596 158.164 665.9 157.924 664.916 157.924C664.172 157.924 663.416 158.068 662.648 158.356C661.88 158.644 661.064 159.04 660.2 159.544L658.292 156.052C659.42 155.356 660.62 154.792 661.892 154.36C663.188 153.928 664.532 153.712 665.924 153.712C668.204 153.712 669.956 154.372 671.18 155.692C672.404 157.012 673.016 159.04 673.016 161.776V172H668.696L668.336 170.164H668.192C667.448 170.836 666.644 171.388 665.78 171.82C664.94 172.228 664.016 172.432 663.008 172.432ZM664.808 168.328C665.408 168.328 665.924 168.196 666.356 167.932C666.812 167.644 667.268 167.272 667.724 166.816V163.684C665.852 163.924 664.556 164.308 663.836 164.836C663.116 165.34 662.756 165.94 662.756 166.636C662.756 167.212 662.936 167.644 663.296 167.932C663.68 168.196 664.184 168.328 664.808 168.328ZM677.492 178.624V154.144H681.812L682.172 155.908H682.316C683.012 155.284 683.792 154.768 684.656 154.36C685.544 153.928 686.456 153.712 687.392 153.712C689.552 153.712 691.256 154.54 692.504 156.196C693.752 157.828 694.376 160.024 694.376 162.784C694.376 164.824 694.016 166.564 693.296 168.004C692.576 169.444 691.64 170.548 690.488 171.316C689.36 172.06 688.148 172.432 686.852 172.432C686.084 172.432 685.34 172.276 684.62 171.964C683.9 171.628 683.228 171.16 682.604 170.56L682.784 173.404V178.624H677.492ZM685.628 168.112C686.54 168.112 687.32 167.692 687.968 166.852C688.616 166.012 688.94 164.68 688.94 162.856C688.94 159.64 687.908 158.032 685.844 158.032C684.812 158.032 683.792 158.572 682.784 159.652V166.96C683.264 167.392 683.744 167.692 684.224 167.86C684.704 168.028 685.172 168.112 685.628 168.112ZM702.989 172.432C701.165 172.432 699.893 171.892 699.173 170.812C698.477 169.708 698.129 168.256 698.129 166.456V146.764H703.421V166.672C703.421 167.224 703.517 167.608 703.709 167.824C703.925 168.04 704.141 168.148 704.357 168.148C704.477 168.148 704.573 168.148 704.645 168.148C704.741 168.124 704.861 168.1 705.005 168.076L705.653 172C705.365 172.12 704.993 172.216 704.537 172.288C704.105 172.384 703.589 172.432 702.989 172.432ZM708.43 172V154.144H713.722V172H708.43ZM711.058 151.516C710.17 151.516 709.45 151.264 708.898 150.76C708.346 150.256 708.07 149.584 708.07 148.744C708.07 147.904 708.346 147.232 708.898 146.728C709.45 146.224 710.17 145.972 711.058 145.972C711.946 145.972 712.666 146.224 713.218 146.728C713.77 147.232 714.046 147.904 714.046 148.744C714.046 149.584 713.77 150.256 713.218 150.76C712.666 151.264 711.946 151.516 711.058 151.516ZM718.379 172V146.764H723.527V161.236H723.671L729.323 154.144H735.083L728.819 161.488L735.551 172H729.827L725.795 165.052L723.527 167.608V172H718.379ZM742.25 172.432C740.618 172.432 739.322 171.916 738.362 170.884C737.402 169.828 736.922 168.544 736.922 167.032C736.922 165.16 737.714 163.696 739.298 162.64C740.882 161.584 743.438 160.876 746.966 160.516C746.918 159.724 746.678 159.1 746.246 158.644C745.838 158.164 745.142 157.924 744.158 157.924C743.414 157.924 742.658 158.068 741.89 158.356C741.122 158.644 740.306 159.04 739.442 159.544L737.534 156.052C738.662 155.356 739.862 154.792 741.134 154.36C742.43 153.928 743.774 153.712 745.166 153.712C747.446 153.712 749.198 154.372 750.422 155.692C751.646 157.012 752.258 159.04 752.258 161.776V172H747.938L747.578 170.164H747.434C746.69 170.836 745.886 171.388 745.022 171.82C744.182 172.228 743.258 172.432 742.25 172.432ZM744.05 168.328C744.65 168.328 745.166 168.196 745.598 167.932C746.054 167.644 746.51 167.272 746.966 166.816V163.684C745.094 163.924 743.798 164.308 743.078 164.836C742.358 165.34 741.998 165.94 741.998 166.636C741.998 167.212 742.178 167.644 742.538 167.932C742.922 168.196 743.426 168.328 744.05 168.328ZM745.706 151.408L743.114 148.816L748.658 142.264L752.222 145.756L745.706 151.408ZM764.511 172.432C762.855 172.432 761.355 172.072 760.011 171.352C758.691 170.608 757.635 169.54 756.843 168.148C756.075 166.732 755.691 165.04 755.691 163.072C755.691 161.08 756.123 159.388 756.987 157.996C757.851 156.604 758.991 155.548 760.407 154.828C761.823 154.084 763.347 153.712 764.979 153.712C766.083 153.712 767.055 153.892 767.895 154.252C768.759 154.612 769.527 155.068 770.199 155.62L767.715 159.04C766.875 158.344 766.071 157.996 765.303 157.996C764.031 157.996 763.011 158.452 762.243 159.364C761.499 160.276 761.127 161.512 761.127 163.072C761.127 164.608 761.499 165.844 762.243 166.78C763.011 167.692 763.971 168.148 765.123 168.148C765.699 168.148 766.263 168.028 766.815 167.788C767.367 167.524 767.871 167.212 768.327 166.852L770.415 170.308C769.527 171.076 768.567 171.628 767.535 171.964C766.503 172.276 765.495 172.432 764.511 172.432ZM773.539 172V154.144H778.831V172H773.539ZM776.167 151.516C775.279 151.516 774.559 151.264 774.007 150.76C773.455 150.256 773.179 149.584 773.179 148.744C773.179 147.904 773.455 147.232 774.007 146.728C774.559 146.224 775.279 145.972 776.167 145.972C777.055 145.972 777.775 146.224 778.327 146.728C778.879 147.232 779.155 147.904 779.155 148.744C779.155 149.584 778.879 150.256 778.327 150.76C777.775 151.264 777.055 151.516 776.167 151.516ZM787.988 172.432C786.356 172.432 785.06 171.916 784.1 170.884C783.14 169.828 782.66 168.544 782.66 167.032C782.66 165.16 783.452 163.696 785.036 162.64C786.62 161.584 789.176 160.876 792.704 160.516C792.656 159.724 792.416 159.1 791.984 158.644C791.576 158.164 790.88 157.924 789.896 157.924C789.152 157.924 788.396 158.068 787.628 158.356C786.86 158.644 786.044 159.04 785.18 159.544L783.272 156.052C784.4 155.356 785.6 154.792 786.872 154.36C788.168 153.928 789.512 153.712 790.904 153.712C793.184 153.712 794.936 154.372 796.16 155.692C797.384 157.012 797.996 159.04 797.996 161.776V172H793.676L793.316 170.164H793.172C792.428 170.836 791.624 171.388 790.76 171.82C789.92 172.228 788.996 172.432 787.988 172.432ZM789.788 168.328C790.388 168.328 790.904 168.196 791.336 167.932C791.792 167.644 792.248 167.272 792.704 166.816V163.684C790.832 163.924 789.536 164.308 788.816 164.836C788.096 165.34 787.736 165.94 787.736 166.636C787.736 167.212 787.916 167.644 788.276 167.932C788.66 168.196 789.164 168.328 789.788 168.328ZM248.129 218.624V194.144H252.449L252.809 195.908H252.953C253.649 195.284 254.429 194.768 255.293 194.36C256.181 193.928 257.093 193.712 258.029 193.712C260.189 193.712 261.893 194.54 263.141 196.196C264.389 197.828 265.013 200.024 265.013 202.784C265.013 204.824 264.653 206.564 263.933 208.004C263.213 209.444 262.277 210.548 261.125 211.316C259.997 212.06 258.785 212.432 257.489 212.432C256.721 212.432 255.977 212.276 255.257 211.964C254.537 211.628 253.865 211.16 253.241 210.56L253.421 213.404V218.624H248.129ZM256.265 208.112C257.177 208.112 257.957 207.692 258.605 206.852C259.253 206.012 259.577 204.68 259.577 202.856C259.577 199.64 258.545 198.032 256.481 198.032C255.449 198.032 254.429 198.572 253.421 199.652V206.96C253.901 207.392 254.381 207.692 254.861 207.86C255.341 208.028 255.809 208.112 256.265 208.112ZM268.766 212V194.144H273.086L273.446 197.276H273.59C274.238 196.076 275.018 195.188 275.93 194.612C276.842 194.012 277.754 193.712 278.666 193.712C279.17 193.712 279.59 193.748 279.926 193.82C280.262 193.868 280.55 193.952 280.79 194.072L279.926 198.644C279.614 198.548 279.302 198.476 278.99 198.428C278.702 198.38 278.366 198.356 277.982 198.356C277.31 198.356 276.602 198.608 275.858 199.112C275.138 199.592 274.538 200.432 274.058 201.632V212H268.766ZM290.75 212.432C289.046 212.432 287.51 212.06 286.142 211.316C284.774 210.572 283.694 209.504 282.902 208.112C282.11 206.72 281.714 205.04 281.714 203.072C281.714 201.128 282.11 199.46 282.902 198.068C283.718 196.676 284.774 195.608 286.07 194.864C287.366 194.096 288.722 193.712 290.138 193.712C291.842 193.712 293.246 194.096 294.35 194.864C295.478 195.608 296.318 196.628 296.87 197.924C297.446 199.196 297.734 200.648 297.734 202.28C297.734 202.736 297.71 203.192 297.662 203.648C297.614 204.08 297.566 204.404 297.518 204.62H286.826C287.066 205.916 287.606 206.876 288.446 207.5C289.286 208.1 290.294 208.4 291.47 208.4C292.742 208.4 294.026 208.004 295.322 207.212L297.086 210.416C296.174 211.04 295.154 211.532 294.026 211.892C292.898 212.252 291.806 212.432 290.75 212.432ZM286.79 201.128H293.234C293.234 200.144 292.994 199.34 292.514 198.716C292.058 198.068 291.302 197.744 290.246 197.744C289.43 197.744 288.698 198.032 288.05 198.608C287.402 199.16 286.982 200 286.79 201.128ZM314.97 212.432C312.762 212.432 310.986 211.604 309.642 209.948C308.322 208.268 307.662 205.976 307.662 203.072C307.662 201.128 308.01 199.46 308.706 198.068C309.426 196.652 310.35 195.572 311.478 194.828C312.63 194.084 313.83 193.712 315.078 193.712C316.062 193.712 316.89 193.88 317.562 194.216C318.234 194.552 318.87 195.008 319.47 195.584L319.254 192.848V186.764H324.546V212H320.226L319.866 210.236H319.722C319.098 210.86 318.366 211.388 317.526 211.82C316.686 212.228 315.834 212.432 314.97 212.432ZM316.338 208.112C316.914 208.112 317.43 207.992 317.886 207.752C318.366 207.512 318.822 207.092 319.254 206.492V199.184C318.798 198.752 318.306 198.452 317.778 198.284C317.274 198.116 316.782 198.032 316.302 198.032C315.462 198.032 314.718 198.44 314.07 199.256C313.422 200.048 313.098 201.296 313.098 203C313.098 204.752 313.374 206.048 313.926 206.888C314.502 207.704 315.306 208.112 316.338 208.112ZM337.227 212.432C335.523 212.432 333.987 212.06 332.619 211.316C331.251 210.572 330.171 209.504 329.379 208.112C328.587 206.72 328.191 205.04 328.191 203.072C328.191 201.128 328.587 199.46 329.379 198.068C330.195 196.676 331.251 195.608 332.547 194.864C333.843 194.096 335.199 193.712 336.615 193.712C338.319 193.712 339.723 194.096 340.827 194.864C341.955 195.608 342.795 196.628 343.347 197.924C343.923 199.196 344.211 200.648 344.211 202.28C344.211 202.736 344.187 203.192 344.139 203.648C344.091 204.08 344.043 204.404 343.995 204.62H333.303C333.543 205.916 334.083 206.876 334.923 207.5C335.763 208.1 336.771 208.4 337.947 208.4C339.219 208.4 340.503 208.004 341.799 207.212L343.563 210.416C342.651 211.04 341.631 211.532 340.503 211.892C339.375 212.252 338.283 212.432 337.227 212.432ZM333.267 201.128H339.711C339.711 200.144 339.471 199.34 338.991 198.716C338.535 198.068 337.779 197.744 336.723 197.744C335.907 197.744 335.175 198.032 334.527 198.608C333.879 199.16 333.459 200 333.267 201.128ZM354.392 212.432C352.184 212.432 350.6 211.796 349.64 210.524C348.704 209.252 348.236 207.584 348.236 205.52V198.284H345.788V194.36L348.524 194.144L349.136 189.392H353.528V194.144H357.812V198.284H353.528V205.448C353.528 206.456 353.732 207.188 354.14 207.644C354.572 208.076 355.136 208.292 355.832 208.292C356.12 208.292 356.408 208.256 356.696 208.184C357.008 208.112 357.284 208.028 357.524 207.932L358.352 211.784C357.896 211.928 357.332 212.072 356.66 212.216C356.012 212.36 355.256 212.432 354.392 212.432ZM361.297 212V194.144H366.589V212H361.297ZM363.925 191.516C363.037 191.516 362.317 191.264 361.765 190.76C361.213 190.256 360.937 189.584 360.937 188.744C360.937 187.904 361.213 187.232 361.765 186.728C362.317 186.224 363.037 185.972 363.925 185.972C364.813 185.972 365.533 186.224 366.085 186.728C366.637 187.232 366.913 187.904 366.913 188.744C366.913 189.584 366.637 190.256 366.085 190.76C365.533 191.264 364.813 191.516 363.925 191.516ZM377.481 212V209.156L384.969 198.284H378.309V194.144H391.557V196.952L384.069 207.86H391.809V212H377.481ZM409.887 212.432C408.375 212.432 406.947 212.072 405.603 211.352C404.283 210.608 403.215 209.54 402.399 208.148C401.583 206.732 401.175 205.04 401.175 203.072C401.175 201.08 401.583 199.388 402.399 197.996C403.215 196.604 404.283 195.548 405.603 194.828C406.947 194.084 408.375 193.712 409.887 193.712C411.399 193.712 412.815 194.084 414.135 194.828C415.455 195.548 416.523 196.604 417.339 197.996C418.155 199.388 418.563 201.08 418.563 203.072C418.563 205.04 418.155 206.732 417.339 208.148C416.523 209.54 415.455 210.608 414.135 211.352C412.815 212.072 411.399 212.432 409.887 212.432ZM409.887 208.148C410.967 208.148 411.783 207.692 412.335 206.78C412.887 205.844 413.163 204.608 413.163 203.072C413.163 201.512 412.887 200.276 412.335 199.364C411.783 198.452 410.967 197.996 409.887 197.996C408.783 197.996 407.955 198.452 407.403 199.364C406.875 200.276 406.611 201.512 406.611 203.072C406.611 204.608 406.875 205.844 407.403 206.78C407.955 207.692 408.783 208.148 409.887 208.148ZM431.548 212.432C430.756 212.432 429.952 212.24 429.136 211.856C428.344 211.448 427.6 210.86 426.904 210.092H426.76L426.328 212H422.188V186.764H427.48V192.956L427.336 195.692C428.032 195.068 428.788 194.588 429.604 194.252C430.42 193.892 431.236 193.712 432.052 193.712C433.492 193.712 434.74 194.084 435.796 194.828C436.852 195.572 437.656 196.628 438.208 197.996C438.784 199.34 439.072 200.924 439.072 202.748C439.072 204.788 438.712 206.54 437.992 208.004C437.272 209.444 436.336 210.548 435.184 211.316C434.056 212.06 432.844 212.432 431.548 212.432ZM430.324 208.112C431.236 208.112 432.016 207.692 432.664 206.852C433.312 206.012 433.636 204.68 433.636 202.856C433.636 199.64 432.604 198.032 430.54 198.032C429.484 198.032 428.464 198.572 427.48 199.652V206.96C427.96 207.392 428.44 207.692 428.92 207.86C429.4 208.028 429.868 208.112 430.324 208.112ZM447.684 212.432C445.86 212.432 444.588 211.892 443.868 210.812C443.172 209.708 442.824 208.256 442.824 206.456V186.764H448.116V206.672C448.116 207.224 448.212 207.608 448.404 207.824C448.62 208.04 448.836 208.148 449.052 208.148C449.172 208.148 449.268 208.148 449.34 208.148C449.436 208.124 449.556 208.1 449.7 208.076L450.348 212C450.06 212.12 449.688 212.216 449.232 212.288C448.8 212.384 448.284 212.432 447.684 212.432ZM457.625 212.432C455.993 212.432 454.697 211.916 453.737 210.884C452.777 209.828 452.297 208.544 452.297 207.032C452.297 205.16 453.089 203.696 454.673 202.64C456.257 201.584 458.813 200.876 462.341 200.516C462.293 199.724 462.053 199.1 461.621 198.644C461.213 198.164 460.517 197.924 459.533 197.924C458.789 197.924 458.033 198.068 457.265 198.356C456.497 198.644 455.681 199.04 454.817 199.544L452.909 196.052C454.037 195.356 455.237 194.792 456.509 194.36C457.805 193.928 459.149 193.712 460.541 193.712C462.821 193.712 464.573 194.372 465.797 195.692C467.021 197.012 467.633 199.04 467.633 201.776V212H463.313L462.953 210.164H462.809C462.065 210.836 461.261 211.388 460.397 211.82C459.557 212.228 458.633 212.432 457.625 212.432ZM459.425 208.328C460.025 208.328 460.541 208.196 460.973 207.932C461.429 207.644 461.885 207.272 462.341 206.816V203.684C460.469 203.924 459.173 204.308 458.453 204.836C457.733 205.34 457.373 205.94 457.373 206.636C457.373 207.212 457.553 207.644 457.913 207.932C458.297 208.196 458.801 208.328 459.425 208.328ZM477.366 212.432C476.19 212.432 474.978 212.204 473.73 211.748C472.506 211.292 471.438 210.692 470.526 209.948L472.902 206.636C473.718 207.236 474.498 207.704 475.242 208.04C476.01 208.352 476.766 208.508 477.51 208.508C478.302 208.508 478.878 208.376 479.238 208.112C479.598 207.824 479.778 207.452 479.778 206.996C479.778 206.588 479.598 206.252 479.238 205.988C478.902 205.724 478.458 205.484 477.906 205.268C477.354 205.028 476.766 204.788 476.142 204.548C475.422 204.26 474.702 203.9 473.982 203.468C473.286 203.036 472.698 202.484 472.218 201.812C471.738 201.116 471.498 200.276 471.498 199.292C471.498 197.636 472.122 196.292 473.37 195.26C474.642 194.228 476.298 193.712 478.338 193.712C479.706 193.712 480.906 193.952 481.938 194.432C482.994 194.888 483.894 195.404 484.638 195.98L482.262 199.148C481.638 198.668 481.014 198.296 480.39 198.032C479.766 197.768 479.142 197.636 478.518 197.636C477.15 197.636 476.466 198.104 476.466 199.04C476.466 199.616 476.802 200.06 477.474 200.372C478.17 200.66 478.974 200.972 479.886 201.308C480.654 201.572 481.398 201.92 482.118 202.352C482.862 202.76 483.474 203.312 483.954 204.008C484.458 204.68 484.71 205.568 484.71 206.672C484.71 208.28 484.086 209.648 482.838 210.776C481.59 211.88 479.766 212.432 477.366 212.432ZM494.243 212.432C492.035 212.432 490.451 211.796 489.491 210.524C488.555 209.252 488.087 207.584 488.087 205.52V198.284H485.639V194.36L488.375 194.144L488.987 189.392H493.379V194.144H497.663V198.284H493.379V205.448C493.379 206.456 493.583 207.188 493.991 207.644C494.423 208.076 494.987 208.292 495.683 208.292C495.971 208.292 496.259 208.256 496.547 208.184C496.859 208.112 497.135 208.028 497.375 207.932L498.203 211.784C497.747 211.928 497.183 212.072 496.511 212.216C495.863 212.36 495.107 212.432 494.243 212.432ZM501.149 212V194.144H506.441V212H501.149ZM503.777 191.516C502.889 191.516 502.169 191.264 501.617 190.76C501.065 190.256 500.789 189.584 500.789 188.744C500.789 187.904 501.065 187.232 501.617 186.728C502.169 186.224 502.889 185.972 503.777 185.972C504.665 185.972 505.385 186.224 505.937 186.728C506.489 187.232 506.765 187.904 506.765 188.744C506.765 189.584 506.489 190.256 505.937 190.76C505.385 191.264 504.665 191.516 503.777 191.516ZM527.665 212.432C526.873 212.432 526.069 212.24 525.253 211.856C524.461 211.448 523.717 210.86 523.021 210.092H522.877L522.445 212H518.305V186.764H523.597V192.956L523.453 195.692C524.149 195.068 524.905 194.588 525.721 194.252C526.537 193.892 527.353 193.712 528.169 193.712C529.609 193.712 530.857 194.084 531.913 194.828C532.969 195.572 533.773 196.628 534.325 197.996C534.901 199.34 535.189 200.924 535.189 202.748C535.189 204.788 534.829 206.54 534.109 208.004C533.389 209.444 532.453 210.548 531.301 211.316C530.173 212.06 528.961 212.432 527.665 212.432ZM526.441 208.112C527.353 208.112 528.133 207.692 528.781 206.852C529.429 206.012 529.753 204.68 529.753 202.856C529.753 199.64 528.721 198.032 526.657 198.032C525.601 198.032 524.581 198.572 523.597 199.652V206.96C524.077 207.392 524.557 207.692 525.037 207.86C525.517 208.028 525.985 208.112 526.441 208.112ZM546.934 212.432C545.23 212.432 543.694 212.06 542.326 211.316C540.958 210.572 539.878 209.504 539.086 208.112C538.294 206.72 537.898 205.04 537.898 203.072C537.898 201.128 538.294 199.46 539.086 198.068C539.902 196.676 540.958 195.608 542.254 194.864C543.55 194.096 544.906 193.712 546.322 193.712C548.026 193.712 549.43 194.096 550.534 194.864C551.662 195.608 552.502 196.628 553.054 197.924C553.63 199.196 553.918 200.648 553.918 202.28C553.918 202.736 553.894 203.192 553.846 203.648C553.798 204.08 553.75 204.404 553.702 204.62H543.01C543.25 205.916 543.79 206.876 544.63 207.5C545.47 208.1 546.478 208.4 547.654 208.4C548.926 208.4 550.21 208.004 551.506 207.212L553.27 210.416C552.358 211.04 551.338 211.532 550.21 211.892C549.082 212.252 547.99 212.432 546.934 212.432ZM542.974 201.128H549.418C549.418 200.144 549.178 199.34 548.698 198.716C548.242 198.068 547.486 197.744 546.43 197.744C545.614 197.744 544.882 198.032 544.234 198.608C543.586 199.16 543.166 200 542.974 201.128ZM556.356 212V209.156L563.844 198.284H557.184V194.144H570.432V196.952L562.944 207.86H570.684V212H556.356ZM573.887 218.624V194.144H578.207L578.567 195.908H578.711C579.407 195.284 580.187 194.768 581.051 194.36C581.939 193.928 582.851 193.712 583.787 193.712C585.947 193.712 587.651 194.54 588.899 196.196C590.147 197.828 590.771 200.024 590.771 202.784C590.771 204.824 590.411 206.564 589.691 208.004C588.971 209.444 588.035 210.548 586.883 211.316C585.755 212.06 584.543 212.432 583.247 212.432C582.479 212.432 581.735 212.276 581.015 211.964C580.295 211.628 579.623 211.16 578.999 210.56L579.179 213.404V218.624H573.887ZM582.023 208.112C582.935 208.112 583.715 207.692 584.363 206.852C585.011 206.012 585.335 204.68 585.335 202.856C585.335 199.64 584.303 198.032 582.239 198.032C581.207 198.032 580.187 198.572 579.179 199.652V206.96C579.659 207.392 580.139 207.692 580.619 207.86C581.099 208.028 581.567 208.112 582.023 208.112ZM602.516 212.432C600.812 212.432 599.276 212.06 597.908 211.316C596.54 210.572 595.46 209.504 594.668 208.112C593.876 206.72 593.48 205.04 593.48 203.072C593.48 201.128 593.876 199.46 594.668 198.068C595.484 196.676 596.54 195.608 597.836 194.864C599.132 194.096 600.488 193.712 601.904 193.712C603.608 193.712 605.012 194.096 606.116 194.864C607.244 195.608 608.084 196.628 608.636 197.924C609.212 199.196 609.5 200.648 609.5 202.28C609.5 202.736 609.476 203.192 609.428 203.648C609.38 204.08 609.332 204.404 609.284 204.62H598.592C598.832 205.916 599.372 206.876 600.212 207.5C601.052 208.1 602.06 208.4 603.236 208.4C604.508 208.4 605.792 208.004 607.088 207.212L608.852 210.416C607.94 211.04 606.92 211.532 605.792 211.892C604.664 212.252 603.572 212.432 602.516 212.432ZM598.556 201.128H605C605 200.144 604.76 199.34 604.28 198.716C603.824 198.068 603.068 197.744 602.012 197.744C601.196 197.744 600.464 198.032 599.816 198.608C599.168 199.16 598.748 200 598.556 201.128ZM620.932 212.432C619.276 212.432 617.776 212.072 616.432 211.352C615.112 210.608 614.056 209.54 613.264 208.148C612.496 206.732 612.112 205.04 612.112 203.072C612.112 201.08 612.544 199.388 613.408 197.996C614.272 196.604 615.412 195.548 616.828 194.828C618.244 194.084 619.768 193.712 621.4 193.712C622.504 193.712 623.476 193.892 624.316 194.252C625.18 194.612 625.948 195.068 626.62 195.62L624.136 199.04C623.296 198.344 622.492 197.996 621.724 197.996C620.452 197.996 619.432 198.452 618.664 199.364C617.92 200.276 617.548 201.512 617.548 203.072C617.548 204.608 617.92 205.844 618.664 206.78C619.432 207.692 620.392 208.148 621.544 208.148C622.12 208.148 622.684 208.028 623.236 207.788C623.788 207.524 624.292 207.212 624.748 206.852L626.836 210.308C625.948 211.076 624.988 211.628 623.956 211.964C622.924 212.276 621.916 212.432 620.932 212.432ZM618.124 191.228L614.236 186.512L616.252 184.64L620.752 187.952H620.896L625.396 184.64L627.412 186.512L623.524 191.228H618.124ZM629.961 212V194.144H634.281L634.641 196.412H634.785C635.553 195.692 636.393 195.068 637.305 194.54C638.241 193.988 639.309 193.712 640.509 193.712C642.453 193.712 643.857 194.36 644.721 195.656C645.609 196.928 646.053 198.68 646.053 200.912V212H640.761V201.596C640.761 200.3 640.581 199.412 640.221 198.932C639.885 198.452 639.333 198.212 638.565 198.212C637.893 198.212 637.317 198.368 636.837 198.68C636.357 198.968 635.829 199.388 635.253 199.94V212H629.961ZM658.231 212.432C656.719 212.432 655.291 212.072 653.947 211.352C652.627 210.608 651.559 209.54 650.743 208.148C649.927 206.732 649.519 205.04 649.519 203.072C649.519 201.08 649.927 199.388 650.743 197.996C651.559 196.604 652.627 195.548 653.947 194.828C655.291 194.084 656.719 193.712 658.231 193.712C659.743 193.712 661.159 194.084 662.479 194.828C663.799 195.548 664.867 196.604 665.683 197.996C666.499 199.388 666.907 201.08 666.907 203.072C666.907 205.04 666.499 206.732 665.683 208.148C664.867 209.54 663.799 210.608 662.479 211.352C661.159 212.072 659.743 212.432 658.231 212.432ZM658.231 208.148C659.311 208.148 660.127 207.692 660.679 206.78C661.231 205.844 661.507 204.608 661.507 203.072C661.507 201.512 661.231 200.276 660.679 199.364C660.127 198.452 659.311 197.996 658.231 197.996C657.127 197.996 656.299 198.452 655.747 199.364C655.219 200.276 654.955 201.512 654.955 203.072C654.955 204.608 655.219 205.844 655.747 206.78C656.299 207.692 657.127 208.148 658.231 208.148ZM675.612 212.432C674.436 212.432 673.224 212.204 671.976 211.748C670.752 211.292 669.684 210.692 668.772 209.948L671.148 206.636C671.964 207.236 672.744 207.704 673.488 208.04C674.256 208.352 675.012 208.508 675.756 208.508C676.548 208.508 677.124 208.376 677.484 208.112C677.844 207.824 678.024 207.452 678.024 206.996C678.024 206.588 677.844 206.252 677.484 205.988C677.148 205.724 676.704 205.484 676.152 205.268C675.6 205.028 675.012 204.788 674.388 204.548C673.668 204.26 672.948 203.9 672.228 203.468C671.532 203.036 670.944 202.484 670.464 201.812C669.984 201.116 669.744 200.276 669.744 199.292C669.744 197.636 670.368 196.292 671.616 195.26C672.888 194.228 674.544 193.712 676.584 193.712C677.952 193.712 679.152 193.952 680.184 194.432C681.24 194.888 682.14 195.404 682.884 195.98L680.508 199.148C679.884 198.668 679.26 198.296 678.636 198.032C678.012 197.768 677.388 197.636 676.764 197.636C675.396 197.636 674.712 198.104 674.712 199.04C674.712 199.616 675.048 200.06 675.72 200.372C676.416 200.66 677.22 200.972 678.132 201.308C678.9 201.572 679.644 201.92 680.364 202.352C681.108 202.76 681.72 203.312 682.2 204.008C682.704 204.68 682.956 205.568 682.956 206.672C682.956 208.28 682.332 209.648 681.084 210.776C679.836 211.88 678.012 212.432 675.612 212.432ZM692.489 212.432C690.281 212.432 688.697 211.796 687.737 210.524C686.801 209.252 686.333 207.584 686.333 205.52V198.284H683.885V194.36L686.621 194.144L687.233 189.392H691.625V194.144H695.909V198.284H691.625V205.448C691.625 206.456 691.829 207.188 692.237 207.644C692.669 208.076 693.233 208.292 693.929 208.292C694.217 208.292 694.505 208.256 694.793 208.184C695.105 208.112 695.381 208.028 695.621 207.932L696.449 211.784C695.993 211.928 695.429 212.072 694.757 212.216C694.109 212.36 693.353 212.432 692.489 212.432ZM699.395 212V194.144H704.687V212H699.395ZM702.023 191.516C701.135 191.516 700.415 191.264 699.863 190.76C699.311 190.256 699.035 189.584 699.035 188.744C699.035 187.904 699.311 187.232 699.863 186.728C700.415 186.224 701.135 185.972 702.023 185.972C702.911 185.972 703.631 186.224 704.183 186.728C704.735 187.232 705.011 187.904 705.011 188.744C705.011 189.584 704.735 190.256 704.183 190.76C703.631 191.264 702.911 191.516 702.023 191.516ZM349.93 252.432C348.274 252.432 346.774 252.072 345.43 251.352C344.11 250.608 343.054 249.54 342.262 248.148C341.494 246.732 341.11 245.04 341.11 243.072C341.11 241.08 341.542 239.388 342.406 237.996C343.27 236.604 344.41 235.548 345.826 234.828C347.242 234.084 348.766 233.712 350.398 233.712C351.502 233.712 352.474 233.892 353.314 234.252C354.178 234.612 354.946 235.068 355.618 235.62L353.134 239.04C352.294 238.344 351.49 237.996 350.722 237.996C349.45 237.996 348.43 238.452 347.662 239.364C346.918 240.276 346.546 241.512 346.546 243.072C346.546 244.608 346.918 245.844 347.662 246.78C348.43 247.692 349.39 248.148 350.542 248.148C351.118 248.148 351.682 248.028 352.234 247.788C352.786 247.524 353.29 247.212 353.746 246.852L355.834 250.308C354.946 251.076 353.986 251.628 352.954 251.964C351.922 252.276 350.914 252.432 349.93 252.432ZM365.932 252.432C364.228 252.432 362.692 252.06 361.324 251.316C359.956 250.572 358.876 249.504 358.084 248.112C357.292 246.72 356.896 245.04 356.896 243.072C356.896 241.128 357.292 239.46 358.084 238.068C358.9 236.676 359.956 235.608 361.252 234.864C362.548 234.096 363.904 233.712 365.32 233.712C367.024 233.712 368.428 234.096 369.532 234.864C370.66 235.608 371.5 236.628 372.052 237.924C372.628 239.196 372.916 240.648 372.916 242.28C372.916 242.736 372.892 243.192 372.844 243.648C372.796 244.08 372.748 244.404 372.7 244.62H362.008C362.248 245.916 362.788 246.876 363.628 247.5C364.468 248.1 365.476 248.4 366.652 248.4C367.924 248.4 369.208 248.004 370.504 247.212L372.268 250.416C371.356 251.04 370.336 251.532 369.208 251.892C368.08 252.252 366.988 252.432 365.932 252.432ZM361.972 241.128H368.416C368.416 240.144 368.176 239.34 367.696 238.716C367.24 238.068 366.484 237.744 365.428 237.744C364.612 237.744 363.88 238.032 363.232 238.608C362.584 239.16 362.164 240 361.972 241.128ZM381.828 252.432C380.652 252.432 379.44 252.204 378.192 251.748C376.968 251.292 375.9 250.692 374.988 249.948L377.364 246.636C378.18 247.236 378.96 247.704 379.704 248.04C380.472 248.352 381.228 248.508 381.972 248.508C382.764 248.508 383.34 248.376 383.7 248.112C384.06 247.824 384.24 247.452 384.24 246.996C384.24 246.588 384.06 246.252 383.7 245.988C383.364 245.724 382.92 245.484 382.368 245.268C381.816 245.028 381.228 244.788 380.604 244.548C379.884 244.26 379.164 243.9 378.444 243.468C377.748 243.036 377.16 242.484 376.68 241.812C376.2 241.116 375.96 240.276 375.96 239.292C375.96 237.636 376.584 236.292 377.832 235.26C379.104 234.228 380.76 233.712 382.8 233.712C384.168 233.712 385.368 233.952 386.4 234.432C387.456 234.888 388.356 235.404 389.1 235.98L386.724 239.148C386.1 238.668 385.476 238.296 384.852 238.032C384.228 237.768 383.604 237.636 382.98 237.636C381.612 237.636 380.928 238.104 380.928 239.04C380.928 239.616 381.264 240.06 381.936 240.372C382.632 240.66 383.436 240.972 384.348 241.308C385.116 241.572 385.86 241.92 386.58 242.352C387.324 242.76 387.936 243.312 388.416 244.008C388.92 244.68 389.172 245.568 389.172 246.672C389.172 248.28 388.548 249.648 387.3 250.776C386.052 251.88 384.228 252.432 381.828 252.432ZM398.706 252.432C396.498 252.432 394.914 251.796 393.954 250.524C393.018 249.252 392.55 247.584 392.55 245.52V238.284H390.102V234.36L392.838 234.144L393.45 229.392H397.842V234.144H402.126V238.284H397.842V245.448C397.842 246.456 398.046 247.188 398.454 247.644C398.886 248.076 399.45 248.292 400.146 248.292C400.434 248.292 400.722 248.256 401.01 248.184C401.322 248.112 401.598 248.028 401.838 247.932L402.666 251.784C402.21 251.928 401.646 252.072 400.974 252.216C400.326 252.36 399.57 252.432 398.706 252.432ZM405.611 252V234.144H409.931L410.291 236.412H410.435C411.203 235.692 412.043 235.068 412.955 234.54C413.891 233.988 414.959 233.712 416.159 233.712C418.103 233.712 419.507 234.36 420.371 235.656C421.259 236.928 421.703 238.68 421.703 240.912V252H416.411V241.596C416.411 240.3 416.231 239.412 415.871 238.932C415.535 238.452 414.983 238.212 414.215 238.212C413.543 238.212 412.967 238.368 412.487 238.68C412.007 238.968 411.479 239.388 410.903 239.94V252H405.611ZM434.205 252.432C432.501 252.432 430.965 252.06 429.597 251.316C428.229 250.572 427.149 249.504 426.357 248.112C425.565 246.72 425.169 245.04 425.169 243.072C425.169 241.128 425.565 239.46 426.357 238.068C427.173 236.676 428.229 235.608 429.525 234.864C430.821 234.096 432.177 233.712 433.593 233.712C435.297 233.712 436.701 234.096 437.805 234.864C438.933 235.608 439.773 236.628 440.325 237.924C440.901 239.196 441.189 240.648 441.189 242.28C441.189 242.736 441.165 243.192 441.117 243.648C441.069 244.08 441.021 244.404 440.973 244.62H430.281C430.521 245.916 431.061 246.876 431.901 247.5C432.741 248.1 433.749 248.4 434.925 248.4C436.197 248.4 437.481 248.004 438.777 247.212L440.541 250.416C439.629 251.04 438.609 251.532 437.481 251.892C436.353 252.252 435.261 252.432 434.205 252.432ZM430.245 241.128H436.689C436.689 240.144 436.449 239.34 435.969 238.716C435.513 238.068 434.757 237.744 433.701 237.744C432.885 237.744 432.153 238.032 431.505 238.608C430.857 239.16 430.437 240 430.245 241.128ZM443.802 259.056C443.058 259.056 442.446 259.008 441.966 258.912C441.462 258.816 441.03 258.696 440.67 258.552L441.606 254.664C441.846 254.736 442.086 254.796 442.326 254.844C442.542 254.892 442.77 254.916 443.01 254.916C443.706 254.916 444.186 254.676 444.45 254.196C444.738 253.74 444.882 253.02 444.882 252.036V234.144H450.174V251.892C450.174 253.188 449.982 254.376 449.598 255.456C449.214 256.536 448.554 257.4 447.618 258.048C446.706 258.72 445.434 259.056 443.802 259.056ZM447.546 231.516C446.658 231.516 445.938 231.264 445.386 230.76C444.834 230.256 444.558 229.584 444.558 228.744C444.558 227.904 444.834 227.232 445.386 226.728C445.938 226.224 446.658 225.972 447.546 225.972C448.434 225.972 449.154 226.224 449.706 226.728C450.258 227.232 450.534 227.904 450.534 228.744C450.534 229.584 450.258 230.256 449.706 230.76C449.154 231.264 448.434 231.516 447.546 231.516ZM462.072 258.624V234.144H466.392L466.752 235.908H466.896C467.592 235.284 468.372 234.768 469.236 234.36C470.124 233.928 471.036 233.712 471.972 233.712C474.132 233.712 475.836 234.54 477.084 236.196C478.332 237.828 478.956 240.024 478.956 242.784C478.956 244.824 478.596 246.564 477.876 248.004C477.156 249.444 476.22 250.548 475.068 251.316C473.94 252.06 472.728 252.432 471.432 252.432C470.664 252.432 469.92 252.276 469.2 251.964C468.48 251.628 467.808 251.16 467.184 250.56L467.364 253.404V258.624H462.072ZM470.208 248.112C471.12 248.112 471.9 247.692 472.548 246.852C473.196 246.012 473.52 244.68 473.52 242.856C473.52 239.64 472.488 238.032 470.424 238.032C469.392 238.032 468.372 238.572 467.364 239.652V246.96C467.844 247.392 468.324 247.692 468.804 247.86C469.284 248.028 469.752 248.112 470.208 248.112ZM482.709 252V234.144H487.029L487.389 237.276H487.533C488.181 236.076 488.961 235.188 489.873 234.612C490.785 234.012 491.697 233.712 492.609 233.712C493.113 233.712 493.533 233.748 493.869 233.82C494.205 233.868 494.493 233.952 494.733 234.072L493.869 238.644C493.557 238.548 493.245 238.476 492.933 238.428C492.645 238.38 492.309 238.356 491.925 238.356C491.253 238.356 490.545 238.608 489.801 239.112C489.081 239.592 488.481 240.432 488.001 241.632V252H482.709ZM504.693 252.432C502.989 252.432 501.453 252.06 500.085 251.316C498.717 250.572 497.637 249.504 496.845 248.112C496.053 246.72 495.657 245.04 495.657 243.072C495.657 241.128 496.053 239.46 496.845 238.068C497.661 236.676 498.717 235.608 500.013 234.864C501.309 234.096 502.665 233.712 504.081 233.712C505.785 233.712 507.189 234.096 508.293 234.864C509.421 235.608 510.261 236.628 510.813 237.924C511.389 239.196 511.677 240.648 511.677 242.28C511.677 242.736 511.653 243.192 511.605 243.648C511.557 244.08 511.509 244.404 511.461 244.62H500.769C501.009 245.916 501.549 246.876 502.389 247.5C503.229 248.1 504.237 248.4 505.413 248.4C506.685 248.4 507.969 248.004 509.265 247.212L511.029 250.416C510.117 251.04 509.097 251.532 507.969 251.892C506.841 252.252 505.749 252.432 504.693 252.432ZM500.733 241.128H507.177C507.177 240.144 506.937 239.34 506.457 238.716C506.001 238.068 505.245 237.744 504.189 237.744C503.373 237.744 502.641 238.032 501.993 238.608C501.345 239.16 500.925 240 500.733 241.128ZM515.334 252V234.144H519.654L520.014 236.448H520.158C520.902 235.704 521.694 235.068 522.534 234.54C523.374 233.988 524.382 233.712 525.558 233.712C526.83 233.712 527.85 233.976 528.618 234.504C529.41 235.008 530.034 235.74 530.49 236.7C531.282 235.884 532.122 235.188 533.01 234.612C533.898 234.012 534.93 233.712 536.106 233.712C538.026 233.712 539.43 234.36 540.318 235.656C541.23 236.928 541.686 238.68 541.686 240.912V252H536.394V241.596C536.394 240.3 536.214 239.412 535.854 238.932C535.518 238.452 534.966 238.212 534.198 238.212C533.31 238.212 532.29 238.788 531.138 239.94V252H525.846V241.596C525.846 240.3 525.666 239.412 525.306 238.932C524.97 238.452 524.418 238.212 523.65 238.212C522.762 238.212 521.754 238.788 520.626 239.94V252H515.334ZM550.701 252.432C549.069 252.432 547.773 251.916 546.813 250.884C545.853 249.828 545.373 248.544 545.373 247.032C545.373 245.16 546.165 243.696 547.749 242.64C549.333 241.584 551.889 240.876 555.417 240.516C555.369 239.724 555.129 239.1 554.697 238.644C554.289 238.164 553.593 237.924 552.609 237.924C551.865 237.924 551.109 238.068 550.341 238.356C549.573 238.644 548.757 239.04 547.893 239.544L545.985 236.052C547.113 235.356 548.313 234.792 549.585 234.36C550.881 233.928 552.225 233.712 553.617 233.712C555.897 233.712 557.649 234.372 558.873 235.692C560.097 237.012 560.709 239.04 560.709 241.776V252H556.389L556.029 250.164H555.885C555.141 250.836 554.337 251.388 553.473 251.82C552.633 252.228 551.709 252.432 550.701 252.432ZM552.501 248.328C553.101 248.328 553.617 248.196 554.049 247.932C554.505 247.644 554.961 247.272 555.417 246.816V243.684C553.545 243.924 552.249 244.308 551.529 244.836C550.809 245.34 550.449 245.94 550.449 246.636C550.449 247.212 550.629 247.644 550.989 247.932C551.373 248.196 551.877 248.328 552.501 248.328ZM554.157 231.408L551.565 228.816L557.109 222.264L560.673 225.756L554.157 231.408ZM569.29 252L563.278 234.144H568.606L570.91 242.568C571.15 243.456 571.378 244.368 571.594 245.304C571.834 246.216 572.074 247.14 572.314 248.076H572.458C572.674 247.14 572.89 246.216 573.106 245.304C573.346 244.368 573.586 243.456 573.826 242.568L576.166 234.144H581.242L575.41 252H569.29ZM584.029 252V226.764H589.177V241.236H589.321L594.973 234.144H600.733L594.469 241.488L601.201 252H595.477L591.445 245.052L589.177 247.608V252H584.029ZM605.732 258.984C605.204 258.984 604.736 258.948 604.328 258.876C603.944 258.804 603.572 258.72 603.212 258.624L604.148 254.592C604.316 254.616 604.508 254.652 604.724 254.7C604.94 254.772 605.144 254.808 605.336 254.808C606.224 254.808 606.908 254.592 607.388 254.16C607.868 253.728 608.228 253.164 608.468 252.468L608.72 251.532L601.844 234.144H607.172L609.728 241.812C609.992 242.628 610.232 243.456 610.448 244.296C610.664 245.136 610.892 246 611.132 246.888H611.276C611.468 246.048 611.66 245.208 611.852 244.368C612.068 243.504 612.284 242.652 612.5 241.812L614.66 234.144H619.736L613.544 252.18C612.992 253.668 612.38 254.916 611.708 255.924C611.036 256.956 610.22 257.724 609.26 258.228C608.324 258.732 607.148 258.984 605.732 258.984Z" fill="white"/>
</g>
<path style="mix-blend-mode:overlay" opacity="0.6" d="M702.256 222.249C688.485 201.827 560.458 199.572 539.017 215.746C502.986 242.945 397.92 262.821 341.635 251.857C290.586 241.912 240.225 215.604 196.002 186.97C151.779 158.335 111.248 126.497 65.5296 99.2869C-18.856 49.0316 -119.482 17.0628 -210.564 10.1089L-333.082 296.096C-309.766 309.944 -286.235 323.496 -261.957 335.256C-177.049 376.445 -79.8777 395.514 -1.96231 386.282C51.0577 380.028 94.0459 361.576 143.54 350.777C197.189 339.088 258.579 336.537 323.008 343.301C392.72 350.623 499.899 340.109 555.056 324.208C584.107 315.842 699.264 269.218 705.485 246.22C707.456 238.946 707.943 230.663 702.256 222.249Z" fill="url(#paint10_linear_1356_20476)"/>
<g opacity="0.8">
<path d="M614.792 89.5736C663.437 40.9497 663.437 -37.8852 614.792 -86.5091C566.146 -135.133 487.277 -135.133 438.631 -86.5092C389.986 -37.8853 389.986 40.9497 438.631 89.5736C487.277 138.198 566.146 138.198 614.792 89.5736Z" fill="url(#paint11_linear_1356_20476)"/>
<path style="mix-blend-mode:multiply" opacity="0.15" d="M651.02 12.6814C644.414 21.0438 637.699 29.3092 630.51 37.2293C612.298 57.1806 590.32 74.8875 564.228 81.8904C536.711 89.2709 507.014 84.0484 480.76 73.0315C465.485 66.6653 450.772 58.238 439.534 46.0558C423.309 28.4568 415.58 4.21096 414.608 -19.6896C414.168 -32.7148 415.218 -45.7477 417.739 -58.5347C408.854 -42.3124 403.697 -24.3155 402.642 -5.85166C401.587 12.6121 404.661 31.079 411.639 48.2069C418.618 65.3348 429.327 80.6934 442.987 93.1667C456.648 105.64 472.916 114.915 490.612 120.317C508.307 125.719 526.984 127.112 545.285 124.396C563.587 121.68 581.053 114.923 596.415 104.615C611.776 94.3071 624.648 80.7079 634.093 64.8055C643.539 48.9031 649.321 31.0971 651.02 12.6814V12.6814Z" fill="url(#paint12_linear_1356_20476)"/>
<path d="M534.899 76.2466C522.797 76.2466 522.776 95.0649 534.899 95.0649C547.021 95.0649 547.032 76.2466 534.899 76.2466Z" fill="url(#paint13_linear_1356_20476)"/>
<path d="M523.963 112.092C515.878 112.092 511.97 118.566 512.25 124.868C517.14 125.456 522.061 125.755 526.986 125.764C529.9 125.764 532.783 125.634 535.622 125.429C536.205 118.987 532.275 112.092 523.963 112.092Z" fill="url(#paint14_linear_1356_20476)"/>
<path d="M484.109 63.2555C494.25 63.2555 502.471 55.038 502.471 44.9012C502.471 34.7644 494.25 26.5469 484.109 26.5469C473.967 26.5469 465.746 34.7644 465.746 44.9012C465.746 55.038 473.967 63.2555 484.109 63.2555Z" fill="url(#paint15_linear_1356_20476)"/>
<path d="M471.132 57.8817C468.559 55.3188 466.805 52.0505 466.092 48.4904C465.378 44.9304 465.738 41.2389 467.125 37.8833C468.512 34.5278 470.864 31.6592 473.884 29.6408C476.903 27.6224 480.454 26.5449 484.086 26.5449C487.718 26.5449 491.269 27.6224 494.288 29.6408C497.308 31.6592 499.66 34.5278 501.047 37.8833C502.434 41.2389 502.794 44.9304 502.08 48.4904C501.367 52.0505 499.613 55.3188 497.04 57.8817C493.6 61.3081 488.942 63.232 484.086 63.232C479.23 63.232 474.572 61.3081 471.132 57.8817V57.8817Z" fill="url(#paint16_linear_1356_20476)"/>
<path d="M592.037 37.2292C594.826 39.3088 596.936 42.1682 598.099 45.446C599.263 48.7238 599.428 52.2728 598.573 55.6444C597.719 59.0159 595.884 62.0586 593.3 64.3879C590.717 66.7172 587.5 68.2285 584.057 68.7307C580.614 69.2329 577.099 68.7035 573.957 67.2094C570.815 65.7153 568.186 63.3236 566.404 60.3366C564.622 57.3496 563.765 53.9015 563.943 50.4281C564.121 46.9546 565.325 43.6119 567.403 40.8224C568.782 38.9665 570.514 37.4009 572.5 36.2154C574.485 35.03 576.685 34.2479 578.974 33.9141C581.262 33.5803 583.594 33.7013 585.836 34.2701C588.078 34.839 590.185 35.8446 592.037 37.2292V37.2292Z" fill="url(#paint17_linear_1356_20476)"/>
<path d="M584.093 68.726C580.647 69.234 577.127 68.7087 573.98 67.2166C570.833 65.7246 568.199 63.3329 566.412 60.3441C564.624 57.3553 563.765 53.9039 563.94 50.4264C564.116 46.9489 565.32 43.6018 567.4 40.8085C569.48 38.0152 572.341 35.9013 575.623 34.7343C578.905 33.5673 582.46 33.3995 585.837 34.2524C589.215 35.1052 592.263 36.9403 594.597 39.5254C596.93 42.1104 598.444 45.3293 598.947 48.7748C599.621 53.3888 598.435 58.0814 595.649 61.8221C592.864 65.5628 588.708 68.0459 584.093 68.726V68.726Z" fill="url(#paint18_linear_1356_20476)"/>
<path d="M628.729 -20.5532C628.729 -14.7911 627.02 -9.15833 623.817 -4.3673C620.614 0.423731 616.062 4.15789 610.736 6.36296C605.41 8.56803 599.55 9.14497 593.896 8.02084C588.242 6.8967 583.049 4.12197 578.972 0.0475341C574.896 -4.0269 572.12 -9.21805 570.996 -14.8695C569.871 -20.5209 570.448 -26.3787 572.654 -31.7022C574.86 -37.0257 578.596 -41.5758 583.389 -44.7771C588.182 -47.9783 593.818 -49.687 599.582 -49.687C607.312 -49.687 614.726 -46.6176 620.192 -41.1539C625.658 -35.6903 628.729 -28.28 628.729 -20.5532Z" fill="url(#paint19_linear_1356_20476)"/>
<path d="M599.572 8.59148C615.675 8.59148 628.729 -4.45701 628.729 -20.5531C628.729 -36.6493 615.675 -49.6978 599.572 -49.6978C583.468 -49.6978 570.414 -36.6493 570.414 -20.5531C570.414 -4.45701 583.468 8.59148 599.572 8.59148Z" fill="url(#paint20_linear_1356_20476)"/>
<path d="M635.412 44.9011C635.407 48.7106 636.758 52.3977 639.223 55.3029C643.255 46.9403 646.326 38.1476 648.377 29.0933C644.727 29.8355 641.444 31.813 639.082 34.6926C636.721 37.5721 635.424 41.1776 635.412 44.9011V44.9011Z" fill="url(#paint21_linear_1356_20476)"/>
<path d="M442.108 22.1352C444.403 12.4144 438.38 2.67434 428.655 0.380035C418.93 -1.91427 409.186 4.10603 406.89 13.8268C404.595 23.5475 410.618 33.2876 420.343 35.5819C430.068 37.8762 439.813 31.8559 442.108 22.1352Z" fill="url(#paint22_linear_1356_20476)"/>
<path opacity="0.15" d="M735.752 -62.6998C726.037 -89.4058 659.884 -80.4823 624.746 -73.6736C629.152 -68.686 633.124 -63.3327 636.621 -57.6715C656.764 -61.1784 675.3 -62.9588 689.949 -62.7538C711.129 -62.4516 717.487 -58.0276 718.016 -56.5062C720.823 -48.8127 705.677 -27.1134 653.925 2.40888C651.022 4.07059 648.02 5.75388 644.868 7.45875C614.005 24.2808 576.773 40.4663 537.263 54.321C507.135 64.9719 476.388 73.7858 445.192 80.7141C440.42 81.7932 435.822 82.6996 431.374 83.5628C360.472 97.3312 328.907 89.6593 325.733 80.9731C323.391 74.4989 344.754 48.818 403.005 15.9291C402.474 9.04315 402.572 2.12322 403.296 -4.74509C376.33 9.86498 352.548 25.3599 335.805 39.3873C312.499 58.8098 303.42 74.4558 308.073 87.1991C320.347 120.768 404.246 107.614 444.522 99.1764L447.221 98.6045L449.024 98.2052C481.003 91.1107 512.522 82.0806 543.405 71.1647C583.11 57.2452 620.623 40.9519 652.069 24.0327L653.936 23.0292C689.171 3.85479 746.666 -32.7351 735.752 -62.6998Z" fill="url(#paint23_linear_1356_20476)"/>
<path opacity="0.15" d="M735.752 -62.7003C726.037 -89.4063 659.884 -80.4827 624.746 -73.6741C629.152 -68.6865 633.124 -63.3331 636.621 -57.672C656.764 -61.1789 675.3 -62.9593 689.949 -62.7543C711.129 -62.4521 717.487 -58.0281 718.016 -56.5067C720.823 -48.8132 705.677 -27.1139 653.925 2.4084C651.022 4.0701 648.02 5.75339 644.868 7.45826C614.005 24.2803 576.773 40.4658 537.263 54.3206C507.135 64.9714 476.388 73.7853 445.192 80.7137C440.42 81.7927 435.822 82.6991 431.374 83.5623C360.472 97.3307 328.907 89.6588 325.733 80.9726C323.391 74.4984 344.754 48.8175 403.005 15.9286C402.474 9.04266 402.572 2.12274 403.296 -4.74558C376.33 9.86449 352.548 25.3594 335.805 39.3868C312.499 58.8093 303.42 74.4553 308.073 87.1986C320.347 120.767 404.246 107.614 444.522 99.1759L447.221 98.604L449.024 98.2047C481.003 91.1102 512.522 82.0801 543.405 71.1642C583.11 57.2447 620.623 40.9514 652.069 24.0322L653.936 23.0287C689.171 3.8543 746.666 -32.7356 735.752 -62.7003Z" fill="url(#paint24_linear_1356_20476)"/>
</g>
</g>
</g>
<defs>
<linearGradient id="paint0_linear_1356_20476" x1="19.9541" y1="484.747" x2="931.53" y2="-42.4336" gradientUnits="userSpaceOnUse">
<stop offset="0.08" stop-color="#241E45"/>
<stop offset="0.348958" stop-color="#293961"/>
<stop offset="0.651042" stop-color="#31618A"/>
<stop offset="1" stop-color="#2E9992"/>
</linearGradient>
<radialGradient id="paint1_radial_1356_20476" cx="0" cy="0" r="1" gradientUnits="userSpaceOnUse" gradientTransform="translate(699.014 196.151) scale(340.876 330.396)">
<stop offset="0.01" stop-color="white" stop-opacity="0.4"/>
<stop offset="0.11" stop-color="white" stop-opacity="0.29"/>
<stop offset="0.23" stop-color="white" stop-opacity="0.18"/>
<stop offset="0.37" stop-color="white" stop-opacity="0.1"/>
<stop offset="0.52" stop-color="white" stop-opacity="0.04"/>
<stop offset="0.7" stop-color="white" stop-opacity="0.01"/>
<stop offset="0.99" stop-color="white" stop-opacity="0"/>
</radialGradient>
<radialGradient id="paint2_radial_1356_20476" cx="0" cy="0" r="1" gradientUnits="userSpaceOnUse" gradientTransform="translate(551.278 177.737) scale(384.476 372.484)">
<stop offset="0.01" stop-color="white" stop-opacity="0.3"/>
<stop offset="0.02" stop-color="white" stop-opacity="0.29"/>
<stop offset="0.16" stop-color="white" stop-opacity="0.18"/>
<stop offset="0.31" stop-color="white" stop-opacity="0.1"/>
<stop offset="0.47" stop-color="white" stop-opacity="0.04"/>
<stop offset="0.67" stop-color="white" stop-opacity="0.01"/>
<stop offset="0.99" stop-color="white" stop-opacity="0"/>
</radialGradient>
<linearGradient id="paint3_linear_1356_20476" x1="111.86" y1="11.006" x2="290.461" y2="223.975" gradientUnits="userSpaceOnUse">
<stop offset="0.06" stop-color="#241E45"/>
<stop offset="0.3" stop-color="#293961"/>
<stop offset="0.61" stop-color="#31618A"/>
</linearGradient>
<linearGradient id="paint4_linear_1356_20476" x1="668.635" y1="-404.401" x2="1060.71" y2="120.04" gradientUnits="userSpaceOnUse">
<stop offset="0.01" stop-color="white"/>
<stop offset="0.99" stop-color="white" stop-opacity="0"/>
</linearGradient>
<linearGradient id="paint5_linear_1356_20476" x1="419609" y1="408622" x2="480134" y2="142180" gradientUnits="userSpaceOnUse">
<stop offset="0.01" stop-color="white"/>
<stop offset="0.99" stop-color="white" stop-opacity="0"/>
</linearGradient>
<linearGradient id="paint6_linear_1356_20476" x1="-166.949" y1="431.11" x2="1055.56" y2="431.11" gradientUnits="userSpaceOnUse">
<stop offset="0.08" stop-color="#241E45"/>
<stop offset="0.25" stop-color="#293961" stop-opacity="0.47"/>
<stop offset="0.75" stop-color="#31618A" stop-opacity="0.69"/>
<stop offset="1" stop-color="#37B4AC"/>
</linearGradient>
<radialGradient id="paint7_radial_1356_20476" cx="0" cy="0" r="1" gradientUnits="userSpaceOnUse" gradientTransform="translate(862.241 19.583) scale(312.962 303.512)">
<stop offset="0.01" stop-color="white" stop-opacity="0.4"/>
<stop offset="0.11" stop-color="white" stop-opacity="0.29"/>
<stop offset="0.23" stop-color="white" stop-opacity="0.18"/>
<stop offset="0.37" stop-color="white" stop-opacity="0.1"/>
<stop offset="0.52" stop-color="white" stop-opacity="0.04"/>
<stop offset="0.7" stop-color="white" stop-opacity="0.01"/>
<stop offset="0.99" stop-color="white" stop-opacity="0"/>
</radialGradient>
<radialGradient id="paint8_radial_1356_20476" cx="0" cy="0" r="1" gradientUnits="userSpaceOnUse" gradientTransform="translate(474.062 18.3083) scale(333.414 323.346)">
<stop offset="0.01" stop-color="white" stop-opacity="0.3"/>
<stop offset="0.02" stop-color="white" stop-opacity="0.29"/>
<stop offset="0.16" stop-color="white" stop-opacity="0.18"/>
<stop offset="0.31" stop-color="white" stop-opacity="0.1"/>
<stop offset="0.47" stop-color="white" stop-opacity="0.04"/>
<stop offset="0.67" stop-color="white" stop-opacity="0.01"/>
<stop offset="0.99" stop-color="white" stop-opacity="0"/>
</radialGradient>
<linearGradient id="paint9_linear_1356_20476" x1="639.374" y1="533.768" x2="1153.85" y2="328.357" gradientUnits="userSpaceOnUse">
<stop offset="0.276042" stop-color="#31618A" stop-opacity="0.55"/>
<stop offset="0.588542" stop-color="#31618A" stop-opacity="0.54"/>
<stop offset="0.885417" stop-color="#37B4AC" stop-opacity="0.38"/>
</linearGradient>
<linearGradient id="paint10_linear_1356_20476" x1="582.117" y1="892.137" x2="535.052" y2="114.642" gradientUnits="userSpaceOnUse">
<stop offset="0.01" stop-color="white" stop-opacity="0.7"/>
<stop offset="0.984375" stop-color="white" stop-opacity="0"/>
</linearGradient>
<linearGradient id="paint11_linear_1356_20476" x1="402.145" y1="1.52632" x2="651.274" y2="1.52631" gradientUnits="userSpaceOnUse">
<stop stop-color="#37B4AC"/>
<stop offset="1" stop-color="#366528"/>
</linearGradient>
<linearGradient id="paint12_linear_1356_20476" x1="524.858" y1="-96.7431" x2="528.687" y2="119.473" gradientUnits="userSpaceOnUse">
<stop offset="0.01" stop-color="#222AFD"/>
<stop offset="0.99" stop-color="#9781FD"/>
</linearGradient>
<linearGradient id="paint13_linear_1356_20476" x1="517.151" y1="102.348" x2="556.807" y2="65.0071" gradientUnits="userSpaceOnUse">
<stop stop-color="#37B4AC"/>
<stop offset="0.45" stop-color="#378F6F"/>
<stop offset="1" stop-color="#366528"/>
</linearGradient>
<linearGradient id="paint14_linear_1356_20476" x1="545.931" y1="170.921" x2="518.111" y2="110.205" gradientUnits="userSpaceOnUse">
<stop stop-color="#37B4AC"/>
<stop offset="0.45" stop-color="#378F6F"/>
<stop offset="1" stop-color="#366528"/>
</linearGradient>
<linearGradient id="paint15_linear_1356_20476" x1="510.319" y1="49.0339" x2="460.641" y2="41.2041" gradientUnits="userSpaceOnUse">
<stop stop-color="#37B4AC"/>
<stop offset="0.45" stop-color="#378F6F"/>
<stop offset="1" stop-color="#366528"/>
</linearGradient>
<linearGradient id="paint16_linear_1356_20476" x1="465.745" y1="44.901" x2="502.47" y2="44.901" gradientUnits="userSpaceOnUse">
<stop stop-color="#37B4AC"/>
<stop offset="0.45" stop-color="#378F6F"/>
<stop offset="1" stop-color="#366528"/>
</linearGradient>
<linearGradient id="paint17_linear_1356_20476" x1="599.349" y1="61.3318" x2="561.466" y2="40.1793" gradientUnits="userSpaceOnUse">
<stop stop-color="#37B4AC"/>
<stop offset="0.45" stop-color="#378F6F"/>
<stop offset="1" stop-color="#366528"/>
</linearGradient>
<linearGradient id="paint18_linear_1356_20476" x1="563.917" y1="51.3105" x2="599.131" y2="51.3105" gradientUnits="userSpaceOnUse">
<stop stop-color="#37B4AC"/>
<stop offset="0.45" stop-color="#378F6F"/>
<stop offset="1" stop-color="#366528"/>
</linearGradient>
<linearGradient id="paint19_linear_1356_20476" x1="641.197" y1="-14.0035" x2="562.298" y2="-26.4446" gradientUnits="userSpaceOnUse">
<stop stop-color="#37B4AC"/>
<stop offset="0.45" stop-color="#378F6F"/>
<stop offset="1" stop-color="#366528"/>
</linearGradient>
<linearGradient id="paint20_linear_1356_20476" x1="570.414" y1="-20.5531" x2="628.729" y2="-20.5531" gradientUnits="userSpaceOnUse">
<stop stop-color="#37B4AC"/>
<stop offset="0.45" stop-color="#378F6F"/>
<stop offset="1" stop-color="#366528"/>
</linearGradient>
<linearGradient id="paint21_linear_1356_20476" x1="635.412" y1="42.2035" x2="648.377" y2="42.2035" gradientUnits="userSpaceOnUse">
<stop stop-color="#37B4AC"/>
<stop offset="0.45" stop-color="#378F6F"/>
<stop offset="1" stop-color="#366528"/>
</linearGradient>
<linearGradient id="paint22_linear_1356_20476" x1="450.33" y1="22.0794" x2="401.365" y2="14.3577" gradientUnits="userSpaceOnUse">
<stop stop-color="#366528"/>
<stop offset="1" stop-color="#37B4AC"/>
</linearGradient>
<linearGradient id="paint23_linear_1356_20476" x1="304.454" y1="58.938" x2="745.229" y2="-35.5556" gradientUnits="userSpaceOnUse">
<stop offset="0.01" stop-color="white"/>
<stop offset="0.17" stop-color="#FCFCFC"/>
<stop offset="0.31" stop-color="#F1F1F4"/>
<stop offset="0.45" stop-color="#E0DFE5"/>
<stop offset="0.58" stop-color="#C8C7D1"/>
<stop offset="0.7" stop-color="#A9A7B7"/>
<stop offset="0.82" stop-color="#827F97"/>
<stop offset="0.94" stop-color="#565171"/>
<stop offset="0.99" stop-color="#403B5F"/>
</linearGradient>
<linearGradient id="paint24_linear_1356_20476" x1="304.454" y1="58.9375" x2="745.229" y2="-35.5561" gradientUnits="userSpaceOnUse">
<stop offset="0.01" stop-color="white"/>
<stop offset="0.17" stop-color="#FCFCFC"/>
<stop offset="0.31" stop-color="#F1F1F4"/>
<stop offset="0.45" stop-color="#E0DFE5"/>
<stop offset="0.58" stop-color="#C8C7D1"/>
<stop offset="0.7" stop-color="#A9A7B7"/>
<stop offset="0.82" stop-color="#827F97"/>
<stop offset="0.94" stop-color="#565171"/>
<stop offset="0.99" stop-color="#403B5F"/>
</linearGradient>
<clipPath id="clip0_1356_20476">
<rect width="962.047" height="383" fill="white"/>
</clipPath>
<clipPath id="clip1_1356_20476">
<rect width="964" height="445" fill="white" transform="translate(-3 -2)"/>
</clipPath>
<clipPath id="clip2_1356_20476">
<rect width="964" height="445" fill="white" transform="translate(-3.59375 -2)"/>
</clipPath>
</defs>
</svg>
