<svg width="375" height="57" viewBox="0 0 375 57" fill="none" xmlns="http://www.w3.org/2000/svg">
<path d="M151.481 15.6054C152.406 16.5206 153.596 16.9795 155.049 16.9795L167.709 16.9795C169.18 16.9795 170.384 16.5163 171.317 15.5925C172.252 14.6663 172.718 13.487 172.718 12.0528L172.718 5.05674C172.718 3.6222 172.252 2.44211 171.317 1.51781C170.384 0.591882 169.18 0.128648 167.709 0.128647L155.049 0.128644C153.596 0.128644 152.406 0.58754 151.481 1.50293C150.556 2.41832 150.094 3.60355 150.094 5.05645L150.094 12.0525C150.093 13.5054 150.556 14.6901 151.481 15.6054Z" fill="#8DC63F"/>
<path d="M151.479 55.5843C152.403 56.528 153.59 57.001 155.041 57.001L167.68 57.001C169.149 57.001 170.351 56.5236 171.282 55.5695C172.215 54.6153 172.718 53.6295 172.718 52.1502L172.718 44.937C172.718 43.4566 172.215 42.0079 171.282 41.055C170.35 40.0998 169.149 39.6235 167.68 39.6235L155.041 39.6235C153.59 39.6235 152.403 40.0948 151.479 41.0399C150.555 41.9836 150.094 43.2059 150.094 44.7047L150.094 51.9187C150.093 53.4184 150.555 54.6398 151.479 55.5843Z" fill="#ED1C24"/>
<path d="M151.481 35.5731C152.406 36.5163 153.595 36.9893 155.05 36.9893L167.708 36.9893C169.18 36.9893 170.383 36.5118 171.317 35.5578C172.251 34.6041 172.718 33.3874 172.718 31.908L172.718 24.6931C172.718 23.2137 172.251 21.9959 171.317 21.0433C170.383 20.0881 169.18 19.6118 167.708 19.6118L155.05 19.6118C153.595 19.6118 152.406 20.0837 151.481 21.0279C150.556 21.9719 150.094 23.1939 150.094 24.6928L150.094 31.9077C150.094 33.4071 150.556 34.6283 151.481 35.5731Z" fill="#F68B1F"/>
<path d="M52.1296 15.6054C53.0546 16.5206 54.2436 16.9795 55.6985 16.9795L68.3568 16.9795C69.8281 16.9795 71.0318 16.5163 71.9648 15.5925C72.9 14.6663 73.3662 13.487 73.3662 12.0528L73.3662 5.05674C73.3662 3.6222 72.9003 2.44211 71.9648 1.51781C71.0318 0.591882 69.8279 0.128648 68.3568 0.128647L55.6985 0.128644C54.2439 0.128644 53.0546 0.58754 52.1296 1.50293C51.2047 2.41832 50.7418 3.60355 50.7418 5.05645L50.7418 12.0525C50.7415 13.5054 51.2047 14.6901 52.1296 15.6054Z" fill="#8DC63F"/>
<path d="M52.1274 55.5843C53.0509 56.528 54.238 57.001 55.6905 57.001L68.3283 57.001C69.7972 57.001 70.9989 56.5236 71.9304 55.5695C72.8641 54.6153 73.3662 53.6295 73.3662 52.1502L73.3662 44.937C73.3662 43.4566 72.8641 42.0079 71.9304 41.055C70.9989 40.0998 69.797 39.6235 68.3283 39.6235L55.6905 39.6235C54.2382 39.6235 53.0509 40.0948 52.1274 41.0399C51.2039 41.9836 50.7418 43.2059 50.7418 44.7047L50.7418 51.9187C50.7415 53.4184 51.2039 54.6398 52.1274 55.5843Z" fill="#ED1C24"/>
<path d="M52.1284 35.5731C53.0534 36.5163 54.2428 36.9893 55.6967 36.9893L68.3558 36.9893C69.8279 36.9893 71.0307 36.5118 71.9649 35.5578C72.8992 34.6041 73.3662 33.3874 73.3662 31.908L73.3662 24.6931C73.3662 23.2137 72.8992 21.9959 71.9649 21.0433C71.0307 20.0881 69.8282 19.6118 68.3558 19.6118L55.6967 19.6118C54.2428 19.6118 53.0535 20.0837 52.1284 21.0279C51.2034 21.9719 50.7418 23.1939 50.7418 24.6928L50.7418 31.9077C50.7418 33.4071 51.2037 34.6283 52.1284 35.5731Z" fill="#F68B1F"/>
<path d="M101.313 15.6054C102.238 16.5206 103.427 16.9795 104.881 16.9795L117.541 16.9795C119.012 16.9795 120.216 16.5163 121.149 15.5925C122.084 14.6663 122.55 13.487 122.55 12.0528L122.55 5.05674C122.55 3.6222 122.084 2.44211 121.149 1.51781C120.216 0.591882 119.012 0.128648 117.541 0.128647L104.881 0.128644C103.427 0.128644 102.238 0.58754 101.313 1.50293C100.388 2.41832 99.9256 3.60355 99.9256 5.05645L99.9256 12.0525C99.9256 13.5054 100.388 14.6901 101.313 15.6054Z" fill="#8DC63F"/>
<path d="M101.311 55.5843C102.234 56.528 103.422 57.001 104.873 57.001L117.512 57.001C118.981 57.001 120.182 56.5236 121.114 55.5695C122.047 54.6153 122.55 53.6295 122.55 52.1502L122.55 44.937C122.55 43.4566 122.047 42.0079 121.114 41.055C120.182 40.0998 118.981 39.6235 117.512 39.6235L104.873 39.6235C103.422 39.6235 102.234 40.0948 101.311 41.0399C100.387 41.9836 99.9256 43.2059 99.9256 44.7047L99.9256 51.9187C99.9256 53.4184 100.387 54.6398 101.311 55.5843Z" fill="#ED1C24"/>
<path d="M101.314 35.5731C102.239 36.5163 103.428 36.9893 104.881 36.9893L117.541 36.9893C119.012 36.9893 120.216 36.5118 121.149 35.5578C122.084 34.6041 122.55 33.3874 122.55 31.908L122.55 24.6931C122.55 23.2137 122.084 21.9959 121.149 21.0433C120.216 20.0881 119.012 19.6118 117.541 19.6118L104.881 19.6118C103.428 19.6118 102.239 20.0837 101.314 21.0279C100.389 21.9719 99.9256 23.1939 99.9256 24.6928L99.9256 31.9077C99.9256 33.4071 100.389 34.6283 101.314 35.5731Z" fill="#F68B1F"/>
<path d="M1.96193 15.6054C2.88695 16.5206 4.07605 16.9795 5.52999 16.9795L18.189 16.9795C19.6612 16.9795 20.8642 16.5163 21.7982 15.5925C22.7325 14.6663 23.1995 13.487 23.1995 12.0528L23.1995 5.05674C23.1995 3.6222 22.7325 2.44211 21.7982 1.51781C20.8639 0.591882 19.6612 0.128648 18.189 0.128647L5.53 0.128644C4.07631 0.128644 2.88696 0.58754 1.96193 1.50293C1.03691 2.41832 0.57504 3.60355 0.57504 5.05645L0.575038 12.0525C0.575038 13.5054 1.0369 14.6901 1.96193 15.6054Z" fill="#8DC63F"/>
<path d="M1.95965 55.5843C2.88315 56.528 4.0703 57.001 5.52185 57.001L18.1601 57.001C19.6298 57.001 20.8308 56.5236 21.7633 55.5695C22.696 54.6153 23.1995 53.6295 23.1995 52.1502L23.1995 44.937C23.1995 43.4566 22.696 42.0079 21.7633 41.055C20.8306 40.0998 19.6298 39.6235 18.1601 39.6235L5.52185 39.6235C4.07056 39.6235 2.88316 40.0948 1.95965 41.0399C1.03615 41.9836 0.57504 43.2059 0.57504 44.7047L0.575038 51.9187C0.575038 53.4184 1.03614 54.6398 1.95965 55.5843Z" fill="#ED1C24"/>
<path d="M1.96191 35.5731C2.88795 36.5163 4.0773 36.9893 5.53122 36.9893L18.1911 36.9893C19.6623 36.9893 20.8663 36.5118 21.7982 35.5578C22.7335 34.6041 23.1995 33.3874 23.1995 31.908L23.1995 24.6931C23.1995 23.2137 22.7335 21.9959 21.7982 21.0433C20.8663 20.0881 19.6623 19.6118 18.1912 19.6118L5.53123 19.6118C4.0773 19.6118 2.88796 20.0837 1.96192 21.0279C1.03793 21.9719 0.575039 23.1939 0.575038 24.6928L0.575036 31.9077C0.575036 33.4071 1.03793 34.6283 1.96191 35.5731Z" fill="#F68B1F"/>
<path d="M126.396 35.5731C127.319 36.5163 128.507 36.9893 129.958 36.9893L142.597 36.9893C144.066 36.9893 145.267 36.5118 146.199 35.5578C147.133 34.6041 147.635 33.6183 147.635 32.1384L147.635 24.9253C147.635 23.4451 147.133 21.9961 146.199 21.0433C145.267 20.0884 144.067 19.6118 142.597 19.6118L129.958 19.6118C128.507 19.6118 127.319 20.084 126.396 21.0288C125.472 21.9722 125.011 23.1947 125.011 24.6936L125.011 31.9078C125.011 33.4072 125.472 34.6283 126.396 35.5731Z" fill="#ED1C24"/>
<path d="M126.398 15.6054C127.323 16.5208 128.512 16.9795 129.967 16.9795L142.625 16.9795C144.097 16.9795 145.3 16.5162 146.234 15.5914C147.168 14.6663 147.635 13.4859 147.635 12.0517L147.635 5.05566C147.635 3.62113 147.168 2.44104 146.234 1.51673C145.3 0.59081 144.097 0.128648 142.625 0.128647L129.967 0.128644C128.512 0.128644 127.323 0.585396 126.398 1.50295C125.473 2.41833 125.011 3.60249 125.011 5.05539L125.011 12.0514C125.011 13.5046 125.473 14.6903 126.398 15.6054Z" fill="#F68B1F"/>
<path d="M27.0454 35.5731C27.9679 36.5163 29.1553 36.9893 30.6077 36.9893L43.246 36.9893C44.715 36.9893 45.9168 36.5118 46.8493 35.5578C47.782 34.6041 48.2842 33.6183 48.2842 32.1384L48.2842 24.9253C48.2842 23.4451 47.782 21.9961 46.8493 21.0433C45.9165 20.0884 44.7148 19.6118 43.246 19.6118L30.6077 19.6118C29.1551 19.6118 27.9679 20.084 27.0454 21.0288C26.1211 21.9722 25.6598 23.1947 25.6598 24.6936L25.6598 31.9078C25.6598 33.4072 26.1211 34.6283 27.0454 35.5731Z" fill="#ED1C24"/>
<path d="M27.0466 15.6045C27.9724 16.5199 29.1621 16.9785 30.6147 16.9785L43.2748 16.9785C44.747 16.9785 45.9499 16.5153 46.8829 15.5904C47.8172 14.6653 48.2842 13.485 48.2842 12.0507L48.2842 5.05468C48.2842 3.62015 47.8172 2.44006 46.8829 1.51576C45.9497 0.589834 44.747 0.127671 43.2748 0.127671L30.6147 0.127667C29.1621 0.127667 27.9724 0.584419 27.0466 1.50197C26.1227 2.41736 25.6598 3.60151 25.6598 5.05441L25.6598 12.0504C25.6598 13.5036 26.1229 14.6894 27.0466 15.6045Z" fill="#F68B1F"/>
<path d="M76.2277 35.5731C77.1512 36.5163 78.3384 36.9893 79.7899 36.9893L92.4287 36.9893C93.8979 36.9893 95.0994 36.5118 96.0311 35.5578C96.9644 34.6041 97.467 33.6183 97.467 32.1384L97.467 24.9253C97.467 23.4451 96.9644 21.9961 96.0311 21.0433C95.0994 20.0884 93.8982 19.6118 92.4287 19.6118L79.7899 19.6118C78.3384 19.6118 77.151 20.084 76.2277 21.0288C75.3042 21.9722 74.8426 23.1947 74.8426 24.6936L74.8426 31.9078C74.8424 33.4072 75.3042 34.6283 76.2277 35.5731Z" fill="#ED1C24"/>
<path d="M76.23 15.6054C77.155 16.5208 78.3448 16.9795 79.7985 16.9795L92.4577 16.9795C93.9294 16.9795 95.1328 16.5162 96.0658 15.5914C97.0006 14.6663 97.467 13.4859 97.467 12.0517L97.467 5.05566C97.467 3.62113 97.0006 2.44104 96.0658 1.51673C95.1328 0.59081 93.9296 0.128648 92.4577 0.128647L79.7985 0.128644C78.3448 0.128644 77.1547 0.585396 76.23 1.50295C75.305 2.41833 74.8426 3.60249 74.8426 5.05539L74.8426 12.0514C74.8426 13.5046 75.305 14.6903 76.23 15.6054Z" fill="#F68B1F"/>
<path d="M1.00272 15.4775C1.92772 16.3926 3.11679 16.8516 4.5707 16.8516L17.23 16.8516C18.7016 16.8516 19.905 16.3883 20.838 15.4646C21.7728 14.5384 22.2393 13.3591 22.2393 11.9248L22.2393 4.92881C22.2393 3.49427 21.7728 2.31418 20.838 1.38988C19.9048 0.463952 18.7016 0.000718107 17.23 0.000717706L4.5707 0.000714257C3.11705 0.000713861 1.92773 0.45961 1.00272 1.375C0.0772074 2.29039 -0.385167 3.47562 -0.385167 4.92852L-0.385169 11.9245C-0.385425 13.3774 0.0772043 14.5621 1.00272 15.4775Z" fill="#8DC63F"/>
<path d="M1.00046 55.4593C1.92395 56.403 3.11108 56.876 4.56261 56.876L17.2012 56.876C18.6704 56.876 19.8719 56.3986 20.8034 55.4445C21.7366 54.4903 22.2393 53.5045 22.2393 52.0252L22.2393 44.812C22.2393 43.3316 21.7366 41.8829 20.8034 40.93C19.8717 39.9748 18.6704 39.4985 17.2012 39.4985L4.56262 39.4985C3.11134 39.4985 1.92395 39.9698 1.00046 40.9149C0.0764541 41.8586 -0.385165 43.0809 -0.385165 44.5797L-0.385167 51.7937C-0.385425 53.2934 0.0764509 54.5148 1.00046 55.4593Z" fill="#ED1C24"/>
<path d="M1.00219 35.4452C1.92719 36.3884 3.1165 36.8613 4.5709 36.8613L17.2295 36.8613C18.7016 36.8613 19.9046 36.3839 20.838 35.4299C21.7723 34.4761 22.2393 33.2594 22.2393 31.7801L22.2393 24.5652C22.2393 23.0858 21.7723 21.868 20.838 20.9153C19.9043 19.9602 18.7016 19.4839 17.2295 19.4839L4.57091 19.4839C3.1165 19.4839 1.92719 19.9557 1.0022 20.9C0.0772037 21.844 -0.385165 23.066 -0.385165 24.5649L-0.385167 31.7798C-0.38491 33.2792 0.077458 34.5004 1.00219 35.4452Z" fill="#F68B1F"/>
<path d="M352.928 15.6045C353.853 16.5196 355.042 16.9785 356.496 16.9785L369.155 16.9785C370.626 16.9785 371.83 16.5153 372.763 15.5915C373.698 14.6653 374.164 13.486 374.164 12.0518L374.164 5.05576C374.164 3.62123 373.698 2.44113 372.763 1.51683C371.83 0.590906 370.626 0.127671 369.155 0.127671L356.496 0.127667C355.042 0.127667 353.853 0.586563 352.928 1.50195C352.002 2.41734 351.54 3.60257 351.54 5.05547L351.54 12.0515C351.539 13.5044 352.002 14.6891 352.928 15.6045Z" fill="#8DC63F"/>
<path d="M352.925 55.5824C353.849 56.5261 355.036 56.999 356.487 56.999L369.126 56.999C370.595 56.999 371.797 56.5216 372.728 55.5676C373.661 54.6133 374.164 53.6275 374.164 52.1482L374.164 44.9351C374.164 43.4546 373.661 42.0059 372.728 41.053C371.796 40.0979 370.595 39.6216 369.126 39.6216L356.487 39.6216C355.036 39.6216 353.849 40.0929 352.925 41.038C352.001 41.9817 351.54 43.2039 351.54 44.7028L351.54 51.9167C351.539 53.4164 352.001 54.6378 352.925 55.5824Z" fill="#ED1C24"/>
<path d="M352.927 35.5721C353.852 36.5153 355.041 36.9883 356.496 36.9883L369.154 36.9883C370.626 36.9883 371.829 36.5108 372.763 35.5568C373.697 34.6031 374.164 33.3864 374.164 31.907L374.164 24.6921C374.164 23.2127 373.697 21.9949 372.763 21.0423C371.829 20.0872 370.626 19.6108 369.154 19.6108L356.496 19.6108C355.041 19.6108 353.852 20.0827 352.927 21.027C352.002 21.971 351.54 23.193 351.54 24.6918L351.54 31.9067C351.54 33.4062 352.002 34.6273 352.927 35.5721Z" fill="#F68B1F"/>
<path d="M253.575 15.6045C254.5 16.5196 255.689 16.9785 257.144 16.9785L269.802 16.9785C271.274 16.9785 272.477 16.5153 273.41 15.5915C274.346 14.6653 274.812 13.486 274.812 12.0518L274.812 5.05576C274.812 3.62123 274.346 2.44113 273.41 1.51683C272.477 0.590906 271.273 0.127671 269.802 0.127671L257.144 0.127667C255.689 0.127667 254.5 0.586563 253.575 1.50195C252.65 2.41734 252.187 3.60257 252.187 5.05547L252.187 12.0515C252.187 13.5044 252.65 14.6891 253.575 15.6045Z" fill="#8DC63F"/>
<path d="M253.573 55.5824C254.496 56.5261 255.684 56.999 257.136 56.999L269.774 56.999C271.243 56.999 272.444 56.5216 273.376 55.5676C274.31 54.6133 274.812 53.6275 274.812 52.1482L274.812 44.9351C274.812 43.4546 274.31 42.0059 273.376 41.053C272.444 40.0979 271.243 39.6216 269.774 39.6216L257.136 39.6216C255.684 39.6216 254.496 40.0929 253.573 41.038C252.649 41.9817 252.187 43.2039 252.187 44.7028L252.187 51.9167C252.187 53.4164 252.649 54.6378 253.573 55.5824Z" fill="#ED1C24"/>
<path d="M253.574 35.5721C254.499 36.5153 255.688 36.9883 257.142 36.9883L269.801 36.9883C271.274 36.9883 272.476 36.5108 273.41 35.5568C274.345 34.6031 274.812 33.3864 274.812 31.907L274.812 24.6921C274.812 23.2127 274.345 21.9949 273.411 21.0423C272.476 20.0872 271.274 19.6108 269.801 19.6108L257.142 19.6108C255.688 19.6108 254.499 20.0827 253.574 21.027C252.649 21.971 252.187 23.193 252.187 24.6918L252.187 31.9067C252.187 33.4062 252.649 34.6273 253.574 35.5721Z" fill="#F68B1F"/>
<path d="M203.408 15.6045C204.333 16.5196 205.522 16.9785 206.976 16.9785L219.635 16.9785C221.107 16.9785 222.31 16.5153 223.244 15.5915C224.179 14.6653 224.646 13.486 224.646 12.0518L224.646 5.05576C224.646 3.62123 224.179 2.44113 223.244 1.51683C222.31 0.590906 221.107 0.127671 219.635 0.127671L206.976 0.127667C205.523 0.127667 204.333 0.586563 203.408 1.50195C202.483 2.41734 202.021 3.60257 202.021 5.05547L202.021 12.0515C202.021 13.5044 202.483 14.6891 203.408 15.6045Z" fill="#8DC63F"/>
<path d="M203.406 55.5824C204.329 56.5261 205.517 56.999 206.968 56.999L219.606 56.999C221.076 56.999 222.277 56.5216 223.21 55.5676C224.142 54.6133 224.646 53.6275 224.646 52.1482L224.646 44.9351C224.646 43.4546 224.142 42.0059 223.21 41.053C222.277 40.0979 221.076 39.6216 219.606 39.6216L206.968 39.6216C205.517 39.6216 204.329 40.0929 203.406 41.038C202.482 41.9817 202.021 43.2039 202.021 44.7028L202.021 51.9167C202.021 53.4164 202.482 54.6378 203.406 55.5824Z" fill="#ED1C24"/>
<path d="M203.408 35.5721C204.334 36.5153 205.524 36.9883 206.978 36.9883L219.637 36.9883C221.109 36.9883 222.313 36.5108 223.244 35.5568C224.18 34.6031 224.646 33.3864 224.646 31.907L224.646 24.6921C224.646 23.2127 224.18 21.9949 223.245 21.0423C222.313 20.0872 221.109 19.6108 219.637 19.6108L206.978 19.6108C205.524 19.6108 204.334 20.0827 203.408 21.027C202.484 21.971 202.021 23.193 202.021 24.6918L202.021 31.9067C202.021 33.4062 202.484 34.6273 203.408 35.5721Z" fill="#F68B1F"/>
<path d="M228.491 35.5722C229.413 36.5153 230.601 36.9883 232.053 36.9883L244.692 36.9883C246.161 36.9883 247.362 36.5109 248.295 35.5568C249.228 34.6031 249.73 33.6174 249.73 32.1375L249.73 24.9243C249.73 23.4442 249.228 21.9952 248.295 21.0423C247.362 20.0874 246.16 19.6108 244.692 19.6108L232.053 19.6108C230.601 19.6108 229.413 20.083 228.491 21.0278C227.567 21.9712 227.105 23.1937 227.105 24.6926L227.105 31.9068C227.105 33.4062 227.567 34.6273 228.491 35.5722Z" fill="#ED1C24"/>
<path d="M228.492 15.6045C229.418 16.5199 230.608 16.9785 232.06 16.9785L244.72 16.9785C246.193 16.9785 247.395 16.5153 248.328 15.5904C249.263 14.6653 249.73 13.485 249.73 12.0507L249.73 5.05468C249.73 3.62015 249.263 2.44006 248.328 1.51576C247.395 0.589834 246.193 0.127671 244.72 0.127671L232.06 0.127667C230.608 0.127667 229.418 0.584419 228.492 1.50197C227.568 2.41736 227.105 3.60151 227.105 5.05441L227.105 12.0504C227.105 13.5036 227.568 14.6894 228.492 15.6045Z" fill="#F68B1F"/>
<path d="M202.45 15.4765C203.375 16.3917 204.564 16.8506 206.018 16.8506L218.677 16.8506C220.149 16.8506 221.353 16.3874 222.286 15.4636C223.22 14.5374 223.687 13.3581 223.687 11.9239L223.687 4.92783C223.687 3.4933 223.22 2.3132 222.286 1.3889C221.352 0.462976 220.149 -0.000258456 218.677 -0.000258857L206.018 -0.000262305C204.565 -0.000262701 203.375 0.458634 202.45 1.37402C201.525 2.28941 201.062 3.47464 201.062 4.92754L201.062 11.9236C201.062 13.3765 201.525 14.5611 202.45 15.4765Z" fill="#8DC63F"/>
<path d="M202.448 55.4583C203.371 56.402 204.559 56.875 206.01 56.875L218.649 56.875C220.118 56.875 221.319 56.3976 222.251 55.4436C223.184 54.4893 223.687 53.5035 223.687 52.0242L223.687 44.811C223.687 43.3306 223.184 41.8819 222.251 40.929C221.319 39.9739 220.118 39.4976 218.649 39.4976L206.01 39.4976C204.559 39.4976 203.371 39.9689 202.448 40.9139C201.524 41.8576 201.062 43.0799 201.062 44.5787L201.062 51.7927C201.062 53.2924 201.524 54.5138 202.448 55.4583Z" fill="#ED1C24"/>
<path d="M202.45 35.4442C203.375 36.3874 204.564 36.8603 206.018 36.8603L218.677 36.8604C220.149 36.8604 221.352 36.3829 222.286 35.4289C223.22 34.4752 223.687 33.2585 223.687 31.7791L223.687 24.5642C223.687 23.0848 223.22 21.867 222.286 20.9144C221.352 19.9592 220.149 19.4829 218.677 19.4829L206.018 19.4829C204.564 19.4829 203.375 19.9548 202.45 20.899C201.525 21.843 201.062 23.065 201.062 24.5639L201.062 31.7788C201.063 33.2782 201.525 34.4994 202.45 35.4442Z" fill="#F68B1F"/>
<path d="M152.282 15.4765C153.207 16.3917 154.396 16.8506 155.85 16.8506L168.509 16.8506C169.981 16.8506 171.184 16.3874 172.118 15.4636C173.052 14.5374 173.519 13.3581 173.519 11.9239L173.519 4.92783C173.519 3.4933 173.052 2.3132 172.118 1.3889C171.184 0.462976 169.981 -0.000258457 168.509 -0.000258859L155.85 -0.000262313C154.396 -0.000262709 153.207 0.458634 152.282 1.37402C151.357 2.28941 150.894 3.47464 150.894 4.92754L150.894 11.9236C150.894 13.3765 151.357 14.5611 152.282 15.4765Z" fill="#8DC63F"/>
<path d="M152.279 55.4583C153.203 56.402 154.39 56.875 155.842 56.875L168.48 56.875C169.949 56.875 171.151 56.3976 172.083 55.4436C173.016 54.4893 173.519 53.5035 173.519 52.0242L173.519 44.811C173.519 43.3306 173.016 41.8819 172.083 40.929C171.151 39.9739 169.949 39.4976 168.48 39.4976L155.842 39.4976C154.39 39.4976 153.203 39.9689 152.279 40.9139C151.356 41.8576 150.894 43.0799 150.894 44.5787L150.894 51.7927C150.894 53.2924 151.356 54.5138 152.279 55.4583Z" fill="#ED1C24"/>
<path d="M152.282 35.4442C153.207 36.3874 154.396 36.8603 155.85 36.8603L168.509 36.8604C169.981 36.8604 171.184 36.3829 172.117 35.4289C173.052 34.4752 173.519 33.2585 173.519 31.7791L173.519 24.5642C173.519 23.0848 173.052 21.867 172.117 20.9144C171.184 19.9592 169.981 19.4829 168.509 19.4829L155.85 19.4829C154.396 19.4829 153.207 19.9548 152.282 20.899C151.357 21.843 150.894 23.065 150.894 24.5639L150.894 31.7788C150.894 33.2782 151.357 34.4994 152.282 35.4442Z" fill="#F68B1F"/>
<path d="M177.364 35.4442C178.287 36.3874 179.475 36.8603 180.927 36.8603L193.565 36.8604C195.035 36.8604 196.235 36.3829 197.168 35.4289C198.101 34.4752 198.603 33.4894 198.603 32.0095L198.603 24.7964C198.603 23.3162 198.101 21.8672 197.168 20.9143C196.235 19.9595 195.035 19.4829 193.565 19.4829L180.927 19.4829C179.475 19.4829 178.287 19.955 177.364 20.8999C176.44 21.8433 175.979 23.0658 175.979 24.5646L175.979 31.7789C175.979 33.2783 176.44 34.4994 177.364 35.4442Z" fill="#ED1C24"/>
<path d="M177.366 15.4765C178.291 16.3919 179.48 16.8506 180.935 16.8506L193.593 16.8506C195.065 16.8506 196.268 16.3873 197.202 15.4625C198.136 14.5374 198.603 13.357 198.603 11.9228L198.603 4.92675C198.603 3.49222 198.136 2.31213 197.202 1.38783C196.268 0.461904 195.065 -0.000258457 193.593 -0.000258859L180.935 -0.000262313C179.48 -0.000262709 178.291 0.45649 177.366 1.37404C176.441 2.28943 175.979 3.47358 175.979 4.92648L175.979 11.9225C175.979 13.3757 176.441 14.5614 177.366 15.4765Z" fill="#F68B1F"/>
<path d="M304.19 15.6035C305.115 16.5186 306.304 16.9775 307.758 16.9775L320.417 16.9775C321.889 16.9775 323.092 16.5143 324.026 15.5905C324.961 14.6643 325.428 13.4851 325.428 12.0508L325.428 5.05478C325.428 3.62025 324.961 2.44016 324.026 1.51585C323.092 0.589929 321.889 0.126695 320.417 0.126694L307.758 0.126691C306.305 0.12669 305.115 0.585587 304.19 1.50098C303.265 2.41637 302.803 3.60159 302.803 5.0545L302.803 12.0505C302.803 13.5034 303.265 14.6881 304.19 15.6035Z" fill="#8DC63F"/>
<path d="M304.188 55.5814C305.111 56.5251 306.299 56.998 307.75 56.998L320.388 56.998C321.858 56.998 323.059 56.5206 323.992 55.5666C324.924 54.6123 325.428 53.6266 325.428 52.1472L325.428 44.9341C325.428 43.4536 324.924 42.0049 323.992 41.052C323.059 40.0969 321.858 39.6206 320.388 39.6206L307.75 39.6206C306.299 39.6206 305.111 40.0919 304.188 41.037C303.264 41.9807 302.803 43.2029 302.803 44.7018L302.803 51.9158C302.803 53.4154 303.264 54.6368 304.188 55.5814Z" fill="#ED1C24"/>
<path d="M304.19 35.5712C305.116 36.5143 306.306 36.9873 307.759 36.9873L320.419 36.9873C321.891 36.9873 323.095 36.5099 324.026 35.5558C324.962 34.6021 325.428 33.3854 325.428 31.906L325.428 24.6911C325.428 23.2118 324.962 21.9939 324.026 21.0413C323.095 20.0862 321.891 19.6099 320.419 19.6099L307.759 19.6099C306.306 19.6099 305.116 20.0817 304.19 21.026C303.266 21.97 302.803 23.192 302.803 24.6908L302.803 31.9058C302.803 33.4052 303.266 34.6263 304.19 35.5712Z" fill="#F68B1F"/>
<path d="M329.273 35.5712C330.195 36.5143 331.383 36.9873 332.835 36.9873L345.474 36.9873C346.943 36.9873 348.144 36.5099 349.077 35.5559C350.01 34.6021 350.512 33.6164 350.512 32.1365L350.512 24.9234C350.512 23.4432 350.01 21.9942 349.077 21.0413C348.144 20.0865 346.942 19.6099 345.474 19.6099L332.835 19.6099C331.383 19.6099 330.195 20.082 329.273 21.0268C328.349 21.9702 327.887 23.1928 327.887 24.6916L327.887 31.9058C327.887 33.4052 328.349 34.6264 329.273 35.5712Z" fill="#ED1C24"/>
<path d="M329.274 15.6035C330.2 16.5189 331.39 16.9775 332.842 16.9775L345.502 16.9775C346.974 16.9775 348.177 16.5143 349.11 15.5895C350.045 14.6643 350.512 13.484 350.512 12.0497L350.512 5.05371C350.512 3.61917 350.045 2.43908 349.11 1.51478C348.177 0.588857 346.974 0.126695 345.502 0.126694L332.842 0.126691C331.39 0.12669 330.2 0.583443 329.274 1.50099C328.35 2.41638 327.887 3.60054 327.887 5.05344L327.887 12.0495C327.887 13.5026 328.35 14.6884 329.274 15.6035Z" fill="#F68B1F"/>
<path d="M303.233 15.4765C304.158 16.3917 305.347 16.8506 306.801 16.8506L319.46 16.8506C320.932 16.8506 322.135 16.3874 323.068 15.4636C324.003 14.5374 324.469 13.3581 324.469 11.9239L324.469 4.92783C324.469 3.4933 324.003 2.3132 323.068 1.3889C322.135 0.462976 320.932 -0.000258456 319.46 -0.000258857L306.801 -0.000262305C305.347 -0.000262701 304.158 0.458634 303.233 1.37402C302.307 2.28941 301.845 3.47464 301.845 4.92754L301.845 11.9236C301.845 13.3765 302.307 14.5611 303.233 15.4765Z" fill="#8DC63F"/>
<path d="M303.231 55.4583C304.154 56.402 305.341 56.875 306.793 56.875L319.431 56.875C320.901 56.875 322.102 56.3976 323.034 55.4436C323.967 54.4893 324.469 53.5035 324.469 52.0242L324.469 44.811C324.469 43.3306 323.967 41.8819 323.034 40.929C322.102 39.9739 320.901 39.4976 319.431 39.4976L306.793 39.4976C305.342 39.4976 304.154 39.9689 303.231 40.9139C302.307 41.8576 301.845 43.0799 301.845 44.5787L301.845 51.7927C301.845 53.2924 302.307 54.5138 303.231 55.4583Z" fill="#ED1C24"/>
<path d="M303.232 35.4442C304.157 36.3874 305.347 36.8603 306.801 36.8603L319.46 36.8604C320.932 36.8604 322.135 36.3829 323.068 35.4289C324.002 34.4752 324.469 33.2585 324.469 31.7791L324.469 24.5642C324.469 23.0848 324.002 21.867 323.068 20.9144C322.135 19.9592 320.932 19.4829 319.46 19.4829L306.801 19.4829C305.347 19.4829 304.157 19.9548 303.232 20.899C302.307 21.843 301.845 23.065 301.845 24.5639L301.845 31.7788C301.845 33.2782 302.308 34.4994 303.232 35.4442Z" fill="#F68B1F"/>
<path d="M253.064 15.4765C253.989 16.3917 255.179 16.8506 256.633 16.8506L269.292 16.8506C270.764 16.8506 271.967 16.3874 272.901 15.4636C273.835 14.5374 274.302 13.3581 274.302 11.9239L274.302 4.92783C274.302 3.4933 273.835 2.3132 272.901 1.3889C271.967 0.462976 270.764 -0.000258457 269.292 -0.000258859L256.633 -0.000262313C255.179 -0.000262709 253.989 0.458634 253.064 1.37402C252.139 2.28941 251.677 3.47464 251.677 4.92754L251.677 11.9236C251.677 13.3765 252.139 14.5611 253.064 15.4765Z" fill="#8DC63F"/>
<path d="M253.062 55.4583C253.986 56.402 255.173 56.875 256.625 56.875L269.263 56.875C270.732 56.875 271.934 56.3976 272.866 55.4436C273.799 54.4893 274.302 53.5035 274.302 52.0242L274.302 44.811C274.302 43.3306 273.799 41.8819 272.866 40.929C271.934 39.9739 270.732 39.4976 269.263 39.4976L256.625 39.4976C255.173 39.4976 253.986 39.9689 253.062 40.9139C252.139 41.8576 251.677 43.0799 251.677 44.5787L251.677 51.7927C251.677 53.2924 252.139 54.5138 253.062 55.4583Z" fill="#ED1C24"/>
<path d="M253.065 35.4442C253.99 36.3874 255.179 36.8603 256.633 36.8603L269.292 36.8604C270.764 36.8604 271.967 36.3829 272.9 35.4289C273.835 34.4752 274.302 33.2585 274.302 31.7791L274.302 24.5642C274.302 23.0848 273.835 21.867 272.9 20.9144C271.967 19.9592 270.764 19.4829 269.292 19.4829L256.633 19.4829C255.179 19.4829 253.99 19.9548 253.065 20.899C252.14 21.843 251.677 23.065 251.677 24.5639L251.677 31.7788C251.677 33.2782 252.14 34.4994 253.065 35.4442Z" fill="#F68B1F"/>
<path d="M278.147 35.4442C279.07 36.3874 280.258 36.8603 281.709 36.8603L294.348 36.8604C295.817 36.8604 297.018 36.3829 297.95 35.4289C298.884 34.4752 299.386 33.4894 299.386 32.0095L299.386 24.7964C299.386 23.3162 298.884 21.8672 297.95 20.9143C297.018 19.9595 295.818 19.4829 294.348 19.4829L281.709 19.4829C280.258 19.4829 279.07 19.955 278.147 20.8999C277.223 21.8433 276.762 23.0658 276.762 24.5646L276.762 31.7789C276.762 33.2783 277.223 34.4994 278.147 35.4442Z" fill="#ED1C24"/>
<path d="M278.149 15.4765C279.074 16.3919 280.263 16.8506 281.717 16.8506L294.376 16.8506C295.848 16.8506 297.051 16.3873 297.985 15.4625C298.919 14.5374 299.386 13.357 299.386 11.9228L299.386 4.92675C299.386 3.49222 298.919 2.31213 297.985 1.38783C297.051 0.461904 295.848 -0.000258457 294.376 -0.000258859L281.717 -0.000262313C280.263 -0.000262709 279.074 0.45649 278.149 1.37404C277.224 2.28943 276.762 3.47358 276.762 4.92648L276.762 11.9225C276.762 13.3757 277.224 14.5614 278.149 15.4765Z" fill="#F68B1F"/>
</svg>
