<svg width="52" height="52" viewBox="0 0 52 52" fill="none" xmlns="http://www.w3.org/2000/svg">
<path d="M41.1667 6.5H10.8333C8.45 6.5 6.52167 8.45 6.52167 10.8333L6.5 41.1667C6.5 43.55 8.45 45.5 10.8333 45.5H41.1667C43.55 45.5 45.5 43.55 45.5 41.1667V10.8333C45.5 8.45 43.55 6.5 41.1667 6.5ZM36.8333 30.3333H30.3333V36.8333C30.3333 38.025 29.3583 39 28.1667 39H23.8333C22.6417 39 21.6667 38.025 21.6667 36.8333V30.3333H15.1667C13.975 30.3333 13 29.3583 13 28.1667V23.8333C13 22.6417 13.975 21.6667 15.1667 21.6667H21.6667V15.1667C21.6667 13.975 22.6417 13 23.8333 13H28.1667C29.3583 13 30.3333 13.975 30.3333 15.1667V21.6667H36.8333C38.025 21.6667 39 22.6417 39 23.8333V28.1667C39 29.3583 38.025 30.3333 36.8333 30.3333Z" fill="#4F8136"/>
</svg>
