<svg width="20" height="19" viewBox="0 0 20 19" fill="none" xmlns="http://www.w3.org/2000/svg">
<path d="M13.392 8.53582C13.392 11.1547 11.2609 13.2858 8.64202 13.2858C6.02316 13.2858 3.89202 11.1547 3.89202 8.53582C3.89202 5.91696 6.02316 3.78582 8.64202 3.78582C11.2609 3.78582 13.392 5.91696 13.392 8.53582ZM18.8206 17.3572C18.8206 16.9968 18.6722 16.6469 18.4283 16.403L14.7916 12.7663C15.6504 11.5258 16.1063 10.0414 16.1063 8.53582C16.1063 4.41138 12.7665 1.07153 8.64202 1.07153C4.51758 1.07153 1.17773 4.41138 1.17773 8.53582C1.17773 12.6603 4.51758 16.0001 8.64202 16.0001C10.1476 16.0001 11.632 15.5442 12.8725 14.6854L16.5092 18.3115C16.7531 18.566 17.103 18.7144 17.4634 18.7144C18.2056 18.7144 18.8206 18.0994 18.8206 17.3572Z" fill="white"/>
<path fill-rule="evenodd" clip-rule="evenodd" d="M0.927734 8.53582C0.927734 4.27331 4.37951 0.821533 8.64202 0.821533C12.9045 0.821533 16.3563 4.27331 16.3563 8.53582C16.3563 10.0219 15.9265 11.4883 15.1138 12.735L18.6051 16.2262C18.8957 16.5169 19.0706 16.9303 19.0706 17.3572C19.0706 18.2375 18.3437 18.9644 17.4634 18.9644C17.037 18.9644 16.6225 18.7898 16.3308 18.4866L12.8414 15.0074C11.5947 15.8203 10.1282 16.2501 8.64202 16.2501C4.37951 16.2501 0.927734 12.7983 0.927734 8.53582ZM8.64202 1.32153C4.65565 1.32153 1.42773 4.54945 1.42773 8.53582C1.42773 12.5222 4.65565 15.7501 8.64202 15.7501C10.0976 15.7501 11.5321 15.3092 12.7302 14.4798L12.9015 14.3612L16.6898 18.1385C16.8856 18.3429 17.1699 18.4644 17.4634 18.4644C18.0676 18.4644 18.5706 17.9614 18.5706 17.3572C18.5706 17.0632 18.4486 16.7769 18.2515 16.5798L14.4673 12.7955L14.586 12.624C15.4154 11.4259 15.8563 9.99136 15.8563 8.53582C15.8563 4.54945 12.6284 1.32153 8.64202 1.32153ZM8.64202 4.03582C6.16123 4.03582 4.14202 6.05503 4.14202 8.53582C4.14202 11.0166 6.16123 13.0358 8.64202 13.0358C11.1228 13.0358 13.142 11.0166 13.142 8.53582C13.142 6.05503 11.1228 4.03582 8.64202 4.03582ZM3.64202 8.53582C3.64202 5.77889 5.88509 3.53582 8.64202 3.53582C11.399 3.53582 13.642 5.77889 13.642 8.53582C13.642 11.2928 11.399 13.5358 8.64202 13.5358C5.88509 13.5358 3.64202 11.2928 3.64202 8.53582Z" fill="white"/>
</svg>
