<svg width="51" height="51" viewBox="0 0 51 51" fill="none" xmlns="http://www.w3.org/2000/svg">
<path fill-rule="evenodd" clip-rule="evenodd" d="M44.6728 22.3153C44.9654 21.6534 45.2001 21.1159 45.4405 20.5807C45.7354 19.9241 46.0449 19.7529 46.7418 19.8692C47.549 20.0038 48.3559 20.1413 49.1608 20.2888C49.8002 20.4061 50.1054 20.7745 50.1373 21.4362C50.1794 22.3084 49.9356 22.749 49.2528 22.9161C48.0693 23.2059 46.8787 23.4657 45.637 23.7504C46.1575 24.5534 46.641 25.3362 47.1609 26.0939C48.2702 27.7114 48.789 29.4929 48.7596 31.4581C48.7312 33.3423 48.7533 35.2272 48.7533 37.1119C48.7533 37.2936 48.7533 37.4752 48.7533 37.6852C33.153 37.6852 17.5962 37.6852 1.99974 37.6852C1.99974 36.6631 1.99157 35.6728 2.00161 34.6826C2.01686 33.1527 1.99853 31.6203 2.08069 30.0937C2.15549 28.7054 2.70261 27.4569 3.46062 26.3019C4.00266 25.4761 4.53841 24.646 5.11364 23.7613C3.91381 23.4804 2.76818 23.2155 1.62428 22.9429C0.882064 22.7661 0.62409 22.4334 0.61459 21.6678C0.603484 20.7609 0.86855 20.4279 1.75956 20.2604C2.53107 20.1155 3.3046 19.9823 4.07813 19.8487C4.65188 19.7496 5.0074 19.9252 5.25721 20.4547C5.52857 21.0302 5.77932 21.6156 6.08386 22.2968C6.25633 21.9809 6.41007 21.7467 6.51846 21.4928C7.18387 19.9339 7.88648 18.3888 8.48673 16.8047C9.45842 14.2406 11.2919 12.9537 13.9712 12.6031C19.1424 11.9265 24.3276 11.6452 29.5289 11.9477C32.3099 12.1094 35.089 12.4232 37.8476 12.8194C39.7794 13.0968 41.1454 14.3142 41.9421 16.1047C42.7334 17.8826 43.4626 19.6886 44.2268 21.4789C44.3361 21.7353 44.4885 21.973 44.6728 22.3153ZM8.42223 21.0728C19.7675 21.0728 31.0054 21.0728 42.3249 21.0728C41.6159 19.4442 40.9901 17.8498 40.2334 16.3212C39.6734 15.1899 38.6486 14.5055 37.4088 14.3606C34.6221 14.0348 31.8302 13.7031 29.031 13.5488C23.8273 13.262 18.6394 13.5383 13.4829 14.3288C12.2005 14.5254 11.127 15.1268 10.5413 16.2843C9.76416 17.8203 9.13862 19.4338 8.42223 21.0728ZM14.893 29.5062C15.5247 30.8563 16.1251 32.0376 16.6293 33.2591C16.896 33.9051 17.2301 34.2464 17.9517 34.1387C18.2102 34.1002 18.4838 34.1667 18.7506 34.1813C20.9692 34.3025 23.1889 34.5347 25.4062 34.5143C28.0597 34.4898 30.7112 34.2518 33.363 34.0951C33.5089 34.0865 33.727 34.0128 33.7794 33.9045C34.4656 32.4898 35.1279 31.0632 35.8533 29.5179C28.8398 30.3769 21.9251 30.3955 14.893 29.5062ZM36.8545 33.3062C36.8915 33.3542 36.9285 33.4021 36.9655 33.4502C37.739 33.3404 38.5124 33.2301 39.286 33.1212C40.7729 32.9118 42.26 32.7038 43.7468 32.4944C44.3823 32.4049 44.9 32.1279 45.1462 31.5012C45.4258 30.789 45.4329 30.0589 45.1818 29.333C45.0251 28.8799 44.7043 28.6518 44.2244 28.6923C42.7943 28.8132 41.3631 28.9261 39.9367 29.0826C39.6875 29.11 39.3686 29.2742 39.2367 29.4771C38.4181 30.7374 37.6436 32.0267 36.8545 33.3062ZM13.8001 33.4359C13.8399 33.3966 13.8797 33.3574 13.9195 33.3181C13.0864 31.9901 12.2628 30.656 11.408 29.3423C11.3103 29.1923 11.0444 29.0985 10.8462 29.0781C9.5181 28.9413 8.18687 28.8347 6.85712 28.7116C5.93895 28.6267 5.58142 28.8624 5.44735 29.782C5.25199 31.1227 5.57447 32.4215 7.37013 32.5443C8.66469 32.6329 9.9468 32.9048 11.2353 33.0885C12.0894 33.2102 12.9451 33.3205 13.8001 33.4359Z" fill="#00703C"/>
<path fill-rule="evenodd" clip-rule="evenodd" d="M48.735 39.3784C48.803 40.6251 48.7211 41.8043 48.0675 42.8676C47.0911 44.4561 45.5577 44.9929 43.8141 45.1173C43.5976 45.1328 43.3795 45.1289 43.1622 45.1289C31.307 45.1294 19.452 45.1361 7.59688 45.1146C6.77318 45.113 5.91871 45.004 5.13247 44.7654C3.25545 44.1957 2.13163 42.6409 2.01428 40.6292C1.99087 40.2287 2.01093 39.8255 2.01093 39.3784C17.5823 39.3784 33.1361 39.3784 48.735 39.3784Z" fill="#00703C"/>
<path fill-rule="evenodd" clip-rule="evenodd" d="M42.4208 46.7217C44.7623 46.9265 46.8894 46.4431 48.6804 44.7061C48.7051 44.9013 48.73 45.0082 48.7302 45.1153C48.733 46.3262 48.7367 47.5371 48.7304 48.7479C48.7257 49.6658 48.3175 50.0781 47.4197 50.0807C46.1664 50.084 44.9131 50.0845 43.6596 50.0805C42.8063 50.0777 42.387 49.6752 42.3701 48.8302C42.3575 48.2082 42.3687 47.5857 42.3717 46.9635C42.372 46.9153 42.3905 46.8672 42.4208 46.7217Z" fill="#00703C"/>
<path fill-rule="evenodd" clip-rule="evenodd" d="M8.30701 46.7107C8.30701 47.5642 8.33498 48.3335 8.29765 49.0998C8.27035 49.6558 7.82946 50.0635 7.26387 50.0714C5.84554 50.0907 4.42653 50.0925 3.00834 50.0707C2.42441 50.0618 1.99798 49.6219 1.99048 49.0349C1.97215 47.6088 1.9846 46.1822 1.9846 44.6255C3.78615 46.3925 5.91271 46.9495 8.30701 46.7107Z" fill="#00703C"/>
<path fill-rule="evenodd" clip-rule="evenodd" d="M30.2881 3.86156C32.9398 2.66482 32.831 2.92283 34.111 0C34.5658 2.04228 35.7339 3.29894 37.7628 3.79692C35.7761 4.32789 34.5322 5.54173 34.0604 7.57539C33.5717 5.55304 32.3605 4.31793 30.2881 3.86156Z" fill="#00703C"/>
<path fill-rule="evenodd" clip-rule="evenodd" d="M50.0673 3.8505C48.4689 4.21098 47.5571 5.11658 47.1912 6.6392C46.8097 5.12628 45.891 4.20452 44.3975 3.80767C45.8864 3.40733 46.8113 2.49917 47.1335 0.921875C48.1455 2.96267 48.1455 2.96267 50.0673 3.8505Z" fill="#00703C"/>
<path fill-rule="evenodd" clip-rule="evenodd" d="M44.9579 8.82695C43.457 9.21518 42.5605 10.118 42.1727 11.6299C41.7761 10.1403 40.8882 9.19539 39.3584 8.83005C40.8498 8.43347 41.7947 7.54201 42.1584 6.00391C42.5514 7.51845 43.4635 8.44061 44.9579 8.82695Z" fill="#00703C"/>
</svg>
