<svg width="54" height="54" viewBox="0 0 54 54" fill="none" xmlns="http://www.w3.org/2000/svg">
<path d="M27.0004 25.6273C27.0004 24.1648 26.1229 22.8598 24.7954 22.2973L12.2404 16.9873C8.91043 20.7673 7.02043 25.3123 5.94043 29.2498H23.3779C25.3804 29.2498 27.0004 27.6298 27.0004 25.6273Z" fill="#00703C"/>
<path d="M49.41 25.2449C48.4875 15.3224 39.15 8.39243 29.205 9.04493C23.5575 9.40493 19.215 11.1599 15.8625 13.6349L26.5275 18.1574C29.52 19.4399 31.4775 22.3649 31.4775 25.6274C31.4775 30.1049 27.8325 33.7499 23.355 33.7499H4.9725C4.5 36.6974 4.5 38.6999 4.5 38.6999V40.4999C4.5 42.9749 6.525 44.9999 9 44.9999H31.5C42.0075 44.9999 50.4225 35.9774 49.41 25.2449Z" fill="#00703C"/>
</svg>
