<svg width="57" height="57" viewBox="0 0 57 57" fill="none" xmlns="http://www.w3.org/2000/svg">
<path fill-rule="evenodd" clip-rule="evenodd" d="M56.9999 18.2413C56.6489 18.6801 56.3292 19.1515 55.9408 19.5505C55.1737 20.3381 54.3674 21.0842 53.5796 21.8501C53.3345 22.0885 52.9624 22.2857 53.2755 22.7443C53.2813 22.7528 52.9923 23.0663 52.913 23.0356C52.492 22.8725 52.258 23.1185 51.9941 23.3761C50.8415 24.5006 49.6862 25.622 48.5181 26.729C48.2741 26.9604 48.1763 27.1759 48.2386 27.5298C49.0877 32.3547 49.9222 37.1823 50.7618 42.0092C50.9899 43.3205 50.8254 43.5684 49.5105 43.7954C49.6781 44.992 49.8428 46.1912 50.0145 47.3893C50.3573 49.7781 50.7112 52.1651 51.0461 54.5551C51.2148 55.7584 50.4572 56.8001 49.3153 56.978C48.243 57.1451 47.2471 56.3437 47.0719 55.1406C46.546 51.53 46.0235 47.9189 45.5231 44.3044C45.4633 43.8729 45.3393 43.6934 44.9044 43.7276C44.4272 43.7653 43.945 43.7362 43.4246 43.7362C43.1113 45.3866 42.8047 46.9918 42.502 48.5979C42.0876 50.7966 41.683 52.9972 41.2609 55.1943C41.0233 56.4312 40.0035 57.184 38.9134 56.9566C37.7553 56.7149 37.0896 55.6564 37.325 54.3906C37.946 51.0531 38.5781 47.7179 39.2044 44.3814C39.2391 44.1963 39.2598 44.0079 39.3002 43.7321C39.0343 43.7321 38.8171 43.7476 38.6026 43.7293C37.8318 43.663 37.4744 43.1857 37.6196 42.3903C37.9558 40.5496 38.3182 38.7141 38.6458 36.8721C39.1426 34.0807 39.6086 31.2831 40.1114 28.4931C40.2365 27.7985 40.112 27.3648 39.4794 26.9388C35.986 24.5871 32.5361 22.1658 29.0653 19.7777C28.423 19.3357 28.0288 18.7675 28.138 17.9447C28.3085 16.6594 29.6507 16.0397 30.7394 16.7609C32.0554 17.6325 33.3436 18.5498 34.6438 19.447C35.2452 19.862 35.847 20.2767 36.4577 20.6978C37.2823 20.0522 38.0079 19.1963 39.185 19.6227C39.2612 18.917 39.3919 18.8051 40.0495 18.9174C40.0561 17.3955 40.5183 16.0824 41.7156 15.1293C42.4981 14.5064 43.3866 14.2263 44.3654 14.2516C46.2588 14.3006 48.3674 15.7574 48.4184 18.8688C49.1008 18.8392 49.2092 18.9334 49.2539 19.4969C49.7042 19.5519 50.1312 19.624 50.5608 19.6467C50.7316 19.6558 50.9534 19.6078 51.0738 19.4953C51.9866 18.6428 52.882 17.7697 53.779 16.899C55.1029 15.6139 56.0632 15.7358 56.9996 17.3131C56.9999 17.6221 56.9999 17.9316 56.9999 18.2413ZM41.223 21.5873C40.9705 22.3253 40.7216 22.397 40.1411 21.9151C39.9077 22.1843 39.6751 22.4527 39.4218 22.7449C40.0692 23.1941 40.7249 23.6638 41.3978 24.1049C41.5424 24.1998 41.7488 24.2256 41.9271 24.2271C43.2282 24.2368 44.5295 24.2422 45.8303 24.222C46.0308 24.2188 46.271 24.1274 46.4216 23.9913C47.0388 23.4336 47.6308 22.8456 48.2249 22.2607C48.31 22.1769 48.355 22.0488 48.4184 21.9411C47.7363 22.3971 47.4872 22.3288 47.2395 21.59C45.3483 23.3745 42.9669 23.2631 41.223 21.5873Z" fill="#4F8136"/>
<path fill-rule="evenodd" clip-rule="evenodd" d="M0.00028043 14.489C0.0419472 14.4316 0.0921714 14.3789 0.123877 14.3163C0.783531 13.0161 2.17285 12.8477 3.09695 13.9762C4.33054 15.4826 5.54491 17.0055 6.76784 18.5208C8.05025 20.1097 9.34514 21.6885 10.6069 23.2943C10.8962 23.6623 11.195 23.7935 11.6483 23.7808C12.7883 23.7488 13.9303 23.7551 15.0707 23.7789C15.4306 23.7865 15.6422 23.6622 15.854 23.3707C18.6116 19.5745 21.3864 15.7912 24.1462 11.9967C24.5779 11.4033 25.0997 11.0144 25.8434 11.0937C27.1176 11.2298 27.7766 12.6432 27.0732 13.7519C26.658 14.4062 26.1763 15.0171 25.7193 15.6435C23.1994 19.0978 20.6729 22.5469 18.1673 26.0119C17.985 26.2638 17.8623 26.6256 17.8605 26.9373C17.8393 30.4994 17.794 34.0627 17.8693 37.623C17.9072 39.4068 18.1711 41.1863 18.3464 42.9664C18.699 46.5464 19.0612 50.1253 19.4187 53.7048C19.4566 54.0834 19.5132 54.462 19.5201 54.8415C19.5412 55.9918 18.7258 56.9059 17.6227 56.994C16.5722 57.0781 15.6082 56.2848 15.486 55.1604C15.2064 52.5872 14.9608 50.0102 14.7028 47.4347C14.4679 45.0908 14.235 42.7466 13.9953 40.3436C13.5319 40.3436 13.0988 40.2972 12.6847 40.3669C12.5235 40.3941 12.3355 40.6615 12.2768 40.8561C11.0552 44.9095 9.85062 48.9682 8.64186 53.0255C8.42511 53.7535 8.20583 54.4804 7.98656 55.2074C7.56259 56.6134 6.53425 57.2691 5.34176 56.8949C4.18421 56.5314 3.6793 55.3857 4.08517 54.0222C5.61814 48.8729 7.15687 43.7252 8.6824 38.5735C8.78818 38.2161 8.85062 37.8307 8.85188 37.4581C8.8645 33.9912 8.86647 30.5245 8.84612 27.0576C8.84444 26.767 8.72533 26.4208 8.54562 26.1958C5.92622 22.9158 3.28494 19.6538 0.656286 16.3816C0.411757 16.0771 0.217593 15.7305 0 15.4036C0.000280584 15.0987 0.00028043 14.7939 0.00028043 14.489Z" fill="#4F8136"/>
<path fill-rule="evenodd" clip-rule="evenodd" d="M28.1199 5.16267C28.1125 2.34527 30.3394 0.00999954 33.0429 3.07291e-05C35.7269 -0.00978704 37.9855 2.33425 37.9998 5.14439C38.0142 7.95001 35.7782 10.2806 33.0616 10.2916C30.3467 10.3028 28.1273 7.9994 28.1199 5.16267Z" fill="#4F8136"/>
<path fill-rule="evenodd" clip-rule="evenodd" d="M13.2869 22.1668C10.9839 22.1605 9.13056 20.2321 9.11992 17.8311C9.10927 15.4133 10.9959 13.4446 13.3095 13.4586C15.6128 13.4726 17.4603 15.3943 17.4797 17.7965C17.4995 20.1998 15.6064 22.1729 13.2869 22.1668Z" fill="#4F8136"/>
</svg>
