<svg width="963" height="383" viewBox="0 0 963 383" fill="none" xmlns="http://www.w3.org/2000/svg">
<g clip-path="url(#clip0_1356_20476)">
<rect width="962.047" height="383" fill="white"/>
<g clip-path="url(#clip1_1356_20476)">
<rect width="964" height="445" transform="translate(-3 -2)" fill="#EEEEEE"/>
<path d="M961 -2H-4.1875V443H961V-2Z" fill="url(#paint0_linear_1356_20476)"/>
<path d="M1107.2 -50.6533H289.41V443H1107.2V-50.6533Z" fill="url(#paint1_radial_1356_20476)" fill-opacity="0.7"/>
<path d="M1012.11 -100.493H89.7168V456.054H1012.11V-100.493Z" fill="url(#paint2_radial_1356_20476)"/>
<path opacity="0.5" d="M-53.5527 -27.1216V207.933C-25.5837 185.553 8.60199 169.628 43.275 159.861C105.085 142.453 170.176 141.373 234.102 134.882C262.724 131.987 291.525 127.893 318.377 117.581C345.229 107.268 370.238 90.1448 385.489 65.7944C402.712 38.2875 405.779 5.27441 410.902 -27.1216H-53.5527Z" fill="url(#paint3_linear_1356_20476)"/>
<path style="mix-blend-mode:overlay" opacity="0.6" d="M737.152 189.053C748.361 202.747 750.739 183.179 765.68 173.627C794.731 154.889 839.721 141.492 872.897 131.725C902.982 122.873 935.527 129.091 965.077 139.581C994.627 150.071 1022.66 164.715 1052.79 173.401C1108.39 189.421 1169.85 183.179 1221.65 157.595L1239.93 -144.625C1224.57 -149.016 1209.14 -153.075 1193.57 -155.246C1139.25 -162.865 1081.96 -146.133 1040.31 -110.497C1011.95 -86.2533 991.251 -54.4862 965.647 -27.3709C937.773 2.08453 904.336 25.7422 867.262 42.2389C827.276 60.0389 781.204 70.7901 753.342 104.503C738.583 122.511 730.733 145.178 731.197 168.441C731.364 175.727 732.54 183.417 737.152 189.053Z" fill="url(#paint4_linear_1356_20476)"/>
<path style="mix-blend-mode:overlay" opacity="0.6" d="M713.19 187.499C699.401 167.076 571.217 164.822 549.75 180.996C513.674 208.194 408.478 228.071 352.124 217.106C301.012 207.162 250.589 180.854 206.312 152.219C162.034 123.585 121.454 91.7467 75.6787 64.5364C-8.81082 14.2811 -109.561 -17.6877 -200.755 -24.6416L-323.424 261.345C-300.079 275.194 -276.52 288.745 -252.212 300.505C-167.199 341.694 -69.9077 360.764 8.10373 351.532C61.189 345.278 104.23 326.825 153.785 316.027C207.5 304.338 268.966 301.787 333.474 308.551C403.272 315.872 510.583 305.359 565.808 289.457C594.895 281.091 710.194 234.467 716.423 211.469C718.396 204.195 718.883 195.912 713.19 187.499Z" fill="url(#paint5_linear_1356_20476)"/>
<path d="M-166.949 692.568L1055.56 569.974L1002.42 169.64C983.823 174.778 954.724 185.173 926.434 207.85C881.99 243.45 885.224 272.785 841.077 305.252C801.115 334.634 758.573 339.95 741.943 341.837C699.306 346.667 678.422 335.619 635.725 327.81C520.426 306.735 441.879 333.305 401.846 347.284C355.631 363.494 328.755 377.591 281.09 399.9C246.156 416.265 181.517 433.792 124.616 439.725C85.1881 443.831 18.1837 452.778 -44.1731 439.488C-41.154 495.688 -33.8318 506.25 -30.8127 562.45L-166.949 692.568Z" fill="url(#paint6_linear_1356_20476)"/>
<path d="M1237.01 -207.139H486.18V246.345H1237.01V-207.139Z" fill="url(#paint7_radial_1356_20476)" fill-opacity="0.7"/>
<path d="M873.694 -223.218H73.8008V259.909H873.694V-223.218Z" fill="url(#paint8_radial_1356_20476)" fill-opacity="0.7"/>
<path d="M998.134 582.35L1038.68 196.328C1013.29 194.583 987.186 201.502 965.137 214.531C935.742 231.916 913.169 259.316 897.491 289.623C886.579 310.71 878.555 333.649 863.543 352.042C828.359 395.166 765.17 402.048 709.671 397.23C654.173 392.412 604 384.438 543.747 395.154C452.863 411.316 384.681 462.734 343.031 495.534C328.767 506.724 301.785 516.538 292.965 532.32L998.134 582.35Z" fill="url(#paint9_linear_1356_20476)"/>
<g clip-path="url(#clip2_1356_20476)">
<path opacity="0.6" d="M452.537 373.817C452.537 373.378 452.667 372.949 452.911 372.584C453.155 372.219 453.502 371.935 453.908 371.767C454.313 371.599 454.76 371.555 455.19 371.641C455.621 371.726 456.016 371.938 456.327 372.248C456.637 372.558 456.849 372.954 456.935 373.384C457.02 373.815 456.976 374.261 456.808 374.666C456.64 375.072 456.356 375.418 455.991 375.662C455.625 375.906 455.196 376.036 454.757 376.036C454.168 376.036 453.604 375.802 453.187 375.386C452.771 374.97 452.537 374.406 452.537 373.817Z" fill="#139DD7"/>
<path opacity="0.6" d="M802.142 373.592C803.368 373.592 804.362 372.598 804.362 371.373C804.362 370.147 803.368 369.154 802.142 369.154C800.916 369.154 799.922 370.147 799.922 371.373C799.922 372.598 800.916 373.592 802.142 373.592Z" fill="#139DD7"/>
<path opacity="0.6" d="M409.383 258.663C409.38 258.221 409.509 257.789 409.753 257.421C409.997 257.052 410.345 256.764 410.752 256.594C411.16 256.423 411.609 256.377 412.043 256.462C412.477 256.547 412.875 256.758 413.189 257.07C413.502 257.381 413.716 257.779 413.803 258.212C413.89 258.645 413.847 259.094 413.678 259.502C413.509 259.911 413.223 260.26 412.856 260.505C412.489 260.751 412.057 260.882 411.615 260.882C411.025 260.882 410.459 260.649 410.041 260.233C409.623 259.817 409.386 259.253 409.383 258.663Z" fill="#139DD7"/>
<path opacity="0.6" d="M507.018 289.778C507.018 289.337 507.148 288.905 507.394 288.538C507.639 288.171 507.988 287.886 508.395 287.717C508.803 287.548 509.252 287.504 509.685 287.59C510.118 287.676 510.516 287.888 510.828 288.2C511.14 288.512 511.352 288.91 511.439 289.343C511.525 289.775 511.48 290.224 511.312 290.632C511.143 291.039 510.857 291.388 510.489 291.633C510.122 291.878 509.691 292.009 509.25 292.009C508.658 292.009 508.09 291.774 507.671 291.355C507.253 290.937 507.018 290.369 507.018 289.778Z" fill="#139DD7"/>
<path opacity="0.6" d="M414.951 160.846C414.951 160.408 415.081 159.979 415.325 159.614C415.569 159.249 415.916 158.964 416.322 158.796C416.727 158.628 417.174 158.584 417.604 158.67C418.035 158.756 418.431 158.967 418.741 159.277C419.052 159.588 419.263 159.983 419.349 160.414C419.434 160.844 419.39 161.29 419.222 161.696C419.054 162.101 418.77 162.448 418.405 162.692C418.04 162.935 417.61 163.066 417.171 163.066C416.88 163.066 416.591 163.008 416.322 162.897C416.052 162.785 415.808 162.622 415.601 162.416C415.395 162.21 415.232 161.965 415.12 161.696C415.009 161.426 414.951 161.138 414.951 160.846Z" fill="#139DD7"/>
<path opacity="0.6" d="M198.775 381.816C198.773 381.373 198.902 380.94 199.147 380.572C199.391 380.203 199.739 379.915 200.148 379.745C200.556 379.575 201.006 379.529 201.44 379.615C201.874 379.701 202.273 379.913 202.586 380.226C202.898 380.539 203.111 380.938 203.197 381.371C203.283 381.805 203.237 382.255 203.067 382.663C202.897 383.071 202.609 383.419 202.24 383.664C201.871 383.908 201.438 384.037 200.995 384.035C200.407 384.035 199.842 383.801 199.426 383.385C199.009 382.969 198.775 382.404 198.775 381.816Z" fill="#139DD7"/>
<path opacity="0.6" d="M517.81 340.911C519.036 340.911 520.03 339.918 520.03 338.692C520.03 337.467 519.036 336.473 517.81 336.473C516.584 336.473 515.59 337.467 515.59 338.692C515.59 339.918 516.584 340.911 517.81 340.911Z" fill="#139DD7"/>
<path opacity="0.6" d="M493.449 202.19C494.675 202.19 495.669 201.196 495.669 199.971C495.669 198.745 494.675 197.751 493.449 197.751C492.222 197.751 491.229 198.745 491.229 199.971C491.229 201.196 492.222 202.19 493.449 202.19Z" fill="#139DD7"/>
<path opacity="0.6" d="M130.274 30.1351C130.284 29.6955 130.423 29.2685 130.674 28.9076C130.925 28.5468 131.278 28.2683 131.687 28.1071C132.096 27.9458 132.544 27.9091 132.974 28.0014C133.404 28.0937 133.798 28.311 134.105 28.626C134.411 28.941 134.618 29.3396 134.699 29.7718C134.78 30.204 134.732 30.6505 134.56 31.0551C134.388 31.4598 134.1 31.8046 133.732 32.0463C133.365 32.288 132.934 32.4157 132.494 32.4135C132.198 32.4136 131.904 32.3543 131.631 32.2391C131.357 32.1239 131.11 31.9551 130.903 31.7427C130.696 31.5303 130.534 31.2786 130.426 31.0025C130.318 30.7264 130.266 30.4315 130.274 30.1351Z" fill="#139DD7"/>
<path opacity="0.6" d="M237.465 147.52C237.463 147.078 237.591 146.646 237.835 146.277C238.079 145.909 238.427 145.621 238.834 145.451C239.242 145.28 239.691 145.234 240.125 145.319C240.559 145.404 240.957 145.615 241.271 145.927C241.584 146.238 241.798 146.636 241.885 147.069C241.972 147.502 241.929 147.951 241.76 148.359C241.591 148.768 241.305 149.117 240.938 149.362C240.571 149.608 240.139 149.739 239.697 149.739C239.107 149.739 238.541 149.506 238.123 149.09C237.705 148.674 237.468 148.11 237.465 147.52Z" fill="#139DD7"/>
<path opacity="0.6" d="M199.666 296.898C199.666 296.459 199.796 296.03 200.04 295.665C200.284 295.3 200.631 295.016 201.036 294.848C201.442 294.68 201.889 294.636 202.319 294.721C202.75 294.807 203.145 295.018 203.456 295.329C203.766 295.639 203.978 296.034 204.063 296.465C204.149 296.895 204.105 297.341 203.937 297.747C203.769 298.152 203.485 298.499 203.119 298.743C202.754 298.987 202.325 299.117 201.886 299.117C201.595 299.117 201.306 299.059 201.036 298.948C200.767 298.836 200.522 298.673 200.316 298.467C200.11 298.261 199.947 298.016 199.835 297.747C199.723 297.478 199.666 297.189 199.666 296.898Z" fill="#139DD7"/>
<path opacity="0.6" d="M703.284 364.253C705.251 364.253 706.846 362.659 706.846 360.693C706.846 358.727 705.251 357.133 703.284 357.133C701.317 357.133 699.723 358.727 699.723 360.693C699.723 362.659 701.317 364.253 703.284 364.253Z" fill="#F9FAFD"/>
<path opacity="0.6" d="M563.064 241.765C563.064 241.061 563.273 240.373 563.665 239.787C564.056 239.202 564.612 238.746 565.263 238.476C565.914 238.207 566.63 238.136 567.321 238.273C568.012 238.411 568.646 238.75 569.144 239.248C569.643 239.746 569.982 240.38 570.119 241.071C570.257 241.761 570.186 242.477 569.916 243.127C569.647 243.778 569.19 244.334 568.605 244.725C568.019 245.116 567.33 245.325 566.626 245.325C565.681 245.325 564.776 244.95 564.108 244.282C563.44 243.615 563.064 242.709 563.064 241.765Z" fill="#F9FAFD"/>
<path opacity="0.6" d="M147.18 129.281C147.18 128.577 147.389 127.888 147.78 127.303C148.171 126.717 148.728 126.261 149.378 125.992C150.029 125.722 150.745 125.652 151.436 125.789C152.127 125.926 152.762 126.266 153.26 126.763C153.758 127.261 154.097 127.896 154.234 128.586C154.372 129.277 154.301 129.993 154.032 130.643C153.762 131.294 153.306 131.85 152.72 132.241C152.134 132.632 151.446 132.841 150.741 132.841C149.797 132.841 148.891 132.466 148.223 131.798C147.555 131.13 147.18 130.225 147.18 129.281Z" fill="#F9FAFD"/>
<path opacity="0.6" d="M698.286 238.217C700.253 238.217 701.848 236.623 701.848 234.657C701.848 232.691 700.253 231.097 698.286 231.097C696.319 231.097 694.725 232.691 694.725 234.657C694.725 236.623 696.319 238.217 698.286 238.217Z" fill="#F9FAFD"/>
<path opacity="0.6" d="M299.746 301.561C299.746 300.857 299.955 300.169 300.346 299.583C300.738 298.998 301.294 298.541 301.945 298.272C302.595 298.003 303.312 297.932 304.003 298.069C304.693 298.207 305.328 298.546 305.826 299.044C306.324 299.542 306.663 300.176 306.801 300.866C306.938 301.557 306.868 302.273 306.598 302.923C306.329 303.574 305.872 304.13 305.286 304.521C304.701 304.912 304.012 305.121 303.308 305.121C302.363 305.121 301.457 304.746 300.789 304.078C300.121 303.411 299.746 302.505 299.746 301.561Z" fill="#F9FAFD"/>
<path opacity="0.6" d="M-0.947266 313.796C-0.947266 313.092 -0.738383 312.403 -0.347032 311.818C0.0443193 311.233 0.600562 310.776 1.25135 310.507C1.90215 310.237 2.61826 310.167 3.30914 310.304C4.00002 310.442 4.63463 310.781 5.13273 311.279C5.63082 311.776 5.97003 312.411 6.10745 313.101C6.24488 313.792 6.17435 314.508 5.90478 315.158C5.63521 315.809 5.17872 316.365 4.59302 316.756C4.00732 317.147 3.31872 317.356 2.61431 317.356C1.66972 317.356 0.763821 316.981 0.0958961 316.313C-0.572029 315.646 -0.947266 314.74 -0.947266 313.796Z" fill="#F9FAFD"/>
<path opacity="0.6" d="M941.744 322.256C941.742 321.815 941.871 321.382 942.115 321.014C942.358 320.645 942.706 320.358 943.114 320.187C943.521 320.016 943.97 319.97 944.404 320.055C944.838 320.14 945.237 320.351 945.55 320.663C945.863 320.974 946.077 321.372 946.164 321.805C946.251 322.238 946.208 322.687 946.039 323.096C945.871 323.504 945.585 323.853 945.217 324.099C944.85 324.344 944.418 324.476 943.976 324.476C943.386 324.476 942.82 324.242 942.402 323.826C941.984 323.411 941.747 322.846 941.744 322.256Z" fill="#139DD7"/>
<path opacity="0.6" d="M898.602 207.103C898.602 206.661 898.732 206.23 898.978 205.863C899.223 205.496 899.571 205.21 899.979 205.041C900.387 204.873 900.836 204.828 901.269 204.914C901.702 205.001 902.1 205.213 902.412 205.525C902.724 205.837 902.936 206.235 903.023 206.667C903.109 207.1 903.064 207.549 902.895 207.956C902.727 208.364 902.441 208.712 902.074 208.957C901.706 209.203 901.275 209.333 900.833 209.333C900.242 209.333 899.674 209.098 899.255 208.68C898.837 208.262 898.602 207.694 898.602 207.103Z" fill="#139DD7"/>
<path opacity="0.6" d="M904.17 109.298C904.17 108.859 904.3 108.43 904.544 108.065C904.788 107.7 905.135 107.415 905.54 107.248C905.946 107.08 906.392 107.036 906.823 107.121C907.254 107.207 907.649 107.418 907.96 107.729C908.27 108.039 908.482 108.434 908.567 108.865C908.653 109.295 908.609 109.741 908.441 110.147C908.273 110.552 907.988 110.899 907.623 111.143C907.258 111.387 906.829 111.517 906.39 111.517C906.098 111.517 905.81 111.459 905.54 111.348C905.271 111.236 905.026 111.073 904.82 110.867C904.614 110.661 904.45 110.416 904.339 110.147C904.227 109.878 904.17 109.589 904.17 109.298Z" fill="#139DD7"/>
<path opacity="0.6" d="M687.992 330.267C687.995 329.828 688.127 329.401 688.372 329.037C688.617 328.674 688.965 328.391 689.371 328.225C689.777 328.059 690.223 328.017 690.653 328.104C691.082 328.191 691.477 328.403 691.786 328.714C692.096 329.025 692.306 329.42 692.39 329.85C692.475 330.28 692.431 330.726 692.262 331.131C692.094 331.535 691.809 331.881 691.444 332.125C691.08 332.368 690.651 332.498 690.212 332.498C689.92 332.498 689.63 332.44 689.36 332.328C689.09 332.215 688.845 332.051 688.638 331.844C688.432 331.636 688.269 331.39 688.158 331.12C688.047 330.849 687.991 330.559 687.992 330.267Z" fill="#139DD7"/>
<path opacity="0.6" d="M35.3692 283.571C35.3715 283.133 35.5037 282.705 35.7491 282.342C35.9944 281.978 36.342 281.696 36.7478 281.53C37.1537 281.364 37.5997 281.321 38.0296 281.408C38.4594 281.495 38.8539 281.708 39.1632 282.018C39.4725 282.329 39.6827 282.725 39.7674 283.155C39.8521 283.585 39.8075 284.03 39.6391 284.435C39.4707 284.84 39.1862 285.186 38.8214 285.429C38.4566 285.673 38.0278 285.802 37.5892 285.802C37.2967 285.802 37.007 285.745 36.7369 285.632C36.4668 285.52 36.2215 285.356 36.0152 285.148C35.8089 284.941 35.6456 284.695 35.5347 284.424C35.4239 284.154 35.3676 283.864 35.3692 283.571Z" fill="#139DD7"/>
<path opacity="0.6" d="M726.684 95.9596C726.681 95.5173 726.81 95.0844 727.055 94.7157C727.299 94.347 727.648 94.0592 728.056 93.8889C728.464 93.7186 728.914 93.6734 729.348 93.7591C729.782 93.8448 730.181 94.0575 730.494 94.3702C730.807 94.6829 731.019 95.0815 731.105 95.5154C731.191 95.9493 731.146 96.3988 730.975 96.8069C730.805 97.2151 730.517 97.5634 730.148 97.8076C729.779 98.0518 729.346 98.181 728.904 98.1786C728.316 98.1755 727.753 97.9407 727.337 97.5252C726.922 97.1098 726.687 96.5471 726.684 95.9596Z" fill="#139DD7"/>
<path opacity="0.6" d="M688.883 245.337C688.885 244.899 689.017 244.471 689.263 244.107C689.508 243.744 689.856 243.462 690.262 243.295C690.667 243.129 691.113 243.087 691.543 243.174C691.973 243.261 692.368 243.473 692.677 243.784C692.986 244.095 693.196 244.49 693.281 244.92C693.366 245.351 693.321 245.796 693.153 246.201C692.984 246.606 692.7 246.952 692.335 247.195C691.97 247.438 691.541 247.568 691.103 247.568C690.81 247.568 690.521 247.51 690.251 247.398C689.98 247.286 689.735 247.121 689.529 246.914C689.323 246.707 689.159 246.461 689.048 246.19C688.938 245.919 688.881 245.629 688.883 245.337Z" fill="#139DD7"/>
<path opacity="0.6" d="M636.398 77.7202C636.398 77.0161 636.607 76.3278 636.999 75.7423C637.39 75.1569 637.946 74.7006 638.597 74.4312C639.248 74.1617 639.964 74.0912 640.655 74.2286C641.346 74.3659 641.98 74.705 642.478 75.2029C642.976 75.7007 643.316 76.3351 643.453 77.0256C643.591 77.7162 643.52 78.432 643.25 79.0825C642.981 79.733 642.524 80.289 641.939 80.6802C641.353 81.0714 640.664 81.2802 639.96 81.2802C639.015 81.2802 638.11 80.9051 637.442 80.2375C636.774 79.5698 636.398 78.6643 636.398 77.7202Z" fill="#F9FAFD"/>
<path opacity="0.6" d="M788.965 250.012C788.965 249.308 789.174 248.62 789.565 248.034C789.956 247.449 790.513 246.993 791.163 246.723C791.814 246.454 792.53 246.383 793.221 246.521C793.912 246.658 794.547 246.997 795.045 247.495C795.543 247.993 795.882 248.627 796.02 249.318C796.157 250.008 796.086 250.724 795.817 251.375C795.547 252.025 795.091 252.581 794.505 252.972C793.919 253.363 793.231 253.572 792.526 253.572C791.582 253.572 790.676 253.197 790.008 252.529C789.34 251.862 788.965 250.956 788.965 250.012Z" fill="#F9FAFD"/>
<path opacity="0.6" d="M488.271 262.235C488.271 261.531 488.48 260.843 488.872 260.257C489.263 259.672 489.819 259.216 490.47 258.946C491.121 258.677 491.837 258.606 492.528 258.744C493.219 258.881 493.853 259.22 494.351 259.718C494.85 260.216 495.189 260.85 495.326 261.541C495.464 262.231 495.393 262.947 495.124 263.598C494.854 264.248 494.397 264.804 493.812 265.195C493.226 265.587 492.537 265.795 491.833 265.795C490.888 265.795 489.983 265.42 489.315 264.753C488.647 264.085 488.271 263.179 488.271 262.235Z" fill="#F9FAFD"/>
<g style="mix-blend-mode:overlay">
<path d="M908.989 81.1851H909.321C909.37 81.1885 909.418 81.1732 909.455 81.1423C909.493 81.1114 909.517 81.0672 909.523 81.019C910.461 76.2723 913.263 73.1514 917.525 72.2732C917.574 72.2573 917.616 72.225 917.644 72.1818C917.672 72.1386 917.684 72.0871 917.679 72.0359C917.674 72.0045 917.674 71.9724 917.679 71.941C917.677 71.8983 917.661 71.8575 917.633 71.8252C917.605 71.7929 917.567 71.771 917.525 71.763C913.002 70.8255 910.129 67.4198 909.381 62.1035H909.238H909.143C909.096 62.1035 909.051 62.1223 909.017 62.1557C908.984 62.189 908.965 62.2343 908.965 62.2815C908.158 67.5859 905.202 70.9442 900.655 71.7748C900.613 71.7828 900.575 71.8047 900.547 71.837C900.519 71.8693 900.502 71.9101 900.5 71.9528C900.49 72.0062 900.499 72.0618 900.528 72.1081C900.557 72.1544 900.602 72.188 900.655 72.202C905.095 73.009 908.003 76.1655 908.965 81.1495L908.989 81.1851Z" fill="white"/>
</g>
<g style="mix-blend-mode:overlay">
<path d="M883.238 375.716C883.365 375.704 883.492 375.704 883.618 375.716C883.673 375.719 883.727 375.701 883.769 375.666C883.811 375.631 883.838 375.581 883.844 375.526C884.912 370.067 888.094 366.567 892.95 365.57C893.006 365.553 893.055 365.516 893.086 365.466C893.116 365.415 893.127 365.355 893.116 365.297C893.116 365.297 893.116 365.226 893.116 365.19C893.112 365.142 893.092 365.096 893.06 365.06C893.028 365.023 892.985 364.998 892.938 364.988C887.809 363.932 884.532 360.052 883.678 354.012H883.405C883.352 354.015 883.302 354.037 883.265 354.074C883.228 354.111 883.206 354.161 883.203 354.213C882.289 360.254 878.929 364.075 873.705 365.036C873.657 365.044 873.613 365.068 873.58 365.105C873.548 365.142 873.529 365.189 873.527 365.238C873.516 365.297 873.529 365.359 873.562 365.409C873.595 365.46 873.646 365.496 873.705 365.511C878.763 366.436 882.016 370.02 883.12 375.692L883.238 375.716Z" fill="white"/>
</g>
<g style="mix-blend-mode:overlay">
<path d="M30.3361 139.012H30.621C30.6923 139.012 30.7635 139.012 30.7872 138.869C31.5589 134.894 33.8858 132.343 37.4236 131.619C37.4645 131.605 37.499 131.577 37.5208 131.54C37.5427 131.503 37.5503 131.459 37.5424 131.417C37.5424 131.417 37.5424 131.417 37.5424 131.334C37.5407 131.301 37.5282 131.269 37.5068 131.243C37.4854 131.217 37.4562 131.199 37.4236 131.192C33.6721 130.42 31.2859 127.632 30.6685 123.182H30.4667C30.4275 123.187 30.391 123.204 30.3631 123.232C30.3352 123.26 30.3173 123.297 30.3124 123.336C29.6475 127.738 27.2019 130.456 23.3791 131.215C23.3434 131.223 23.3113 131.242 23.2877 131.27C23.2641 131.298 23.2503 131.333 23.2486 131.37C23.2412 131.413 23.2505 131.459 23.2747 131.496C23.2988 131.533 23.3361 131.56 23.3791 131.571C27.0594 132.248 29.4694 134.858 30.2411 138.988L30.3361 139.012Z" fill="white"/>
</g>
<path d="M146.555 172V148.528H154.619C156.347 148.528 157.907 148.768 159.299 149.248C160.715 149.704 161.843 150.484 162.683 151.588C163.523 152.692 163.943 154.192 163.943 156.088C163.943 157.912 163.523 159.412 162.683 160.588C161.843 161.764 160.727 162.64 159.335 163.216C157.943 163.768 156.419 164.044 154.763 164.044H151.847V172H146.555ZM151.847 159.832H154.439C157.319 159.832 158.759 158.584 158.759 156.088C158.759 154.864 158.375 154 157.607 153.496C156.839 152.992 155.735 152.74 154.295 152.74H151.847V159.832ZM167.569 172V154.144H171.889L172.249 157.276H172.393C173.041 156.076 173.821 155.188 174.733 154.612C175.645 154.012 176.557 153.712 177.469 153.712C177.973 153.712 178.393 153.748 178.729 153.82C179.065 153.868 179.353 153.952 179.593 154.072L178.729 158.644C178.417 158.548 178.105 158.476 177.793 158.428C177.505 158.38 177.169 158.356 176.785 158.356C176.113 158.356 175.405 158.608 174.661 159.112C173.941 159.592 173.341 160.432 172.861 161.632V172H167.569ZM181.912 172V154.144H187.204V172H181.912ZM184.54 151.516C183.652 151.516 182.932 151.264 182.38 150.76C181.828 150.256 181.552 149.584 181.552 148.744C181.552 147.904 181.828 147.232 182.38 146.728C182.932 146.224 183.652 145.972 184.54 145.972C185.428 145.972 186.148 146.224 186.7 146.728C187.252 147.232 187.528 147.904 187.528 148.744C187.528 149.584 187.252 150.256 186.7 150.76C186.148 151.264 185.428 151.516 184.54 151.516ZM191.861 178.624V154.144H196.181L196.541 155.908H196.685C197.381 155.284 198.161 154.768 199.025 154.36C199.913 153.928 200.825 153.712 201.761 153.712C203.921 153.712 205.625 154.54 206.873 156.196C208.121 157.828 208.745 160.024 208.745 162.784C208.745 164.824 208.385 166.564 207.665 168.004C206.945 169.444 206.009 170.548 204.857 171.316C203.729 172.06 202.517 172.432 201.221 172.432C200.453 172.432 199.709 172.276 198.989 171.964C198.269 171.628 197.597 171.16 196.973 170.56L197.153 173.404V178.624H191.861ZM199.997 168.112C200.909 168.112 201.689 167.692 202.337 166.852C202.985 166.012 203.309 164.68 203.309 162.856C203.309 159.64 202.277 158.032 200.213 158.032C199.181 158.032 198.161 158.572 197.153 159.652V166.96C197.633 167.392 198.113 167.692 198.593 167.86C199.073 168.028 199.541 168.112 199.997 168.112ZM212.498 172V154.144H216.818L217.178 157.276H217.322C217.97 156.076 218.75 155.188 219.662 154.612C220.574 154.012 221.486 153.712 222.398 153.712C222.902 153.712 223.322 153.748 223.658 153.82C223.994 153.868 224.282 153.952 224.522 154.072L223.658 158.644C223.346 158.548 223.034 158.476 222.722 158.428C222.434 158.38 222.098 158.356 221.714 158.356C221.042 158.356 220.334 158.608 219.59 159.112C218.87 159.592 218.27 160.432 217.79 161.632V172H212.498ZM230.322 172.432C228.69 172.432 227.394 171.916 226.434 170.884C225.474 169.828 224.994 168.544 224.994 167.032C224.994 165.16 225.786 163.696 227.37 162.64C228.954 161.584 231.51 160.876 235.038 160.516C234.99 159.724 234.75 159.1 234.318 158.644C233.91 158.164 233.214 157.924 232.23 157.924C231.486 157.924 230.73 158.068 229.962 158.356C229.194 158.644 228.378 159.04 227.514 159.544L225.606 156.052C226.734 155.356 227.934 154.792 229.206 154.36C230.502 153.928 231.846 153.712 233.238 153.712C235.518 153.712 237.27 154.372 238.494 155.692C239.718 157.012 240.33 159.04 240.33 161.776V172H236.01L235.65 170.164H235.506C234.762 170.836 233.958 171.388 233.094 171.82C232.254 172.228 231.33 172.432 230.322 172.432ZM232.122 168.328C232.722 168.328 233.238 168.196 233.67 167.932C234.126 167.644 234.582 167.272 235.038 166.816V163.684C233.166 163.924 231.87 164.308 231.15 164.836C230.43 165.34 230.07 165.94 230.07 166.636C230.07 167.212 230.25 167.644 230.61 167.932C230.994 168.196 231.498 168.328 232.122 168.328ZM248.911 172L242.899 154.144H248.227L250.531 162.568C250.771 163.456 250.999 164.368 251.215 165.304C251.455 166.216 251.695 167.14 251.935 168.076H252.079C252.295 167.14 252.511 166.216 252.727 165.304C252.967 164.368 253.207 163.456 253.447 162.568L255.787 154.144H260.863L255.031 172H248.911ZM269.015 172.432C267.071 172.432 265.655 171.796 264.767 170.524C263.903 169.228 263.471 167.464 263.471 165.232V154.144H268.763V164.548C268.763 165.82 268.943 166.708 269.303 167.212C269.663 167.692 270.227 167.932 270.995 167.932C271.667 167.932 272.231 167.776 272.687 167.464C273.143 167.152 273.635 166.648 274.163 165.952V154.144H279.455V172H275.135L274.739 169.516H274.631C273.887 170.404 273.071 171.112 272.183 171.64C271.295 172.168 270.239 172.432 269.015 172.432ZM283.067 179.056C282.323 179.056 281.711 179.008 281.231 178.912C280.727 178.816 280.295 178.696 279.935 178.552L280.871 174.664C281.111 174.736 281.351 174.796 281.591 174.844C281.807 174.892 282.035 174.916 282.275 174.916C282.971 174.916 283.451 174.676 283.715 174.196C284.003 173.74 284.147 173.02 284.147 172.036V154.144H289.439V171.892C289.439 173.188 289.247 174.376 288.863 175.456C288.479 176.536 287.819 177.4 286.883 178.048C285.971 178.72 284.699 179.056 283.067 179.056ZM286.811 151.516C285.923 151.516 285.203 151.264 284.651 150.76C284.099 150.256 283.823 149.584 283.823 148.744C283.823 147.904 284.099 147.232 284.651 146.728C285.203 146.224 285.923 145.972 286.811 145.972C287.699 145.972 288.419 146.224 288.971 146.728C289.523 147.232 289.799 147.904 289.799 148.744C289.799 149.584 289.523 150.256 288.971 150.76C288.419 151.264 287.699 151.516 286.811 151.516ZM302.123 172.432C300.419 172.432 298.883 172.06 297.515 171.316C296.147 170.572 295.067 169.504 294.275 168.112C293.483 166.72 293.087 165.04 293.087 163.072C293.087 161.128 293.483 159.46 294.275 158.068C295.091 156.676 296.147 155.608 297.443 154.864C298.739 154.096 300.095 153.712 301.511 153.712C303.215 153.712 304.619 154.096 305.723 154.864C306.851 155.608 307.691 156.628 308.243 157.924C308.819 159.196 309.107 160.648 309.107 162.28C309.107 162.736 309.083 163.192 309.035 163.648C308.987 164.08 308.939 164.404 308.891 164.62H298.199C298.439 165.916 298.979 166.876 299.819 167.5C300.659 168.1 301.667 168.4 302.843 168.4C304.115 168.4 305.399 168.004 306.695 167.212L308.459 170.416C307.547 171.04 306.527 171.532 305.399 171.892C304.271 172.252 303.179 172.432 302.123 172.432ZM298.163 161.128H304.607C304.607 160.144 304.367 159.34 303.887 158.716C303.431 158.068 302.675 157.744 301.619 157.744C300.803 157.744 300.071 158.032 299.423 158.608C298.775 159.16 298.355 160 298.163 161.128ZM312.764 172V154.144H317.084L317.444 156.448H317.588C318.332 155.704 319.124 155.068 319.964 154.54C320.804 153.988 321.812 153.712 322.988 153.712C324.26 153.712 325.28 153.976 326.048 154.504C326.84 155.008 327.464 155.74 327.92 156.7C328.712 155.884 329.552 155.188 330.44 154.612C331.328 154.012 332.36 153.712 333.536 153.712C335.456 153.712 336.86 154.36 337.748 155.656C338.66 156.928 339.116 158.68 339.116 160.912V172H333.824V161.596C333.824 160.3 333.644 159.412 333.284 158.932C332.948 158.452 332.396 158.212 331.628 158.212C330.74 158.212 329.72 158.788 328.568 159.94V172H323.276V161.596C323.276 160.3 323.096 159.412 322.736 158.932C322.4 158.452 321.848 158.212 321.08 158.212C320.192 158.212 319.184 158.788 318.056 159.94V172H312.764ZM351.623 172.432C349.919 172.432 348.383 172.06 347.015 171.316C345.647 170.572 344.567 169.504 343.775 168.112C342.983 166.72 342.587 165.04 342.587 163.072C342.587 161.128 342.983 159.46 343.775 158.068C344.591 156.676 345.647 155.608 346.943 154.864C348.239 154.096 349.595 153.712 351.011 153.712C352.715 153.712 354.119 154.096 355.223 154.864C356.351 155.608 357.191 156.628 357.743 157.924C358.319 159.196 358.607 160.648 358.607 162.28C358.607 162.736 358.583 163.192 358.535 163.648C358.487 164.08 358.439 164.404 358.391 164.62H347.699C347.939 165.916 348.479 166.876 349.319 167.5C350.159 168.1 351.167 168.4 352.343 168.4C353.615 168.4 354.899 168.004 356.195 167.212L357.959 170.416C357.047 171.04 356.027 171.532 354.899 171.892C353.771 172.252 352.679 172.432 351.623 172.432ZM347.663 161.128H354.107C354.107 160.144 353.867 159.34 353.387 158.716C352.931 158.068 352.175 157.744 351.119 157.744C350.303 157.744 349.571 158.032 348.923 158.608C348.275 159.16 347.855 160 347.663 161.128ZM369.471 178.624V154.144H373.791L374.151 155.908H374.295C374.991 155.284 375.771 154.768 376.635 154.36C377.523 153.928 378.435 153.712 379.371 153.712C381.531 153.712 383.235 154.54 384.483 156.196C385.731 157.828 386.355 160.024 386.355 162.784C386.355 164.824 385.995 166.564 385.275 168.004C384.555 169.444 383.619 170.548 382.467 171.316C381.339 172.06 380.127 172.432 378.831 172.432C378.063 172.432 377.319 172.276 376.599 171.964C375.879 171.628 375.207 171.16 374.583 170.56L374.763 173.404V178.624H369.471ZM377.607 168.112C378.519 168.112 379.299 167.692 379.947 166.852C380.595 166.012 380.919 164.68 380.919 162.856C380.919 159.64 379.887 158.032 377.823 158.032C376.791 158.032 375.771 158.572 374.763 159.652V166.96C375.243 167.392 375.723 167.692 376.203 167.86C376.683 168.028 377.151 168.112 377.607 168.112ZM390.108 172V154.144H394.428L394.788 157.276H394.932C395.58 156.076 396.36 155.188 397.272 154.612C398.184 154.012 399.096 153.712 400.008 153.712C400.512 153.712 400.932 153.748 401.268 153.82C401.604 153.868 401.892 153.952 402.132 154.072L401.268 158.644C400.956 158.548 400.644 158.476 400.332 158.428C400.044 158.38 399.708 158.356 399.324 158.356C398.652 158.356 397.944 158.608 397.2 159.112C396.48 159.592 395.88 160.432 395.4 161.632V172H390.108ZM412.092 172.432C410.388 172.432 408.852 172.06 407.484 171.316C406.116 170.572 405.036 169.504 404.244 168.112C403.452 166.72 403.056 165.04 403.056 163.072C403.056 161.128 403.452 159.46 404.244 158.068C405.06 156.676 406.116 155.608 407.412 154.864C408.708 154.096 410.064 153.712 411.48 153.712C413.184 153.712 414.588 154.096 415.692 154.864C416.82 155.608 417.66 156.628 418.212 157.924C418.788 159.196 419.076 160.648 419.076 162.28C419.076 162.736 419.052 163.192 419.004 163.648C418.956 164.08 418.908 164.404 418.86 164.62H408.168C408.408 165.916 408.948 166.876 409.788 167.5C410.628 168.1 411.636 168.4 412.812 168.4C414.084 168.4 415.368 168.004 416.664 167.212L418.428 170.416C417.516 171.04 416.496 171.532 415.368 171.892C414.24 172.252 413.148 172.432 412.092 172.432ZM408.132 161.128H414.576C414.576 160.144 414.336 159.34 413.856 158.716C413.4 158.068 412.644 157.744 411.588 157.744C410.772 157.744 410.04 158.032 409.392 158.608C408.744 159.16 408.324 160 408.132 161.128ZM434.044 172L428.032 154.144H433.36L435.664 162.568C435.904 163.456 436.132 164.368 436.348 165.304C436.588 166.216 436.828 167.14 437.068 168.076H437.212C437.428 167.14 437.644 166.216 437.86 165.304C438.1 164.368 438.34 163.456 438.58 162.568L440.92 154.144H445.996L440.164 172H434.044ZM452.58 172.432C450.948 172.432 449.652 171.916 448.692 170.884C447.732 169.828 447.252 168.544 447.252 167.032C447.252 165.16 448.044 163.696 449.628 162.64C451.212 161.584 453.768 160.876 457.296 160.516C457.248 159.724 457.008 159.1 456.576 158.644C456.168 158.164 455.472 157.924 454.488 157.924C453.744 157.924 452.988 158.068 452.22 158.356C451.452 158.644 450.636 159.04 449.772 159.544L447.864 156.052C448.992 155.356 450.192 154.792 451.464 154.36C452.76 153.928 454.104 153.712 455.496 153.712C457.776 153.712 459.528 154.372 460.752 155.692C461.976 157.012 462.588 159.04 462.588 161.776V172H458.268L457.908 170.164H457.764C457.02 170.836 456.216 171.388 455.352 171.82C454.512 172.228 453.588 172.432 452.58 172.432ZM454.38 168.328C454.98 168.328 455.496 168.196 455.928 167.932C456.384 167.644 456.84 167.272 457.296 166.816V163.684C455.424 163.924 454.128 164.308 453.408 164.836C452.688 165.34 452.328 165.94 452.328 166.636C452.328 167.212 452.508 167.644 452.868 167.932C453.252 168.196 453.756 168.328 454.38 168.328ZM456.036 151.408L453.444 148.816L458.988 142.264L462.552 145.756L456.036 151.408ZM472.321 172.432C471.145 172.432 469.933 172.204 468.685 171.748C467.461 171.292 466.393 170.692 465.481 169.948L467.857 166.636C468.673 167.236 469.453 167.704 470.197 168.04C470.965 168.352 471.721 168.508 472.465 168.508C473.257 168.508 473.833 168.376 474.193 168.112C474.553 167.824 474.733 167.452 474.733 166.996C474.733 166.588 474.553 166.252 474.193 165.988C473.857 165.724 473.413 165.484 472.861 165.268C472.309 165.028 471.721 164.788 471.097 164.548C470.377 164.26 469.657 163.9 468.937 163.468C468.241 163.036 467.653 162.484 467.173 161.812C466.693 161.116 466.453 160.276 466.453 159.292C466.453 157.636 467.077 156.292 468.325 155.26C469.597 154.228 471.253 153.712 473.293 153.712C474.661 153.712 475.861 153.952 476.893 154.432C477.949 154.888 478.849 155.404 479.593 155.98L477.217 159.148C476.593 158.668 475.969 158.296 475.345 158.032C474.721 157.768 474.097 157.636 473.473 157.636C472.105 157.636 471.421 158.104 471.421 159.04C471.421 159.616 471.757 160.06 472.429 160.372C473.125 160.66 473.929 160.972 474.841 161.308C475.609 161.572 476.353 161.92 477.073 162.352C477.817 162.76 478.429 163.312 478.909 164.008C479.413 164.68 479.665 165.568 479.665 166.672C479.665 168.28 479.041 169.648 477.793 170.776C476.545 171.88 474.721 172.432 472.321 172.432ZM489.261 172V169.156L496.749 158.284H490.089V154.144H503.337V156.952L495.849 167.86H503.589V172H489.261ZM510.799 172.432C509.167 172.432 507.871 171.916 506.911 170.884C505.951 169.828 505.471 168.544 505.471 167.032C505.471 165.16 506.263 163.696 507.847 162.64C509.431 161.584 511.987 160.876 515.515 160.516C515.467 159.724 515.227 159.1 514.795 158.644C514.387 158.164 513.691 157.924 512.707 157.924C511.963 157.924 511.207 158.068 510.439 158.356C509.671 158.644 508.855 159.04 507.991 159.544L506.083 156.052C507.211 155.356 508.411 154.792 509.683 154.36C510.979 153.928 512.323 153.712 513.715 153.712C515.995 153.712 517.747 154.372 518.971 155.692C520.195 157.012 520.807 159.04 520.807 161.776V172H516.487L516.127 170.164H515.983C515.239 170.836 514.435 171.388 513.571 171.82C512.731 172.228 511.807 172.432 510.799 172.432ZM512.599 168.328C513.199 168.328 513.715 168.196 514.147 167.932C514.603 167.644 515.059 167.272 515.515 166.816V163.684C513.643 163.924 512.347 164.308 511.627 164.836C510.907 165.34 510.547 165.94 510.547 166.636C510.547 167.212 510.727 167.644 511.087 167.932C511.471 168.196 511.975 168.328 512.599 168.328ZM514.255 151.408L511.663 148.816L517.207 142.264L520.771 145.756L514.255 151.408ZM534.643 172.432C533.851 172.432 533.047 172.24 532.231 171.856C531.439 171.448 530.695 170.86 529.999 170.092H529.855L529.423 172H525.283V146.764H530.575V152.956L530.431 155.692C531.127 155.068 531.883 154.588 532.699 154.252C533.515 153.892 534.331 153.712 535.147 153.712C536.587 153.712 537.835 154.084 538.891 154.828C539.947 155.572 540.751 156.628 541.303 157.996C541.879 159.34 542.167 160.924 542.167 162.748C542.167 164.788 541.807 166.54 541.087 168.004C540.367 169.444 539.431 170.548 538.279 171.316C537.151 172.06 535.939 172.432 534.643 172.432ZM533.419 168.112C534.331 168.112 535.111 167.692 535.759 166.852C536.407 166.012 536.731 164.68 536.731 162.856C536.731 159.64 535.699 158.032 533.635 158.032C532.579 158.032 531.559 158.572 530.575 159.652V166.96C531.055 167.392 531.535 167.692 532.015 167.86C532.495 168.028 532.963 168.112 533.419 168.112ZM550.033 172.432C548.401 172.432 547.105 171.916 546.145 170.884C545.185 169.828 544.705 168.544 544.705 167.032C544.705 165.16 545.497 163.696 547.081 162.64C548.665 161.584 551.221 160.876 554.749 160.516C554.701 159.724 554.461 159.1 554.029 158.644C553.621 158.164 552.925 157.924 551.941 157.924C551.197 157.924 550.441 158.068 549.673 158.356C548.905 158.644 548.089 159.04 547.225 159.544L545.317 156.052C546.445 155.356 547.645 154.792 548.917 154.36C550.213 153.928 551.557 153.712 552.949 153.712C555.229 153.712 556.981 154.372 558.205 155.692C559.429 157.012 560.041 159.04 560.041 161.776V172H555.721L555.361 170.164H555.217C554.473 170.836 553.669 171.388 552.805 171.82C551.965 172.228 551.041 172.432 550.033 172.432ZM551.833 168.328C552.433 168.328 552.949 168.196 553.381 167.932C553.837 167.644 554.293 167.272 554.749 166.816V163.684C552.877 163.924 551.581 164.308 550.861 164.836C550.141 165.34 549.781 165.94 549.781 166.636C549.781 167.212 549.961 167.644 550.321 167.932C550.705 168.196 551.209 168.328 551.833 168.328ZM568.622 172L562.61 154.144H567.938L570.242 162.568C570.482 163.456 570.71 164.368 570.926 165.304C571.166 166.216 571.406 167.14 571.646 168.076H571.79C572.006 167.14 572.222 166.216 572.438 165.304C572.678 164.368 572.918 163.456 573.158 162.568L575.498 154.144H580.574L574.742 172H568.622ZM583.361 172V154.144H587.681L588.041 156.412H588.185C588.953 155.692 589.793 155.068 590.705 154.54C591.641 153.988 592.709 153.712 593.909 153.712C595.853 153.712 597.257 154.36 598.121 155.656C599.009 156.928 599.453 158.68 599.453 160.912V172H594.161V161.596C594.161 160.3 593.981 159.412 593.621 158.932C593.285 158.452 592.733 158.212 591.965 158.212C591.293 158.212 590.717 158.368 590.237 158.68C589.757 158.968 589.229 159.388 588.653 159.94V172H583.361ZM609.327 172.432C607.383 172.432 605.967 171.796 605.079 170.524C604.215 169.228 603.783 167.464 603.783 165.232V154.144H609.075V164.548C609.075 165.82 609.255 166.708 609.615 167.212C609.975 167.692 610.539 167.932 611.307 167.932C611.979 167.932 612.543 167.776 612.999 167.464C613.455 167.152 613.947 166.648 614.475 165.952V154.144H619.767V172H615.447L615.051 169.516H614.943C614.199 170.404 613.383 171.112 612.495 171.64C611.607 172.168 610.551 172.432 609.327 172.432ZM612.243 151.408L609.651 148.816L615.195 142.264L618.759 145.756L612.243 151.408ZM635.735 172L629.723 154.144H635.051L637.355 162.568C637.595 163.456 637.823 164.368 638.039 165.304C638.279 166.216 638.519 167.14 638.759 168.076H638.903C639.119 167.14 639.335 166.216 639.551 165.304C639.791 164.368 640.031 163.456 640.271 162.568L642.611 154.144H647.687L641.855 172H635.735ZM648.483 172V169.156L655.971 158.284H649.311V154.144H662.559V156.952L655.071 167.86H662.811V172H648.483ZM672.034 172.432C669.826 172.432 668.05 171.604 666.706 169.948C665.386 168.268 664.726 165.976 664.726 163.072C664.726 161.128 665.074 159.46 665.77 158.068C666.49 156.652 667.414 155.572 668.542 154.828C669.694 154.084 670.894 153.712 672.142 153.712C673.126 153.712 673.954 153.88 674.626 154.216C675.298 154.552 675.934 155.008 676.534 155.584L676.318 152.848V146.764H681.61V172H677.29L676.93 170.236H676.786C676.162 170.86 675.43 171.388 674.59 171.82C673.75 172.228 672.898 172.432 672.034 172.432ZM673.402 168.112C673.978 168.112 674.494 167.992 674.95 167.752C675.43 167.512 675.886 167.092 676.318 166.492V159.184C675.862 158.752 675.37 158.452 674.842 158.284C674.338 158.116 673.846 158.032 673.366 158.032C672.526 158.032 671.782 158.44 671.134 159.256C670.486 160.048 670.162 161.296 670.162 163C670.162 164.752 670.438 166.048 670.99 166.888C671.566 167.704 672.37 168.112 673.402 168.112ZM694.291 172.432C692.587 172.432 691.051 172.06 689.683 171.316C688.315 170.572 687.235 169.504 686.443 168.112C685.651 166.72 685.255 165.04 685.255 163.072C685.255 161.128 685.651 159.46 686.443 158.068C687.259 156.676 688.315 155.608 689.611 154.864C690.907 154.096 692.263 153.712 693.679 153.712C695.383 153.712 696.787 154.096 697.891 154.864C699.019 155.608 699.859 156.628 700.411 157.924C700.987 159.196 701.275 160.648 701.275 162.28C701.275 162.736 701.251 163.192 701.203 163.648C701.155 164.08 701.107 164.404 701.059 164.62H690.367C690.607 165.916 691.147 166.876 691.987 167.5C692.827 168.1 693.835 168.4 695.011 168.4C696.283 168.4 697.567 168.004 698.863 167.212L700.627 170.416C699.715 171.04 698.695 171.532 697.567 171.892C696.439 172.252 695.347 172.432 694.291 172.432ZM690.331 161.128H696.775C696.775 160.144 696.535 159.34 696.055 158.716C695.599 158.068 694.843 157.744 693.787 157.744C692.971 157.744 692.239 158.032 691.591 158.608C690.943 159.16 690.523 160 690.331 161.128ZM709.792 172.432C707.968 172.432 706.696 171.892 705.976 170.812C705.28 169.708 704.932 168.256 704.932 166.456V146.764H710.224V166.672C710.224 167.224 710.32 167.608 710.512 167.824C710.728 168.04 710.944 168.148 711.16 168.148C711.28 168.148 711.376 168.148 711.448 168.148C711.544 168.124 711.664 168.1 711.808 168.076L712.456 172C712.168 172.12 711.796 172.216 711.34 172.288C710.908 172.384 710.392 172.432 709.792 172.432ZM719.733 172.432C718.101 172.432 716.805 171.916 715.845 170.884C714.885 169.828 714.405 168.544 714.405 167.032C714.405 165.16 715.197 163.696 716.781 162.64C718.365 161.584 720.921 160.876 724.449 160.516C724.401 159.724 724.161 159.1 723.729 158.644C723.321 158.164 722.625 157.924 721.641 157.924C720.897 157.924 720.141 158.068 719.373 158.356C718.605 158.644 717.789 159.04 716.925 159.544L715.017 156.052C716.145 155.356 717.345 154.792 718.617 154.36C719.913 153.928 721.257 153.712 722.649 153.712C724.929 153.712 726.681 154.372 727.905 155.692C729.129 157.012 729.741 159.04 729.741 161.776V172H725.421L725.061 170.164H724.917C724.173 170.836 723.369 171.388 722.505 171.82C721.665 172.228 720.741 172.432 719.733 172.432ZM721.533 168.328C722.133 168.328 722.649 168.196 723.081 167.932C723.537 167.644 723.993 167.272 724.449 166.816V163.684C722.577 163.924 721.281 164.308 720.561 164.836C719.841 165.34 719.481 165.94 719.481 166.636C719.481 167.212 719.661 167.644 720.021 167.932C720.405 168.196 720.909 168.328 721.533 168.328ZM723.189 151.408L720.597 148.816L726.141 142.264L729.705 145.756L723.189 151.408ZM738.321 172L732.309 154.144H737.637L739.941 162.568C740.181 163.456 740.409 164.368 740.625 165.304C740.865 166.216 741.105 167.14 741.345 168.076H741.489C741.705 167.14 741.921 166.216 742.137 165.304C742.377 164.368 742.617 163.456 742.857 162.568L745.197 154.144H750.273L744.441 172H738.321ZM756.858 172.432C755.226 172.432 753.93 171.916 752.97 170.884C752.01 169.828 751.53 168.544 751.53 167.032C751.53 165.16 752.322 163.696 753.906 162.64C755.49 161.584 758.046 160.876 761.574 160.516C761.526 159.724 761.286 159.1 760.854 158.644C760.446 158.164 759.75 157.924 758.766 157.924C758.022 157.924 757.266 158.068 756.498 158.356C755.73 158.644 754.914 159.04 754.05 159.544L752.142 156.052C753.27 155.356 754.47 154.792 755.742 154.36C757.038 153.928 758.382 153.712 759.774 153.712C762.054 153.712 763.806 154.372 765.03 155.692C766.254 157.012 766.866 159.04 766.866 161.776V172H762.546L762.186 170.164H762.042C761.298 170.836 760.494 171.388 759.63 171.82C758.79 172.228 757.866 172.432 756.858 172.432ZM758.658 168.328C759.258 168.328 759.774 168.196 760.206 167.932C760.662 167.644 761.118 167.272 761.574 166.816V163.684C759.702 163.924 758.406 164.308 757.686 164.836C756.966 165.34 756.606 165.94 756.606 166.636C756.606 167.212 756.786 167.644 757.146 167.932C757.53 168.196 758.034 168.328 758.658 168.328ZM779.118 172.432C777.462 172.432 775.962 172.072 774.618 171.352C773.298 170.608 772.242 169.54 771.45 168.148C770.682 166.732 770.298 165.04 770.298 163.072C770.298 161.08 770.73 159.388 771.594 157.996C772.458 156.604 773.598 155.548 775.014 154.828C776.43 154.084 777.954 153.712 779.586 153.712C780.69 153.712 781.662 153.892 782.502 154.252C783.366 154.612 784.134 155.068 784.806 155.62L782.322 159.04C781.482 158.344 780.678 157.996 779.91 157.996C778.638 157.996 777.618 158.452 776.85 159.364C776.106 160.276 775.734 161.512 775.734 163.072C775.734 164.608 776.106 165.844 776.85 166.78C777.618 167.692 778.578 168.148 779.73 168.148C780.306 168.148 780.87 168.028 781.422 167.788C781.974 167.524 782.478 167.212 782.934 166.852L785.022 170.308C784.134 171.076 783.174 171.628 782.142 171.964C781.11 172.276 780.102 172.432 779.118 172.432ZM788.147 172V154.144H793.439V172H788.147ZM790.775 151.516C789.887 151.516 789.167 151.264 788.615 150.76C788.063 150.256 787.787 149.584 787.787 148.744C787.787 147.904 788.063 147.232 788.615 146.728C789.167 146.224 789.887 145.972 790.775 145.972C791.663 145.972 792.383 146.224 792.935 146.728C793.487 147.232 793.763 147.904 793.763 148.744C793.763 149.584 793.487 150.256 792.935 150.76C792.383 151.264 791.663 151.516 790.775 151.516ZM803.46 172.432C801.516 172.432 800.1 171.796 799.212 170.524C798.348 169.228 797.916 167.464 797.916 165.232V154.144H803.208V164.548C803.208 165.82 803.388 166.708 803.748 167.212C804.108 167.692 804.672 167.932 805.44 167.932C806.112 167.932 806.676 167.776 807.132 167.464C807.588 167.152 808.08 166.648 808.608 165.952V154.144H813.9V172H809.58L809.184 169.516H809.076C808.332 170.404 807.516 171.112 806.628 171.64C805.74 172.168 804.684 172.432 803.46 172.432ZM176.305 212.432C174.673 212.432 173.377 211.916 172.417 210.884C171.457 209.828 170.977 208.544 170.977 207.032C170.977 205.16 171.769 203.696 173.353 202.64C174.937 201.584 177.493 200.876 181.021 200.516C180.973 199.724 180.733 199.1 180.301 198.644C179.893 198.164 179.197 197.924 178.213 197.924C177.469 197.924 176.713 198.068 175.945 198.356C175.177 198.644 174.361 199.04 173.497 199.544L171.589 196.052C172.717 195.356 173.917 194.792 175.189 194.36C176.485 193.928 177.829 193.712 179.221 193.712C181.501 193.712 183.253 194.372 184.477 195.692C185.701 197.012 186.313 199.04 186.313 201.776V212H181.993L181.633 210.164H181.489C180.745 210.836 179.941 211.388 179.077 211.82C178.237 212.228 177.313 212.432 176.305 212.432ZM178.105 208.328C178.705 208.328 179.221 208.196 179.653 207.932C180.109 207.644 180.565 207.272 181.021 206.816V203.684C179.149 203.924 177.853 204.308 177.133 204.836C176.413 205.34 176.053 205.94 176.053 206.636C176.053 207.212 176.233 207.644 176.593 207.932C176.977 208.196 177.481 208.328 178.105 208.328ZM190.789 218.624V194.144H195.109L195.469 195.908H195.613C196.309 195.284 197.089 194.768 197.953 194.36C198.841 193.928 199.753 193.712 200.689 193.712C202.849 193.712 204.553 194.54 205.801 196.196C207.049 197.828 207.673 200.024 207.673 202.784C207.673 204.824 207.313 206.564 206.593 208.004C205.873 209.444 204.937 210.548 203.785 211.316C202.657 212.06 201.445 212.432 200.149 212.432C199.381 212.432 198.637 212.276 197.917 211.964C197.197 211.628 196.525 211.16 195.901 210.56L196.081 213.404V218.624H190.789ZM198.925 208.112C199.837 208.112 200.617 207.692 201.265 206.852C201.913 206.012 202.237 204.68 202.237 202.856C202.237 199.64 201.205 198.032 199.141 198.032C198.109 198.032 197.089 198.572 196.081 199.652V206.96C196.561 207.392 197.041 207.692 197.521 207.86C198.001 208.028 198.469 208.112 198.925 208.112ZM216.286 212.432C214.462 212.432 213.19 211.892 212.47 210.812C211.774 209.708 211.426 208.256 211.426 206.456V186.764H216.718V206.672C216.718 207.224 216.814 207.608 217.006 207.824C217.222 208.04 217.438 208.148 217.654 208.148C217.774 208.148 217.87 208.148 217.942 208.148C218.038 208.124 218.158 208.1 218.302 208.076L218.95 212C218.662 212.12 218.29 212.216 217.834 212.288C217.402 212.384 216.886 212.432 216.286 212.432ZM221.727 212V194.144H227.019V212H221.727ZM224.355 191.516C223.467 191.516 222.747 191.264 222.195 190.76C221.643 190.256 221.367 189.584 221.367 188.744C221.367 187.904 221.643 187.232 222.195 186.728C222.747 186.224 223.467 185.972 224.355 185.972C225.243 185.972 225.963 186.224 226.515 186.728C227.067 187.232 227.343 187.904 227.343 188.744C227.343 189.584 227.067 190.256 226.515 190.76C225.963 191.264 225.243 191.516 224.355 191.516ZM231.676 212V186.764H236.824V201.236H236.968L242.62 194.144H248.38L242.116 201.488L248.848 212H243.124L239.092 205.052L236.824 207.608V212H231.676ZM255.547 212.432C253.915 212.432 252.619 211.916 251.659 210.884C250.699 209.828 250.219 208.544 250.219 207.032C250.219 205.16 251.011 203.696 252.595 202.64C254.179 201.584 256.735 200.876 260.263 200.516C260.215 199.724 259.975 199.1 259.543 198.644C259.135 198.164 258.439 197.924 257.455 197.924C256.711 197.924 255.955 198.068 255.187 198.356C254.419 198.644 253.603 199.04 252.739 199.544L250.831 196.052C251.959 195.356 253.159 194.792 254.431 194.36C255.727 193.928 257.071 193.712 258.463 193.712C260.743 193.712 262.495 194.372 263.719 195.692C264.943 197.012 265.555 199.04 265.555 201.776V212H261.235L260.875 210.164H260.731C259.987 210.836 259.183 211.388 258.319 211.82C257.479 212.228 256.555 212.432 255.547 212.432ZM257.347 208.328C257.947 208.328 258.463 208.196 258.895 207.932C259.351 207.644 259.807 207.272 260.263 206.816V203.684C258.391 203.924 257.095 204.308 256.375 204.836C255.655 205.34 255.295 205.94 255.295 206.636C255.295 207.212 255.475 207.644 255.835 207.932C256.219 208.196 256.723 208.328 257.347 208.328ZM259.003 191.408L256.411 188.816L261.955 182.264L265.519 185.756L259.003 191.408ZM277.807 212.432C276.151 212.432 274.651 212.072 273.307 211.352C271.987 210.608 270.931 209.54 270.139 208.148C269.371 206.732 268.987 205.04 268.987 203.072C268.987 201.08 269.419 199.388 270.283 197.996C271.147 196.604 272.287 195.548 273.703 194.828C275.119 194.084 276.643 193.712 278.275 193.712C279.379 193.712 280.351 193.892 281.191 194.252C282.055 194.612 282.823 195.068 283.495 195.62L281.011 199.04C280.171 198.344 279.367 197.996 278.599 197.996C277.327 197.996 276.307 198.452 275.539 199.364C274.795 200.276 274.423 201.512 274.423 203.072C274.423 204.608 274.795 205.844 275.539 206.78C276.307 207.692 277.267 208.148 278.419 208.148C278.995 208.148 279.559 208.028 280.111 207.788C280.663 207.524 281.167 207.212 281.623 206.852L283.711 210.308C282.823 211.076 281.863 211.628 280.831 211.964C279.799 212.276 278.791 212.432 277.807 212.432ZM286.836 212V194.144H292.128V212H286.836ZM289.464 191.516C288.576 191.516 287.856 191.264 287.304 190.76C286.752 190.256 286.476 189.584 286.476 188.744C286.476 187.904 286.752 187.232 287.304 186.728C287.856 186.224 288.576 185.972 289.464 185.972C290.352 185.972 291.072 186.224 291.624 186.728C292.176 187.232 292.452 187.904 292.452 188.744C292.452 189.584 292.176 190.256 291.624 190.76C291.072 191.264 290.352 191.516 289.464 191.516ZM302.149 212.432C300.205 212.432 298.789 211.796 297.901 210.524C297.037 209.228 296.605 207.464 296.605 205.232V194.144H301.897V204.548C301.897 205.82 302.077 206.708 302.437 207.212C302.797 207.692 303.361 207.932 304.129 207.932C304.801 207.932 305.365 207.776 305.821 207.464C306.277 207.152 306.769 206.648 307.297 205.952V194.144H312.589V212H308.269L307.873 209.516H307.765C307.021 210.404 306.205 211.112 305.317 211.64C304.429 212.168 303.373 212.432 302.149 212.432ZM324.453 218.624V194.144H328.773L329.133 195.908H329.277C329.973 195.284 330.753 194.768 331.617 194.36C332.505 193.928 333.417 193.712 334.353 193.712C336.513 193.712 338.217 194.54 339.465 196.196C340.713 197.828 341.337 200.024 341.337 202.784C341.337 204.824 340.977 206.564 340.257 208.004C339.537 209.444 338.601 210.548 337.449 211.316C336.321 212.06 335.109 212.432 333.813 212.432C333.045 212.432 332.301 212.276 331.581 211.964C330.861 211.628 330.189 211.16 329.565 210.56L329.745 213.404V218.624H324.453ZM332.589 208.112C333.501 208.112 334.281 207.692 334.929 206.852C335.577 206.012 335.901 204.68 335.901 202.856C335.901 199.64 334.869 198.032 332.805 198.032C331.773 198.032 330.753 198.572 329.745 199.652V206.96C330.225 207.392 330.705 207.692 331.185 207.86C331.665 208.028 332.133 208.112 332.589 208.112ZM345.09 212V194.144H349.41L349.77 197.276H349.914C350.562 196.076 351.342 195.188 352.254 194.612C353.166 194.012 354.078 193.712 354.99 193.712C355.494 193.712 355.914 193.748 356.25 193.82C356.586 193.868 356.874 193.952 357.114 194.072L356.25 198.644C355.938 198.548 355.626 198.476 355.314 198.428C355.026 198.38 354.69 198.356 354.306 198.356C353.634 198.356 352.926 198.608 352.182 199.112C351.462 199.592 350.862 200.432 350.382 201.632V212H345.09ZM367.074 212.432C365.37 212.432 363.834 212.06 362.466 211.316C361.098 210.572 360.018 209.504 359.226 208.112C358.434 206.72 358.038 205.04 358.038 203.072C358.038 201.128 358.434 199.46 359.226 198.068C360.042 196.676 361.098 195.608 362.394 194.864C363.69 194.096 365.046 193.712 366.462 193.712C368.166 193.712 369.57 194.096 370.674 194.864C371.802 195.608 372.642 196.628 373.194 197.924C373.77 199.196 374.058 200.648 374.058 202.28C374.058 202.736 374.034 203.192 373.986 203.648C373.938 204.08 373.89 204.404 373.842 204.62H363.15C363.39 205.916 363.93 206.876 364.77 207.5C365.61 208.1 366.618 208.4 367.794 208.4C369.066 208.4 370.35 208.004 371.646 207.212L373.41 210.416C372.498 211.04 371.478 211.532 370.35 211.892C369.222 212.252 368.13 212.432 367.074 212.432ZM363.114 201.128H369.558C369.558 200.144 369.318 199.34 368.838 198.716C368.382 198.068 367.626 197.744 366.57 197.744C365.754 197.744 365.022 198.032 364.374 198.608C363.726 199.16 363.306 200 363.114 201.128ZM391.294 212.432C389.086 212.432 387.31 211.604 385.966 209.948C384.646 208.268 383.986 205.976 383.986 203.072C383.986 201.128 384.334 199.46 385.03 198.068C385.75 196.652 386.674 195.572 387.802 194.828C388.954 194.084 390.154 193.712 391.402 193.712C392.386 193.712 393.214 193.88 393.886 194.216C394.558 194.552 395.194 195.008 395.794 195.584L395.578 192.848V186.764H400.87V212H396.55L396.19 210.236H396.046C395.422 210.86 394.69 211.388 393.85 211.82C393.01 212.228 392.158 212.432 391.294 212.432ZM392.662 208.112C393.238 208.112 393.754 207.992 394.21 207.752C394.69 207.512 395.146 207.092 395.578 206.492V199.184C395.122 198.752 394.63 198.452 394.102 198.284C393.598 198.116 393.106 198.032 392.626 198.032C391.786 198.032 391.042 198.44 390.394 199.256C389.746 200.048 389.422 201.296 389.422 203C389.422 204.752 389.698 206.048 390.25 206.888C390.826 207.704 391.63 208.112 392.662 208.112ZM413.551 212.432C411.847 212.432 410.311 212.06 408.943 211.316C407.575 210.572 406.495 209.504 405.703 208.112C404.911 206.72 404.515 205.04 404.515 203.072C404.515 201.128 404.911 199.46 405.703 198.068C406.519 196.676 407.575 195.608 408.871 194.864C410.167 194.096 411.523 193.712 412.939 193.712C414.643 193.712 416.047 194.096 417.151 194.864C418.279 195.608 419.119 196.628 419.671 197.924C420.247 199.196 420.535 200.648 420.535 202.28C420.535 202.736 420.511 203.192 420.463 203.648C420.415 204.08 420.367 204.404 420.319 204.62H409.627C409.867 205.916 410.407 206.876 411.247 207.5C412.087 208.1 413.095 208.4 414.271 208.4C415.543 208.4 416.827 208.004 418.123 207.212L419.887 210.416C418.975 211.04 417.955 211.532 416.827 211.892C415.699 212.252 414.607 212.432 413.551 212.432ZM409.591 201.128H416.035C416.035 200.144 415.795 199.34 415.315 198.716C414.859 198.068 414.103 197.744 413.047 197.744C412.231 197.744 411.499 198.032 410.851 198.608C410.203 199.16 409.783 200 409.591 201.128ZM430.716 212.432C428.508 212.432 426.924 211.796 425.964 210.524C425.028 209.252 424.56 207.584 424.56 205.52V198.284H422.112V194.36L424.848 194.144L425.46 189.392H429.852V194.144H434.136V198.284H429.852V205.448C429.852 206.456 430.056 207.188 430.464 207.644C430.896 208.076 431.46 208.292 432.156 208.292C432.444 208.292 432.732 208.256 433.02 208.184C433.332 208.112 433.608 208.028 433.848 207.932L434.676 211.784C434.22 211.928 433.656 212.072 432.984 212.216C432.336 212.36 431.58 212.432 430.716 212.432ZM437.621 212V194.144H442.913V212H437.621ZM440.249 191.516C439.361 191.516 438.641 191.264 438.089 190.76C437.537 190.256 437.261 189.584 437.261 188.744C437.261 187.904 437.537 187.232 438.089 186.728C438.641 186.224 439.361 185.972 440.249 185.972C441.137 185.972 441.857 186.224 442.409 186.728C442.961 187.232 443.237 187.904 443.237 188.744C443.237 189.584 442.961 190.256 442.409 190.76C441.857 191.264 441.137 191.516 440.249 191.516ZM453.806 212V209.156L461.294 198.284H454.634V194.144H467.882V196.952L460.394 207.86H468.134V212H453.806ZM486.211 212.432C484.699 212.432 483.271 212.072 481.927 211.352C480.607 210.608 479.539 209.54 478.723 208.148C477.907 206.732 477.499 205.04 477.499 203.072C477.499 201.08 477.907 199.388 478.723 197.996C479.539 196.604 480.607 195.548 481.927 194.828C483.271 194.084 484.699 193.712 486.211 193.712C487.723 193.712 489.139 194.084 490.459 194.828C491.779 195.548 492.847 196.604 493.663 197.996C494.479 199.388 494.887 201.08 494.887 203.072C494.887 205.04 494.479 206.732 493.663 208.148C492.847 209.54 491.779 210.608 490.459 211.352C489.139 212.072 487.723 212.432 486.211 212.432ZM486.211 208.148C487.291 208.148 488.107 207.692 488.659 206.78C489.211 205.844 489.487 204.608 489.487 203.072C489.487 201.512 489.211 200.276 488.659 199.364C488.107 198.452 487.291 197.996 486.211 197.996C485.107 197.996 484.279 198.452 483.727 199.364C483.199 200.276 482.935 201.512 482.935 203.072C482.935 204.608 483.199 205.844 483.727 206.78C484.279 207.692 485.107 208.148 486.211 208.148ZM507.872 212.432C507.08 212.432 506.276 212.24 505.46 211.856C504.668 211.448 503.924 210.86 503.228 210.092H503.084L502.652 212H498.512V186.764H503.804V192.956L503.66 195.692C504.356 195.068 505.112 194.588 505.928 194.252C506.744 193.892 507.56 193.712 508.376 193.712C509.816 193.712 511.064 194.084 512.12 194.828C513.176 195.572 513.98 196.628 514.532 197.996C515.108 199.34 515.396 200.924 515.396 202.748C515.396 204.788 515.036 206.54 514.316 208.004C513.596 209.444 512.66 210.548 511.508 211.316C510.38 212.06 509.168 212.432 507.872 212.432ZM506.648 208.112C507.56 208.112 508.34 207.692 508.988 206.852C509.636 206.012 509.96 204.68 509.96 202.856C509.96 199.64 508.928 198.032 506.864 198.032C505.808 198.032 504.788 198.572 503.804 199.652V206.96C504.284 207.392 504.764 207.692 505.244 207.86C505.724 208.028 506.192 208.112 506.648 208.112ZM524.009 212.432C522.185 212.432 520.913 211.892 520.193 210.812C519.497 209.708 519.149 208.256 519.149 206.456V186.764H524.441V206.672C524.441 207.224 524.537 207.608 524.729 207.824C524.945 208.04 525.161 208.148 525.377 208.148C525.497 208.148 525.593 208.148 525.665 208.148C525.761 208.124 525.881 208.1 526.025 208.076L526.673 212C526.385 212.12 526.013 212.216 525.557 212.288C525.125 212.384 524.609 212.432 524.009 212.432ZM533.949 212.432C532.317 212.432 531.021 211.916 530.061 210.884C529.101 209.828 528.621 208.544 528.621 207.032C528.621 205.16 529.413 203.696 530.997 202.64C532.581 201.584 535.137 200.876 538.665 200.516C538.617 199.724 538.377 199.1 537.945 198.644C537.537 198.164 536.841 197.924 535.857 197.924C535.113 197.924 534.357 198.068 533.589 198.356C532.821 198.644 532.005 199.04 531.141 199.544L529.233 196.052C530.361 195.356 531.561 194.792 532.833 194.36C534.129 193.928 535.473 193.712 536.865 193.712C539.145 193.712 540.897 194.372 542.121 195.692C543.345 197.012 543.957 199.04 543.957 201.776V212H539.637L539.277 210.164H539.133C538.389 210.836 537.585 211.388 536.721 211.82C535.881 212.228 534.957 212.432 533.949 212.432ZM535.749 208.328C536.349 208.328 536.865 208.196 537.297 207.932C537.753 207.644 538.209 207.272 538.665 206.816V203.684C536.793 203.924 535.497 204.308 534.777 204.836C534.057 205.34 533.697 205.94 533.697 206.636C533.697 207.212 533.877 207.644 534.237 207.932C534.621 208.196 535.125 208.328 535.749 208.328ZM553.69 212.432C552.514 212.432 551.302 212.204 550.054 211.748C548.83 211.292 547.762 210.692 546.85 209.948L549.226 206.636C550.042 207.236 550.822 207.704 551.566 208.04C552.334 208.352 553.09 208.508 553.834 208.508C554.626 208.508 555.202 208.376 555.562 208.112C555.922 207.824 556.102 207.452 556.102 206.996C556.102 206.588 555.922 206.252 555.562 205.988C555.226 205.724 554.782 205.484 554.23 205.268C553.678 205.028 553.09 204.788 552.466 204.548C551.746 204.26 551.026 203.9 550.306 203.468C549.61 203.036 549.022 202.484 548.542 201.812C548.062 201.116 547.822 200.276 547.822 199.292C547.822 197.636 548.446 196.292 549.694 195.26C550.966 194.228 552.622 193.712 554.662 193.712C556.03 193.712 557.23 193.952 558.262 194.432C559.318 194.888 560.218 195.404 560.962 195.98L558.586 199.148C557.962 198.668 557.338 198.296 556.714 198.032C556.09 197.768 555.466 197.636 554.842 197.636C553.474 197.636 552.79 198.104 552.79 199.04C552.79 199.616 553.126 200.06 553.798 200.372C554.494 200.66 555.298 200.972 556.21 201.308C556.978 201.572 557.722 201.92 558.442 202.352C559.186 202.76 559.798 203.312 560.278 204.008C560.782 204.68 561.034 205.568 561.034 206.672C561.034 208.28 560.41 209.648 559.162 210.776C557.914 211.88 556.09 212.432 553.69 212.432ZM570.568 212.432C568.36 212.432 566.776 211.796 565.816 210.524C564.88 209.252 564.412 207.584 564.412 205.52V198.284H561.964V194.36L564.7 194.144L565.312 189.392H569.704V194.144H573.988V198.284H569.704V205.448C569.704 206.456 569.908 207.188 570.316 207.644C570.748 208.076 571.312 208.292 572.008 208.292C572.296 208.292 572.584 208.256 572.872 208.184C573.184 208.112 573.46 208.028 573.7 207.932L574.528 211.784C574.072 211.928 573.508 212.072 572.836 212.216C572.188 212.36 571.432 212.432 570.568 212.432ZM577.473 212V194.144H582.765V212H577.473ZM580.101 191.516C579.213 191.516 578.493 191.264 577.941 190.76C577.389 190.256 577.113 189.584 577.113 188.744C577.113 187.904 577.389 187.232 577.941 186.728C578.493 186.224 579.213 185.972 580.101 185.972C580.989 185.972 581.709 186.224 582.261 186.728C582.813 187.232 583.089 187.904 583.089 188.744C583.089 189.584 582.813 190.256 582.261 190.76C581.709 191.264 580.989 191.516 580.101 191.516ZM603.989 212.432C603.197 212.432 602.393 212.24 601.577 211.856C600.785 211.448 600.041 210.86 599.345 210.092H599.201L598.769 212H594.629V186.764H599.921V192.956L599.777 195.692C600.473 195.068 601.229 194.588 602.045 194.252C602.861 193.892 603.677 193.712 604.493 193.712C605.933 193.712 607.181 194.084 608.237 194.828C609.293 195.572 610.097 196.628 610.649 197.996C611.225 199.34 611.513 200.924 611.513 202.748C611.513 204.788 611.153 206.54 610.433 208.004C609.713 209.444 608.777 210.548 607.625 211.316C606.497 212.06 605.285 212.432 603.989 212.432ZM602.765 208.112C603.677 208.112 604.457 207.692 605.105 206.852C605.753 206.012 606.077 204.68 606.077 202.856C606.077 199.64 605.045 198.032 602.981 198.032C601.925 198.032 600.905 198.572 599.921 199.652V206.96C600.401 207.392 600.881 207.692 601.361 207.86C601.841 208.028 602.309 208.112 602.765 208.112ZM623.258 212.432C621.554 212.432 620.018 212.06 618.65 211.316C617.282 210.572 616.202 209.504 615.41 208.112C614.618 206.72 614.222 205.04 614.222 203.072C614.222 201.128 614.618 199.46 615.41 198.068C616.226 196.676 617.282 195.608 618.578 194.864C619.874 194.096 621.23 193.712 622.646 193.712C624.35 193.712 625.754 194.096 626.858 194.864C627.986 195.608 628.826 196.628 629.378 197.924C629.954 199.196 630.242 200.648 630.242 202.28C630.242 202.736 630.218 203.192 630.17 203.648C630.122 204.08 630.074 204.404 630.026 204.62H619.334C619.574 205.916 620.114 206.876 620.954 207.5C621.794 208.1 622.802 208.4 623.978 208.4C625.25 208.4 626.534 208.004 627.83 207.212L629.594 210.416C628.682 211.04 627.662 211.532 626.534 211.892C625.406 212.252 624.314 212.432 623.258 212.432ZM619.298 201.128H625.742C625.742 200.144 625.502 199.34 625.022 198.716C624.566 198.068 623.81 197.744 622.754 197.744C621.938 197.744 621.206 198.032 620.558 198.608C619.91 199.16 619.49 200 619.298 201.128ZM632.681 212V209.156L640.169 198.284H633.509V194.144H646.757V196.952L639.269 207.86H647.009V212H632.681ZM650.211 218.624V194.144H654.531L654.891 195.908H655.035C655.731 195.284 656.511 194.768 657.375 194.36C658.263 193.928 659.175 193.712 660.111 193.712C662.271 193.712 663.975 194.54 665.223 196.196C666.471 197.828 667.095 200.024 667.095 202.784C667.095 204.824 666.735 206.564 666.015 208.004C665.295 209.444 664.359 210.548 663.207 211.316C662.079 212.06 660.867 212.432 659.571 212.432C658.803 212.432 658.059 212.276 657.339 211.964C656.619 211.628 655.947 211.16 655.323 210.56L655.503 213.404V218.624H650.211ZM658.347 208.112C659.259 208.112 660.039 207.692 660.687 206.852C661.335 206.012 661.659 204.68 661.659 202.856C661.659 199.64 660.627 198.032 658.563 198.032C657.531 198.032 656.511 198.572 655.503 199.652V206.96C655.983 207.392 656.463 207.692 656.943 207.86C657.423 208.028 657.891 208.112 658.347 208.112ZM678.84 212.432C677.136 212.432 675.6 212.06 674.232 211.316C672.864 210.572 671.784 209.504 670.992 208.112C670.2 206.72 669.804 205.04 669.804 203.072C669.804 201.128 670.2 199.46 670.992 198.068C671.808 196.676 672.864 195.608 674.16 194.864C675.456 194.096 676.812 193.712 678.228 193.712C679.932 193.712 681.336 194.096 682.44 194.864C683.568 195.608 684.408 196.628 684.96 197.924C685.536 199.196 685.824 200.648 685.824 202.28C685.824 202.736 685.8 203.192 685.752 203.648C685.704 204.08 685.656 204.404 685.608 204.62H674.916C675.156 205.916 675.696 206.876 676.536 207.5C677.376 208.1 678.384 208.4 679.56 208.4C680.832 208.4 682.116 208.004 683.412 207.212L685.176 210.416C684.264 211.04 683.244 211.532 682.116 211.892C680.988 212.252 679.896 212.432 678.84 212.432ZM674.88 201.128H681.324C681.324 200.144 681.084 199.34 680.604 198.716C680.148 198.068 679.392 197.744 678.336 197.744C677.52 197.744 676.788 198.032 676.14 198.608C675.492 199.16 675.072 200 674.88 201.128ZM697.257 212.432C695.601 212.432 694.101 212.072 692.757 211.352C691.437 210.608 690.381 209.54 689.589 208.148C688.821 206.732 688.437 205.04 688.437 203.072C688.437 201.08 688.869 199.388 689.733 197.996C690.597 196.604 691.737 195.548 693.153 194.828C694.569 194.084 696.093 193.712 697.725 193.712C698.829 193.712 699.801 193.892 700.641 194.252C701.505 194.612 702.273 195.068 702.945 195.62L700.461 199.04C699.621 198.344 698.817 197.996 698.049 197.996C696.777 197.996 695.757 198.452 694.989 199.364C694.245 200.276 693.873 201.512 693.873 203.072C693.873 204.608 694.245 205.844 694.989 206.78C695.757 207.692 696.717 208.148 697.869 208.148C698.445 208.148 699.009 208.028 699.561 207.788C700.113 207.524 700.617 207.212 701.073 206.852L703.161 210.308C702.273 211.076 701.313 211.628 700.281 211.964C699.249 212.276 698.241 212.432 697.257 212.432ZM694.449 191.228L690.561 186.512L692.577 184.64L697.077 187.952H697.221L701.721 184.64L703.737 186.512L699.849 191.228H694.449ZM706.285 212V194.144H710.605L710.965 196.412H711.109C711.877 195.692 712.717 195.068 713.629 194.54C714.565 193.988 715.633 193.712 716.833 193.712C718.777 193.712 720.181 194.36 721.045 195.656C721.933 196.928 722.377 198.68 722.377 200.912V212H717.085V201.596C717.085 200.3 716.905 199.412 716.545 198.932C716.209 198.452 715.657 198.212 714.889 198.212C714.217 198.212 713.641 198.368 713.161 198.68C712.681 198.968 712.153 199.388 711.577 199.94V212H706.285ZM734.555 212.432C733.043 212.432 731.615 212.072 730.271 211.352C728.951 210.608 727.883 209.54 727.067 208.148C726.251 206.732 725.843 205.04 725.843 203.072C725.843 201.08 726.251 199.388 727.067 197.996C727.883 196.604 728.951 195.548 730.271 194.828C731.615 194.084 733.043 193.712 734.555 193.712C736.067 193.712 737.483 194.084 738.803 194.828C740.123 195.548 741.191 196.604 742.007 197.996C742.823 199.388 743.231 201.08 743.231 203.072C743.231 205.04 742.823 206.732 742.007 208.148C741.191 209.54 740.123 210.608 738.803 211.352C737.483 212.072 736.067 212.432 734.555 212.432ZM734.555 208.148C735.635 208.148 736.451 207.692 737.003 206.78C737.555 205.844 737.831 204.608 737.831 203.072C737.831 201.512 737.555 200.276 737.003 199.364C736.451 198.452 735.635 197.996 734.555 197.996C733.451 197.996 732.623 198.452 732.071 199.364C731.543 200.276 731.279 201.512 731.279 203.072C731.279 204.608 731.543 205.844 732.071 206.78C732.623 207.692 733.451 208.148 734.555 208.148ZM751.936 212.432C750.76 212.432 749.548 212.204 748.3 211.748C747.076 211.292 746.008 210.692 745.096 209.948L747.472 206.636C748.288 207.236 749.068 207.704 749.812 208.04C750.58 208.352 751.336 208.508 752.08 208.508C752.872 208.508 753.448 208.376 753.808 208.112C754.168 207.824 754.348 207.452 754.348 206.996C754.348 206.588 754.168 206.252 753.808 205.988C753.472 205.724 753.028 205.484 752.476 205.268C751.924 205.028 751.336 204.788 750.712 204.548C749.992 204.26 749.272 203.9 748.552 203.468C747.856 203.036 747.268 202.484 746.788 201.812C746.308 201.116 746.068 200.276 746.068 199.292C746.068 197.636 746.692 196.292 747.94 195.26C749.212 194.228 750.868 193.712 752.908 193.712C754.276 193.712 755.476 193.952 756.508 194.432C757.564 194.888 758.464 195.404 759.208 195.98L756.832 199.148C756.208 198.668 755.584 198.296 754.96 198.032C754.336 197.768 753.712 197.636 753.088 197.636C751.72 197.636 751.036 198.104 751.036 199.04C751.036 199.616 751.372 200.06 752.044 200.372C752.74 200.66 753.544 200.972 754.456 201.308C755.224 201.572 755.968 201.92 756.688 202.352C757.432 202.76 758.044 203.312 758.524 204.008C759.028 204.68 759.28 205.568 759.28 206.672C759.28 208.28 758.656 209.648 757.408 210.776C756.16 211.88 754.336 212.432 751.936 212.432ZM768.814 212.432C766.606 212.432 765.022 211.796 764.062 210.524C763.126 209.252 762.658 207.584 762.658 205.52V198.284H760.21V194.36L762.946 194.144L763.558 189.392H767.95V194.144H772.234V198.284H767.95V205.448C767.95 206.456 768.154 207.188 768.562 207.644C768.994 208.076 769.558 208.292 770.254 208.292C770.542 208.292 770.83 208.256 771.118 208.184C771.43 208.112 771.706 208.028 771.946 207.932L772.774 211.784C772.318 211.928 771.754 212.072 771.082 212.216C770.434 212.36 769.678 212.432 768.814 212.432ZM775.719 212V194.144H781.011V212H775.719ZM778.347 191.516C777.459 191.516 776.739 191.264 776.187 190.76C775.635 190.256 775.359 189.584 775.359 188.744C775.359 187.904 775.635 187.232 776.187 186.728C776.739 186.224 777.459 185.972 778.347 185.972C779.235 185.972 779.955 186.224 780.507 186.728C781.059 187.232 781.335 187.904 781.335 188.744C781.335 189.584 781.059 190.256 780.507 190.76C779.955 191.264 779.235 191.516 778.347 191.516ZM349.93 252.432C348.274 252.432 346.774 252.072 345.43 251.352C344.11 250.608 343.054 249.54 342.262 248.148C341.494 246.732 341.11 245.04 341.11 243.072C341.11 241.08 341.542 239.388 342.406 237.996C343.27 236.604 344.41 235.548 345.826 234.828C347.242 234.084 348.766 233.712 350.398 233.712C351.502 233.712 352.474 233.892 353.314 234.252C354.178 234.612 354.946 235.068 355.618 235.62L353.134 239.04C352.294 238.344 351.49 237.996 350.722 237.996C349.45 237.996 348.43 238.452 347.662 239.364C346.918 240.276 346.546 241.512 346.546 243.072C346.546 244.608 346.918 245.844 347.662 246.78C348.43 247.692 349.39 248.148 350.542 248.148C351.118 248.148 351.682 248.028 352.234 247.788C352.786 247.524 353.29 247.212 353.746 246.852L355.834 250.308C354.946 251.076 353.986 251.628 352.954 251.964C351.922 252.276 350.914 252.432 349.93 252.432ZM365.932 252.432C364.228 252.432 362.692 252.06 361.324 251.316C359.956 250.572 358.876 249.504 358.084 248.112C357.292 246.72 356.896 245.04 356.896 243.072C356.896 241.128 357.292 239.46 358.084 238.068C358.9 236.676 359.956 235.608 361.252 234.864C362.548 234.096 363.904 233.712 365.32 233.712C367.024 233.712 368.428 234.096 369.532 234.864C370.66 235.608 371.5 236.628 372.052 237.924C372.628 239.196 372.916 240.648 372.916 242.28C372.916 242.736 372.892 243.192 372.844 243.648C372.796 244.08 372.748 244.404 372.7 244.62H362.008C362.248 245.916 362.788 246.876 363.628 247.5C364.468 248.1 365.476 248.4 366.652 248.4C367.924 248.4 369.208 248.004 370.504 247.212L372.268 250.416C371.356 251.04 370.336 251.532 369.208 251.892C368.08 252.252 366.988 252.432 365.932 252.432ZM361.972 241.128H368.416C368.416 240.144 368.176 239.34 367.696 238.716C367.24 238.068 366.484 237.744 365.428 237.744C364.612 237.744 363.88 238.032 363.232 238.608C362.584 239.16 362.164 240 361.972 241.128ZM381.828 252.432C380.652 252.432 379.44 252.204 378.192 251.748C376.968 251.292 375.9 250.692 374.988 249.948L377.364 246.636C378.18 247.236 378.96 247.704 379.704 248.04C380.472 248.352 381.228 248.508 381.972 248.508C382.764 248.508 383.34 248.376 383.7 248.112C384.06 247.824 384.24 247.452 384.24 246.996C384.24 246.588 384.06 246.252 383.7 245.988C383.364 245.724 382.92 245.484 382.368 245.268C381.816 245.028 381.228 244.788 380.604 244.548C379.884 244.26 379.164 243.9 378.444 243.468C377.748 243.036 377.16 242.484 376.68 241.812C376.2 241.116 375.96 240.276 375.96 239.292C375.96 237.636 376.584 236.292 377.832 235.26C379.104 234.228 380.76 233.712 382.8 233.712C384.168 233.712 385.368 233.952 386.4 234.432C387.456 234.888 388.356 235.404 389.1 235.98L386.724 239.148C386.1 238.668 385.476 238.296 384.852 238.032C384.228 237.768 383.604 237.636 382.98 237.636C381.612 237.636 380.928 238.104 380.928 239.04C380.928 239.616 381.264 240.06 381.936 240.372C382.632 240.66 383.436 240.972 384.348 241.308C385.116 241.572 385.86 241.92 386.58 242.352C387.324 242.76 387.936 243.312 388.416 244.008C388.92 244.68 389.172 245.568 389.172 246.672C389.172 248.28 388.548 249.648 387.3 250.776C386.052 251.88 384.228 252.432 381.828 252.432ZM398.706 252.432C396.498 252.432 394.914 251.796 393.954 250.524C393.018 249.252 392.55 247.584 392.55 245.52V238.284H390.102V234.36L392.838 234.144L393.45 229.392H397.842V234.144H402.126V238.284H397.842V245.448C397.842 246.456 398.046 247.188 398.454 247.644C398.886 248.076 399.45 248.292 400.146 248.292C400.434 248.292 400.722 248.256 401.01 248.184C401.322 248.112 401.598 248.028 401.838 247.932L402.666 251.784C402.21 251.928 401.646 252.072 400.974 252.216C400.326 252.36 399.57 252.432 398.706 252.432ZM405.611 252V234.144H409.931L410.291 236.412H410.435C411.203 235.692 412.043 235.068 412.955 234.54C413.891 233.988 414.959 233.712 416.159 233.712C418.103 233.712 419.507 234.36 420.371 235.656C421.259 236.928 421.703 238.68 421.703 240.912V252H416.411V241.596C416.411 240.3 416.231 239.412 415.871 238.932C415.535 238.452 414.983 238.212 414.215 238.212C413.543 238.212 412.967 238.368 412.487 238.68C412.007 238.968 411.479 239.388 410.903 239.94V252H405.611ZM434.205 252.432C432.501 252.432 430.965 252.06 429.597 251.316C428.229 250.572 427.149 249.504 426.357 248.112C425.565 246.72 425.169 245.04 425.169 243.072C425.169 241.128 425.565 239.46 426.357 238.068C427.173 236.676 428.229 235.608 429.525 234.864C430.821 234.096 432.177 233.712 433.593 233.712C435.297 233.712 436.701 234.096 437.805 234.864C438.933 235.608 439.773 236.628 440.325 237.924C440.901 239.196 441.189 240.648 441.189 242.28C441.189 242.736 441.165 243.192 441.117 243.648C441.069 244.08 441.021 244.404 440.973 244.62H430.281C430.521 245.916 431.061 246.876 431.901 247.5C432.741 248.1 433.749 248.4 434.925 248.4C436.197 248.4 437.481 248.004 438.777 247.212L440.541 250.416C439.629 251.04 438.609 251.532 437.481 251.892C436.353 252.252 435.261 252.432 434.205 252.432ZM430.245 241.128H436.689C436.689 240.144 436.449 239.34 435.969 238.716C435.513 238.068 434.757 237.744 433.701 237.744C432.885 237.744 432.153 238.032 431.505 238.608C430.857 239.16 430.437 240 430.245 241.128ZM443.802 259.056C443.058 259.056 442.446 259.008 441.966 258.912C441.462 258.816 441.03 258.696 440.67 258.552L441.606 254.664C441.846 254.736 442.086 254.796 442.326 254.844C442.542 254.892 442.77 254.916 443.01 254.916C443.706 254.916 444.186 254.676 444.45 254.196C444.738 253.74 444.882 253.02 444.882 252.036V234.144H450.174V251.892C450.174 253.188 449.982 254.376 449.598 255.456C449.214 256.536 448.554 257.4 447.618 258.048C446.706 258.72 445.434 259.056 443.802 259.056ZM447.546 231.516C446.658 231.516 445.938 231.264 445.386 230.76C444.834 230.256 444.558 229.584 444.558 228.744C444.558 227.904 444.834 227.232 445.386 226.728C445.938 226.224 446.658 225.972 447.546 225.972C448.434 225.972 449.154 226.224 449.706 226.728C450.258 227.232 450.534 227.904 450.534 228.744C450.534 229.584 450.258 230.256 449.706 230.76C449.154 231.264 448.434 231.516 447.546 231.516ZM462.072 258.624V234.144H466.392L466.752 235.908H466.896C467.592 235.284 468.372 234.768 469.236 234.36C470.124 233.928 471.036 233.712 471.972 233.712C474.132 233.712 475.836 234.54 477.084 236.196C478.332 237.828 478.956 240.024 478.956 242.784C478.956 244.824 478.596 246.564 477.876 248.004C477.156 249.444 476.22 250.548 475.068 251.316C473.94 252.06 472.728 252.432 471.432 252.432C470.664 252.432 469.92 252.276 469.2 251.964C468.48 251.628 467.808 251.16 467.184 250.56L467.364 253.404V258.624H462.072ZM470.208 248.112C471.12 248.112 471.9 247.692 472.548 246.852C473.196 246.012 473.52 244.68 473.52 242.856C473.52 239.64 472.488 238.032 470.424 238.032C469.392 238.032 468.372 238.572 467.364 239.652V246.96C467.844 247.392 468.324 247.692 468.804 247.86C469.284 248.028 469.752 248.112 470.208 248.112ZM482.709 252V234.144H487.029L487.389 237.276H487.533C488.181 236.076 488.961 235.188 489.873 234.612C490.785 234.012 491.697 233.712 492.609 233.712C493.113 233.712 493.533 233.748 493.869 233.82C494.205 233.868 494.493 233.952 494.733 234.072L493.869 238.644C493.557 238.548 493.245 238.476 492.933 238.428C492.645 238.38 492.309 238.356 491.925 238.356C491.253 238.356 490.545 238.608 489.801 239.112C489.081 239.592 488.481 240.432 488.001 241.632V252H482.709ZM504.693 252.432C502.989 252.432 501.453 252.06 500.085 251.316C498.717 250.572 497.637 249.504 496.845 248.112C496.053 246.72 495.657 245.04 495.657 243.072C495.657 241.128 496.053 239.46 496.845 238.068C497.661 236.676 498.717 235.608 500.013 234.864C501.309 234.096 502.665 233.712 504.081 233.712C505.785 233.712 507.189 234.096 508.293 234.864C509.421 235.608 510.261 236.628 510.813 237.924C511.389 239.196 511.677 240.648 511.677 242.28C511.677 242.736 511.653 243.192 511.605 243.648C511.557 244.08 511.509 244.404 511.461 244.62H500.769C501.009 245.916 501.549 246.876 502.389 247.5C503.229 248.1 504.237 248.4 505.413 248.4C506.685 248.4 507.969 248.004 509.265 247.212L511.029 250.416C510.117 251.04 509.097 251.532 507.969 251.892C506.841 252.252 505.749 252.432 504.693 252.432ZM500.733 241.128H507.177C507.177 240.144 506.937 239.34 506.457 238.716C506.001 238.068 505.245 237.744 504.189 237.744C503.373 237.744 502.641 238.032 501.993 238.608C501.345 239.16 500.925 240 500.733 241.128ZM515.334 252V234.144H519.654L520.014 236.448H520.158C520.902 235.704 521.694 235.068 522.534 234.54C523.374 233.988 524.382 233.712 525.558 233.712C526.83 233.712 527.85 233.976 528.618 234.504C529.41 235.008 530.034 235.74 530.49 236.7C531.282 235.884 532.122 235.188 533.01 234.612C533.898 234.012 534.93 233.712 536.106 233.712C538.026 233.712 539.43 234.36 540.318 235.656C541.23 236.928 541.686 238.68 541.686 240.912V252H536.394V241.596C536.394 240.3 536.214 239.412 535.854 238.932C535.518 238.452 534.966 238.212 534.198 238.212C533.31 238.212 532.29 238.788 531.138 239.94V252H525.846V241.596C525.846 240.3 525.666 239.412 525.306 238.932C524.97 238.452 524.418 238.212 523.65 238.212C522.762 238.212 521.754 238.788 520.626 239.94V252H515.334ZM550.701 252.432C549.069 252.432 547.773 251.916 546.813 250.884C545.853 249.828 545.373 248.544 545.373 247.032C545.373 245.16 546.165 243.696 547.749 242.64C549.333 241.584 551.889 240.876 555.417 240.516C555.369 239.724 555.129 239.1 554.697 238.644C554.289 238.164 553.593 237.924 552.609 237.924C551.865 237.924 551.109 238.068 550.341 238.356C549.573 238.644 548.757 239.04 547.893 239.544L545.985 236.052C547.113 235.356 548.313 234.792 549.585 234.36C550.881 233.928 552.225 233.712 553.617 233.712C555.897 233.712 557.649 234.372 558.873 235.692C560.097 237.012 560.709 239.04 560.709 241.776V252H556.389L556.029 250.164H555.885C555.141 250.836 554.337 251.388 553.473 251.82C552.633 252.228 551.709 252.432 550.701 252.432ZM552.501 248.328C553.101 248.328 553.617 248.196 554.049 247.932C554.505 247.644 554.961 247.272 555.417 246.816V243.684C553.545 243.924 552.249 244.308 551.529 244.836C550.809 245.34 550.449 245.94 550.449 246.636C550.449 247.212 550.629 247.644 550.989 247.932C551.373 248.196 551.877 248.328 552.501 248.328ZM554.157 231.408L551.565 228.816L557.109 222.264L560.673 225.756L554.157 231.408ZM569.29 252L563.278 234.144H568.606L570.91 242.568C571.15 243.456 571.378 244.368 571.594 245.304C571.834 246.216 572.074 247.14 572.314 248.076H572.458C572.674 247.14 572.89 246.216 573.106 245.304C573.346 244.368 573.586 243.456 573.826 242.568L576.166 234.144H581.242L575.41 252H569.29ZM584.029 252V226.764H589.177V241.236H589.321L594.973 234.144H600.733L594.469 241.488L601.201 252H595.477L591.445 245.052L589.177 247.608V252H584.029ZM605.732 258.984C605.204 258.984 604.736 258.948 604.328 258.876C603.944 258.804 603.572 258.72 603.212 258.624L604.148 254.592C604.316 254.616 604.508 254.652 604.724 254.7C604.94 254.772 605.144 254.808 605.336 254.808C606.224 254.808 606.908 254.592 607.388 254.16C607.868 253.728 608.228 253.164 608.468 252.468L608.72 251.532L601.844 234.144H607.172L609.728 241.812C609.992 242.628 610.232 243.456 610.448 244.296C610.664 245.136 610.892 246 611.132 246.888H611.276C611.468 246.048 611.66 245.208 611.852 244.368C612.068 243.504 612.284 242.652 612.5 241.812L614.66 234.144H619.736L613.544 252.18C612.992 253.668 612.38 254.916 611.708 255.924C611.036 256.956 610.22 257.724 609.26 258.228C608.324 258.732 607.148 258.984 605.732 258.984Z" fill="white"/>
</g>
<path style="mix-blend-mode:overlay" opacity="0.6" d="M702.256 222.249C688.485 201.827 560.458 199.572 539.017 215.746C502.986 242.945 397.92 262.821 341.635 251.857C290.586 241.912 240.225 215.604 196.002 186.97C151.779 158.335 111.248 126.497 65.5296 99.2869C-18.856 49.0316 -119.482 17.0628 -210.564 10.1089L-333.082 296.096C-309.766 309.944 -286.235 323.496 -261.957 335.256C-177.049 376.445 -79.8777 395.514 -1.96231 386.282C51.0577 380.028 94.0459 361.576 143.54 350.777C197.189 339.089 258.579 336.537 323.008 343.301C392.72 350.623 499.899 340.109 555.056 324.208C584.107 315.842 699.265 269.218 705.485 246.22C707.456 238.946 707.943 230.663 702.256 222.249Z" fill="url(#paint10_linear_1356_20476)"/>
<g opacity="0.8">
<path d="M614.792 89.5736C663.437 40.9497 663.437 -37.8852 614.792 -86.5091C566.146 -135.133 487.277 -135.133 438.631 -86.5092C389.986 -37.8853 389.986 40.9497 438.631 89.5736C487.277 138.198 566.146 138.198 614.792 89.5736Z" fill="url(#paint11_linear_1356_20476)"/>
<path style="mix-blend-mode:multiply" opacity="0.15" d="M651.02 12.6814C644.414 21.0438 637.699 29.3092 630.51 37.2293C612.298 57.1806 590.32 74.8875 564.228 81.8904C536.711 89.271 507.014 84.0484 480.76 73.0315C465.485 66.6653 450.772 58.238 439.534 46.0558C423.309 28.4568 415.58 4.21096 414.608 -19.6896C414.168 -32.7148 415.218 -45.7477 417.739 -58.5347C408.854 -42.3124 403.697 -24.3155 402.642 -5.85166C401.587 12.6121 404.661 31.079 411.639 48.2069C418.618 65.3348 429.327 80.6934 442.987 93.1667C456.648 105.64 472.916 114.915 490.612 120.317C508.307 125.719 526.984 127.112 545.285 124.396C563.587 121.68 581.053 114.923 596.415 104.615C611.776 94.3071 624.648 80.7079 634.093 64.8055C643.539 48.9031 649.321 31.0971 651.02 12.6814Z" fill="url(#paint12_linear_1356_20476)"/>
<path d="M534.899 76.2466C522.797 76.2466 522.776 95.0649 534.899 95.0649C547.021 95.0649 547.032 76.2466 534.899 76.2466Z" fill="url(#paint13_linear_1356_20476)"/>
<path d="M523.963 112.092C515.878 112.092 511.97 118.566 512.25 124.868C517.14 125.456 522.061 125.755 526.986 125.764C529.9 125.764 532.783 125.634 535.622 125.429C536.205 118.987 532.275 112.092 523.963 112.092Z" fill="url(#paint14_linear_1356_20476)"/>
<path d="M484.109 63.2555C494.25 63.2555 502.471 55.038 502.471 44.9012C502.471 34.7644 494.25 26.5469 484.109 26.5469C473.967 26.5469 465.746 34.7644 465.746 44.9012C465.746 55.038 473.967 63.2555 484.109 63.2555Z" fill="url(#paint15_linear_1356_20476)"/>
<path d="M471.132 57.8817C468.559 55.3188 466.805 52.0505 466.092 48.4904C465.378 44.9304 465.738 41.2389 467.125 37.8833C468.512 34.5278 470.864 31.6592 473.884 29.6408C476.903 27.6224 480.454 26.5449 484.086 26.5449C487.718 26.5449 491.269 27.6224 494.288 29.6408C497.308 31.6592 499.66 34.5278 501.047 37.8833C502.434 41.2389 502.794 44.9304 502.08 48.4904C501.367 52.0505 499.613 55.3188 497.04 57.8817C493.6 61.3081 488.942 63.232 484.086 63.232C479.23 63.232 474.572 61.3081 471.132 57.8817Z" fill="url(#paint16_linear_1356_20476)"/>
<path d="M592.037 37.2292C594.826 39.3088 596.936 42.1682 598.099 45.446C599.263 48.7238 599.428 52.2728 598.573 55.6444C597.719 59.0159 595.884 62.0586 593.3 64.3879C590.717 66.7172 587.5 68.2285 584.057 68.7307C580.614 69.2329 577.099 68.7035 573.957 67.2094C570.815 65.7153 568.186 63.3236 566.404 60.3366C564.622 57.3496 563.765 53.9015 563.943 50.4281C564.121 46.9546 565.325 43.6119 567.403 40.8224C568.782 38.9665 570.514 37.4009 572.5 36.2154C574.485 35.03 576.685 34.2479 578.974 33.9141C581.262 33.5803 583.594 33.7013 585.836 34.2701C588.078 34.839 590.185 35.8446 592.037 37.2292Z" fill="url(#paint17_linear_1356_20476)"/>
<path d="M584.093 68.726C580.647 69.234 577.127 68.7087 573.98 67.2166C570.833 65.7246 568.199 63.3329 566.412 60.3441C564.624 57.3553 563.765 53.9039 563.94 50.4264C564.116 46.9489 565.32 43.6018 567.4 40.8085C569.48 38.0152 572.341 35.9013 575.623 34.7343C578.905 33.5673 582.46 33.3995 585.837 34.2524C589.215 35.1052 592.263 36.9403 594.597 39.5254C596.93 42.1104 598.444 45.3293 598.947 48.7748C599.621 53.3888 598.435 58.0814 595.649 61.8221C592.864 65.5628 588.708 68.0459 584.093 68.726Z" fill="url(#paint18_linear_1356_20476)"/>
<path d="M628.729 -20.5532C628.729 -14.7911 627.02 -9.15834 623.817 -4.3673C620.614 0.423733 616.062 4.15789 610.736 6.36296C605.41 8.56803 599.55 9.14497 593.896 8.02084C588.242 6.8967 583.049 4.12197 578.972 0.0475349C574.896 -4.02691 572.12 -9.21806 570.996 -14.8695C569.871 -20.5209 570.448 -26.3787 572.654 -31.7022C574.86 -37.0257 578.596 -41.5758 583.389 -44.7771C588.182 -47.9783 593.818 -49.687 599.582 -49.687C607.312 -49.687 614.726 -46.6176 620.192 -41.1539C625.658 -35.6903 628.729 -28.28 628.729 -20.5532Z" fill="url(#paint19_linear_1356_20476)"/>
<path d="M599.572 8.59148C615.675 8.59148 628.729 -4.45701 628.729 -20.5531C628.729 -36.6493 615.675 -49.6978 599.572 -49.6978C583.468 -49.6978 570.414 -36.6493 570.414 -20.5531C570.414 -4.45701 583.468 8.59148 599.572 8.59148Z" fill="url(#paint20_linear_1356_20476)"/>
<path d="M635.412 44.9011C635.407 48.7106 636.758 52.3977 639.223 55.3029C643.255 46.9403 646.326 38.1476 648.377 29.0933C644.727 29.8355 641.444 31.813 639.082 34.6926C636.721 37.5721 635.424 41.1776 635.412 44.9011Z" fill="url(#paint21_linear_1356_20476)"/>
<path d="M442.108 22.1352C444.403 12.4144 438.38 2.67434 428.655 0.380035C418.93 -1.91427 409.186 4.10603 406.89 13.8268C404.595 23.5475 410.618 33.2876 420.343 35.5819C430.068 37.8762 439.813 31.8559 442.108 22.1352Z" fill="url(#paint22_linear_1356_20476)"/>
<path opacity="0.15" d="M735.752 -62.6998C726.037 -89.4058 659.884 -80.4823 624.746 -73.6736C629.152 -68.686 633.124 -63.3327 636.621 -57.6715C656.764 -61.1784 675.3 -62.9588 689.949 -62.7538C711.129 -62.4516 717.487 -58.0276 718.016 -56.5062C720.823 -48.8127 705.677 -27.1134 653.925 2.40888C651.022 4.07059 648.02 5.75388 644.868 7.45875C614.005 24.2808 576.773 40.4663 537.263 54.321C507.135 64.9719 476.388 73.7858 445.192 80.7141C440.42 81.7932 435.822 82.6996 431.374 83.5628C360.472 97.3312 328.907 89.6593 325.733 80.9731C323.391 74.4989 344.754 48.818 403.005 15.9291C402.474 9.04315 402.572 2.12322 403.296 -4.74509C376.33 9.86498 352.548 25.3599 335.805 39.3873C312.499 58.8098 303.42 74.4558 308.073 87.1991C320.347 120.768 404.246 107.614 444.522 99.1764L447.221 98.6045L449.024 98.2052C481.003 91.1107 512.522 82.0806 543.405 71.1647C583.11 57.2452 620.623 40.9519 652.069 24.0327L653.936 23.0292C689.171 3.85479 746.666 -32.7351 735.752 -62.6998Z" fill="url(#paint23_linear_1356_20476)"/>
<path opacity="0.15" d="M735.752 -62.7003C726.037 -89.4063 659.884 -80.4827 624.746 -73.6741C629.152 -68.6865 633.124 -63.3331 636.621 -57.672C656.764 -61.1789 675.3 -62.9593 689.949 -62.7543C711.129 -62.4521 717.487 -58.0281 718.016 -56.5067C720.823 -48.8132 705.677 -27.1139 653.925 2.40839C651.022 4.07011 648.02 5.7534 644.868 7.45826C614.005 24.2803 576.773 40.4658 537.263 54.3206C507.135 64.9714 476.388 73.7853 445.192 80.7137C440.42 81.7927 435.822 82.6991 431.374 83.5623C360.472 97.3307 328.907 89.6588 325.733 80.9726C323.391 74.4984 344.754 48.8175 403.005 15.9286C402.474 9.04266 402.572 2.12273 403.296 -4.74558C376.33 9.86449 352.548 25.3594 335.805 39.3868C312.499 58.8093 303.42 74.4553 308.073 87.1986C320.347 120.767 404.246 107.614 444.522 99.1759L447.221 98.604L449.024 98.2047C481.003 91.1102 512.522 82.0801 543.405 71.1642C583.11 57.2447 620.623 40.9514 652.069 24.0322L653.936 23.0287C689.171 3.8543 746.666 -32.7356 735.752 -62.7003Z" fill="url(#paint24_linear_1356_20476)"/>
</g>
</g>
</g>
<defs>
<linearGradient id="paint0_linear_1356_20476" x1="19.9541" y1="484.747" x2="931.53" y2="-42.4336" gradientUnits="userSpaceOnUse">
<stop offset="0.08" stop-color="#241E45"/>
<stop offset="0.348958" stop-color="#293961"/>
<stop offset="0.651042" stop-color="#31618A"/>
<stop offset="1" stop-color="#2E9992"/>
</linearGradient>
<radialGradient id="paint1_radial_1356_20476" cx="0" cy="0" r="1" gradientUnits="userSpaceOnUse" gradientTransform="translate(699.014 196.151) scale(340.876 330.396)">
<stop offset="0.01" stop-color="white" stop-opacity="0.4"/>
<stop offset="0.11" stop-color="white" stop-opacity="0.29"/>
<stop offset="0.23" stop-color="white" stop-opacity="0.18"/>
<stop offset="0.37" stop-color="white" stop-opacity="0.1"/>
<stop offset="0.52" stop-color="white" stop-opacity="0.04"/>
<stop offset="0.7" stop-color="white" stop-opacity="0.01"/>
<stop offset="0.99" stop-color="white" stop-opacity="0"/>
</radialGradient>
<radialGradient id="paint2_radial_1356_20476" cx="0" cy="0" r="1" gradientUnits="userSpaceOnUse" gradientTransform="translate(551.278 177.737) scale(384.476 372.484)">
<stop offset="0.01" stop-color="white" stop-opacity="0.3"/>
<stop offset="0.02" stop-color="white" stop-opacity="0.29"/>
<stop offset="0.16" stop-color="white" stop-opacity="0.18"/>
<stop offset="0.31" stop-color="white" stop-opacity="0.1"/>
<stop offset="0.47" stop-color="white" stop-opacity="0.04"/>
<stop offset="0.67" stop-color="white" stop-opacity="0.01"/>
<stop offset="0.99" stop-color="white" stop-opacity="0"/>
</radialGradient>
<linearGradient id="paint3_linear_1356_20476" x1="111.86" y1="11.006" x2="290.461" y2="223.975" gradientUnits="userSpaceOnUse">
<stop offset="0.06" stop-color="#241E45"/>
<stop offset="0.3" stop-color="#293961"/>
<stop offset="0.61" stop-color="#31618A"/>
</linearGradient>
<linearGradient id="paint4_linear_1356_20476" x1="668.635" y1="-404.401" x2="1060.71" y2="120.04" gradientUnits="userSpaceOnUse">
<stop offset="0.01" stop-color="white"/>
<stop offset="0.99" stop-color="white" stop-opacity="0"/>
</linearGradient>
<linearGradient id="paint5_linear_1356_20476" x1="419609" y1="408622" x2="480134" y2="142180" gradientUnits="userSpaceOnUse">
<stop offset="0.01" stop-color="white"/>
<stop offset="0.99" stop-color="white" stop-opacity="0"/>
</linearGradient>
<linearGradient id="paint6_linear_1356_20476" x1="-166.949" y1="431.11" x2="1055.56" y2="431.11" gradientUnits="userSpaceOnUse">
<stop offset="0.08" stop-color="#241E45"/>
<stop offset="0.25" stop-color="#293961" stop-opacity="0.47"/>
<stop offset="0.75" stop-color="#31618A" stop-opacity="0.69"/>
<stop offset="1" stop-color="#37B4AC"/>
</linearGradient>
<radialGradient id="paint7_radial_1356_20476" cx="0" cy="0" r="1" gradientUnits="userSpaceOnUse" gradientTransform="translate(862.241 19.583) scale(312.962 303.512)">
<stop offset="0.01" stop-color="white" stop-opacity="0.4"/>
<stop offset="0.11" stop-color="white" stop-opacity="0.29"/>
<stop offset="0.23" stop-color="white" stop-opacity="0.18"/>
<stop offset="0.37" stop-color="white" stop-opacity="0.1"/>
<stop offset="0.52" stop-color="white" stop-opacity="0.04"/>
<stop offset="0.7" stop-color="white" stop-opacity="0.01"/>
<stop offset="0.99" stop-color="white" stop-opacity="0"/>
</radialGradient>
<radialGradient id="paint8_radial_1356_20476" cx="0" cy="0" r="1" gradientUnits="userSpaceOnUse" gradientTransform="translate(474.062 18.3083) scale(333.414 323.346)">
<stop offset="0.01" stop-color="white" stop-opacity="0.3"/>
<stop offset="0.02" stop-color="white" stop-opacity="0.29"/>
<stop offset="0.16" stop-color="white" stop-opacity="0.18"/>
<stop offset="0.31" stop-color="white" stop-opacity="0.1"/>
<stop offset="0.47" stop-color="white" stop-opacity="0.04"/>
<stop offset="0.67" stop-color="white" stop-opacity="0.01"/>
<stop offset="0.99" stop-color="white" stop-opacity="0"/>
</radialGradient>
<linearGradient id="paint9_linear_1356_20476" x1="639.374" y1="533.768" x2="1153.85" y2="328.357" gradientUnits="userSpaceOnUse">
<stop offset="0.276042" stop-color="#31618A" stop-opacity="0.55"/>
<stop offset="0.588542" stop-color="#31618A" stop-opacity="0.54"/>
<stop offset="0.885417" stop-color="#37B4AC" stop-opacity="0.38"/>
</linearGradient>
<linearGradient id="paint10_linear_1356_20476" x1="582.117" y1="892.137" x2="535.052" y2="114.642" gradientUnits="userSpaceOnUse">
<stop offset="0.01" stop-color="white" stop-opacity="0.7"/>
<stop offset="0.984375" stop-color="white" stop-opacity="0"/>
</linearGradient>
<linearGradient id="paint11_linear_1356_20476" x1="402.145" y1="1.52632" x2="651.274" y2="1.52631" gradientUnits="userSpaceOnUse">
<stop stop-color="#37B4AC"/>
<stop offset="1" stop-color="#366528"/>
</linearGradient>
<linearGradient id="paint12_linear_1356_20476" x1="524.858" y1="-96.7431" x2="528.687" y2="119.473" gradientUnits="userSpaceOnUse">
<stop offset="0.01" stop-color="#222AFD"/>
<stop offset="0.99" stop-color="#9781FD"/>
</linearGradient>
<linearGradient id="paint13_linear_1356_20476" x1="517.151" y1="102.348" x2="556.807" y2="65.0071" gradientUnits="userSpaceOnUse">
<stop stop-color="#37B4AC"/>
<stop offset="0.45" stop-color="#378F6F"/>
<stop offset="1" stop-color="#366528"/>
</linearGradient>
<linearGradient id="paint14_linear_1356_20476" x1="545.931" y1="170.921" x2="518.111" y2="110.205" gradientUnits="userSpaceOnUse">
<stop stop-color="#37B4AC"/>
<stop offset="0.45" stop-color="#378F6F"/>
<stop offset="1" stop-color="#366528"/>
</linearGradient>
<linearGradient id="paint15_linear_1356_20476" x1="510.319" y1="49.0339" x2="460.641" y2="41.2041" gradientUnits="userSpaceOnUse">
<stop stop-color="#37B4AC"/>
<stop offset="0.45" stop-color="#378F6F"/>
<stop offset="1" stop-color="#366528"/>
</linearGradient>
<linearGradient id="paint16_linear_1356_20476" x1="465.745" y1="44.901" x2="502.47" y2="44.901" gradientUnits="userSpaceOnUse">
<stop stop-color="#37B4AC"/>
<stop offset="0.45" stop-color="#378F6F"/>
<stop offset="1" stop-color="#366528"/>
</linearGradient>
<linearGradient id="paint17_linear_1356_20476" x1="599.349" y1="61.3318" x2="561.466" y2="40.1793" gradientUnits="userSpaceOnUse">
<stop stop-color="#37B4AC"/>
<stop offset="0.45" stop-color="#378F6F"/>
<stop offset="1" stop-color="#366528"/>
</linearGradient>
<linearGradient id="paint18_linear_1356_20476" x1="563.917" y1="51.3105" x2="599.131" y2="51.3105" gradientUnits="userSpaceOnUse">
<stop stop-color="#37B4AC"/>
<stop offset="0.45" stop-color="#378F6F"/>
<stop offset="1" stop-color="#366528"/>
</linearGradient>
<linearGradient id="paint19_linear_1356_20476" x1="641.197" y1="-14.0035" x2="562.298" y2="-26.4446" gradientUnits="userSpaceOnUse">
<stop stop-color="#37B4AC"/>
<stop offset="0.45" stop-color="#378F6F"/>
<stop offset="1" stop-color="#366528"/>
</linearGradient>
<linearGradient id="paint20_linear_1356_20476" x1="570.414" y1="-20.5531" x2="628.729" y2="-20.5531" gradientUnits="userSpaceOnUse">
<stop stop-color="#37B4AC"/>
<stop offset="0.45" stop-color="#378F6F"/>
<stop offset="1" stop-color="#366528"/>
</linearGradient>
<linearGradient id="paint21_linear_1356_20476" x1="635.412" y1="42.2035" x2="648.377" y2="42.2035" gradientUnits="userSpaceOnUse">
<stop stop-color="#37B4AC"/>
<stop offset="0.45" stop-color="#378F6F"/>
<stop offset="1" stop-color="#366528"/>
</linearGradient>
<linearGradient id="paint22_linear_1356_20476" x1="450.33" y1="22.0794" x2="401.365" y2="14.3577" gradientUnits="userSpaceOnUse">
<stop stop-color="#366528"/>
<stop offset="1" stop-color="#37B4AC"/>
</linearGradient>
<linearGradient id="paint23_linear_1356_20476" x1="304.454" y1="58.938" x2="745.229" y2="-35.5556" gradientUnits="userSpaceOnUse">
<stop offset="0.01" stop-color="white"/>
<stop offset="0.17" stop-color="#FCFCFC"/>
<stop offset="0.31" stop-color="#F1F1F4"/>
<stop offset="0.45" stop-color="#E0DFE5"/>
<stop offset="0.58" stop-color="#C8C7D1"/>
<stop offset="0.7" stop-color="#A9A7B7"/>
<stop offset="0.82" stop-color="#827F97"/>
<stop offset="0.94" stop-color="#565171"/>
<stop offset="0.99" stop-color="#403B5F"/>
</linearGradient>
<linearGradient id="paint24_linear_1356_20476" x1="304.454" y1="58.9375" x2="745.229" y2="-35.5561" gradientUnits="userSpaceOnUse">
<stop offset="0.01" stop-color="white"/>
<stop offset="0.17" stop-color="#FCFCFC"/>
<stop offset="0.31" stop-color="#F1F1F4"/>
<stop offset="0.45" stop-color="#E0DFE5"/>
<stop offset="0.58" stop-color="#C8C7D1"/>
<stop offset="0.7" stop-color="#A9A7B7"/>
<stop offset="0.82" stop-color="#827F97"/>
<stop offset="0.94" stop-color="#565171"/>
<stop offset="0.99" stop-color="#403B5F"/>
</linearGradient>
<clipPath id="clip0_1356_20476">
<rect width="962.047" height="383" fill="white"/>
</clipPath>
<clipPath id="clip1_1356_20476">
<rect width="964" height="445" fill="white" transform="translate(-3 -2)"/>
</clipPath>
<clipPath id="clip2_1356_20476">
<rect width="964" height="445" fill="white" transform="translate(-3.59375 -2)"/>
</clipPath>
</defs>
</svg>
