<svg width="70" height="40" viewBox="0 0 70 40" fill="none" xmlns="http://www.w3.org/2000/svg">
<path fill-rule="evenodd" clip-rule="evenodd" d="M0.656456 0C16.2377 0 31.8189 0 47.4407 0C47.4407 8.98241 47.4407 17.8982 47.4407 26.8957C47.1375 26.9106 46.8375 26.9382 46.5374 26.9382C31.5537 26.9403 16.5699 26.9397 1.58612 26.9426C1.27623 26.9426 0.966342 26.9801 0.65625 27C0.656455 18 0.656456 9 0.656456 0Z" fill="#00703C"/>
<path fill-rule="evenodd" clip-rule="evenodd" d="M69.3399 33.8617C66.6969 33.8617 64.0537 33.8617 61.3431 33.8617C61.4941 35.8919 60.8951 37.608 59.2763 38.8822C58.2753 39.6699 57.1209 40.0282 55.859 39.9918C53.4535 39.9223 50.4944 37.9975 50.7176 33.8709C46.4769 33.8709 42.2381 33.8709 37.9451 33.8709C38.0414 35.8157 37.5175 37.4932 35.9956 38.7644C34.9577 39.6311 33.7541 40.0447 32.4208 39.9877C29.6323 39.8686 27.0819 37.6211 27.2886 33.8913C25.5252 33.8913 23.7644 33.8913 22.002 33.8913C22.2205 38.1064 19.1264 40.01 16.6605 40C14.0593 39.9893 11.1115 37.9256 11.3526 33.845C9.78832 33.845 8.22565 33.845 6.62891 33.845C6.62891 32.2698 6.62891 30.7891 6.62891 29.242C20.9765 29.242 35.298 29.242 49.6954 29.242C49.6954 22.4842 49.6954 15.7915 49.6954 9.04885C49.9837 9.03455 50.1988 9.01453 50.4142 9.01453C54.9094 9.01269 59.4046 9.0227 63.8998 9.00002C64.4109 8.99757 64.629 9.18162 64.8245 9.62672C66.1829 12.722 67.5681 15.8054 68.9514 18.8899C69.0561 19.1234 69.2093 19.3348 69.3397 19.5566C69.3399 24.3248 69.3399 29.0933 69.3399 33.8617ZM53.1597 12.0238C53.1597 14.6056 53.1597 17.0611 53.1597 19.5251C57.4423 19.5251 61.6596 19.5251 65.9318 19.5251C65.8471 19.2949 65.789 19.1076 65.711 18.9289C64.8141 16.8699 63.8964 14.8198 63.0274 12.7494C62.7899 12.1833 62.4563 12.006 61.8632 12.0122C59.1935 12.0389 56.5233 12.0238 53.8532 12.0238C53.6347 12.0238 53.4166 12.0238 53.1597 12.0238ZM18.7448 34.6253C18.7497 33.4773 17.829 32.534 16.6927 32.5229C15.5669 32.5119 14.6038 33.4564 14.5896 34.5852C14.5747 35.7712 15.5075 36.7161 16.6858 36.709C17.8469 36.7021 18.74 35.7982 18.7448 34.6253ZM32.6199 36.7078C33.7686 36.7063 34.6888 35.7929 34.7068 34.6361C34.7245 33.4867 33.737 32.5039 32.5836 32.5231C31.4568 32.5419 30.5092 33.5179 30.529 34.6394C30.5492 35.7937 31.4747 36.7092 32.6199 36.7078ZM56.0473 36.71C57.2017 36.707 58.1133 35.7951 58.1231 34.6338C58.1329 33.4707 57.1617 32.5027 56.0055 32.5233C54.8727 32.5436 53.9564 33.4973 53.9689 34.643C53.9813 35.8102 54.8892 36.7131 56.0473 36.71Z" fill="#00703C"/>
</svg>
