<svg width="52" height="52" viewBox="0 0 52 52" fill="none" xmlns="http://www.w3.org/2000/svg">
<path d="M24.245 2.9465L9.07833 9.68484C7.51833 10.3782 6.5 11.9382 6.5 13.6498V23.8332C6.5 35.8582 14.82 47.1032 26 49.8332C37.18 47.1032 45.5 35.8582 45.5 23.8332V13.6498C45.5 11.9382 44.4817 10.3782 42.9217 9.68484L27.755 2.9465C26.65 2.44817 25.35 2.44817 24.245 2.9465ZM20.1283 35.2948L14.5167 29.6832C13.6717 28.8382 13.6717 27.4732 14.5167 26.6282C15.3617 25.7832 16.7267 25.7832 17.5717 26.6282L21.6667 30.7015L34.4067 17.9615C35.2517 17.1165 36.6167 17.1165 37.4617 17.9615C38.3067 18.8065 38.3067 20.1715 37.4617 21.0165L23.1833 35.2948C22.36 36.1398 20.9733 36.1398 20.1283 35.2948Z" fill="#4F8136"/>
</svg>
