<svg width="29" height="55" viewBox="0 0 29 55" fill="none" xmlns="http://www.w3.org/2000/svg">
<path fill-rule="evenodd" clip-rule="evenodd" d="M21.4689 0C21.692 0.0711583 21.9135 0.147624 22.1384 0.212594C24.5722 0.915485 26.2 3.36301 25.8446 5.78858C25.4547 8.45267 23.3131 10.3591 20.7127 10.3571C18.1384 10.3552 15.9504 8.45723 15.5894 5.91336C15.2111 3.24544 16.8804 0.790406 19.5157 0.135101C19.6537 0.100774 19.7865 0.0455236 19.9216 0C20.4374 0 20.9532 0 21.4689 0Z" fill="#00703C"/>
<path fill-rule="evenodd" clip-rule="evenodd" d="M22.7861 29C23.4931 29.1443 24.1422 29.2769 24.8576 29.4229C24.8576 29.5573 24.8576 29.7389 24.8576 29.9207C24.8576 37.4319 24.8576 44.9432 24.8571 52.4542C24.8571 52.6068 24.8602 52.7602 24.8466 52.9117C24.7971 53.4618 24.4137 53.8333 23.8811 53.856C23.3163 53.8801 22.8915 53.5332 22.8103 52.9655C22.7842 52.782 22.7871 52.5938 22.7871 52.4077C22.786 44.7779 22.7861 37.1479 22.7861 29.5181C22.7861 29.3383 22.7861 29.1581 22.7861 29Z" fill="#00703C"/>
<path fill-rule="evenodd" clip-rule="evenodd" d="M27.49 25.8926C28.3056 26.5499 28.8593 27.4719 28.9359 28.6929C29.0268 30.1428 28.9997 31.6073 28.9827 33.0647C28.9746 33.7496 28.5593 34.1962 28.0678 34.1777C27.5757 34.1593 27.2152 33.6946 27.2042 32.9964C27.1867 31.888 27.2022 30.7787 27.1927 29.6702C27.1901 29.381 27.2217 29.0226 27.1071 28.817C26.7964 28.2592 26.9433 27.8186 27.1562 27.2974C27.3206 26.8951 27.3712 26.416 27.49 25.8926Z" fill="#00703C"/>
<path fill-rule="evenodd" clip-rule="evenodd" d="M24.7827 23.479C22.9068 22.1812 21.0133 20.9093 19.1354 19.6144C18.9615 19.4946 18.7621 19.3069 18.7197 19.1177C18.389 17.652 18.4132 17.6951 17.6 14.7664C17.6 14.7664 16.4595 11.2507 15.3538 9.75245C15.2157 9.6069 15.0812 9.45467 14.9527 9.29137C13.9547 8.39236 12.3987 7.74753 10.0555 8.92415C8.74283 9.58332 4.33555 10.5425 1.91084 11.174C0.428218 11.5601 -0.222507 12.5899 0.0674272 14.0791C0.737954 17.5219 1.40325 20.966 2.10461 24.4026C2.19993 24.87 2.41844 25.3558 2.71432 25.7246C2.95447 26.0239 2.99294 26.2323 2.86324 26.5562C2.30487 27.9503 2.22256 29.3725 2.60937 30.8297C3.40436 33.8246 4.19553 36.8207 4.95502 39.8249C5.05685 40.2276 5.05232 40.7016 4.94993 41.1052C4.10162 44.4523 3.21413 47.7892 2.34815 51.1319C1.90094 52.8583 2.72181 54.3013 4.41404 54.8042C4.48023 54.8238 4.54062 54.8627 4.6037 54.8926C4.95728 54.8926 5.31071 54.8926 5.66429 54.8926C7.12231 54.4345 7.75932 53.3556 8.10823 51.9216C8.94932 48.4652 9.87725 45.0301 10.7925 41.5922C10.995 40.8318 11.0046 40.1061 10.7992 39.3448C10.1539 36.9525 9.54107 34.5514 8.91708 32.1533C8.88342 32.0236 8.8639 31.8902 8.80634 31.5991C9.0083 31.8652 9.11706 31.9981 9.21493 32.1388C10.8912 34.5522 12.5589 36.9717 14.2486 39.3755C14.4885 39.7165 14.5154 39.9981 14.3934 40.3939C13.3667 43.7255 12.4383 47.0895 11.3319 50.3938C10.6657 52.3832 11.1172 54.1392 13.3007 54.8928C13.6897 54.8928 14.0786 54.8928 14.4676 54.8928C15.8773 54.4461 16.5081 53.388 16.902 52.0218C18.0008 48.2115 19.1539 44.4161 20.3415 40.6327C20.7327 39.3864 20.5689 38.3332 19.8124 37.2826C18.4566 35.4008 17.1635 33.4736 15.8298 31.5756C15.6349 31.2983 15.6047 31.0678 15.7196 30.7469C16.2684 29.2137 16.7794 27.667 17.3291 26.1343C17.4479 25.803 17.383 25.6387 17.0954 25.451C16.148 24.8327 15.2256 24.1759 14.2844 23.548C13.4456 22.9885 13.0551 22.2277 13.1056 21.2081C13.1821 19.6668 13.2232 18.1236 13.2751 16.581C13.2853 16.2824 13.2767 15.983 13.2767 15.684C13.7521 17.4347 14.1182 19.183 14.4718 20.934C14.5989 21.5637 14.8293 22.1385 15.369 22.5094C17.744 24.142 20.117 25.7781 22.518 27.3717C23.4165 27.9681 24.5991 27.7351 25.3151 26.9377C26.2542 25.8916 26.0287 24.3411 24.7827 23.479ZM5.63714 18.5034C5.60178 18.5021 5.56657 18.5009 5.53121 18.4994C5.31199 17.3813 5.09277 16.2633 4.86252 15.0897C5.55794 14.9078 6.21489 14.736 7.00224 14.5301C6.52689 15.9136 6.08208 17.2085 5.63714 18.5034Z" fill="#00703C"/>
</svg>
