<svg width="465" height="109" viewBox="0 0 465 109" fill="none" xmlns="http://www.w3.org/2000/svg">
<path d="M224.426 4.16751C221.532 1.39192 217.813 0 213.263 0H173.669C169.067 0 165.302 1.40501 162.384 4.20681C159.458 7.01599 158 10.5928 158 14.943V36.1621C158 40.5131 159.457 44.0924 162.384 46.8958C165.302 49.7042 169.067 51.1092 173.669 51.1092H213.263C217.812 51.1092 221.532 49.7174 224.426 46.9409C227.319 44.1645 228.767 40.5697 228.767 36.163V14.9438C228.767 10.5371 227.319 6.94392 224.426 4.16751Z" fill="white" fill-opacity="0.2"/>
<path d="M66.427 4.16751C63.5337 1.39192 59.8135 0 55.2658 0H15.6687C11.0655 0 7.30123 1.40501 4.38138 4.20681C1.45912 7.01599 0 10.5928 0 14.943V36.1621C0 40.5131 1.45912 44.0924 4.38138 46.8958C7.30204 49.7042 11.0655 51.1092 15.6687 51.1092H55.2658C59.8135 51.1092 63.5337 49.7174 66.427 46.9409C69.3203 44.1645 70.7666 40.5697 70.7666 36.163V14.9438C70.7666 10.5371 69.3203 6.94392 66.427 4.16751Z" fill="white" fill-opacity="0.2"/>
<path d="M381.506 4.16751C378.653 1.39192 374.985 0 370.5 0H331.454C326.914 0 323.203 1.40501 320.322 4.20681C317.44 7.01599 316 10.5928 316 14.943V36.1621C316 40.5131 317.44 44.0924 320.322 46.8958C323.204 49.7042 326.914 51.1092 331.454 51.1092H370.5C374.984 51.1092 378.653 49.7174 381.506 46.9409C384.359 44.1645 385.784 40.5697 385.784 36.163V14.9438C385.784 10.5371 384.359 6.94392 381.506 4.16751Z" fill="white" fill-opacity="0.2"/>
<path d="M303.426 62.9753C300.536 60.3105 296.815 58.9722 292.266 58.9722H252.671C248.069 58.9722 244.304 60.3231 241.383 63.0171C238.461 65.719 237 69.1574 237 73.3402V93.7406C237 97.9241 238.461 101.369 241.383 104.063C244.305 106.765 248.07 108.116 252.671 108.116H292.266C296.816 108.116 300.536 106.777 303.426 104.108C306.321 101.438 307.767 97.9816 307.767 93.7413V73.3409C307.767 69.1006 306.321 65.6481 303.426 62.9753Z" fill="white" fill-opacity="0.2"/>
<path d="M303.429 4.16751C300.533 1.3911 296.812 0 292.268 0H252.669C248.064 0 244.301 1.40503 241.383 4.21011C238.461 7.01601 237 10.5961 237 14.9462V36.1654C237 40.5164 238.461 44.0957 241.383 46.8991C244.302 49.7075 248.064 51.1092 252.669 51.1092H292.268C296.812 51.1092 300.533 49.7239 303.429 46.9409C306.319 44.1645 307.767 40.5729 307.767 36.1662V14.947C307.767 10.5395 306.318 6.9431 303.429 4.16751Z" fill="white" fill-opacity="0.2"/>
<path d="M66.427 62.9753C63.5337 60.3105 59.8143 58.9722 55.2666 58.9722H15.6695C11.0664 58.9722 7.30205 60.3231 4.383 63.0171C1.45914 65.719 0 69.1574 0 73.3402V93.7406C0 97.9241 1.45914 101.369 4.383 104.063C7.30205 106.765 11.0656 108.116 15.6695 108.116H55.2666C59.8143 108.116 63.5345 106.777 66.427 104.108C69.3195 101.438 70.7666 97.9816 70.7666 93.7413V73.3409C70.7674 69.1006 69.3203 65.6481 66.427 62.9753Z" fill="white" fill-opacity="0.2"/>
<path d="M145.427 4.16751C142.534 1.3911 138.812 0 134.265 0H94.6685C90.0654 0 86.3012 1.40503 83.383 4.21011C80.4591 7.01601 79 10.5961 79 14.9462V36.1654C79 40.5164 80.4591 44.0957 83.383 46.8991C86.3012 49.7075 90.0646 51.1092 94.6685 51.1092H134.265C138.812 51.1092 142.535 49.7239 145.427 46.9409C148.32 44.1645 149.767 40.5729 149.767 36.1662V14.947C149.767 10.5395 148.32 6.9431 145.427 4.16751Z" fill="white" fill-opacity="0.2"/>
<path d="M460.429 62.9753C457.536 60.3105 453.813 58.9722 449.268 58.9722H409.67C405.064 58.9722 401.302 60.3231 398.383 63.0171C395.461 65.719 394 69.1574 394 73.3402V93.7406C394 97.9241 395.461 101.369 398.383 104.063C401.302 106.765 405.063 108.116 409.67 108.116H449.268C453.813 108.116 457.536 106.777 460.429 104.108C463.323 101.438 464.767 97.9816 464.767 93.7413V73.3409C464.767 69.1006 463.323 65.6481 460.429 62.9753Z" fill="white" fill-opacity="0.2"/>
<path d="M460.426 4.16751C457.532 1.3911 453.813 0 449.262 0H409.668C405.066 0 401.302 1.40503 398.383 4.21011C395.461 7.01601 394 10.5961 394 14.9462V36.1654C394 40.5164 395.461 44.0957 398.383 46.8991C401.302 49.7075 405.066 51.1092 409.668 51.1092H449.262C453.812 51.1092 457.532 49.7239 460.426 46.9409C463.319 44.1645 464.767 40.5729 464.767 36.1662V14.947C464.767 10.5395 463.318 6.9431 460.426 4.16751Z" fill="white" fill-opacity="0.2"/>
</svg>
