<svg width="112" height="550" viewBox="0 0 112 550" fill="none" xmlns="http://www.w3.org/2000/svg">
<path d="M109.248 193.791C111.081 191.906 112 189.481 112 186.518L112 160.718C112 157.718 111.072 155.267 109.22 153.365C107.365 151.46 105.451 150.434 102.578 150.434L88.567 150.434C85.6911 150.434 82.877 151.46 81.0262 153.365C79.1716 155.267 78.2462 157.718 78.2462 160.718L78.2462 186.518C78.2462 189.48 79.1615 191.905 80.9972 193.791C82.8303 195.676 85.205 196.617 88.1163 196.617L102.13 196.617C105.041 196.617 107.415 195.676 109.248 193.791Z" fill="#ED1C24"/>
<path d="M70.0928 193.786C71.9247 191.898 72.8437 189.471 72.8437 186.502L72.8437 160.661C72.8437 157.656 71.9158 155.2 70.0638 153.294C68.2104 151.386 65.8483 150.434 62.9736 150.434L48.9588 150.434C46.0854 150.434 43.7208 151.387 41.87 153.294C40.0154 155.2 39.09 157.656 39.09 160.661L39.09 186.502C39.09 189.471 40.0065 191.898 41.8409 193.786C43.6741 195.674 46.0488 196.617 48.9601 196.617L62.9736 196.617C65.8849 196.617 68.2571 195.674 70.0928 193.786Z" fill="#F68B1F"/>
<path d="M109.248 92.8859C111.081 91.0281 112 88.6393 112 85.7183L112 60.2879C112 57.332 111.072 54.9143 109.22 53.0384C107.365 51.1613 105.451 50.1499 102.578 50.1499L88.567 50.1499C85.6911 50.1499 82.877 51.1613 81.0262 53.0384C79.1716 54.9143 78.2462 57.3308 78.2462 60.2879L78.2462 85.7183C78.2462 88.6381 79.1615 91.0281 80.9972 92.8859C82.8303 94.7437 85.205 95.6733 88.1163 95.6733L102.13 95.6733C105.041 95.6733 107.415 94.7449 109.248 92.8859Z" fill="#ED1C24"/>
<path d="M70.0928 92.8813C71.9247 91.0205 72.8437 88.6277 72.8437 85.7019L72.8437 60.2298C72.8437 57.269 71.9158 54.8473 70.0638 52.9696C68.2104 51.0882 65.8483 50.1499 62.9736 50.1499L48.9588 50.1499C46.0854 50.1499 43.7208 51.0882 41.87 52.9696C40.0154 54.8473 39.09 57.2678 39.09 60.2298L39.09 85.7019C39.09 88.6277 40.0065 91.0205 41.8409 92.8813C43.6741 94.7422 46.0488 95.6733 48.9601 95.6733L62.9736 95.6733C65.8849 95.6733 68.2571 94.7422 70.0928 92.8813Z" fill="#F68B1F"/>
<path d="M109.248 295.393C111.081 293.508 112 291.085 112 288.121L112 262.323C112 259.324 111.072 256.871 109.22 254.968C107.365 253.064 105.452 252.038 102.578 252.038L88.567 252.038C85.6911 252.038 82.877 253.064 81.0262 254.968C79.1716 256.871 78.2462 259.323 78.2462 262.323L78.2462 288.121C78.2462 291.084 79.1615 293.508 80.9972 295.393C82.8303 297.278 85.205 298.221 88.1163 298.221L102.13 298.221C105.041 298.221 107.415 297.279 109.248 295.393Z" fill="#ED1C24"/>
<path d="M70.0928 295.388C71.9247 293.499 72.8437 291.072 72.8437 288.104L72.8437 262.263C72.8437 259.26 71.9158 256.803 70.0638 254.898C68.2104 252.989 65.8483 252.038 62.9736 252.038L48.9588 252.038C46.0854 252.038 43.7208 252.989 41.87 254.898C40.0154 256.803 39.09 259.258 39.09 262.263L39.09 288.104C39.09 291.071 40.0065 293.499 41.8409 295.388C43.6741 297.276 46.0488 298.221 48.9601 298.221L62.9736 298.221C65.8849 298.221 68.2571 297.277 70.0928 295.388Z" fill="#F68B1F"/>
<path d="M70.0928 42.1259C71.9247 40.295 72.8437 37.9397 72.8437 35.061L72.8437 9.99914C72.8437 7.08488 71.9158 4.70459 70.0638 2.85589C68.2104 1.00482 66.2965 0.00927706 63.4218 0.00927694L49.4108 0.00927634C46.5348 0.00927622 43.722 1.00481 41.87 2.85589C40.0154 4.70459 39.09 7.08488 39.09 9.99914L39.09 35.061C39.09 37.9385 40.0065 40.295 41.8422 42.1259C43.6741 43.9568 46.0501 44.8729 48.9613 44.8729L62.9749 44.8729C65.8862 44.8729 68.2571 43.9568 70.0928 42.1259Z" fill="#ED1C24"/>
<path d="M70.0928 244.591C71.9247 242.707 72.8437 240.283 72.8437 237.318L72.8437 211.52C72.8437 208.52 71.9158 206.068 70.0638 204.165C68.2104 202.261 66.2965 201.235 63.4218 201.235L49.4108 201.235C46.5348 201.235 43.722 202.261 41.87 204.165C40.0154 206.068 39.09 208.52 39.09 211.52L39.09 237.318C39.09 240.282 40.0065 242.707 41.8422 244.591C43.6741 246.476 46.0501 247.418 48.9613 247.418L62.9749 247.418C65.8862 247.419 68.2571 246.476 70.0928 244.591Z" fill="#ED1C24"/>
<path d="M70.0928 143.029C71.9247 141.171 72.8437 138.782 72.8437 135.861L72.8437 110.43C72.8437 107.472 71.9158 105.056 70.0638 103.181C68.2104 101.304 66.2965 100.292 63.4218 100.292L49.4108 100.292C46.5348 100.292 43.722 101.304 41.87 103.181C40.0154 105.056 39.09 107.472 39.09 110.43L39.09 135.861C39.09 138.781 40.0065 141.171 41.8422 143.029C43.6741 144.887 46.0501 145.816 48.9613 145.816L62.9749 145.816C65.8862 145.816 68.2571 144.887 70.0928 143.029Z" fill="#ED1C24"/>
<path d="M109.246 396.367C111.079 394.509 111.998 392.12 111.998 389.199L111.998 363.769C111.998 360.813 111.07 358.395 109.218 356.519C107.363 354.642 105.45 353.631 102.576 353.631L88.5651 353.631C85.6891 353.631 82.8751 354.642 81.0243 356.519C79.1697 358.395 78.2443 360.811 78.2443 363.769L78.2443 389.199C78.2443 392.119 79.1596 394.509 80.9952 396.367C82.8284 398.224 85.2031 399.154 88.1144 399.154L102.128 399.154C105.039 399.154 107.413 398.226 109.246 396.367Z" fill="#ED1C24"/>
<path d="M70.0908 396.362C71.9227 394.501 72.8418 392.108 72.8418 389.183L72.8418 363.71C72.8418 360.75 71.9139 358.328 70.0618 356.45C68.2085 354.569 65.8464 353.631 62.9717 353.631L48.9569 353.631C46.0835 353.631 43.7188 354.569 41.868 356.45C40.0134 358.328 39.088 360.748 39.088 363.71L39.088 389.183C39.088 392.108 40.0046 394.501 41.839 396.362C43.6721 398.223 46.0468 399.154 48.9581 399.154L62.9717 399.154C65.883 399.154 68.2552 398.223 70.0908 396.362Z" fill="#F68B1F"/>
<path d="M70.0908 345.606C71.9227 343.775 72.8418 341.419 72.8418 338.541L72.8418 313.479C72.8418 310.565 71.9139 308.184 70.0618 306.336C68.2085 304.485 66.2945 303.489 63.4199 303.489L49.4088 303.489C46.5329 303.489 43.7201 304.485 41.868 306.336C40.0134 308.184 39.088 310.565 39.088 313.479L39.088 338.541C39.088 341.418 40.0046 343.775 41.8402 345.606C43.6721 347.437 46.0481 348.353 48.9594 348.353L62.973 348.353C65.8842 348.353 68.2552 347.437 70.0908 345.606Z" fill="#ED1C24"/>
<path d="M70.0908 446.51C71.9227 444.652 72.8418 442.263 72.8418 439.342L72.8418 413.91C72.8418 410.952 71.9139 408.536 70.0618 406.661C68.2085 404.784 66.2945 403.772 63.4199 403.772L49.4088 403.772C46.5329 403.772 43.7201 404.784 41.868 406.661C40.0134 408.536 39.088 410.952 39.088 413.91L39.088 439.342C39.088 442.261 40.0046 444.652 41.8402 446.51C43.6721 448.367 46.0481 449.296 48.9594 449.296L62.973 449.296C65.8842 449.296 68.2552 448.367 70.0908 446.51Z" fill="#ED1C24"/>
<path d="M31.3656 193.355C33.2187 191.445 34.1484 188.99 34.1484 185.987L34.1484 159.846C34.1484 156.806 33.2097 154.322 31.3362 152.393C29.4614 150.463 27.0719 149.5 24.1639 149.5L9.98647 149.5C7.07973 149.5 4.68766 150.465 2.81539 152.393C0.93929 154.322 0.0031627 156.806 0.00316256 159.846L0.00316139 185.987C0.00316126 188.99 0.930356 191.445 2.78602 193.355C4.64041 195.265 7.04269 196.219 9.98774 196.219L24.1639 196.219C27.1089 196.219 29.5086 195.265 31.3656 193.355Z" fill="#8DC63F"/>
<path d="M31.3656 93.2422C33.2187 91.3325 34.1484 88.8769 34.1484 85.8743L34.1484 59.7332C34.1484 56.6947 33.2097 54.2095 31.3362 52.2824C29.4614 50.3516 27.0719 49.3887 24.1639 49.3887L9.98647 49.3887C7.07973 49.3887 4.68766 50.3516 2.81539 52.2824C0.93929 54.2095 0.0031627 56.6935 0.00316256 59.7332L0.00316139 85.8743C0.00316126 88.8769 0.930356 91.3325 2.78602 93.2422C4.64041 95.152 7.04269 96.1075 9.98774 96.1075L24.1639 96.1075C27.1089 96.1075 29.5086 95.152 31.3656 93.2422Z" fill="#8DC63F"/>
<path d="M31.3656 296.135C33.2187 294.224 34.1484 291.769 34.1484 288.766L34.1484 262.626C34.1484 259.587 33.2097 257.102 31.3362 255.175C29.4614 253.244 27.0719 252.281 24.1639 252.281L9.98647 252.281C7.07973 252.281 4.68766 253.244 2.81539 255.175C0.93929 257.102 0.0031627 259.586 0.00316256 262.626L0.0031614 288.766C0.00316126 291.767 0.930356 294.224 2.78602 296.135C4.64041 298.045 7.04269 299 9.98774 299L24.1639 299C27.1089 299 29.5086 298.046 31.3656 296.135Z" fill="#8DC63F"/>
<path d="M31.3656 42.6052C33.2187 40.753 34.1484 38.3703 34.1484 35.4583L34.1484 10.1057C34.1484 7.15767 33.2097 4.74977 31.3362 2.87963C29.4614 1.00709 27.5252 -2.8294e-07 24.6172 -4.0717e-07L10.4437 -1.01266e-06C7.53438 -1.13694e-06 4.68894 1.00708 2.81539 2.87963C0.93929 4.74977 0.00316271 7.15767 0.00316257 10.1057L0.00316144 35.4583C0.00316131 38.3691 0.930356 40.753 2.7873 42.6052C4.64041 44.4573 7.04396 45.384 9.98902 45.384L24.1651 45.384C27.1102 45.384 29.5086 44.4573 31.3656 42.6052Z" fill="#F68B1F"/>
<path d="M31.3656 244.164C33.2187 242.312 34.1484 239.931 34.1484 237.017L34.1484 211.665C34.1484 208.717 33.2097 206.308 31.3362 204.438C29.4614 202.566 27.5252 201.558 24.6172 201.558L10.4437 201.558C7.53438 201.558 4.68894 202.566 2.81539 204.438C0.93929 206.308 0.00316271 208.717 0.00316257 211.665L0.00316144 237.017C0.00316131 239.929 0.930356 242.312 2.7873 244.164C4.64041 246.017 7.04396 246.942 9.98902 246.942L24.1651 246.942C27.1102 246.943 29.5086 246.017 31.3656 244.164Z" fill="#F68B1F"/>
<path d="M31.3656 142.719C33.2187 140.866 34.1484 138.485 34.1484 135.572L34.1484 110.219C34.1484 107.27 33.2097 104.861 31.3362 102.992C29.4614 101.121 27.5252 100.112 24.6172 100.112L10.4437 100.112C7.53437 100.112 4.68894 101.121 2.81539 102.992C0.939291 104.861 0.00316205 107.27 0.00316191 110.219L0.00316078 135.572C0.00316065 138.483 0.930355 140.866 2.7873 142.719C4.64041 144.571 7.04396 145.496 9.98902 145.496L24.1651 145.496C27.1102 145.496 29.5086 144.571 31.3656 142.719Z" fill="#F68B1F"/>
<path d="M31.3656 397.499C33.2187 395.535 34.1484 393.009 34.1484 389.921L34.1484 363.033C34.1484 359.908 33.2097 357.351 31.3362 355.369C29.4614 353.383 27.0719 352.393 24.1639 352.393L9.98647 352.393C7.07973 352.393 4.68766 353.383 2.81539 355.369C0.93929 357.351 0.00316269 359.906 0.00316255 363.033L0.00316135 389.921C0.00316121 393.009 0.930356 395.535 2.78602 397.499C4.64041 399.464 7.04269 400.446 9.98774 400.446L24.1639 400.446C27.1089 400.446 29.5086 399.464 31.3656 397.499Z" fill="#8DC63F"/>
<path d="M31.3656 345.61C33.2187 343.757 34.1484 341.375 34.1484 338.463L34.1484 313.11C34.1484 310.162 33.2097 307.754 31.3362 305.884C29.4614 304.011 27.5252 303.004 24.6172 303.004L10.4437 303.004C7.53438 303.004 4.68894 304.011 2.81539 305.884C0.93929 307.754 0.00316271 310.162 0.00316257 313.11L0.00316144 338.463C0.00316131 341.374 0.930356 343.757 2.7873 345.61C4.64041 347.462 7.04396 348.388 9.98902 348.388L24.1651 348.388C27.1102 348.388 29.5086 347.462 31.3656 345.61Z" fill="#F68B1F"/>
<path d="M31.3656 445.804C33.2187 444.007 34.1484 441.695 34.1484 438.868L34.1484 414.26C34.1484 411.399 33.2097 409.06 31.3362 407.246C29.4614 405.43 27.5252 404.451 24.6172 404.451L10.4437 404.451C7.53438 404.451 4.68894 405.43 2.81539 407.246C0.93929 409.06 0.00316272 411.399 0.00316259 414.26L0.00316149 438.868C0.00316136 441.694 0.930356 444.007 2.7873 445.804C4.64041 447.602 7.04396 448.5 9.98902 448.5L24.1651 448.5C27.1102 448.5 29.5086 447.602 31.3656 445.804Z" fill="#F68B1F"/>
<path d="M109.246 496.964C111.079 495.106 111.998 492.717 111.998 489.796L111.998 464.366C111.998 461.41 111.07 458.992 109.218 457.116C107.363 455.239 105.45 454.228 102.576 454.228L88.5651 454.228C85.6891 454.228 82.8751 455.239 81.0243 457.116C79.1697 458.992 78.2443 461.408 78.2443 464.366L78.2443 489.796C78.2443 492.716 79.1596 495.106 80.9952 496.964C82.8284 498.821 85.2031 499.751 88.1144 499.751L102.128 499.751C105.039 499.751 107.413 498.823 109.246 496.964Z" fill="#ED1C24"/>
<path d="M70.0908 496.959C71.9227 495.098 72.8418 492.705 72.8418 489.78L72.8418 464.307C72.8418 461.347 71.9139 458.925 70.0618 457.047C68.2085 455.166 65.8464 454.228 62.9717 454.228L48.9569 454.228C46.0835 454.228 43.7188 455.166 41.868 457.047C40.0134 458.925 39.088 461.345 39.088 464.307L39.088 489.78C39.088 492.705 40.0046 495.098 41.839 496.959C43.6721 498.82 46.0468 499.751 48.9581 499.751L62.9717 499.751C65.883 499.751 68.2552 498.82 70.0908 496.959Z" fill="#F68B1F"/>
<path d="M70.0908 547.106C71.9227 545.248 72.8418 542.859 72.8418 539.938L72.8418 514.506C72.8418 511.549 71.9139 509.132 70.0618 507.258C68.2085 505.38 66.2945 504.369 63.4199 504.369L49.4088 504.369C46.5329 504.369 43.7201 505.38 41.868 507.258C40.0134 509.132 39.088 511.549 39.088 514.506L39.088 539.938C39.088 542.858 40.0046 545.248 41.8402 547.106C43.6721 548.964 46.0481 549.892 48.9594 549.892L62.973 549.892C65.8842 549.892 68.2552 548.964 70.0908 547.106Z" fill="#ED1C24"/>
<path d="M31.5321 497.492C33.3953 495.583 34.3301 493.13 34.3301 490.13L34.3301 464.01C34.3301 460.974 33.3863 458.491 31.5026 456.566C29.6176 454.636 27.2152 453.674 24.2914 453.674L10.0372 453.674C7.11467 453.674 4.70964 454.636 2.82723 456.566C0.940958 458.491 -0.000241814 460.973 -0.00024195 464.01L-0.000243118 490.13C-0.000243252 493.13 0.931976 495.583 2.7977 497.492C4.66214 499.4 7.07743 500.355 10.0384 500.355L24.2914 500.355C27.2524 500.355 29.6651 499.4 31.5321 497.492Z" fill="#8DC63F"/>
<path d="M31.5321 547.185C33.3953 545.339 34.3301 542.966 34.3301 540.064L34.3301 514.801C34.3301 511.864 33.3863 509.463 31.5026 507.601C29.6176 505.736 27.671 504.731 24.7472 504.731L10.4968 504.731C7.57178 504.731 4.71093 505.736 2.82723 507.601C0.940958 509.463 -0.000241807 511.864 -0.000241938 514.801L-0.000243068 540.064C-0.000243198 542.965 0.931977 545.339 2.79898 547.185C4.66214 549.03 7.07872 549.953 10.0397 549.953L24.2927 549.953C27.2537 549.953 29.6651 549.03 31.5321 547.185Z" fill="#F68B1F"/>
</svg>
