<svg width="52" height="52" viewBox="0 0 52 52" fill="none" xmlns="http://www.w3.org/2000/svg">
<path d="M41.1667 34.6667V17.3333C41.1667 16.1417 40.1917 15.1667 39.0001 15.1667H13.0001C11.8084 15.1667 10.8334 16.1417 10.8334 17.3333V18.6983C19.4134 21.4717 26.1951 28.2533 28.9684 36.8333H39.0001C40.1917 36.8333 41.1667 35.8583 41.1667 34.6667ZM45.5001 6.5H6.50008C4.11675 6.5 2.16675 8.45 2.16675 10.8333V15.1667C2.16675 16.3583 3.14175 17.3333 4.33341 17.3333C5.52508 17.3333 6.50008 16.3583 6.50008 15.1667V13C6.50008 11.8083 7.47508 10.8333 8.66675 10.8333H43.3334C44.5251 10.8333 45.5001 11.8083 45.5001 13V39C45.5001 40.1917 44.5251 41.1667 43.3334 41.1667H32.5001C31.3084 41.1667 30.3334 42.1417 30.3334 43.3333C30.3334 44.525 31.3084 45.5 32.5001 45.5H45.5001C47.8834 45.5 49.8334 43.55 49.8334 41.1667V10.8333C49.8334 8.45 47.8834 6.5 45.5001 6.5ZM2.16675 39V45.5H8.66675C8.66675 44.1567 8.25508 42.9 7.56175 41.86C6.39175 40.1267 4.42008 39 2.16675 39ZM4.63675 30.5283C3.33675 30.3117 2.16675 31.3733 2.16675 32.695C2.16675 33.7567 2.94675 34.645 4.00841 34.8183C8.51508 35.5983 12.0684 39.1517 12.8484 43.6583C13.0217 44.72 13.9101 45.5 14.9717 45.5C16.2934 45.5 17.3334 44.33 17.1384 43.03C16.0984 36.6167 11.0284 31.5683 4.63675 30.5283ZM4.55008 21.775C3.27175 21.6667 2.16675 22.6633 2.16675 23.9417C2.16675 25.0467 2.99008 25.9783 4.07341 26.0867C13.3251 26.975 20.6917 34.3417 21.5801 43.5933C21.6884 44.6767 22.6201 45.4783 23.7251 45.4783C25.0251 45.4783 26.0217 44.3517 25.8917 43.0733C24.7434 31.8283 15.7951 22.9017 4.55008 21.775Z" fill="#4F8136"/>
</svg>
