<svg width="21" height="21" viewBox="0 0 21 21" fill="none" xmlns="http://www.w3.org/2000/svg">
<path d="M10.3717 6.1691C8.02593 6.1691 6.11769 8.0807 6.11769 10.4306C6.11769 12.7806 8.02593 14.6922 10.3717 14.6922C12.7175 14.6922 14.6257 12.7806 14.6257 10.4306C14.6257 8.0807 12.7175 6.1691 10.3717 6.1691ZM10.3717 6.1691C8.02593 6.1691 6.11769 8.0807 6.11769 10.4306C6.11769 12.7806 8.02593 14.6922 10.3717 14.6922C12.7175 14.6922 14.6257 12.7806 14.6257 10.4306C14.6257 8.0807 12.7175 6.1691 10.3717 6.1691ZM17.7049 0H3.03859C1.36129 0 0 1.36369 0 3.04396V17.7361C0 19.4164 1.36129 20.7801 3.03859 20.7801H17.7049C19.3822 20.7801 20.7434 19.4164 20.7434 17.7361V3.04396C20.7434 1.36369 19.3822 0 17.7049 0ZM10.3717 15.9098C7.35748 15.9098 4.90226 13.4502 4.90226 10.4306C4.90226 7.41099 7.35748 4.95151 10.3717 4.95151C13.386 4.95151 15.8412 7.41099 15.8412 10.4306C15.8412 13.4502 13.386 15.9098 10.3717 15.9098ZM17.0566 4.95151C16.3881 4.95151 15.8412 4.4036 15.8412 3.73393C15.8412 3.06425 16.3881 2.51634 17.0566 2.51634C17.7251 2.51634 18.2721 3.06425 18.2721 3.73393C18.2721 4.4036 17.7251 4.95151 17.0566 4.95151ZM10.3717 6.1691C8.02593 6.1691 6.11769 8.0807 6.11769 10.4306C6.11769 12.7806 8.02593 14.6922 10.3717 14.6922C12.7175 14.6922 14.6257 12.7806 14.6257 10.4306C14.6257 8.0807 12.7175 6.1691 10.3717 6.1691ZM10.3717 6.1691C8.02593 6.1691 6.11769 8.0807 6.11769 10.4306C6.11769 12.7806 8.02593 14.6922 10.3717 14.6922C12.7175 14.6922 14.6257 12.7806 14.6257 10.4306C14.6257 8.0807 12.7175 6.1691 10.3717 6.1691ZM10.3717 6.1691C8.02593 6.1691 6.11769 8.0807 6.11769 10.4306C6.11769 12.7806 8.02593 14.6922 10.3717 14.6922C12.7175 14.6922 14.6257 12.7806 14.6257 10.4306C14.6257 8.0807 12.7175 6.1691 10.3717 6.1691Z" fill="#00703C"/>
</svg>
