<svg width="198" height="94" viewBox="0 0 198 94" fill="none" xmlns="http://www.w3.org/2000/svg">
<path d="M35.3027 69.02C33.7682 67.5753 31.7946 66.8525 29.3811 66.8525H8.37685C5.93323 66.8525 3.93699 67.5828 2.38813 69.0427C0.838519 70.5025 0.0644531 72.3652 0.0644531 74.6285V85.6675C0.0644531 87.9323 0.838519 89.7942 2.38813 91.2533C3.93699 92.7139 5.93323 93.4434 8.37685 93.4434H29.3811C31.7946 93.4434 33.7682 92.7214 35.3027 91.2759C36.8373 89.8312 37.6045 87.9617 37.6045 85.6675V74.6285C37.6045 72.335 36.8373 70.4655 35.3027 69.02Z" fill="#8DC63F"/>
<path d="M21.2768 81.8129H17.4956C17.4941 81.9736 17.5009 82.077 17.4639 82.2052C17.4375 82.3161 17.1787 82.7469 17.0497 82.9695C16.6763 83.6304 12.3164 91.4954 12.3164 91.4954C12.499 91.5693 12.8234 91.6945 12.9992 91.7353C13.0995 91.7647 13.2609 91.7971 13.3613 91.8039C13.7823 91.8341 14.1157 91.6847 14.2772 91.6025C14.4349 91.521 14.4854 91.4878 14.7502 91.2577C14.8951 91.1362 19.3968 82.9423 19.4096 82.9265C19.4428 83.0464 23.6028 90.7281 23.8502 91.1325C23.9513 91.2985 24.146 91.6606 24.2267 91.8228C24.3587 91.7617 24.5926 91.5897 24.7209 91.4614C24.9517 91.2313 25.1117 91.0171 25.2437 90.6421C25.3591 90.3479 25.3795 89.9405 25.2935 89.6417C25.1984 89.4199 21.8555 83.1362 21.6216 82.7545C21.4557 82.4821 21.2625 82.2626 21.2768 81.8129ZM19.4149 73.0056C19.1358 73.0056 18.8023 73.0743 18.6567 73.121C17.768 73.41 17.4277 74.0543 16.9305 74.7997C15.9762 76.2323 12.9637 80.7778 12.7728 81.0125C12.8151 81.1317 12.9049 81.2048 13.0263 81.2644C13.2051 81.3565 13.4322 81.407 13.648 81.407C14.0493 81.407 14.4228 81.2871 14.708 81.1022C14.8053 81.0321 14.966 80.8533 15.0678 80.6903C15.2202 80.4625 17.4511 77.189 17.4511 77.189L17.4013 81.1656H21.261L21.3078 76.1335C21.4308 76.218 22.6447 77.3172 22.7676 77.404V81.2011C23.5779 81.1905 23.9657 80.7824 24.2908 80.3221C24.3504 80.2414 24.4711 80.0475 24.5089 79.9298L24.5051 76.9219C24.4787 76.6382 24.3037 76.4624 24.2078 76.3583C24.0939 76.2572 21.7755 74.2965 21.2301 73.8604C21 73.6522 20.8302 73.5315 20.6175 73.3715C20.3572 73.1693 20.0592 73.0795 19.8268 73.0411C19.7597 73.026 19.4986 73.0056 19.4149 73.0056Z" fill="white"/>
<path d="M18.3617 72.2315C19.3998 72.2315 20.241 71.3903 20.241 70.3522C20.241 69.3148 19.3998 68.4736 18.3617 68.4736C17.3236 68.4736 16.4824 69.3148 16.4824 70.3522C16.4824 71.3903 17.3236 72.2315 18.3617 72.2315Z" fill="white"/>
<path d="M35.3009 7.65139C33.7663 6.20664 31.7927 5.48389 29.3793 5.48389H8.375C5.93137 5.48389 3.93514 6.21418 2.38628 7.67402C0.836667 9.13385 0 10.642 0 12.9061V23.945C0 26.209 0.836667 28.4256 2.38628 29.8847C3.93514 31.3452 5.93137 32.0748 8.375 32.0748H29.3793C31.7927 32.0748 33.7663 31.3528 35.3009 29.9073C36.8354 28.4625 37.6027 26.5931 37.6027 24.2988V13.2599C37.6027 10.9664 36.8354 9.09689 35.3009 7.65139Z" fill="#ED1C24"/>
<path d="M26.2965 24.2238V24.3672V26.2797C26.2965 26.715 26.3191 27.1526 26.3493 27.5871C26.3893 28.1477 26.6156 28.414 27.103 28.4261C27.8091 28.4464 28.5183 28.4412 29.2244 28.4261C29.527 28.4464 29.791 28.2246 29.8227 27.9236C29.8702 27.7275 29.8951 27.5268 29.8981 27.3253V24.3091C29.8966 24.2744 29.8921 24.2404 29.8853 24.2065L26.2965 24.2238ZM28.0558 20.8387C27.5896 20.8342 27.1437 20.6448 26.8163 20.3121C26.4889 19.9794 26.3078 19.5305 26.3116 19.0642C26.3161 18.5972 26.5047 18.1514 26.8374 17.824C27.1701 17.4973 27.6197 17.3155 28.086 17.32C28.5522 17.3238 28.9981 17.5131 29.3255 17.8458C29.653 18.1785 29.834 18.6274 29.8303 19.0937C29.8265 19.5607 29.6371 20.0065 29.3044 20.334C28.9717 20.6606 28.5228 20.8425 28.0558 20.8387ZM9.16244 15.7387C9.16999 15.707 9.17979 15.6761 9.19035 15.6459C9.86029 14.0887 10.5348 12.5353 11.2138 10.9835C11.2387 10.9284 11.2666 10.8756 11.2937 10.8228C11.3533 10.693 11.4861 10.6138 11.6279 10.6213H12.0406H25.4696H25.972H25.9728C26.1622 10.6002 26.3402 10.7179 26.3946 10.9005C26.6058 11.4029 26.8223 11.9054 27.0381 12.4086C27.4892 13.4558 27.9374 14.5044 28.3825 15.5554C28.4006 15.5953 28.4157 15.6383 28.4406 15.6987L9.16244 15.7387ZM9.557 20.8387C9.09076 20.8387 8.64339 20.6531 8.31294 20.3234C7.98325 19.993 7.79765 19.5456 7.79765 19.0793C7.79765 18.6123 7.98325 18.165 8.31294 17.8353C8.64339 17.5048 9.09076 17.32 9.557 17.32C10.024 17.32 10.4714 17.5048 10.8011 17.8353C11.1315 18.165 11.3163 18.6123 11.3163 19.0793C11.3163 19.5456 11.1315 19.993 10.8011 20.3234C10.4714 20.6531 10.024 20.8387 9.557 20.8387ZM31.3836 20.7829V18.2698C31.3866 17.8828 31.2735 17.5041 31.0592 17.1812C30.7778 16.7413 30.5062 16.2917 30.2648 15.8292L30.2912 15.8813C30.2784 15.8617 30.1924 15.6995 30.1826 15.6776C30.0732 15.4082 29.275 13.7281 29.275 13.7281C28.9408 12.9737 28.6262 12.1996 28.3168 11.4309C28.1064 10.9133 27.88 10.395 27.6288 9.8903C27.4425 9.48743 27.063 9.20828 26.6231 9.15094C26.2391 9.08908 25.8506 9.05513 25.4621 9.0506C24.2904 9.0506 23.1195 9.08832 21.9434 9.09587C20.9958 9.09587 20.0505 9.08305 19.1059 9.07852L13.5563 9.05362V9.05287C12.7445 9.01741 11.9312 9.04079 11.1225 9.12378C10.6049 9.16603 10.1447 9.47309 9.90631 9.93556C9.85577 10.0336 9.80068 10.1287 9.75843 10.229C9.39102 11.1389 9.03192 12.0487 8.65696 12.9541C8.56945 13.2257 8.45855 13.4769 8.3484 13.7281C8.3484 13.7281 7.46269 15.6172 7.38574 15.7938C7.10735 16.3264 6.79802 16.8424 6.45777 17.3373C6.35743 17.495 6.29784 17.6761 6.28426 17.8624C6.26465 18.2042 6.22088 18.718 6.22088 19.062C6.22088 19.8496 6.2073 20.3649 6.22088 21.1472C6.22088 21.5969 6.22239 21.7938 6.24729 22.2412C6.25181 22.4464 6.32348 22.6433 6.45174 22.8032C6.57999 22.9624 6.75729 23.0756 6.95646 23.1239C7.388 23.2499 7.83613 23.3117 8.28577 23.3072C9.29144 23.3276 10.3145 23.3246 11.3299 23.3276H18.9452H24.9777C26.5733 23.3276 28.172 23.4075 29.7533 23.277C30.0679 23.2476 30.378 23.1827 30.6782 23.0831C30.8397 23.0341 30.983 22.9383 31.0909 22.8078C31.1988 22.6788 31.2667 22.5196 31.2863 22.3521C31.3157 22.1982 31.3323 22.0428 31.3361 21.8874C31.3361 21.4166 31.3836 21.268 31.3836 20.7829ZM11.3669 24.1839H7.77276V25.4408C7.77276 26.1371 7.77276 26.8327 7.8052 27.529C7.82784 28.165 8.09492 28.4442 8.67508 28.454C9.32691 28.4638 9.97799 28.4638 10.6283 28.454C10.8169 28.4804 11.0078 28.42 11.1481 28.2895C11.2877 28.1598 11.3616 27.9734 11.3495 27.7833C11.382 27.4189 11.3971 27.0515 11.3971 26.6848C11.3971 25.8949 11.3971 25.1065 11.3767 24.3166C11.3722 24.2842 11.3692 24.2322 11.3669 24.1839Z" fill="white"/>
<path d="M35.2598 38.333C33.7252 36.8883 31.7516 36.1655 29.3382 36.1655H8.33388C5.89026 36.1655 3.89402 36.8958 2.34516 38.3557C0.79555 39.8155 0.0214844 41.6782 0.0214844 43.9415V54.9804C0.0214844 57.2445 0.79555 59.1072 2.34516 60.5663C3.89402 62.0269 5.89026 62.7564 8.33388 62.7564H29.3382C31.7516 62.7564 33.7252 62.0344 35.2598 60.5889C36.7943 59.1442 37.5615 57.2747 37.5615 54.9804V43.9415C37.5615 41.648 36.7943 39.7785 35.2598 38.333Z" fill="#F68B1F"/>
<path d="M23.6772 52.8891C24.9824 52.9004 26.2876 52.8966 27.5927 52.9027C27.0005 51.5892 26.4083 50.275 25.8138 48.9622C24.5056 49.8065 23.6659 51.3289 23.6772 52.8891ZM7.81214 48.5088C6.67898 48.8483 5.68914 49.6412 5.10747 50.6703C4.48656 51.7333 4.32211 53.0483 4.64727 54.2343C4.85776 55.0385 5.29534 55.7824 5.88983 56.3633C6.73405 57.2045 7.91021 57.7024 9.10222 57.7145C9.96228 57.7364 10.8299 57.5108 11.5685 57.0717C12.6443 56.4508 13.4516 55.3817 13.7518 54.1762C14.0596 52.9955 13.8816 51.6926 13.2592 50.6431C12.7809 49.8049 12.0279 49.1365 11.1566 48.7269C10.7371 50.0517 10.3433 51.384 9.90193 52.702C9.80083 52.9593 9.72463 53.2414 9.53074 53.4474C9.22142 53.6933 8.70464 53.516 8.58845 53.1411C8.50773 52.8499 8.58242 52.5473 8.66692 52.2659C9.05922 50.9555 9.4802 49.6541 9.8891 48.3481C9.19502 48.2621 8.48057 48.2961 7.81214 48.5088ZM27.0088 48.4062C27.7059 49.9739 28.4362 51.5273 29.1122 53.1041C29.2397 53.3689 29.3083 53.728 29.082 53.9596C28.8134 54.1573 28.4558 54.1324 28.1404 54.1565C26.7055 54.1716 25.2721 54.1166 23.8371 54.1294C24.0574 54.9691 24.5229 55.7416 25.1559 56.3346C26.0212 57.1592 27.2132 57.63 28.4083 57.6156C29.629 57.6187 30.8421 57.1139 31.7014 56.2471C32.3049 55.6526 32.7425 54.8921 32.9455 54.0698C33.251 52.8951 33.076 51.6005 32.4581 50.5526C31.85 49.4896 30.8066 48.6816 29.6222 48.3685C28.7712 48.1324 27.853 48.149 27.0088 48.4062ZM21.1657 52.8853C21.5587 52.8861 21.9503 52.8861 22.3419 52.8861C22.3577 52.1173 22.489 51.344 22.7915 50.6341C23.2675 49.4308 24.1631 48.4123 25.26 47.7348C24.876 46.8808 24.4912 46.0267 24.1035 45.1735C23.1242 47.7446 22.1449 50.3149 21.1657 52.8853ZM12.5002 44.6959C14.9521 47.3719 17.4086 50.0449 19.862 52.7201C20.8616 50.0396 21.8598 47.3591 22.8541 44.677C19.4041 44.6838 15.9525 44.6891 12.5002 44.6959ZM12.6005 40.5661C12.9151 40.1723 13.4146 39.9882 13.9035 39.9377C14.7152 39.8524 15.5346 39.8916 16.3516 39.8735C16.3426 40.2787 16.3328 40.683 16.326 41.0882C15.7179 41.0957 15.1106 41.0731 14.5032 41.1025C14.1864 41.1267 13.8416 41.1531 13.5798 41.356C13.364 41.5416 13.2652 41.8207 13.18 42.084C13.0442 42.5254 12.9302 42.9728 12.8065 43.4179C16.3335 43.4141 19.8613 43.399 23.3883 43.396C23.5271 43.0075 23.6666 42.6182 23.8032 42.2281C23.1159 42.0772 22.4233 41.9452 21.7413 41.7732C21.5353 41.7076 21.2962 41.6691 21.1453 41.5016C21.0344 41.3575 21.1672 41.1923 21.2351 41.0633C23.0058 41.0633 24.7757 41.0633 26.5456 41.0633C26.5629 41.4609 26.5818 41.8577 26.5976 42.2561C26.1231 42.2628 25.6493 42.2726 25.1755 42.2809C25.0374 42.6597 24.8994 43.0392 24.7606 43.4179C25.3241 44.6733 25.8922 45.9264 26.455 47.1818C27.8515 46.7216 29.4192 46.7683 30.7689 47.3628C32.6452 48.149 34.0522 49.9536 34.3472 51.9679C34.5434 53.1743 34.3555 54.4387 33.8221 55.5372C33.2314 56.7639 32.2106 57.7786 30.9794 58.3618C29.0262 59.3146 26.5584 59.0883 24.8187 57.7794C23.6184 56.9133 22.7704 55.5839 22.4693 54.1362C21.6387 54.0969 20.8073 54.1317 19.9767 54.112C19.5467 54.1068 19.1332 53.9332 18.8201 53.642C18.2498 53.1169 17.7685 52.5036 17.2592 51.9204C15.564 49.9211 13.8031 47.9785 12.0015 46.075C11.8529 46.5345 11.7081 46.9954 11.5609 47.4556C12.9084 48.0245 14.0302 49.1063 14.6511 50.4289C15.1679 51.516 15.3475 52.7616 15.1543 53.9498C14.9944 55.0249 14.5229 56.0494 13.8242 56.8808C12.9031 57.9914 11.5685 58.7564 10.1411 58.9721C9.00114 59.1577 7.80458 59.0046 6.74988 58.5323C5.39717 57.9393 4.27683 56.8273 3.68007 55.4761C3.22364 54.4659 3.05843 53.3236 3.20781 52.2267C3.39869 50.6439 4.26703 49.1584 5.54128 48.2033C6.86984 47.172 8.64352 46.7646 10.2942 47.0701C10.7529 45.5952 11.183 44.1105 11.6537 42.6385C11.9019 41.9226 12.1192 41.1666 12.6005 40.5661Z" fill="white"/>
<path d="M192.549 92.2508C192.195 92.0886 191.893 91.8705 191.641 91.5967C191.388 91.3228 191.193 90.9999 191.057 90.6287C190.919 90.2576 190.852 89.863 190.852 89.445C190.852 89.0271 190.92 88.6317 191.057 88.2606C191.194 87.8894 191.388 87.5672 191.641 87.2926C191.893 87.0188 192.195 86.8007 192.549 86.6385C192.903 86.4763 193.298 86.3956 193.738 86.3956C194.178 86.3956 194.575 86.4763 194.928 86.6385C195.281 86.8007 195.584 87.0188 195.836 87.2926C196.088 87.5672 196.283 87.8894 196.419 88.2606C196.557 88.6317 196.624 89.0271 196.624 89.445C196.624 89.863 196.557 90.2576 196.419 90.6287C196.282 90.9999 196.088 91.3228 195.836 91.5967C195.584 91.8705 195.281 92.0886 194.928 92.2508C194.575 92.413 194.178 92.4945 193.738 92.4945C193.298 92.4945 192.903 92.413 192.549 92.2508ZM195.349 93.1591C195.84 92.9539 196.259 92.671 196.609 92.3104C196.959 91.9498 197.233 91.525 197.432 91.0346C197.63 90.5442 197.729 90.0146 197.729 89.445C197.729 88.8754 197.63 88.3458 197.432 87.8554C197.233 87.365 196.959 86.9395 196.609 86.5789C196.259 86.2191 195.84 85.9354 195.349 85.7302C194.86 85.525 194.323 85.4224 193.738 85.4224C193.155 85.4224 192.617 85.525 192.127 85.7302C191.637 85.9354 191.217 86.2191 190.867 86.5789C190.517 86.9395 190.243 87.365 190.046 87.8554C189.847 88.3458 189.747 88.8754 189.747 89.445C189.747 90.0146 189.847 90.5442 190.046 91.0346C190.243 91.525 190.517 91.9498 190.867 92.3104C191.217 92.671 191.637 92.9539 192.127 93.1591C192.616 93.3651 193.154 93.4677 193.738 93.4677C194.323 93.4677 194.86 93.3651 195.349 93.1591ZM172.188 93.273H173.226V89.445H173.312L176.88 93.273H178.394L174.447 89.1531L178.145 85.617H176.696L173.312 88.926H173.226V85.617H172.188V93.273ZM154.517 92.4077C154.777 92.7691 155.127 93.0346 155.566 93.2082C156.006 93.3809 156.472 93.4677 156.961 93.4677C157.33 93.4677 157.675 93.4134 158 93.3055C158.325 93.1968 158.605 93.0422 158.843 92.84C159.081 92.6386 159.271 92.3896 159.411 92.0939C159.552 91.7989 159.622 91.4669 159.622 91.0995C159.622 90.6378 159.528 90.2757 159.341 90.0124C159.153 89.7491 158.921 89.5401 158.643 89.3854C158.365 89.23 158.062 89.1093 157.735 89.0233C157.406 88.9365 157.104 88.8392 156.826 88.7313C156.549 88.6227 156.316 88.4824 156.129 88.3096C155.941 88.1361 155.848 87.8879 155.848 87.5635C155.848 87.448 155.871 87.322 155.918 87.1847C155.965 87.0482 156.046 86.9199 156.162 86.8007C156.276 86.6815 156.43 86.5842 156.62 86.5088C156.811 86.4333 157.051 86.3956 157.339 86.3956C157.642 86.3956 157.913 86.4567 158.15 86.5789C158.388 86.7019 158.572 86.8641 158.702 87.0655L159.545 86.2983C159.256 85.9452 158.922 85.7106 158.539 85.5951C158.157 85.4797 157.757 85.4224 157.339 85.4224C156.878 85.4224 156.482 85.4925 156.156 85.6329C155.827 85.7732 155.559 85.9482 155.35 86.1572C155.141 86.3669 154.988 86.597 154.891 86.8498C154.793 87.1017 154.745 87.3401 154.745 87.5635C154.745 88.0606 154.838 88.4552 155.026 88.7472C155.213 89.0391 155.446 89.2715 155.723 89.445C156.001 89.6178 156.304 89.7528 156.632 89.8502C156.96 89.9475 157.262 90.0486 157.54 90.1527C157.817 90.2576 158.05 90.3873 158.238 90.542C158.425 90.6974 158.519 90.923 158.519 91.218C158.519 91.4277 158.471 91.611 158.378 91.7695C158.284 91.9286 158.163 92.0614 158.016 92.1701C157.868 92.2779 157.705 92.3594 157.524 92.413C157.344 92.4673 157.167 92.4945 156.994 92.4945C156.685 92.4945 156.384 92.4273 156.092 92.2945C155.8 92.161 155.56 91.9535 155.373 91.6721L154.517 92.4077ZM135.507 93.273H136.546V86.9795H136.567L140.827 93.273H142.147V85.617H141.108V91.9105H141.087L136.869 85.617H135.507V93.273H135.507ZM117.87 93.273H123.007V92.2998H118.908V89.8449H122.541V88.8717H118.908V86.5902H122.813V85.617H117.87V93.273ZM101.931 93.273H102.904L105.921 85.617H104.785L102.45 91.8456H102.428L100.179 85.617H98.9791L101.931 93.273ZM82.3265 92.2508C81.9726 92.0886 81.6701 91.8705 81.4181 91.5967C81.1654 91.3228 80.9707 90.9999 80.8342 90.6287C80.6969 90.2576 80.6282 89.863 80.6282 89.445C80.6282 89.0271 80.6969 88.6317 80.8342 88.2606C80.9707 87.8894 81.1654 87.5672 81.4181 87.2926C81.6701 87.0188 81.9726 86.8007 82.3265 86.6385C82.6795 86.4763 83.0756 86.3956 83.5154 86.3956C83.9553 86.3956 84.3521 86.4763 84.7052 86.6385C85.0583 86.8007 85.3608 87.0188 85.6135 87.2926C85.8655 87.5672 86.0602 87.8894 86.1975 88.2606C86.334 88.6317 86.4027 89.0271 86.4027 89.445C86.4027 89.863 86.334 90.2576 86.1975 90.6287C86.0602 90.9999 85.8655 91.3228 85.6135 91.5967C85.3608 91.8705 85.0583 92.0886 84.7052 92.2508C84.3521 92.413 83.9553 92.4945 83.5154 92.4945C83.0756 92.4945 82.6788 92.413 82.3265 92.2508ZM85.1269 93.1591C85.6173 92.9539 86.0368 92.671 86.3868 92.3104C86.7361 91.9498 87.01 91.525 87.2084 91.0346C87.4068 90.5442 87.5057 90.0146 87.5057 89.445C87.5057 88.8754 87.4068 88.3458 87.2084 87.8554C87.01 87.365 86.7361 86.9395 86.3868 86.5789C86.0368 86.2191 85.6173 85.9354 85.1269 85.7302C84.6365 85.525 84.0994 85.4224 83.5154 85.4224C82.9315 85.4224 82.3944 85.525 81.9047 85.7302C81.4143 85.9354 80.9941 86.2191 80.6448 86.5789C80.2948 86.9395 80.0209 87.365 79.8225 87.8554C79.6248 88.3458 79.5252 88.8754 79.5252 89.445C79.5252 90.0146 79.6248 90.5442 79.8225 91.0346C80.0209 91.525 80.2948 91.9498 80.6448 92.3104C80.9941 92.671 81.4143 92.9539 81.9047 93.1591C82.3944 93.3651 82.9315 93.4677 83.5154 93.4677C84.0994 93.4677 84.6365 93.3651 85.1269 93.1591ZM63.3591 93.273H67.9114V92.2998H64.3972V85.617H63.3591V93.273ZM45.6895 92.4077C45.949 92.7691 46.2983 93.0346 46.7381 93.2082C47.178 93.3809 47.6427 93.4677 48.1331 93.4677C48.5013 93.4677 48.8468 93.4134 49.1712 93.3055C49.4956 93.1968 49.777 93.0422 50.0146 92.84C50.253 92.6386 50.4424 92.3896 50.5828 92.0939C50.7231 91.7989 50.7932 91.4669 50.7932 91.0995C50.7932 90.6378 50.6997 90.2757 50.5126 90.0124C50.3247 89.7491 50.0924 89.5401 49.8147 89.3854C49.5371 89.23 49.2346 89.1093 48.9064 89.0233C48.5782 88.9365 48.2757 88.8392 47.998 88.7313C47.7204 88.6227 47.488 88.4824 47.3009 88.3096C47.1131 88.1361 47.0195 87.8879 47.0195 87.5635C47.0195 87.448 47.0429 87.322 47.0897 87.1847C47.1365 87.0482 47.218 86.9199 47.3334 86.8007C47.4481 86.6815 47.602 86.5842 47.7928 86.5088C47.9837 86.4333 48.2236 86.3956 48.5118 86.3956C48.8143 86.3956 49.0852 86.4567 49.3228 86.5789C49.5605 86.7019 49.7446 86.8641 49.8743 87.0655L50.7178 86.2983C50.4296 85.9452 50.0939 85.7106 49.7121 85.5951C49.3296 85.4797 48.9298 85.4224 48.5118 85.4224C48.0501 85.4224 47.6555 85.4925 47.3281 85.6329C46.9999 85.7732 46.7313 85.9482 46.5224 86.1572C46.3126 86.3669 46.1602 86.597 46.0629 86.8498C45.9656 87.1017 45.9166 87.3401 45.9166 87.5635C45.9166 88.0606 46.0101 88.4552 46.198 88.7472C46.3851 89.0391 46.6174 89.2715 46.8951 89.445C47.1727 89.6178 47.4752 89.7528 47.8034 89.8502C48.1316 89.9475 48.4341 90.0486 48.7117 90.1527C48.9894 90.2576 49.2217 90.3873 49.4096 90.542C49.5967 90.6974 49.6902 90.923 49.6902 91.218C49.6902 91.4277 49.6435 91.611 49.5499 91.7695C49.4564 91.9286 49.3357 92.0614 49.1878 92.1701C49.0399 92.2779 48.8755 92.3594 48.6959 92.413C48.5156 92.4673 48.339 92.4945 48.1655 92.4945C47.8555 92.4945 47.5552 92.4273 47.2632 92.2945C46.9712 92.161 46.7313 91.9535 46.5435 91.6721L45.6895 92.4077Z" fill="black"/>
<path d="M131.446 44.1467V72.9172H161.445V65.6158H139.7V44.1467H131.446ZM118.344 44.1467V63.3434C118.344 64.0201 118.145 64.5686 117.746 64.9873C117.347 65.4068 116.829 65.6158 116.19 65.6158H99.9618C99.3552 65.6158 98.852 65.3985 98.4537 64.9632C98.0546 64.5279 97.8554 63.9884 97.8554 63.3434V44.1467H89.4298V64.5037C89.4298 66.9541 90.2597 68.9692 91.9195 70.5483C93.5785 72.1281 95.7166 72.9172 98.3337 72.9172H117.913C120.529 72.9172 122.66 72.1364 124.304 70.5724C125.948 69.0092 126.77 66.9866 126.77 64.5037V44.1467H118.344ZM84.7674 44.1467H76.0016V62.8115L55.2335 44.1467H46.0195V72.9172H54.7853V54.3007L75.5535 72.9172H84.7674V44.1467Z" fill="black"/>
<path d="M181.029 61.1142H170.198L175.613 52.1681L181.029 61.1142ZM171.309 44.1416L153.225 72.9121H163.137L166.28 67.6416H184.945L188.135 72.9121H198L179.964 44.1416H171.309Z" fill="black"/>
<path d="M181.03 22.4103H170.199L175.614 13.4642L181.03 22.4103ZM171.31 5.43848L153.226 34.209H163.138L166.281 28.9385H184.946L188.137 34.209H198.001L179.965 5.43848H171.31ZM141.524 34.209H150.034V5.43848H141.524V34.209ZM137.366 26.9075H115.606L136.738 12.0149V5.43848H102.359V12.7399H123.586L101.923 28.0195V34.209H137.366V26.9075ZM89.4109 34.209H97.8606V5.43848H89.4109V34.209ZM77.8061 5.43848L65.7834 26.2791L53.8075 5.43848H44.291L61.6521 34.209H69.9615L87.2758 5.43848H77.8061Z" fill="black"/>
<path d="M97.8417 -0.000488281H89.4102V3.04064H97.8417V-0.000488281Z" fill="black"/>
</svg>
