<svg width="61" height="40" viewBox="0 0 61 40" fill="none" xmlns="http://www.w3.org/2000/svg">
<path fill-rule="evenodd" clip-rule="evenodd" d="M0 14.6642C0 14.2694 0 13.8743 0 13.4795C0.120178 13.0458 0.231854 12.6095 0.362466 12.1789C0.557031 11.5383 0.950412 11.2281 1.62492 11.2243C3.41117 11.2141 5.19742 11.2135 6.98348 11.2247C7.65471 11.2289 8.02606 11.5373 8.23376 12.1906C8.31105 12.4333 8.39259 12.6746 8.50929 13.0291C9.75068 9.61972 10.9382 6.33985 12.1398 3.06498C12.8732 1.06613 14.3397 0.0116494 16.4764 0.00895945C25.8242 -0.0031455 35.1721 -0.00276258 44.5199 0.00876595C46.6576 0.0114559 48.1212 1.06421 48.8599 3.06133C49.4615 4.68839 50.0473 6.32121 50.6411 7.95135C51.2445 9.60761 51.8494 11.2633 52.4984 13.0427C52.6182 12.6544 52.6978 12.3935 52.7792 12.1331C52.9593 11.5579 53.3526 11.2312 53.957 11.227C55.7829 11.2145 57.6087 11.2164 59.4348 11.2258C60.0415 11.2289 60.4424 11.5523 60.6227 12.1222C60.7641 12.5699 60.8754 13.027 61 13.4798C61 13.8747 61 14.2697 61 14.6646C60.9167 14.9647 60.835 15.265 60.7504 15.5646C60.4287 16.704 60.1491 16.9117 58.9386 16.9119C57.4694 16.9123 56.0006 16.9109 54.5316 16.9134C54.3481 16.9136 54.1645 16.9338 53.9703 16.9455C53.9941 17.0495 53.9906 17.0981 54.0136 17.1202C54.0552 17.1603 54.1094 17.1913 54.1632 17.2153C55.4161 17.7731 55.9452 18.7691 55.9448 20.0966C55.9427 26.1574 55.9475 32.2179 55.9409 38.2785C55.9396 39.463 55.4189 39.9801 54.2381 39.9859C52.1539 39.9958 50.0694 39.9957 47.9852 39.9859C46.8025 39.9805 46.2859 39.4634 46.2754 38.2833C46.2637 36.9608 46.2725 35.6379 46.2724 34.3154C46.2724 33.5512 46.2724 32.7871 46.2724 31.9933C35.7359 31.9933 25.2647 31.9933 14.7276 31.9933C14.7276 32.2329 14.7276 32.4449 14.7276 32.6564C14.7275 34.5319 14.735 36.4074 14.7244 38.2827C14.7182 39.401 14.24 39.9636 13.1941 39.978C10.9911 40.0081 8.78693 40.0064 6.58392 39.9784C5.59737 39.9657 5.11821 39.4417 5.05889 38.4568C5.05174 38.3388 5.05599 38.2201 5.05599 38.1013C5.05599 32.1593 5.0558 26.2172 5.05657 20.275C5.05657 20.0974 5.0614 19.9197 5.07242 19.7425C5.14313 18.5989 5.69533 17.7735 6.72767 17.2626C6.83954 17.2072 6.93692 17.1231 7.16858 16.9659C6.85558 16.9396 6.69193 16.9142 6.52789 16.9138C4.93968 16.9107 3.35166 16.9163 1.76365 16.91C0.947321 16.9069 0.565725 16.6148 0.3387 15.8467C0.222966 15.4533 0.112836 15.0585 0 14.6642ZM12.4618 16.9453C24.5334 16.9453 36.5037 16.9453 48.5047 16.9453C48.4703 16.8093 48.4578 16.7322 48.4317 16.6604C47.0782 12.9357 45.7147 9.21449 44.3818 5.48271C44.227 5.04962 43.9662 5.04808 43.6161 5.04827C34.8823 5.05211 26.1485 5.05538 17.4145 5.0402C16.9448 5.03943 16.7216 5.16068 16.5618 5.61625C15.7401 7.96038 14.8811 10.2916 14.0336 12.6267C13.5179 14.0486 12.9992 15.4697 12.4618 16.9453ZM14.6726 20.9444C13.7403 20.9444 12.8081 20.9336 11.8758 20.9471C10.5386 20.9663 9.5592 21.8845 9.53254 23.1237C9.5051 24.3968 10.4526 25.385 11.8233 25.4113C13.7069 25.4476 15.5923 25.4451 17.4759 25.4132C18.8524 25.3896 19.7995 24.4231 19.786 23.1463C19.7724 21.8799 18.7882 20.9622 17.41 20.9463C16.4977 20.9355 15.5851 20.944 14.6726 20.9444ZM46.3543 25.4223C47.2469 25.4223 48.1398 25.4334 49.032 25.4198C50.489 25.3979 51.4831 24.4633 51.468 23.1492C51.4532 21.8649 50.4533 20.9523 49.0316 20.9459C47.2465 20.9378 45.4612 20.9394 43.676 20.9453C42.2147 20.9501 41.2142 21.8642 41.2144 23.1792C41.2146 24.4904 42.2106 25.4032 43.6763 25.4207C44.569 25.4309 45.4618 25.4225 46.3543 25.4223Z" fill="#00703C"/>
</svg>
