<?xml version="1.0" standalone="no"?>
<!DOCTYPE svg PUBLIC "-//W3C//DTD SVG 20010904//EN"
 "http://www.w3.org/TR/2001/REC-SVG-20010904/DTD/svg10.dtd">
<svg version="1.0" xmlns="http://www.w3.org/2000/svg"
 width="204.000000pt" height="204.000000pt" viewBox="0 0 204.000000 204.000000"
 preserveAspectRatio="xMidYMid meet">
<metadata>
Created by potrace 1.14, written by Peter Selinger 2001-2017
</metadata>
<g transform="translate(0.000000,204.000000) scale(0.100000,-0.100000)"
fill="#000000" stroke="none">
<path d="M612 1975 c14 -26 108 -227 108 -232 0 -3 -23 -3 -51 0 l-50 6 21
-32 c12 -18 38 -66 58 -107 31 -67 36 -84 36 -157 1 -46 3 -82 6 -80 3 1 40
19 82 40 91 44 168 78 168 73 0 -2 -30 -23 -67 -47 -177 -114 -352 -279 -506
-481 -69 -90 -187 -263 -187 -274 0 -4 -7 -16 -16 -25 -18 -20 -196 -371 -190
-376 1 -2 49 15 107 36 134 51 288 83 411 84 l97 2 42 120 c37 106 87 225 94
225 1 0 27 -11 58 -25 l55 -25 -39 -99 c-49 -125 -79 -220 -70 -225 5 -3 56
-17 71 -20 22 -5 138 -57 195 -89 91 -51 165 -106 243 -181 35 -34 67 -62 71
-64 4 -1 7 44 7 100 0 109 11 336 18 378 2 14 7 50 11 80 18 153 56 321 96
425 102 267 330 539 511 612 47 19 38 28 -37 37 -27 4 -66 9 -85 11 -97 14
-284 7 -405 -15 -27 -5 -66 -12 -85 -16 -144 -26 -356 68 -567 253 -64 55 -75
56 -48 3 9 -17 13 -30 9 -30 -6 0 -71 45 -143 99 -19 14 -32 22 -29 16z m1118
-360 c17 -9 30 -18 30 -20 0 -3 -31 -20 -68 -39 l-68 -34 -39 18 -40 19 75 35
c41 19 76 35 78 36 2 0 16 -7 32 -15z m-222 -123 l32 -18 -70 -52 c-38 -28
-73 -52 -78 -52 -5 0 -26 8 -46 18 l-38 19 33 24 c76 54 115 79 124 78 6 0 25
-8 43 -17z m-241 -175 l42 -22 -73 -75 -74 -75 -46 20 c-25 11 -46 23 -46 26
0 8 143 149 150 149 3 -1 24 -11 47 -23z m-231 -249 l50 -22 -55 -87 c-31 -48
-60 -95 -66 -103 -9 -15 -15 -15 -62 6 -29 12 -53 27 -53 32 0 12 122 196 130
196 3 0 28 -10 56 -22z"/>
</g>
</svg>
