<svg width="41" height="40" viewBox="0 0 41 40" fill="none" xmlns="http://www.w3.org/2000/svg">
<g clip-path="url(#clip0_2647_9533)">
<path d="M20.5007 3.33398C11.3007 3.33398 3.83398 10.8007 3.83398 20.0007C3.83398 29.2007 11.3007 36.6673 20.5007 36.6673C29.7007 36.6673 37.1673 29.2007 37.1673 20.0007C37.1673 10.8007 29.7007 3.33398 20.5007 3.33398ZM20.5007 28.334C19.584 28.334 18.834 27.584 18.834 26.6673V20.0007C18.834 19.084 19.584 18.334 20.5007 18.334C21.4173 18.334 22.1673 19.084 22.1673 20.0007V26.6673C22.1673 27.584 21.4173 28.334 20.5007 28.334ZM22.1673 15.0007H18.834V11.6673H22.1673V15.0007Z" fill="#0065B3"/>
</g>
<defs>
<clipPath id="clip0_2647_9533">
<rect width="40" height="40" fill="white" transform="translate(0.5)"/>
</clipPath>
</defs>
</svg>
