<svg width="41" height="40" viewBox="0 0 41 40" fill="none" xmlns="http://www.w3.org/2000/svg">
<g clip-path="url(#clip0_2647_17512)">
<path d="M33.834 3.33398H7.16732C5.33398 3.33398 3.85065 4.83398 3.85065 6.66732L3.83398 36.6673L10.5007 30.0007H33.834C35.6673 30.0007 37.1673 28.5007 37.1673 26.6673V6.66732C37.1673 4.83398 35.6673 3.33398 33.834 3.33398ZM28.834 23.334H12.1673C11.2507 23.334 10.5007 22.584 10.5007 21.6673C10.5007 20.7507 11.2507 20.0007 12.1673 20.0007H28.834C29.7507 20.0007 30.5007 20.7507 30.5007 21.6673C30.5007 22.584 29.7507 23.334 28.834 23.334ZM28.834 18.334H12.1673C11.2507 18.334 10.5007 17.584 10.5007 16.6673C10.5007 15.7507 11.2507 15.0007 12.1673 15.0007H28.834C29.7507 15.0007 30.5007 15.7507 30.5007 16.6673C30.5007 17.584 29.7507 18.334 28.834 18.334ZM28.834 13.334H12.1673C11.2507 13.334 10.5007 12.584 10.5007 11.6673C10.5007 10.7507 11.2507 10.0007 12.1673 10.0007H28.834C29.7507 10.0007 30.5007 10.7507 30.5007 11.6673C30.5007 12.584 29.7507 13.334 28.834 13.334Z" fill="#0065B3"/>
</g>
<defs>
<clipPath id="clip0_2647_17512">
<rect width="40" height="40" fill="white" transform="translate(0.5)"/>
</clipPath>
</defs>
</svg>
