<svg width="41" height="40" viewBox="0 0 41 40" fill="none" xmlns="http://www.w3.org/2000/svg">
<g clip-path="url(#clip0_2647_7554)">
<path d="M27.166 18.334C29.9327 18.334 32.1493 16.1007 32.1493 13.334C32.1493 10.5673 29.9327 8.33398 27.166 8.33398C24.3993 8.33398 22.166 10.5673 22.166 13.334C22.166 16.1007 24.3993 18.334 27.166 18.334ZM13.8327 18.334C16.5993 18.334 18.816 16.1007 18.816 13.334C18.816 10.5673 16.5993 8.33398 13.8327 8.33398C11.066 8.33398 8.83268 10.5673 8.83268 13.334C8.83268 16.1007 11.066 18.334 13.8327 18.334ZM13.8327 21.6673C9.94935 21.6673 2.16602 23.6173 2.16602 27.5007V30.0007C2.16602 30.9173 2.91602 31.6673 3.83268 31.6673H23.8327C24.7493 31.6673 25.4993 30.9173 25.4993 30.0007V27.5007C25.4993 23.6173 17.716 21.6673 13.8327 21.6673ZM27.166 21.6673C26.6827 21.6673 26.1327 21.7007 25.5493 21.7507C25.5827 21.7673 25.5993 21.8007 25.616 21.8173C27.516 23.2007 28.8327 25.0506 28.8327 27.5007V30.0007C28.8327 30.584 28.716 31.1507 28.5327 31.6673H37.166C38.0827 31.6673 38.8327 30.9173 38.8327 30.0007V27.5007C38.8327 23.6173 31.0493 21.6673 27.166 21.6673Z" fill="#0065B3"/>
</g>
<defs>
<clipPath id="clip0_2647_7554">
<rect width="40" height="40" fill="white" transform="translate(0.5)"/>
</clipPath>
</defs>
</svg>
