<svg width="41" height="40" viewBox="0 0 41 40" fill="none" xmlns="http://www.w3.org/2000/svg">
<g clip-path="url(#clip0_2647_14738)">
<path d="M20.4993 19.9993C24.1827 19.9993 27.166 17.016 27.166 13.3327C27.166 9.64935 24.1827 6.66602 20.4993 6.66602C16.816 6.66602 13.8327 9.64935 13.8327 13.3327C13.8327 17.016 16.816 19.9993 20.4993 19.9993ZM20.4993 23.3327C16.0493 23.3327 7.16602 25.566 7.16602 29.9993V31.666C7.16602 32.5827 7.91602 33.3327 8.83268 33.3327H32.166C33.0827 33.3327 33.8327 32.5827 33.8327 31.666V29.9993C33.8327 25.566 24.9493 23.3327 20.4993 23.3327Z" fill="#0065B3"/>
</g>
<defs>
<clipPath id="clip0_2647_14738">
<rect width="40" height="40" fill="white" transform="translate(0.5)"/>
</clipPath>
</defs>
</svg>
