<svg width="41" height="40" viewBox="0 0 41 40" fill="none" xmlns="http://www.w3.org/2000/svg">
<g clip-path="url(#clip0_2647_7539)">
<path d="M32.1667 4.99935H25.2C24.5 3.06602 22.6667 1.66602 20.5 1.66602C18.3333 1.66602 16.5 3.06602 15.8 4.99935H8.83333C7 4.99935 5.5 6.49935 5.5 8.33268V31.666C5.5 33.4993 7 34.9993 8.83333 34.9993H32.1667C34 34.9993 35.5 33.4993 35.5 31.666V8.33268C35.5 6.49935 34 4.99935 32.1667 4.99935ZM20.5 4.99935C21.4167 4.99935 22.1667 5.74935 22.1667 6.66602C22.1667 7.58268 21.4167 8.33268 20.5 8.33268C19.5833 8.33268 18.8333 7.58268 18.8333 6.66602C18.8333 5.74935 19.5833 4.99935 20.5 4.99935ZM22.1667 28.3327H13.8333C12.9167 28.3327 12.1667 27.5827 12.1667 26.666C12.1667 25.7493 12.9167 24.9993 13.8333 24.9993H22.1667C23.0833 24.9993 23.8333 25.7493 23.8333 26.666C23.8333 27.5827 23.0833 28.3327 22.1667 28.3327ZM27.1667 21.666H13.8333C12.9167 21.666 12.1667 20.916 12.1667 19.9993C12.1667 19.0827 12.9167 18.3327 13.8333 18.3327H27.1667C28.0833 18.3327 28.8333 19.0827 28.8333 19.9993C28.8333 20.916 28.0833 21.666 27.1667 21.666ZM27.1667 14.9993H13.8333C12.9167 14.9993 12.1667 14.2493 12.1667 13.3327C12.1667 12.416 12.9167 11.666 13.8333 11.666H27.1667C28.0833 11.666 28.8333 12.416 28.8333 13.3327C28.8333 14.2493 28.0833 14.9993 27.1667 14.9993Z" fill="#0065B3"/>
</g>
<defs>
<clipPath id="clip0_2647_7539">
<rect width="40" height="40" fill="white" transform="translate(0.5)"/>
</clipPath>
</defs>
</svg>
